<?xml version="1.0" encoding="UTF-8" standalone="no"?>
<!DOCTYPE svg PUBLIC "-//W3C//DTD SVG 1.1//EN"
 "http://www.w3.org/Graphics/SVG/1.1/DTD/svg11.dtd">
<!-- Generated by graphviz version 2.40.1 (20161225.0304)
 -->
<!-- Title: %3 Pages: 1 -->
<svg width="62pt" height="473pt"
 viewBox="0.00 0.00 62.00 473.00" xmlns="http://www.w3.org/2000/svg" xmlns:xlink="http://www.w3.org/1999/xlink">
<g id="graph0" class="graph" transform="scale(1 1) rotate(0) translate(4 469)">
<title>%3</title>
<polygon fill="#ffffff" stroke="transparent" points="-4,4 -4,-469 58,-469 58,4 -4,4"/>
<!-- fake -->
<g id="node1" class="node">
<title>fake</title>
</g>
<!-- A -->
<g id="node6" class="node">
<title>A</title>
<ellipse fill="none" stroke="#000000" cx="27" cy="-374" rx="27" ry="18"/>
<text text-anchor="middle" x="27" y="-370.3" font-family="Times,serif" font-size="14.00" fill="#000000">A</text>
</g>
<!-- fake&#45;&gt;A -->
<g id="edge1" class="edge">
<title>fake&#45;&gt;A</title>
<path fill="none" stroke="#000000" stroke-width="2" d="M27,-428.9551C27,-420.8828 27,-411.1764 27,-402.1817"/>
<polygon fill="#000000" stroke="#000000" stroke-width="2" points="30.5001,-402.0903 27,-392.0904 23.5001,-402.0904 30.5001,-402.0903"/>
</g>
<!-- D -->
<g id="node2" class="node">
<title>D</title>
<ellipse fill="none" stroke="#000000" cx="27" cy="-113" rx="27" ry="18"/>
<text text-anchor="middle" x="27" y="-109.3" font-family="Times,serif" font-size="14.00" fill="#000000">D</text>
</g>
<!-- E -->
<g id="node5" class="node">
<title>E</title>
<ellipse fill="none" stroke="#000000" cx="27" cy="-22" rx="18" ry="18"/>
<ellipse fill="none" stroke="#000000" cx="27" cy="-22" rx="22" ry="22"/>
<text text-anchor="middle" x="27" y="-18.3" font-family="Times,serif" font-size="14.00" fill="#000000">E</text>
</g>
<!-- D&#45;&gt;E -->
<g id="edge5" class="edge">
<title>D&#45;&gt;E</title>
<path fill="none" stroke="#000000" d="M27,-94.5848C27,-83.1105 27,-68.0231 27,-54.5774"/>
<polygon fill="#000000" stroke="#000000" points="30.5001,-54.2465 27,-44.2465 23.5001,-54.2466 30.5001,-54.2465"/>
<text text-anchor="middle" x="40" y="-65.8" font-family="Times,serif" font-size="14.00" fill="#000000">:Exp</text>
</g>
<!-- B -->
<g id="node3" class="node">
<title>B</title>
<ellipse fill="none" stroke="#000000" cx="27" cy="-287" rx="27" ry="18"/>
<text text-anchor="middle" x="27" y="-283.3" font-family="Times,serif" font-size="14.00" fill="#000000">B</text>
</g>
<!-- C -->
<g id="node4" class="node">
<title>C</title>
<ellipse fill="none" stroke="#000000" cx="27" cy="-200" rx="27" ry="18"/>
<text text-anchor="middle" x="27" y="-196.3" font-family="Times,serif" font-size="14.00" fill="#000000">C</text>
</g>
<!-- B&#45;&gt;C -->
<g id="edge3" class="edge">
<title>B&#45;&gt;C</title>
<path fill="none" stroke="#000000" d="M27,-268.9735C27,-257.1918 27,-241.5607 27,-228.1581"/>
<polygon fill="#000000" stroke="#000000" points="30.5001,-228.0033 27,-218.0034 23.5001,-228.0034 30.5001,-228.0033"/>
<text text-anchor="middle" x="39.5" y="-239.8" font-family="Times,serif" font-size="14.00" fill="#000000">:Var</text>
</g>
<!-- C&#45;&gt;D -->
<g id="edge4" class="edge">
<title>C&#45;&gt;D</title>
<path fill="none" stroke="#000000" d="M27,-181.9735C27,-170.1918 27,-154.5607 27,-141.1581"/>
<polygon fill="#000000" stroke="#000000" points="30.5001,-141.0033 27,-131.0034 23.5001,-141.0034 30.5001,-141.0033"/>
<text text-anchor="middle" x="31.5" y="-152.8" font-family="Times,serif" font-size="14.00" fill="#000000">=</text>
</g>
<!-- A&#45;&gt;B -->
<g id="edge2" class="edge">
<title>A&#45;&gt;B</title>
<path fill="none" stroke="#000000" d="M27,-355.9735C27,-344.1918 27,-328.5607 27,-315.1581"/>
<polygon fill="#000000" stroke="#000000" points="30.5001,-315.0033 27,-305.0034 23.5001,-315.0034 30.5001,-315.0033"/>
<text text-anchor="middle" x="39.5" y="-326.8" font-family="Times,serif" font-size="14.00" fill="#000000">LET</text>
</g>
</g>
</svg>
