<?xml version="1.0" encoding="UTF-8" standalone="no"?>
<!DOCTYPE svg PUBLIC "-//W3C//DTD SVG 1.1//EN"
 "http://www.w3.org/Graphics/SVG/1.1/DTD/svg11.dtd">
<!-- Generated by graphviz version 2.40.1 (20161225.0304)
 -->
<!-- Title: %3 Pages: 1 -->
<svg width="798pt" height="301pt"
 viewBox="0.00 0.00 798.00 300.70" xmlns="http://www.w3.org/2000/svg" xmlns:xlink="http://www.w3.org/1999/xlink">
<g id="graph0" class="graph" transform="scale(1 1) rotate(0) translate(4 296.6967)">
<title>%3</title>
<polygon fill="#ffffff" stroke="transparent" points="-4,4 -4,-296.6967 794,-296.6967 794,4 -4,4"/>
<!-- fake -->
<g id="node1" class="node">
<title>fake</title>
</g>
<!-- A -->
<g id="node15" class="node">
<title>A</title>
<ellipse fill="none" stroke="#000000" cx="389" cy="-201.6967" rx="27" ry="18"/>
<text text-anchor="middle" x="389" y="-197.9967" font-family="Times,serif" font-size="14.00" fill="#000000">A</text>
</g>
<!-- fake&#45;&gt;A -->
<g id="edge1" class="edge">
<title>fake&#45;&gt;A</title>
<path fill="none" stroke="#000000" stroke-width="2" d="M389,-256.6517C389,-248.5795 389,-238.873 389,-229.8784"/>
<polygon fill="#000000" stroke="#000000" stroke-width="2" points="392.5001,-229.787 389,-219.787 385.5001,-229.787 392.5001,-229.787"/>
</g>
<!-- D -->
<g id="node2" class="node">
<title>D</title>
<ellipse fill="none" stroke="#000000" cx="22" cy="-22.8483" rx="18" ry="18"/>
<ellipse fill="none" stroke="#000000" cx="22" cy="-22.8483" rx="22" ry="22"/>
<text text-anchor="middle" x="22" y="-19.1483" font-family="Times,serif" font-size="14.00" fill="#000000">D</text>
</g>
<!-- B -->
<g id="node3" class="node">
<title>B</title>
<ellipse fill="none" stroke="#000000" cx="389" cy="-114.6967" rx="27" ry="18"/>
<text text-anchor="middle" x="389" y="-110.9967" font-family="Times,serif" font-size="14.00" fill="#000000">B</text>
</g>
<!-- B&#45;&gt;D -->
<g id="edge15" class="edge">
<title>B&#45;&gt;D</title>
<path fill="none" stroke="#000000" d="M361.7074,-112.8054C299.9252,-108.274 151.0833,-95.8822 104,-78.6967 82.8393,-70.973 61.8986,-56.5654 46.4756,-44.3187"/>
<polygon fill="#000000" stroke="#000000" points="48.4627,-41.4221 38.5086,-37.7936 44.0273,-46.8376 48.4627,-41.4221"/>
<text text-anchor="middle" x="110.5" y="-67.4967" font-family="Times,serif" font-size="14.00" fill="#000000">:If</text>
</g>
<!-- O -->
<g id="node4" class="node">
<title>O</title>
<ellipse fill="none" stroke="#000000" cx="84" cy="-22.8483" rx="18" ry="18"/>
<ellipse fill="none" stroke="#000000" cx="84" cy="-22.8483" rx="22" ry="22"/>
<text text-anchor="middle" x="84" y="-19.1483" font-family="Times,serif" font-size="14.00" fill="#000000">O</text>
</g>
<!-- B&#45;&gt;O -->
<g id="edge7" class="edge">
<title>B&#45;&gt;O</title>
<path fill="none" stroke="#000000" d="M361.7964,-112.8344C305.9361,-108.6724 180.3307,-97.4787 142,-78.6967 127.4545,-71.5694 114.1936,-59.452 104.0345,-48.3222"/>
<polygon fill="#000000" stroke="#000000" points="106.4151,-45.726 97.2113,-40.478 101.1335,-50.3201 106.4151,-45.726"/>
<text text-anchor="middle" x="157.5" y="-67.4967" font-family="Times,serif" font-size="14.00" fill="#000000">:Goto</text>
</g>
<!-- J -->
<g id="node5" class="node">
<title>J</title>
<ellipse fill="none" stroke="#000000" cx="146" cy="-22.8483" rx="18" ry="18"/>
<ellipse fill="none" stroke="#000000" cx="146" cy="-22.8483" rx="22" ry="22"/>
<text text-anchor="middle" x="146" y="-19.1483" font-family="Times,serif" font-size="14.00" fill="#000000">J</text>
</g>
<!-- B&#45;&gt;J -->
<g id="edge8" class="edge">
<title>B&#45;&gt;J</title>
<path fill="none" stroke="#000000" d="M362.0287,-111.8354C315.8903,-106.5863 224.0718,-94.4912 196,-78.6967 183.5602,-71.6974 172.6019,-60.4443 164.139,-49.867"/>
<polygon fill="#000000" stroke="#000000" points="166.7291,-47.4893 157.9063,-41.6233 161.1453,-51.7109 166.7291,-47.4893"/>
<text text-anchor="middle" x="216.5" y="-67.4967" font-family="Times,serif" font-size="14.00" fill="#000000">:Return</text>
</g>
<!-- C -->
<g id="node6" class="node">
<title>C</title>
<ellipse fill="none" stroke="#000000" cx="208" cy="-22.8483" rx="18" ry="18"/>
<ellipse fill="none" stroke="#000000" cx="208" cy="-22.8483" rx="22" ry="22"/>
<text text-anchor="middle" x="208" y="-19.1483" font-family="Times,serif" font-size="14.00" fill="#000000">C</text>
</g>
<!-- B&#45;&gt;C -->
<g id="edge14" class="edge">
<title>B&#45;&gt;C</title>
<path fill="none" stroke="#000000" d="M362.1241,-111.8358C334.3165,-107.8845 290.4866,-98.8112 258,-78.6967 245.8643,-71.1826 234.9494,-59.8558 226.4369,-49.3625"/>
<polygon fill="#000000" stroke="#000000" points="229.0286,-46.992 220.1477,-41.2145 223.4874,-51.2692 229.0286,-46.992"/>
<text text-anchor="middle" x="279" y="-67.4967" font-family="Times,serif" font-size="14.00" fill="#000000">:Assign</text>
</g>
<!-- H -->
<g id="node7" class="node">
<title>H</title>
<ellipse fill="none" stroke="#000000" cx="270" cy="-22.8483" rx="18" ry="18"/>
<ellipse fill="none" stroke="#000000" cx="270" cy="-22.8483" rx="22" ry="22"/>
<text text-anchor="middle" x="270" y="-19.1483" font-family="Times,serif" font-size="14.00" fill="#000000">H</text>
</g>
<!-- B&#45;&gt;H -->
<g id="edge5" class="edge">
<title>B&#45;&gt;H</title>
<path fill="none" stroke="#000000" d="M365.6484,-105.3529C351.3858,-99.021 333.2193,-89.7966 319,-78.6967 308.0086,-70.1165 297.5626,-58.8242 289.1613,-48.6401"/>
<polygon fill="#000000" stroke="#000000" points="291.8641,-46.4159 282.8905,-40.7834 286.3931,-50.7825 291.8641,-46.4159"/>
<text text-anchor="middle" x="331.5" y="-67.4967" font-family="Times,serif" font-size="14.00" fill="#000000">:Def</text>
</g>
<!-- F -->
<g id="node8" class="node">
<title>F</title>
<ellipse fill="none" stroke="#000000" cx="332" cy="-22.8483" rx="18" ry="18"/>
<ellipse fill="none" stroke="#000000" cx="332" cy="-22.8483" rx="22" ry="22"/>
<text text-anchor="middle" x="332" y="-19.1483" font-family="Times,serif" font-size="14.00" fill="#000000">F</text>
</g>
<!-- B&#45;&gt;F -->
<g id="edge13" class="edge">
<title>B&#45;&gt;F</title>
<path fill="none" stroke="#000000" d="M372.7548,-99.9845C366.6255,-93.8377 359.9462,-86.3501 355,-78.6967 350.0092,-70.9742 345.7389,-61.9895 342.281,-53.5135"/>
<polygon fill="#000000" stroke="#000000" points="345.4455,-51.9899 338.6005,-43.903 338.9084,-54.4934 345.4455,-51.9899"/>
<text text-anchor="middle" x="370.5" y="-67.4967" font-family="Times,serif" font-size="14.00" fill="#000000">:Next</text>
</g>
<!-- I -->
<g id="node9" class="node">
<title>I</title>
<ellipse fill="none" stroke="#000000" cx="394" cy="-22.8483" rx="18" ry="18"/>
<ellipse fill="none" stroke="#000000" cx="394" cy="-22.8483" rx="22" ry="22"/>
<text text-anchor="middle" x="394" y="-19.1483" font-family="Times,serif" font-size="14.00" fill="#000000">I</text>
</g>
<!-- B&#45;&gt;I -->
<g id="edge11" class="edge">
<title>B&#45;&gt;I</title>
<path fill="none" stroke="#000000" d="M389.0149,-96.2703C389.1104,-86.5705 389.3671,-74.4823 390,-63.6967 390.1683,-60.8291 390.3827,-57.8517 390.6246,-54.8702"/>
<polygon fill="#000000" stroke="#000000" points="394.114,-55.145 391.5258,-44.8711 387.1422,-54.5166 394.114,-55.145"/>
<text text-anchor="middle" x="410" y="-67.4967" font-family="Times,serif" font-size="14.00" fill="#000000">:Gosub</text>
</g>
<!-- K -->
<g id="node10" class="node">
<title>K</title>
<ellipse fill="none" stroke="#000000" cx="456" cy="-22.8483" rx="18" ry="18"/>
<ellipse fill="none" stroke="#000000" cx="456" cy="-22.8483" rx="22" ry="22"/>
<text text-anchor="middle" x="456" y="-19.1483" font-family="Times,serif" font-size="14.00" fill="#000000">K</text>
</g>
<!-- B&#45;&gt;K -->
<g id="edge3" class="edge">
<title>B&#45;&gt;K</title>
<path fill="none" stroke="#000000" d="M407.2857,-101.3988C414.9961,-95.1394 423.6389,-87.1874 430,-78.6967 435.8394,-70.9022 440.8144,-61.5863 444.801,-52.8177"/>
<polygon fill="#000000" stroke="#000000" points="448.0222,-54.1864 448.7331,-43.6154 441.5852,-51.4358 448.0222,-54.1864"/>
<text text-anchor="middle" x="464" y="-67.4967" font-family="Times,serif" font-size="14.00" fill="#000000">:Remark</text>
</g>
<!-- N -->
<g id="node11" class="node">
<title>N</title>
<ellipse fill="none" stroke="#000000" cx="518" cy="-22.8483" rx="18" ry="18"/>
<ellipse fill="none" stroke="#000000" cx="518" cy="-22.8483" rx="22" ry="22"/>
<text text-anchor="middle" x="518" y="-19.1483" font-family="Times,serif" font-size="14.00" fill="#000000">N</text>
</g>
<!-- B&#45;&gt;N -->
<g id="edge12" class="edge">
<title>B&#45;&gt;N</title>
<path fill="none" stroke="#000000" d="M415.6163,-111.2667C438.3443,-107.0875 470.6534,-98.019 492,-78.6967 499.3952,-72.0027 504.8529,-62.7736 508.8033,-53.745"/>
<polygon fill="#000000" stroke="#000000" points="512.1693,-54.7452 512.5187,-44.1561 505.6421,-52.2161 512.1693,-54.7452"/>
<text text-anchor="middle" x="519.5" y="-67.4967" font-family="Times,serif" font-size="14.00" fill="#000000">:Print</text>
</g>
<!-- E -->
<g id="node12" class="node">
<title>E</title>
<ellipse fill="none" stroke="#000000" cx="580" cy="-22.8483" rx="18" ry="18"/>
<ellipse fill="none" stroke="#000000" cx="580" cy="-22.8483" rx="22" ry="22"/>
<text text-anchor="middle" x="580" y="-19.1483" font-family="Times,serif" font-size="14.00" fill="#000000">E</text>
</g>
<!-- B&#45;&gt;E -->
<g id="edge9" class="edge">
<title>B&#45;&gt;E</title>
<path fill="none" stroke="#000000" d="M415.5034,-110.5893C452.923,-104.4155 518.9255,-92.0372 539,-78.6967 549.3825,-71.7969 558.0783,-61.3303 564.7514,-51.3157"/>
<polygon fill="#000000" stroke="#000000" points="567.78,-53.0732 570.0865,-42.7324 561.8349,-49.3778 567.78,-53.0732"/>
<text text-anchor="middle" x="566.5" y="-67.4967" font-family="Times,serif" font-size="14.00" fill="#000000">:For</text>
</g>
<!-- G -->
<g id="node13" class="node">
<title>G</title>
<ellipse fill="none" stroke="#000000" cx="642" cy="-22.8483" rx="18" ry="18"/>
<ellipse fill="none" stroke="#000000" cx="642" cy="-22.8483" rx="22" ry="22"/>
<text text-anchor="middle" x="642" y="-19.1483" font-family="Times,serif" font-size="14.00" fill="#000000">G</text>
</g>
<!-- B&#45;&gt;G -->
<g id="edge4" class="edge">
<title>B&#45;&gt;G</title>
<path fill="none" stroke="#000000" d="M415.8297,-111.5696C461.7488,-105.9092 553.2387,-93.1978 582,-78.6967 596.8673,-71.2007 610.6776,-58.8911 621.2917,-47.7335"/>
<polygon fill="#000000" stroke="#000000" points="623.9495,-50.0132 628.1029,-40.2664 618.7779,-45.2958 623.9495,-50.0132"/>
<text text-anchor="middle" x="619.5" y="-67.4967" font-family="Times,serif" font-size="14.00" fill="#000000">:Dim</text>
</g>
<!-- M -->
<g id="node14" class="node">
<title>M</title>
<ellipse fill="none" stroke="#000000" cx="705" cy="-22.8483" rx="18.724" ry="18.724"/>
<ellipse fill="none" stroke="#000000" cx="705" cy="-22.8483" rx="22.6977" ry="22.6977"/>
<text text-anchor="middle" x="705" y="-19.1483" font-family="Times,serif" font-size="14.00" fill="#000000">M</text>
</g>
<!-- B&#45;&gt;M -->
<g id="edge10" class="edge">
<title>B&#45;&gt;M</title>
<path fill="none" stroke="#000000" d="M415.8933,-112.6666C471.7922,-108.1477 598.6025,-96.254 638,-78.6967 654.5657,-71.3142 670.2956,-58.6158 682.346,-47.1913"/>
<polygon fill="#000000" stroke="#000000" points="685.0411,-49.4492 689.7053,-39.9363 680.1268,-44.4642 685.0411,-49.4492"/>
<text text-anchor="middle" x="678" y="-67.4967" font-family="Times,serif" font-size="14.00" fill="#000000">:Data</text>
</g>
<!-- L -->
<g id="node16" class="node">
<title>L</title>
<ellipse fill="none" stroke="#000000" cx="768" cy="-22.8483" rx="18" ry="18"/>
<ellipse fill="none" stroke="#000000" cx="768" cy="-22.8483" rx="22" ry="22"/>
<text text-anchor="middle" x="768" y="-19.1483" font-family="Times,serif" font-size="14.00" fill="#000000">L</text>
</g>
<!-- B&#45;&gt;L -->
<g id="edge6" class="edge">
<title>B&#45;&gt;L</title>
<path fill="none" stroke="#000000" d="M416.159,-113.4123C481.6063,-110.0168 646.3649,-99.5954 697,-78.6967 715.0075,-71.2644 732.2562,-57.8955 745.2427,-46.1011"/>
<polygon fill="#000000" stroke="#000000" points="747.8704,-48.4341 752.7466,-39.028 743.069,-43.3403 747.8704,-48.4341"/>
<text text-anchor="middle" x="738" y="-67.4967" font-family="Times,serif" font-size="14.00" fill="#000000">:Read</text>
</g>
<!-- A&#45;&gt;B -->
<g id="edge2" class="edge">
<title>A&#45;&gt;B</title>
<path fill="none" stroke="#000000" d="M389,-183.6702C389,-171.8884 389,-156.2573 389,-142.8547"/>
<polygon fill="#000000" stroke="#000000" points="392.5001,-142.7 389,-132.7 385.5001,-142.7001 392.5001,-142.7"/>
<text text-anchor="middle" x="398.5" y="-154.4967" font-family="Times,serif" font-size="14.00" fill="#000000">:Int</text>
</g>
</g>
</svg>
