<?xml version="1.0" encoding="UTF-8" standalone="no"?>
<!DOCTYPE svg PUBLIC "-//W3C//DTD SVG 1.1//EN"
 "http://www.w3.org/Graphics/SVG/1.1/DTD/svg11.dtd">
<!-- Generated by graphviz version 2.40.1 (20161225.0304)
 -->
<!-- Title: %3 Pages: 1 -->
<svg width="176pt" height="212pt"
 viewBox="0.00 0.00 176.00 212.00" xmlns="http://www.w3.org/2000/svg" xmlns:xlink="http://www.w3.org/1999/xlink">
<g id="graph0" class="graph" transform="scale(1 1) rotate(0) translate(4 208)">
<title>%3</title>
<polygon fill="#ffffff" stroke="transparent" points="-4,4 -4,-208 172,-208 172,4 -4,4"/>
<!-- fake -->
<g id="node1" class="node">
<title>fake</title>
</g>
<!-- A -->
<g id="node3" class="node">
<title>A</title>
<ellipse fill="none" stroke="#000000" cx="84" cy="-113" rx="27" ry="18"/>
<text text-anchor="middle" x="84" y="-109.3" font-family="Times,serif" font-size="14.00" fill="#000000">A</text>
</g>
<!-- fake&#45;&gt;A -->
<g id="edge1" class="edge">
<title>fake&#45;&gt;A</title>
<path fill="none" stroke="#000000" stroke-width="2" d="M84,-167.9551C84,-159.8828 84,-150.1764 84,-141.1817"/>
<polygon fill="#000000" stroke="#000000" stroke-width="2" points="87.5001,-141.0903 84,-131.0904 80.5001,-141.0904 87.5001,-141.0903"/>
</g>
<!-- D -->
<g id="node2" class="node">
<title>D</title>
<ellipse fill="none" stroke="#000000" cx="22" cy="-22" rx="18" ry="18"/>
<ellipse fill="none" stroke="#000000" cx="22" cy="-22" rx="22" ry="22"/>
<text text-anchor="middle" x="22" y="-18.3" font-family="Times,serif" font-size="14.00" fill="#000000">D</text>
</g>
<!-- A&#45;&gt;D -->
<g id="edge2" class="edge">
<title>A&#45;&gt;D</title>
<path fill="none" stroke="#000000" d="M64.894,-100.0375C56.9261,-93.8402 48.1218,-85.8441 42,-77 37.0666,-69.8728 33.2002,-61.3878 30.2375,-53.2415"/>
<polygon fill="#000000" stroke="#000000" points="33.511,-51.992 27.0609,-43.5868 26.8617,-54.1798 33.511,-51.992"/>
<text text-anchor="middle" x="61" y="-65.8" font-family="Times,serif" font-size="14.00" fill="#000000">special</text>
</g>
<!-- C -->
<g id="node4" class="node">
<title>C</title>
<ellipse fill="none" stroke="#000000" cx="84" cy="-22" rx="18" ry="18"/>
<ellipse fill="none" stroke="#000000" cx="84" cy="-22" rx="22" ry="22"/>
<text text-anchor="middle" x="84" y="-18.3" font-family="Times,serif" font-size="14.00" fill="#000000">C</text>
</g>
<!-- A&#45;&gt;C -->
<g id="edge3" class="edge">
<title>A&#45;&gt;C</title>
<path fill="none" stroke="#000000" d="M84,-94.5848C84,-83.1105 84,-68.0231 84,-54.5774"/>
<polygon fill="#000000" stroke="#000000" points="87.5001,-54.2465 84,-44.2465 80.5001,-54.2466 87.5001,-54.2465"/>
<text text-anchor="middle" x="96.5" y="-65.8" font-family="Times,serif" font-size="14.00" fill="#000000">digit</text>
</g>
<!-- B -->
<g id="node5" class="node">
<title>B</title>
<ellipse fill="none" stroke="#000000" cx="146" cy="-22" rx="18" ry="18"/>
<ellipse fill="none" stroke="#000000" cx="146" cy="-22" rx="22" ry="22"/>
<text text-anchor="middle" x="146" y="-18.3" font-family="Times,serif" font-size="14.00" fill="#000000">B</text>
</g>
<!-- A&#45;&gt;B -->
<g id="edge4" class="edge">
<title>A&#45;&gt;B</title>
<path fill="none" stroke="#000000" d="M97.4786,-97.236C102.5417,-91.0696 108.2235,-83.8448 113,-77 118.9593,-68.4603 124.9683,-58.8204 130.1955,-50.0236"/>
<polygon fill="#000000" stroke="#000000" points="133.3028,-51.6432 135.325,-41.2431 127.2586,-48.1122 133.3028,-51.6432"/>
<text text-anchor="middle" x="136" y="-65.8" font-family="Times,serif" font-size="14.00" fill="#000000">letter</text>
</g>
</g>
</svg>
