<?xml version="1.0" encoding="UTF-8" standalone="no"?>
<!DOCTYPE svg PUBLIC "-//W3C//DTD SVG 1.1//EN"
 "http://www.w3.org/Graphics/SVG/1.1/DTD/svg11.dtd">
<!-- Generated by graphviz version 2.40.1 (20161225.0304)
 -->
<!-- Title: %3 Pages: 1 -->
<svg width="76pt" height="481pt"
 viewBox="0.00 0.00 76.33 481.00" xmlns="http://www.w3.org/2000/svg" xmlns:xlink="http://www.w3.org/1999/xlink">
<g id="graph0" class="graph" transform="scale(1 1) rotate(0) translate(4 477)">
<title>%3</title>
<polygon fill="#ffffff" stroke="transparent" points="-4,4 -4,-477 72.3334,-477 72.3334,4 -4,4"/>
<!-- fake -->
<g id="node1" class="node">
<title>fake</title>
</g>
<!-- A -->
<g id="node6" class="node">
<title>A</title>
<ellipse fill="none" stroke="#000000" cx="30.3334" cy="-382" rx="27" ry="18"/>
<text text-anchor="middle" x="30.3334" y="-378.3" font-family="Times,serif" font-size="14.00" fill="#000000">A</text>
</g>
<!-- fake&#45;&gt;A -->
<g id="edge1" class="edge">
<title>fake&#45;&gt;A</title>
<path fill="none" stroke="#000000" stroke-width="2" d="M30.3334,-436.9551C30.3334,-428.8828 30.3334,-419.1764 30.3334,-410.1817"/>
<polygon fill="#000000" stroke="#000000" stroke-width="2" points="33.8335,-410.0903 30.3334,-400.0904 26.8335,-410.0904 33.8335,-410.0903"/>
</g>
<!-- D -->
<g id="node2" class="node">
<title>D</title>
<ellipse fill="none" stroke="#000000" cx="30.3334" cy="-22" rx="18" ry="18"/>
<ellipse fill="none" stroke="#000000" cx="30.3334" cy="-22" rx="22" ry="22"/>
<text text-anchor="middle" x="30.3334" y="-18.3" font-family="Times,serif" font-size="14.00" fill="#000000">D</text>
</g>
<!-- E -->
<g id="node5" class="node">
<title>E</title>
<ellipse fill="none" stroke="#000000" cx="30.3334" cy="-113" rx="27" ry="18"/>
<text text-anchor="middle" x="30.3334" y="-109.3" font-family="Times,serif" font-size="14.00" fill="#000000">E</text>
</g>
<!-- D&#45;&gt;E -->
<g id="edge6" class="edge">
<title>D&#45;&gt;E</title>
<path fill="none" stroke="#000000" d="M35.9901,-43.3733C38.0267,-53.5381 39.5548,-65.8739 38.3334,-77 38.0358,-79.7108 37.6158,-82.5161 37.1224,-85.3094"/>
<polygon fill="#000000" stroke="#000000" points="33.6777,-84.6849 35.1008,-95.1838 40.5354,-86.089 33.6777,-84.6849"/>
<text text-anchor="middle" x="40.3334" y="-65.8" font-family="Times,serif" font-size="14.00" fill="#000000">,</text>
</g>
<!-- B -->
<g id="node3" class="node">
<title>B</title>
<ellipse fill="none" stroke="#000000" cx="30.3334" cy="-295" rx="27" ry="18"/>
<text text-anchor="middle" x="30.3334" y="-291.3" font-family="Times,serif" font-size="14.00" fill="#000000">B</text>
</g>
<!-- C -->
<g id="node4" class="node">
<title>C</title>
<ellipse fill="none" stroke="#000000" cx="30.3334" cy="-204" rx="18" ry="18"/>
<ellipse fill="none" stroke="#000000" cx="30.3334" cy="-204" rx="22" ry="22"/>
<text text-anchor="middle" x="30.3334" y="-200.3" font-family="Times,serif" font-size="14.00" fill="#000000">C</text>
</g>
<!-- B&#45;&gt;C -->
<g id="edge3" class="edge">
<title>B&#45;&gt;C</title>
<path fill="none" stroke="#000000" d="M30.3334,-276.5848C30.3334,-265.1105 30.3334,-250.0231 30.3334,-236.5774"/>
<polygon fill="#000000" stroke="#000000" points="33.8335,-236.2465 30.3334,-226.2465 26.8335,-236.2466 33.8335,-236.2465"/>
<text text-anchor="middle" x="48.8334" y="-247.8" font-family="Times,serif" font-size="14.00" fill="#000000">:Snum</text>
</g>
<!-- C&#45;&gt;E -->
<g id="edge4" class="edge">
<title>C&#45;&gt;E</title>
<path fill="none" stroke="#000000" d="M30.3334,-181.9714C30.3334,-169.8075 30.3334,-154.5615 30.3334,-141.499"/>
<polygon fill="#000000" stroke="#000000" points="33.8335,-141.1556 30.3334,-131.1556 26.8335,-141.1556 33.8335,-141.1556"/>
<text text-anchor="middle" x="32.3334" y="-152.8" font-family="Times,serif" font-size="14.00" fill="#000000">,</text>
</g>
<!-- E&#45;&gt;D -->
<g id="edge5" class="edge">
<title>E&#45;&gt;D</title>
<path fill="none" stroke="#000000" d="M13.983,-98.1372C5.2653,-88.3475 -2.8777,-74.9827 1.3334,-62 3.0867,-56.5946 5.8747,-51.3081 9.0445,-46.4409"/>
<polygon fill="#000000" stroke="#000000" points="11.9848,-48.3481 15.0213,-38.1977 6.3177,-44.2391 11.9848,-48.3481"/>
<text text-anchor="middle" x="19.8334" y="-65.8" font-family="Times,serif" font-size="14.00" fill="#000000">:Snum</text>
</g>
<!-- A&#45;&gt;B -->
<g id="edge2" class="edge">
<title>A&#45;&gt;B</title>
<path fill="none" stroke="#000000" d="M30.3334,-363.9735C30.3334,-352.1918 30.3334,-336.5607 30.3334,-323.1581"/>
<polygon fill="#000000" stroke="#000000" points="33.8335,-323.0033 30.3334,-313.0034 26.8335,-323.0034 33.8335,-323.0033"/>
<text text-anchor="middle" x="49.3334" y="-334.8" font-family="Times,serif" font-size="14.00" fill="#000000">DATA</text>
</g>
</g>
</svg>
