<?xml version="1.0" encoding="UTF-8" standalone="no"?>
<!DOCTYPE svg PUBLIC "-//W3C//DTD SVG 1.1//EN"
 "http://www.w3.org/Graphics/SVG/1.1/DTD/svg11.dtd">
<!-- Generated by graphviz version 2.40.1 (20161225.0304)
 -->
<!-- Title: %3 Pages: 1 -->
<svg width="124pt" height="821pt"
 viewBox="0.00 0.00 124.00 821.00" xmlns="http://www.w3.org/2000/svg" xmlns:xlink="http://www.w3.org/1999/xlink">
<g id="graph0" class="graph" transform="scale(1 1) rotate(0) translate(4 817)">
<title>%3</title>
<polygon fill="#ffffff" stroke="transparent" points="-4,4 -4,-817 120,-817 120,4 -4,4"/>
<!-- fake -->
<g id="node1" class="node">
<title>fake</title>
</g>
<!-- A -->
<g id="node10" class="node">
<title>A</title>
<ellipse fill="none" stroke="#000000" cx="69" cy="-722" rx="27" ry="18"/>
<text text-anchor="middle" x="69" y="-718.3" font-family="Times,serif" font-size="14.00" fill="#000000">A</text>
</g>
<!-- fake&#45;&gt;A -->
<g id="edge1" class="edge">
<title>fake&#45;&gt;A</title>
<path fill="none" stroke="#000000" stroke-width="2" d="M69,-776.9551C69,-768.8828 69,-759.1764 69,-750.1817"/>
<polygon fill="#000000" stroke="#000000" stroke-width="2" points="72.5001,-750.0903 69,-740.0904 65.5001,-750.0904 72.5001,-750.0903"/>
</g>
<!-- D -->
<g id="node2" class="node">
<title>D</title>
<ellipse fill="none" stroke="#000000" cx="69" cy="-461" rx="27" ry="18"/>
<text text-anchor="middle" x="69" y="-457.3" font-family="Times,serif" font-size="14.00" fill="#000000">D</text>
</g>
<!-- E -->
<g id="node8" class="node">
<title>E</title>
<ellipse fill="none" stroke="#000000" cx="69" cy="-374" rx="27" ry="18"/>
<text text-anchor="middle" x="69" y="-370.3" font-family="Times,serif" font-size="14.00" fill="#000000">E</text>
</g>
<!-- D&#45;&gt;E -->
<g id="edge5" class="edge">
<title>D&#45;&gt;E</title>
<path fill="none" stroke="#000000" d="M69,-442.9735C69,-431.1918 69,-415.5607 69,-402.1581"/>
<polygon fill="#000000" stroke="#000000" points="72.5001,-402.0033 69,-392.0034 65.5001,-402.0034 72.5001,-402.0033"/>
<text text-anchor="middle" x="83" y="-413.8" font-family="Times,serif" font-size="14.00" fill="#000000">letter</text>
</g>
<!-- B -->
<g id="node3" class="node">
<title>B</title>
<ellipse fill="none" stroke="#000000" cx="69" cy="-635" rx="27" ry="18"/>
<text text-anchor="middle" x="69" y="-631.3" font-family="Times,serif" font-size="14.00" fill="#000000">B</text>
</g>
<!-- C -->
<g id="node4" class="node">
<title>C</title>
<ellipse fill="none" stroke="#000000" cx="69" cy="-548" rx="27" ry="18"/>
<text text-anchor="middle" x="69" y="-544.3" font-family="Times,serif" font-size="14.00" fill="#000000">C</text>
</g>
<!-- B&#45;&gt;C -->
<g id="edge3" class="edge">
<title>B&#45;&gt;C</title>
<path fill="none" stroke="#000000" d="M69,-616.9735C69,-605.1918 69,-589.5607 69,-576.1581"/>
<polygon fill="#000000" stroke="#000000" points="72.5001,-576.0033 69,-566.0034 65.5001,-576.0034 72.5001,-576.0033"/>
<text text-anchor="middle" x="83" y="-587.8" font-family="Times,serif" font-size="14.00" fill="#000000">letter</text>
</g>
<!-- C&#45;&gt;D -->
<g id="edge4" class="edge">
<title>C&#45;&gt;D</title>
<path fill="none" stroke="#000000" d="M69,-529.9735C69,-518.1918 69,-502.5607 69,-489.1581"/>
<polygon fill="#000000" stroke="#000000" points="72.5001,-489.0033 69,-479.0034 65.5001,-489.0034 72.5001,-489.0033"/>
<text text-anchor="middle" x="71.5" y="-500.8" font-family="Times,serif" font-size="14.00" fill="#000000">(</text>
</g>
<!-- I -->
<g id="node5" class="node">
<title>I</title>
<ellipse fill="none" stroke="#000000" cx="59" cy="-22" rx="18" ry="18"/>
<ellipse fill="none" stroke="#000000" cx="59" cy="-22" rx="22" ry="22"/>
<text text-anchor="middle" x="59" y="-18.3" font-family="Times,serif" font-size="14.00" fill="#000000">I</text>
</g>
<!-- F -->
<g id="node6" class="node">
<title>F</title>
<ellipse fill="none" stroke="#000000" cx="27" cy="-287" rx="27" ry="18"/>
<text text-anchor="middle" x="27" y="-283.3" font-family="Times,serif" font-size="14.00" fill="#000000">F</text>
</g>
<!-- G -->
<g id="node9" class="node">
<title>G</title>
<ellipse fill="none" stroke="#000000" cx="59" cy="-200" rx="27" ry="18"/>
<text text-anchor="middle" x="59" y="-196.3" font-family="Times,serif" font-size="14.00" fill="#000000">G</text>
</g>
<!-- F&#45;&gt;G -->
<g id="edge9" class="edge">
<title>F&#45;&gt;G</title>
<path fill="none" stroke="#000000" d="M33.4757,-269.3943C37.9432,-257.2482 43.9683,-240.8674 49.0428,-227.0711"/>
<polygon fill="#000000" stroke="#000000" points="52.3667,-228.1731 52.534,-217.5796 45.797,-225.7566 52.3667,-228.1731"/>
<text text-anchor="middle" x="47.5" y="-239.8" font-family="Times,serif" font-size="14.00" fill="#000000">)</text>
</g>
<!-- H -->
<g id="node7" class="node">
<title>H</title>
<ellipse fill="none" stroke="#000000" cx="59" cy="-113" rx="27" ry="18"/>
<text text-anchor="middle" x="59" y="-109.3" font-family="Times,serif" font-size="14.00" fill="#000000">H</text>
</g>
<!-- H&#45;&gt;I -->
<g id="edge10" class="edge">
<title>H&#45;&gt;I</title>
<path fill="none" stroke="#000000" d="M59,-94.5848C59,-83.1105 59,-68.0231 59,-54.5774"/>
<polygon fill="#000000" stroke="#000000" points="62.5001,-54.2465 59,-44.2465 55.5001,-54.2466 62.5001,-54.2465"/>
<text text-anchor="middle" x="72" y="-65.8" font-family="Times,serif" font-size="14.00" fill="#000000">:Exp</text>
</g>
<!-- E&#45;&gt;F -->
<g id="edge7" class="edge">
<title>E&#45;&gt;F</title>
<path fill="none" stroke="#000000" d="M60.31,-356.8283C57.3278,-350.8806 53.9894,-344.161 51,-338 47.1734,-330.1136 43.0863,-321.5019 39.3894,-313.638"/>
<polygon fill="#000000" stroke="#000000" points="42.5281,-312.0875 35.1173,-304.5159 36.1888,-315.0564 42.5281,-312.0875"/>
<text text-anchor="middle" x="63.5" y="-326.8" font-family="Times,serif" font-size="14.00" fill="#000000">digit</text>
</g>
<!-- E&#45;&gt;G -->
<g id="edge6" class="edge">
<title>E&#45;&gt;G</title>
<path fill="none" stroke="#000000" d="M73.1724,-356.1538C74.33,-350.3937 75.4262,-343.9575 76,-338 79.694,-299.6487 72.1735,-255.4761 65.9865,-227.649"/>
<polygon fill="#000000" stroke="#000000" points="69.3779,-226.7798 63.7068,-217.8305 62.5593,-228.3631 69.3779,-226.7798"/>
<text text-anchor="middle" x="78.5" y="-283.3" font-family="Times,serif" font-size="14.00" fill="#000000">)</text>
</g>
<!-- G&#45;&gt;H -->
<g id="edge8" class="edge">
<title>G&#45;&gt;H</title>
<path fill="none" stroke="#000000" d="M59,-181.9735C59,-170.1918 59,-154.5607 59,-141.1581"/>
<polygon fill="#000000" stroke="#000000" points="62.5001,-141.0033 59,-131.0034 55.5001,-141.0034 62.5001,-141.0033"/>
<text text-anchor="middle" x="63.5" y="-152.8" font-family="Times,serif" font-size="14.00" fill="#000000">=</text>
</g>
<!-- A&#45;&gt;B -->
<g id="edge2" class="edge">
<title>A&#45;&gt;B</title>
<path fill="none" stroke="#000000" d="M69,-703.9735C69,-692.1918 69,-676.5607 69,-663.1581"/>
<polygon fill="#000000" stroke="#000000" points="72.5001,-663.0033 69,-653.0034 65.5001,-663.0034 72.5001,-663.0033"/>
<text text-anchor="middle" x="92.5" y="-674.8" font-family="Times,serif" font-size="14.00" fill="#000000">DEF FN</text>
</g>
</g>
</svg>
