<?xml version="1.0" encoding="UTF-8" standalone="no"?>
<!DOCTYPE svg PUBLIC "-//W3C//DTD SVG 1.1//EN"
 "http://www.w3.org/Graphics/SVG/1.1/DTD/svg11.dtd">
<!-- Generated by graphviz version 2.40.1 (20161225.0304)
 -->
<!-- Title: %3 Pages: 1 -->
<svg width="168pt" height="1351pt"
 viewBox="0.00 0.00 167.58 1351.00" xmlns="http://www.w3.org/2000/svg" xmlns:xlink="http://www.w3.org/1999/xlink">
<g id="graph0" class="graph" transform="scale(1 1) rotate(0) translate(4 1347)">
<title>%3</title>
<polygon fill="#ffffff" stroke="transparent" points="-4,4 -4,-1347 163.5754,-1347 163.5754,4 -4,4"/>
<!-- fake -->
<g id="node1" class="node">
<title>fake</title>
</g>
<!-- A -->
<g id="node15" class="node">
<title>A</title>
<ellipse fill="none" stroke="#000000" cx="99.5754" cy="-1252" rx="27" ry="18"/>
<text text-anchor="middle" x="99.5754" y="-1248.3" font-family="Times,serif" font-size="14.00" fill="#000000">A</text>
</g>
<!-- fake&#45;&gt;A -->
<g id="edge1" class="edge">
<title>fake&#45;&gt;A</title>
<path fill="none" stroke="#000000" stroke-width="2" d="M99.5754,-1306.9551C99.5754,-1298.8828 99.5754,-1289.1764 99.5754,-1280.1817"/>
<polygon fill="#000000" stroke="#000000" stroke-width="2" points="103.0755,-1280.0903 99.5754,-1270.0904 96.0755,-1280.0904 103.0755,-1280.0903"/>
</g>
<!-- D -->
<g id="node2" class="node">
<title>D</title>
<ellipse fill="none" stroke="#000000" cx="99.5754" cy="-991" rx="27" ry="18"/>
<text text-anchor="middle" x="99.5754" y="-987.3" font-family="Times,serif" font-size="14.00" fill="#000000">D</text>
</g>
<!-- E -->
<g id="node12" class="node">
<title>E</title>
<ellipse fill="none" stroke="#000000" cx="99.5754" cy="-904" rx="27" ry="18"/>
<text text-anchor="middle" x="99.5754" y="-900.3" font-family="Times,serif" font-size="14.00" fill="#000000">E</text>
</g>
<!-- D&#45;&gt;E -->
<g id="edge5" class="edge">
<title>D&#45;&gt;E</title>
<path fill="none" stroke="#000000" d="M99.5754,-972.9735C99.5754,-961.1918 99.5754,-945.5607 99.5754,-932.1581"/>
<polygon fill="#000000" stroke="#000000" points="103.0755,-932.0033 99.5754,-922.0034 96.0755,-932.0034 103.0755,-932.0033"/>
<text text-anchor="middle" x="109.0754" y="-943.8" font-family="Times,serif" font-size="14.00" fill="#000000">:Int</text>
</g>
<!-- B -->
<g id="node3" class="node">
<title>B</title>
<ellipse fill="none" stroke="#000000" cx="99.5754" cy="-1165" rx="27" ry="18"/>
<text text-anchor="middle" x="99.5754" y="-1161.3" font-family="Times,serif" font-size="14.00" fill="#000000">B</text>
</g>
<!-- C -->
<g id="node6" class="node">
<title>C</title>
<ellipse fill="none" stroke="#000000" cx="99.5754" cy="-1078" rx="27" ry="18"/>
<text text-anchor="middle" x="99.5754" y="-1074.3" font-family="Times,serif" font-size="14.00" fill="#000000">C</text>
</g>
<!-- B&#45;&gt;C -->
<g id="edge3" class="edge">
<title>B&#45;&gt;C</title>
<path fill="none" stroke="#000000" d="M99.5754,-1146.9735C99.5754,-1135.1918 99.5754,-1119.5607 99.5754,-1106.1581"/>
<polygon fill="#000000" stroke="#000000" points="103.0755,-1106.0033 99.5754,-1096.0034 96.0755,-1106.0034 103.0755,-1106.0033"/>
<text text-anchor="middle" x="113.5754" y="-1117.8" font-family="Times,serif" font-size="14.00" fill="#000000">letter</text>
</g>
<!-- O -->
<g id="node4" class="node">
<title>O</title>
<ellipse fill="none" stroke="#000000" cx="28.5754" cy="-200" rx="27" ry="18"/>
<text text-anchor="middle" x="28.5754" y="-196.3" font-family="Times,serif" font-size="14.00" fill="#000000">O</text>
</g>
<!-- N -->
<g id="node11" class="node">
<title>N</title>
<ellipse fill="none" stroke="#000000" cx="28.5754" cy="-113" rx="27" ry="18"/>
<text text-anchor="middle" x="28.5754" y="-109.3" font-family="Times,serif" font-size="14.00" fill="#000000">N</text>
</g>
<!-- O&#45;&gt;N -->
<g id="edge18" class="edge">
<title>O&#45;&gt;N</title>
<path fill="none" stroke="#000000" d="M13.7544,-184.7982C8.8935,-178.8105 4.0953,-171.5598 1.5754,-164 -1.5754,-154.5477 1.7969,-144.7425 7.0994,-136.2852"/>
<polygon fill="#000000" stroke="#000000" points="10.057,-138.17 13.1315,-128.031 4.4053,-134.0397 10.057,-138.17"/>
<text text-anchor="middle" x="11.0754" y="-152.8" font-family="Times,serif" font-size="14.00" fill="#000000">:Int</text>
</g>
<!-- J -->
<g id="node5" class="node">
<title>J</title>
<ellipse fill="none" stroke="#000000" cx="93.5754" cy="-548" rx="27" ry="18"/>
<text text-anchor="middle" x="93.5754" y="-544.3" font-family="Times,serif" font-size="14.00" fill="#000000">J</text>
</g>
<!-- K -->
<g id="node10" class="node">
<title>K</title>
<ellipse fill="none" stroke="#000000" cx="66.5754" cy="-461" rx="27" ry="18"/>
<text text-anchor="middle" x="66.5754" y="-457.3" font-family="Times,serif" font-size="14.00" fill="#000000">K</text>
</g>
<!-- J&#45;&gt;K -->
<g id="edge10" class="edge">
<title>J&#45;&gt;K</title>
<path fill="none" stroke="#000000" d="M86.3082,-530.5747C84.0008,-524.7255 81.5407,-518.1304 79.5754,-512 77.1973,-504.5823 74.9615,-496.4493 73.0368,-488.9"/>
<polygon fill="#000000" stroke="#000000" points="76.4106,-487.9624 70.6211,-479.0893 69.6136,-489.6361 76.4106,-487.9624"/>
<text text-anchor="middle" x="93.5754" y="-500.8" font-family="Times,serif" font-size="14.00" fill="#000000">letter</text>
</g>
<!-- C&#45;&gt;D -->
<g id="edge4" class="edge">
<title>C&#45;&gt;D</title>
<path fill="none" stroke="#000000" d="M99.5754,-1059.9735C99.5754,-1048.1918 99.5754,-1032.5607 99.5754,-1019.1581"/>
<polygon fill="#000000" stroke="#000000" points="103.0755,-1019.0033 99.5754,-1009.0034 96.0755,-1019.0034 103.0755,-1019.0033"/>
<text text-anchor="middle" x="102.0754" y="-1030.8" font-family="Times,serif" font-size="14.00" fill="#000000">(</text>
</g>
<!-- H -->
<g id="node7" class="node">
<title>H</title>
<ellipse fill="none" stroke="#000000" cx="93.5754" cy="-639" rx="18" ry="18"/>
<ellipse fill="none" stroke="#000000" cx="93.5754" cy="-639" rx="22" ry="22"/>
<text text-anchor="middle" x="93.5754" y="-635.3" font-family="Times,serif" font-size="14.00" fill="#000000">H</text>
</g>
<!-- H&#45;&gt;J -->
<g id="edge8" class="edge">
<title>H&#45;&gt;J</title>
<path fill="none" stroke="#000000" d="M93.5754,-616.9714C93.5754,-604.8075 93.5754,-589.5615 93.5754,-576.499"/>
<polygon fill="#000000" stroke="#000000" points="97.0755,-576.1556 93.5754,-566.1556 90.0755,-576.1556 97.0755,-576.1556"/>
<text text-anchor="middle" x="95.5754" y="-587.8" font-family="Times,serif" font-size="14.00" fill="#000000">,</text>
</g>
<!-- I -->
<g id="node8" class="node">
<title>I</title>
<ellipse fill="none" stroke="#000000" cx="83.5754" cy="-22" rx="18" ry="18"/>
<ellipse fill="none" stroke="#000000" cx="83.5754" cy="-22" rx="22" ry="22"/>
<text text-anchor="middle" x="83.5754" y="-18.3" font-family="Times,serif" font-size="14.00" fill="#000000">I</text>
</g>
<!-- I&#45;&gt;J -->
<g id="edge17" class="edge">
<title>I&#45;&gt;J</title>
<path fill="none" stroke="#000000" d="M96.2288,-40.2421C107.2831,-57.984 121.5754,-86.1205 121.5754,-113 121.5754,-461 121.5754,-461 121.5754,-461 121.5754,-482.0897 114.0276,-504.7321 106.7696,-521.6299"/>
<polygon fill="#000000" stroke="#000000" points="103.5266,-520.3068 102.5889,-530.86 109.903,-523.1949 103.5266,-520.3068"/>
<text text-anchor="middle" x="123.5754" y="-283.3" font-family="Times,serif" font-size="14.00" fill="#000000">,</text>
</g>
<!-- F -->
<g id="node9" class="node">
<title>F</title>
<ellipse fill="none" stroke="#000000" cx="132.5754" cy="-730" rx="27" ry="18"/>
<text text-anchor="middle" x="132.5754" y="-726.3" font-family="Times,serif" font-size="14.00" fill="#000000">F</text>
</g>
<!-- F&#45;&gt;H -->
<g id="edge11" class="edge">
<title>F&#45;&gt;H</title>
<path fill="none" stroke="#000000" d="M125.0558,-712.4543C119.7684,-700.117 112.5623,-683.3028 106.3788,-668.8746"/>
<polygon fill="#000000" stroke="#000000" points="109.4537,-667.1641 102.2974,-659.3514 103.0196,-669.9216 109.4537,-667.1641"/>
<text text-anchor="middle" x="118.0754" y="-682.8" font-family="Times,serif" font-size="14.00" fill="#000000">)</text>
</g>
<!-- G -->
<g id="node13" class="node">
<title>G</title>
<ellipse fill="none" stroke="#000000" cx="132.5754" cy="-817" rx="27" ry="18"/>
<text text-anchor="middle" x="132.5754" y="-813.3" font-family="Times,serif" font-size="14.00" fill="#000000">G</text>
</g>
<!-- F&#45;&gt;G -->
<g id="edge12" class="edge">
<title>F&#45;&gt;G</title>
<path fill="none" stroke="#000000" d="M136.1524,-747.8723C137.1447,-753.6338 138.0841,-760.0643 138.5754,-766 139.1951,-773.4883 138.7565,-781.5737 137.8892,-789.0515"/>
<polygon fill="#000000" stroke="#000000" points="134.4044,-788.6957 136.4432,-799.0925 141.3329,-789.6935 134.4044,-788.6957"/>
<text text-anchor="middle" x="140.5754" y="-769.8" font-family="Times,serif" font-size="14.00" fill="#000000">,</text>
</g>
<!-- L -->
<g id="node16" class="node">
<title>L</title>
<ellipse fill="none" stroke="#000000" cx="61.5754" cy="-374" rx="27" ry="18"/>
<text text-anchor="middle" x="61.5754" y="-370.3" font-family="Times,serif" font-size="14.00" fill="#000000">L</text>
</g>
<!-- K&#45;&gt;L -->
<g id="edge13" class="edge">
<title>K&#45;&gt;L</title>
<path fill="none" stroke="#000000" d="M65.5394,-442.9735C64.8623,-431.1918 63.9639,-415.5607 63.1937,-402.1581"/>
<polygon fill="#000000" stroke="#000000" points="66.6782,-401.786 62.6101,-392.0034 59.6897,-402.1877 66.6782,-401.786"/>
<text text-anchor="middle" x="67.0754" y="-413.8" font-family="Times,serif" font-size="14.00" fill="#000000">(</text>
</g>
<!-- N&#45;&gt;O -->
<g id="edge20" class="edge">
<title>N&#45;&gt;O</title>
<path fill="none" stroke="#000000" d="M28.5754,-131.0034C28.5754,-142.7801 28.5754,-158.4102 28.5754,-171.8156"/>
<polygon fill="#000000" stroke="#000000" points="25.0755,-171.9735 28.5754,-181.9735 32.0755,-171.9736 25.0755,-171.9735"/>
<text text-anchor="middle" x="30.5754" y="-152.8" font-family="Times,serif" font-size="14.00" fill="#000000">,</text>
</g>
<!-- N&#45;&gt;I -->
<g id="edge19" class="edge">
<title>N&#45;&gt;I</title>
<path fill="none" stroke="#000000" d="M38.9205,-95.8836C46.7543,-82.9222 57.6805,-64.8443 66.764,-49.8151"/>
<polygon fill="#000000" stroke="#000000" points="69.9604,-51.2931 72.1376,-40.9243 63.9696,-47.6722 69.9604,-51.2931"/>
<text text-anchor="middle" x="62.0754" y="-65.8" font-family="Times,serif" font-size="14.00" fill="#000000">)</text>
</g>
<!-- E&#45;&gt;H -->
<g id="edge6" class="edge">
<title>E&#45;&gt;H</title>
<path fill="none" stroke="#000000" d="M98.6464,-885.8454C97.9684,-871.9335 97.0826,-852.2588 96.5754,-835 94.8804,-777.3211 94.1147,-710.0645 93.7908,-671.2208"/>
<polygon fill="#000000" stroke="#000000" points="97.2894,-671.022 93.7107,-661.0499 90.2896,-671.0771 97.2894,-671.022"/>
<text text-anchor="middle" x="97.0754" y="-769.8" font-family="Times,serif" font-size="14.00" fill="#000000">)</text>
</g>
<!-- E&#45;&gt;G -->
<g id="edge7" class="edge">
<title>E&#45;&gt;G</title>
<path fill="none" stroke="#000000" d="M106.2534,-886.3943C110.8606,-874.2482 117.074,-857.8674 122.307,-844.0711"/>
<polygon fill="#000000" stroke="#000000" points="125.6332,-845.1709 125.9073,-834.5796 119.0882,-842.6882 125.6332,-845.1709"/>
<text text-anchor="middle" x="119.5754" y="-856.8" font-family="Times,serif" font-size="14.00" fill="#000000">,</text>
</g>
<!-- G&#45;&gt;F -->
<g id="edge9" class="edge">
<title>G&#45;&gt;F</title>
<path fill="none" stroke="#000000" d="M124.8402,-799.3885C122.6911,-793.6409 120.6523,-787.1528 119.5754,-781 118.1953,-773.1147 119.2823,-764.6536 121.3095,-756.9341"/>
<polygon fill="#000000" stroke="#000000" points="124.6703,-757.9154 124.3875,-747.3243 118.0039,-755.7801 124.6703,-757.9154"/>
<text text-anchor="middle" x="129.0754" y="-769.8" font-family="Times,serif" font-size="14.00" fill="#000000">:Int</text>
</g>
<!-- M -->
<g id="node14" class="node">
<title>M</title>
<ellipse fill="none" stroke="#000000" cx="58.5754" cy="-287" rx="27" ry="18"/>
<text text-anchor="middle" x="58.5754" y="-283.3" font-family="Times,serif" font-size="14.00" fill="#000000">M</text>
</g>
<!-- M&#45;&gt;O -->
<g id="edge16" class="edge">
<title>M&#45;&gt;O</title>
<path fill="none" stroke="#000000" d="M52.5044,-269.3943C48.3162,-257.2482 42.6676,-240.8674 37.9103,-227.0711"/>
<polygon fill="#000000" stroke="#000000" points="41.2061,-225.8923 34.6373,-217.5796 34.5885,-228.1743 41.2061,-225.8923"/>
<text text-anchor="middle" x="47.5754" y="-239.8" font-family="Times,serif" font-size="14.00" fill="#000000">,</text>
</g>
<!-- M&#45;&gt;I -->
<g id="edge15" class="edge">
<title>M&#45;&gt;I</title>
<path fill="none" stroke="#000000" d="M60.2937,-268.7855C64.4807,-224.4038 75.2536,-110.211 80.5475,-54.0953"/>
<polygon fill="#000000" stroke="#000000" points="84.0448,-54.2879 81.4996,-44.0034 77.0758,-53.6304 84.0448,-54.2879"/>
<text text-anchor="middle" x="74.0754" y="-152.8" font-family="Times,serif" font-size="14.00" fill="#000000">)</text>
</g>
<!-- A&#45;&gt;B -->
<g id="edge2" class="edge">
<title>A&#45;&gt;B</title>
<path fill="none" stroke="#000000" d="M99.5754,-1233.9735C99.5754,-1222.1918 99.5754,-1206.5607 99.5754,-1193.1581"/>
<polygon fill="#000000" stroke="#000000" points="103.0755,-1193.0033 99.5754,-1183.0034 96.0755,-1193.0034 103.0755,-1193.0033"/>
<text text-anchor="middle" x="113.5754" y="-1204.8" font-family="Times,serif" font-size="14.00" fill="#000000">DIM</text>
</g>
<!-- L&#45;&gt;M -->
<g id="edge14" class="edge">
<title>L&#45;&gt;M</title>
<path fill="none" stroke="#000000" d="M60.9538,-355.9735C60.5475,-344.1918 60.0085,-328.5607 59.5464,-315.1581"/>
<polygon fill="#000000" stroke="#000000" points="63.0388,-314.8768 59.1962,-305.0034 56.043,-315.1181 63.0388,-314.8768"/>
<text text-anchor="middle" x="70.0754" y="-326.8" font-family="Times,serif" font-size="14.00" fill="#000000">:Int</text>
</g>
</g>
</svg>
