<?xml version="1.0" encoding="UTF-8" standalone="no"?>
<!DOCTYPE svg PUBLIC "-//W3C//DTD SVG 1.1//EN"
 "http://www.w3.org/Graphics/SVG/1.1/DTD/svg11.dtd">
<!-- Generated by graphviz version 2.40.1 (20161225.0304)
 -->
<!-- Title: %3 Pages: 1 -->
<svg width="298pt" height="597pt"
 viewBox="0.00 0.00 298.00 597.00" xmlns="http://www.w3.org/2000/svg" xmlns:xlink="http://www.w3.org/1999/xlink">
<g id="graph0" class="graph" transform="scale(1 1) rotate(0) translate(4 593)">
<title>%3</title>
<polygon fill="#ffffff" stroke="transparent" points="-4,4 -4,-593 294,-593 294,4 -4,4"/>
<!-- fake -->
<g id="node1" class="node">
<title>fake</title>
</g>
<!-- A -->
<g id="node12" class="node">
<title>A</title>
<ellipse fill="none" stroke="#000000" cx="166" cy="-498" rx="27" ry="18"/>
<text text-anchor="middle" x="166" y="-494.3" font-family="Times,serif" font-size="14.00" fill="#000000">A</text>
</g>
<!-- fake&#45;&gt;A -->
<g id="edge1" class="edge">
<title>fake&#45;&gt;A</title>
<path fill="none" stroke="#000000" stroke-width="2" d="M166,-552.9551C166,-544.8828 166,-535.1764 166,-526.1817"/>
<polygon fill="#000000" stroke="#000000" stroke-width="2" points="169.5001,-526.0903 166,-516.0904 162.5001,-526.0904 169.5001,-526.0903"/>
</g>
<!-- D -->
<g id="node2" class="node">
<title>D</title>
<ellipse fill="none" stroke="#000000" cx="229" cy="-113" rx="27" ry="18"/>
<text text-anchor="middle" x="229" y="-109.3" font-family="Times,serif" font-size="14.00" fill="#000000">D</text>
</g>
<!-- E -->
<g id="node10" class="node">
<title>E</title>
<ellipse fill="none" stroke="#000000" cx="229" cy="-22" rx="18" ry="18"/>
<ellipse fill="none" stroke="#000000" cx="229" cy="-22" rx="22" ry="22"/>
<text text-anchor="middle" x="229" y="-18.3" font-family="Times,serif" font-size="14.00" fill="#000000">E</text>
</g>
<!-- D&#45;&gt;E -->
<g id="edge13" class="edge">
<title>D&#45;&gt;E</title>
<path fill="none" stroke="#000000" d="M229,-94.5848C229,-83.1105 229,-68.0231 229,-54.5774"/>
<polygon fill="#000000" stroke="#000000" points="232.5001,-54.2465 229,-44.2465 225.5001,-54.2466 232.5001,-54.2465"/>
<text text-anchor="middle" x="231.5" y="-65.8" font-family="Times,serif" font-size="14.00" fill="#000000">)</text>
</g>
<!-- B -->
<g id="node3" class="node">
<title>B</title>
<ellipse fill="none" stroke="#000000" cx="27" cy="-407" rx="27" ry="18"/>
<text text-anchor="middle" x="27" y="-403.3" font-family="Times,serif" font-size="14.00" fill="#000000">B</text>
</g>
<!-- I -->
<g id="node6" class="node">
<title>I</title>
<ellipse fill="none" stroke="#000000" cx="27" cy="-295" rx="27" ry="18"/>
<text text-anchor="middle" x="27" y="-291.3" font-family="Times,serif" font-size="14.00" fill="#000000">I</text>
</g>
<!-- B&#45;&gt;I -->
<g id="edge9" class="edge">
<title>B&#45;&gt;I</title>
<path fill="none" stroke="#000000" d="M27,-388.5055C27,-370.7282 27,-343.6184 27,-323.1587"/>
<polygon fill="#000000" stroke="#000000" points="30.5001,-323.1503 27,-313.1504 23.5001,-323.1504 30.5001,-323.1503"/>
<text text-anchor="middle" x="40" y="-345.3" font-family="Times,serif" font-size="14.00" fill="#000000">:Exp</text>
</g>
<!-- J -->
<g id="node4" class="node">
<title>J</title>
<ellipse fill="none" stroke="#000000" cx="99" cy="-407" rx="27" ry="18"/>
<text text-anchor="middle" x="99" y="-403.3" font-family="Times,serif" font-size="14.00" fill="#000000">J</text>
</g>
<!-- K -->
<g id="node9" class="node">
<title>K</title>
<ellipse fill="none" stroke="#000000" cx="157" cy="-295" rx="27" ry="18"/>
<text text-anchor="middle" x="157" y="-291.3" font-family="Times,serif" font-size="14.00" fill="#000000">K</text>
</g>
<!-- J&#45;&gt;K -->
<g id="edge7" class="edge">
<title>J&#45;&gt;K</title>
<path fill="none" stroke="#000000" d="M108.0625,-389.5C117.5116,-371.2535 132.4341,-342.4376 143.3185,-321.4194"/>
<polygon fill="#000000" stroke="#000000" points="146.5105,-322.8666 148.0011,-312.3771 140.2946,-319.6476 146.5105,-322.8666"/>
<text text-anchor="middle" x="153" y="-345.3" font-family="Times,serif" font-size="14.00" fill="#000000">letter</text>
</g>
<!-- C -->
<g id="node5" class="node">
<title>C</title>
<ellipse fill="none" stroke="#000000" cx="229" cy="-204" rx="27" ry="18"/>
<text text-anchor="middle" x="229" y="-200.3" font-family="Times,serif" font-size="14.00" fill="#000000">C</text>
</g>
<!-- C&#45;&gt;D -->
<g id="edge11" class="edge">
<title>C&#45;&gt;D</title>
<path fill="none" stroke="#000000" d="M229,-185.5848C229,-172.9209 229,-155.8558 229,-141.4541"/>
<polygon fill="#000000" stroke="#000000" points="232.5001,-141.0772 229,-131.0773 225.5001,-141.0773 232.5001,-141.0772"/>
<text text-anchor="middle" x="242" y="-152.8" font-family="Times,serif" font-size="14.00" fill="#000000">:Exp</text>
</g>
<!-- F -->
<g id="node7" class="node">
<title>F</title>
<ellipse fill="none" stroke="#000000" cx="27" cy="-204" rx="18" ry="18"/>
<ellipse fill="none" stroke="#000000" cx="27" cy="-204" rx="22" ry="22"/>
<text text-anchor="middle" x="27" y="-200.3" font-family="Times,serif" font-size="14.00" fill="#000000">F</text>
</g>
<!-- I&#45;&gt;F -->
<g id="edge12" class="edge">
<title>I&#45;&gt;F</title>
<path fill="none" stroke="#000000" d="M27,-276.5848C27,-265.1105 27,-250.0231 27,-236.5774"/>
<polygon fill="#000000" stroke="#000000" points="30.5001,-236.2465 27,-226.2465 23.5001,-236.2466 30.5001,-236.2465"/>
<text text-anchor="middle" x="29.5" y="-247.8" font-family="Times,serif" font-size="14.00" fill="#000000">)</text>
</g>
<!-- H -->
<g id="node8" class="node">
<title>H</title>
<ellipse fill="none" stroke="#000000" cx="166" cy="-407" rx="18" ry="18"/>
<ellipse fill="none" stroke="#000000" cx="166" cy="-407" rx="22" ry="22"/>
<text text-anchor="middle" x="166" y="-403.3" font-family="Times,serif" font-size="14.00" fill="#000000">H</text>
</g>
<!-- K&#45;&gt;C -->
<g id="edge10" class="edge">
<title>K&#45;&gt;C</title>
<path fill="none" stroke="#000000" d="M169.8722,-278.731C181.0322,-264.6259 197.3346,-244.0215 209.9964,-228.0185"/>
<polygon fill="#000000" stroke="#000000" points="212.7792,-230.1421 216.2393,-220.1281 207.2896,-225.7987 212.7792,-230.1421"/>
<text text-anchor="middle" x="199.5" y="-247.8" font-family="Times,serif" font-size="14.00" fill="#000000">(</text>
</g>
<!-- G -->
<g id="node11" class="node">
<title>G</title>
<ellipse fill="none" stroke="#000000" cx="228" cy="-407" rx="18" ry="18"/>
<ellipse fill="none" stroke="#000000" cx="228" cy="-407" rx="22" ry="22"/>
<text text-anchor="middle" x="228" y="-403.3" font-family="Times,serif" font-size="14.00" fill="#000000">G</text>
</g>
<!-- A&#45;&gt;B -->
<g id="edge5" class="edge">
<title>A&#45;&gt;B</title>
<path fill="none" stroke="#000000" d="M146.6726,-485.3468C122.9475,-469.8145 82.5195,-443.3473 55.2947,-425.5239"/>
<polygon fill="#000000" stroke="#000000" points="56.8949,-422.3882 46.6113,-419.8391 53.0607,-428.2447 56.8949,-422.3882"/>
<text text-anchor="middle" x="111.5" y="-450.8" font-family="Times,serif" font-size="14.00" fill="#000000">(</text>
</g>
<!-- A&#45;&gt;J -->
<g id="edge3" class="edge">
<title>A&#45;&gt;J</title>
<path fill="none" stroke="#000000" d="M154.0217,-481.731C143.7955,-467.8416 128.9292,-447.6501 117.2268,-431.7557"/>
<polygon fill="#000000" stroke="#000000" points="119.8479,-429.4126 111.1005,-423.4349 114.211,-433.5629 119.8479,-429.4126"/>
<text text-anchor="middle" x="148" y="-450.8" font-family="Times,serif" font-size="14.00" fill="#000000">FN</text>
</g>
<!-- A&#45;&gt;H -->
<g id="edge6" class="edge">
<title>A&#45;&gt;H</title>
<path fill="none" stroke="#000000" d="M166,-479.5848C166,-468.1105 166,-453.0231 166,-439.5774"/>
<polygon fill="#000000" stroke="#000000" points="169.5001,-439.2465 166,-429.2465 162.5001,-439.2466 169.5001,-439.2465"/>
<text text-anchor="middle" x="178.5" y="-450.8" font-family="Times,serif" font-size="14.00" fill="#000000">:Var</text>
</g>
<!-- A&#45;&gt;G -->
<g id="edge2" class="edge">
<title>A&#45;&gt;G</title>
<path fill="none" stroke="#000000" d="M179.4786,-482.236C184.5417,-476.0696 190.2235,-468.8448 195,-462 200.9593,-453.4603 206.9683,-443.8204 212.1955,-435.0236"/>
<polygon fill="#000000" stroke="#000000" points="215.3028,-436.6432 217.325,-426.2431 209.2586,-433.1122 215.3028,-436.6432"/>
<text text-anchor="middle" x="220" y="-450.8" font-family="Times,serif" font-size="14.00" fill="#000000">:Num</text>
</g>
<!-- L -->
<g id="node13" class="node">
<title>L</title>
<ellipse fill="none" stroke="#000000" cx="263" cy="-349" rx="27" ry="18"/>
<text text-anchor="middle" x="263" y="-345.3" font-family="Times,serif" font-size="14.00" fill="#000000">L</text>
</g>
<!-- A&#45;&gt;L -->
<g id="edge4" class="edge">
<title>A&#45;&gt;L</title>
<path fill="none" stroke="#000000" d="M190.5148,-490.2918C206.088,-484.4471 225.8955,-475.1552 240,-462 262.8028,-440.732 266.3726,-403.5161 265.6717,-377.6299"/>
<polygon fill="#000000" stroke="#000000" points="269.1506,-377.1208 265.1534,-367.309 262.1595,-377.472 269.1506,-377.1208"/>
<text text-anchor="middle" x="270" y="-450.8" font-family="Times,serif" font-size="14.00" fill="#000000">:Predef</text>
</g>
<!-- L&#45;&gt;C -->
<g id="edge8" class="edge">
<title>L&#45;&gt;C</title>
<path fill="none" stroke="#000000" d="M258.7626,-330.9288C252.9282,-306.0468 242.3675,-261.0083 235.5222,-231.8152"/>
<polygon fill="#000000" stroke="#000000" points="238.8745,-230.7803 233.184,-221.8434 232.0594,-232.3784 238.8745,-230.7803"/>
<text text-anchor="middle" x="256.5" y="-291.3" font-family="Times,serif" font-size="14.00" fill="#000000">(</text>
</g>
</g>
</svg>
