<?xml version="1.0" encoding="UTF-8" standalone="no"?>
<!DOCTYPE svg PUBLIC "-//W3C//DTD SVG 1.1//EN"
 "http://www.w3.org/Graphics/SVG/1.1/DTD/svg11.dtd">
<!-- Generated by graphviz version 2.40.1 (20161225.0304)
 -->
<!-- Title: %3 Pages: 1 -->
<svg width="341pt" height="568pt"
 viewBox="0.00 0.00 341.00 568.00" xmlns="http://www.w3.org/2000/svg" xmlns:xlink="http://www.w3.org/1999/xlink">
<g id="graph0" class="graph" transform="scale(1 1) rotate(0) translate(4 564)">
<title>%3</title>
<polygon fill="#ffffff" stroke="transparent" points="-4,4 -4,-564 337,-564 337,4 -4,4"/>
<!-- fake -->
<g id="node1" class="node">
<title>fake</title>
</g>
<!-- A -->
<g id="node11" class="node">
<title>A</title>
<ellipse fill="none" stroke="#000000" cx="136" cy="-469" rx="27" ry="18"/>
<text text-anchor="middle" x="136" y="-465.3" font-family="Times,serif" font-size="14.00" fill="#000000">A</text>
</g>
<!-- fake&#45;&gt;A -->
<g id="edge1" class="edge">
<title>fake&#45;&gt;A</title>
<path fill="none" stroke="#000000" stroke-width="2" d="M136,-523.9551C136,-515.8828 136,-506.1764 136,-497.1817"/>
<polygon fill="#000000" stroke="#000000" stroke-width="2" points="139.5001,-497.0903 136,-487.0904 132.5001,-497.0904 139.5001,-497.0903"/>
</g>
<!-- D -->
<g id="node2" class="node">
<title>D</title>
<ellipse fill="none" stroke="#000000" cx="136" cy="-291" rx="18" ry="18"/>
<ellipse fill="none" stroke="#000000" cx="136" cy="-291" rx="22" ry="22"/>
<text text-anchor="middle" x="136" y="-287.3" font-family="Times,serif" font-size="14.00" fill="#000000">D</text>
</g>
<!-- J -->
<g id="node4" class="node">
<title>J</title>
<ellipse fill="none" stroke="#000000" cx="136" cy="-200" rx="27" ry="18"/>
<text text-anchor="middle" x="136" y="-196.3" font-family="Times,serif" font-size="14.00" fill="#000000">J</text>
</g>
<!-- D&#45;&gt;J -->
<g id="edge10" class="edge">
<title>D&#45;&gt;J</title>
<path fill="none" stroke="#000000" d="M136,-268.9714C136,-256.8075 136,-241.5615 136,-228.499"/>
<polygon fill="#000000" stroke="#000000" points="139.5001,-228.1556 136,-218.1556 132.5001,-228.1556 139.5001,-228.1556"/>
<text text-anchor="middle" x="140" y="-239.8" font-family="Times,serif" font-size="14.00" fill="#000000">↑</text>
</g>
<!-- I -->
<g id="node6" class="node">
<title>I</title>
<ellipse fill="none" stroke="#000000" cx="27" cy="-18" rx="27" ry="18"/>
<text text-anchor="middle" x="27" y="-14.3" font-family="Times,serif" font-size="14.00" fill="#000000">I</text>
</g>
<!-- D&#45;&gt;I -->
<g id="edge8" class="edge">
<title>D&#45;&gt;I</title>
<path fill="none" stroke="#000000" d="M120.7822,-275.0027C114.525,-267.9632 107.4773,-259.3971 102,-251 58.9059,-184.9327 38.8747,-92.177 31.1177,-46.1688"/>
<polygon fill="#000000" stroke="#000000" points="34.5321,-45.3572 29.4832,-36.0428 27.6216,-46.4727 34.5321,-45.3572"/>
<text text-anchor="middle" x="63" y="-152.8" font-family="Times,serif" font-size="14.00" fill="#000000">/</text>
</g>
<!-- F -->
<g id="node7" class="node">
<title>F</title>
<ellipse fill="none" stroke="#000000" cx="306" cy="-18" rx="27" ry="18"/>
<text text-anchor="middle" x="306" y="-14.3" font-family="Times,serif" font-size="14.00" fill="#000000">F</text>
</g>
<!-- D&#45;&gt;F -->
<g id="edge11" class="edge">
<title>D&#45;&gt;F</title>
<path fill="none" stroke="#000000" d="M155.2752,-280.0256C168.2537,-272.3798 185.568,-261.6746 200,-251 255.1355,-210.2189 267.3783,-192.8512 297,-131 312.2253,-99.2091 320.7607,-88.9257 316,-54 315.6268,-51.2624 315.101,-48.4392 314.4837,-45.6347"/>
<polygon fill="#000000" stroke="#000000" points="317.8234,-44.5669 311.956,-35.7451 311.0414,-46.3004 317.8234,-44.5669"/>
<text text-anchor="middle" x="291.5" y="-152.8" font-family="Times,serif" font-size="14.00" fill="#000000">+</text>
</g>
<!-- H -->
<g id="node8" class="node">
<title>H</title>
<ellipse fill="none" stroke="#000000" cx="121" cy="-18" rx="27" ry="18"/>
<text text-anchor="middle" x="121" y="-14.3" font-family="Times,serif" font-size="14.00" fill="#000000">H</text>
</g>
<!-- D&#45;&gt;H -->
<g id="edge9" class="edge">
<title>D&#45;&gt;H</title>
<path fill="none" stroke="#000000" d="M124.5708,-271.8367C116.5099,-257.4857 106.1008,-237.116 100,-218 79.6065,-154.0996 81.3504,-135.8621 76,-69 75.4682,-62.3546 73.1121,-60.0087 76,-54 79.3968,-46.9326 84.9315,-40.8183 90.9767,-35.736"/>
<polygon fill="#000000" stroke="#000000" points="93.4691,-38.2428 99.3838,-29.4527 89.2784,-32.6358 93.4691,-38.2428"/>
<text text-anchor="middle" x="89.5" y="-152.8" font-family="Times,serif" font-size="14.00" fill="#000000">*</text>
</g>
<!-- G -->
<g id="node10" class="node">
<title>G</title>
<ellipse fill="none" stroke="#000000" cx="234" cy="-18" rx="27" ry="18"/>
<text text-anchor="middle" x="234" y="-14.3" font-family="Times,serif" font-size="14.00" fill="#000000">G</text>
</g>
<!-- D&#45;&gt;G -->
<g id="edge7" class="edge">
<title>D&#45;&gt;G</title>
<path fill="none" stroke="#000000" d="M152.7006,-276.1282C188.3441,-243.1256 271.0527,-159.4958 301,-69 303.0945,-62.6709 304.4211,-59.7219 301,-54 299.8779,-52.1233 281.9771,-42.5495 264.9626,-33.7468"/>
<polygon fill="#000000" stroke="#000000" points="266.207,-30.4511 255.7134,-28.9896 263.0052,-36.676 266.207,-30.4511"/>
<text text-anchor="middle" x="263.5" y="-152.8" font-family="Times,serif" font-size="14.00" fill="#000000">&#45;</text>
</g>
<!-- B -->
<g id="node3" class="node">
<title>B</title>
<ellipse fill="none" stroke="#000000" cx="64" cy="-382" rx="27" ry="18"/>
<text text-anchor="middle" x="64" y="-378.3" font-family="Times,serif" font-size="14.00" fill="#000000">B</text>
</g>
<!-- B&#45;&gt;D -->
<g id="edge5" class="edge">
<title>B&#45;&gt;D</title>
<path fill="none" stroke="#000000" d="M76.8722,-365.731C87.7567,-351.9742 103.5327,-332.0351 116.0519,-316.2121"/>
<polygon fill="#000000" stroke="#000000" points="118.7986,-318.3814 122.2587,-308.3675 113.309,-314.038 118.7986,-318.3814"/>
<text text-anchor="middle" x="113.5" y="-334.8" font-family="Times,serif" font-size="14.00" fill="#000000">:Eb</text>
</g>
<!-- E -->
<g id="node9" class="node">
<title>E</title>
<ellipse fill="none" stroke="#000000" cx="154" cy="-109" rx="18" ry="18"/>
<ellipse fill="none" stroke="#000000" cx="154" cy="-109" rx="22" ry="22"/>
<text text-anchor="middle" x="154" y="-105.3" font-family="Times,serif" font-size="14.00" fill="#000000">E</text>
</g>
<!-- J&#45;&gt;E -->
<g id="edge15" class="edge">
<title>J&#45;&gt;E</title>
<path fill="none" stroke="#000000" d="M122.6396,-183.9355C115.9692,-173.9012 110.2371,-160.7078 115,-149 117.965,-141.7118 122.9673,-135.0258 128.4179,-129.2924"/>
<polygon fill="#000000" stroke="#000000" points="131.1475,-131.5263 135.9792,-122.0973 126.3221,-126.4553 131.1475,-131.5263"/>
<text text-anchor="middle" x="124.5" y="-152.8" font-family="Times,serif" font-size="14.00" fill="#000000">:Eb</text>
</g>
<!-- C -->
<g id="node5" class="node">
<title>C</title>
<ellipse fill="none" stroke="#000000" cx="136" cy="-382" rx="27" ry="18"/>
<text text-anchor="middle" x="136" y="-378.3" font-family="Times,serif" font-size="14.00" fill="#000000">C</text>
</g>
<!-- C&#45;&gt;D -->
<g id="edge6" class="edge">
<title>C&#45;&gt;D</title>
<path fill="none" stroke="#000000" d="M136,-363.5848C136,-352.1105 136,-337.0231 136,-323.5774"/>
<polygon fill="#000000" stroke="#000000" points="139.5001,-323.2465 136,-313.2465 132.5001,-323.2466 139.5001,-323.2465"/>
<text text-anchor="middle" x="145.5" y="-334.8" font-family="Times,serif" font-size="14.00" fill="#000000">:Eb</text>
</g>
<!-- I&#45;&gt;E -->
<g id="edge13" class="edge">
<title>I&#45;&gt;E</title>
<path fill="none" stroke="#000000" d="M32.5609,-36.0911C36.6871,-46.8881 43.2965,-60.1716 53,-69 72.5094,-86.75 100.8453,-97.044 122.5416,-102.7312"/>
<polygon fill="#000000" stroke="#000000" points="121.7453,-106.1394 132.2888,-105.0979 123.397,-99.3371 121.7453,-106.1394"/>
<text text-anchor="middle" x="62.5" y="-57.8" font-family="Times,serif" font-size="14.00" fill="#000000">:Eb</text>
</g>
<!-- F&#45;&gt;E -->
<g id="edge16" class="edge">
<title>F&#45;&gt;E</title>
<path fill="none" stroke="#000000" d="M287.3096,-31.357C272.1428,-41.9956 250.0614,-57.0357 230,-69 214.768,-78.0841 197.2835,-87.362 182.928,-94.6924"/>
<polygon fill="#000000" stroke="#000000" points="181.3456,-91.5705 174.0013,-99.2068 184.5046,-97.8172 181.3456,-91.5705"/>
<text text-anchor="middle" x="262.5" y="-57.8" font-family="Times,serif" font-size="14.00" fill="#000000">:Eb</text>
</g>
<!-- H&#45;&gt;E -->
<g id="edge14" class="edge">
<title>H&#45;&gt;E</title>
<path fill="none" stroke="#000000" d="M127.3921,-35.6266C131.7949,-47.7678 137.7598,-64.2166 142.9261,-78.463"/>
<polygon fill="#000000" stroke="#000000" points="139.6467,-79.6863 146.3462,-87.894 146.2273,-77.2999 139.6467,-79.6863"/>
<text text-anchor="middle" x="148.5" y="-57.8" font-family="Times,serif" font-size="14.00" fill="#000000">:Eb</text>
</g>
<!-- E&#45;&gt;J -->
<g id="edge18" class="edge">
<title>E&#45;&gt;J</title>
<path fill="none" stroke="#000000" d="M149.6893,-130.7932C147.2451,-143.1496 144.1608,-158.7427 141.5388,-171.9983"/>
<polygon fill="#000000" stroke="#000000" points="138.0632,-171.5322 139.5562,-182.0213 144.9302,-172.8906 138.0632,-171.5322"/>
<text text-anchor="middle" x="150" y="-152.8" font-family="Times,serif" font-size="14.00" fill="#000000">↑</text>
</g>
<!-- E&#45;&gt;I -->
<g id="edge21" class="edge">
<title>E&#45;&gt;I</title>
<path fill="none" stroke="#000000" d="M136.0734,-96.1549C114.6663,-80.816 78.6544,-55.0122 53.9039,-37.2776"/>
<polygon fill="#000000" stroke="#000000" points="55.8287,-34.3511 45.6615,-31.3716 51.7516,-40.0412 55.8287,-34.3511"/>
<text text-anchor="middle" x="101" y="-57.8" font-family="Times,serif" font-size="14.00" fill="#000000">/</text>
</g>
<!-- E&#45;&gt;F -->
<g id="edge19" class="edge">
<title>E&#45;&gt;F</title>
<path fill="none" stroke="#000000" d="M176.062,-106.5368C202.3713,-102.6071 246.4867,-92.7663 276,-69 283.8733,-62.6598 290.1265,-53.6581 294.8417,-44.9778"/>
<polygon fill="#000000" stroke="#000000" points="298.0713,-46.3425 299.3586,-35.8261 291.7942,-43.2444 298.0713,-46.3425"/>
<text text-anchor="middle" x="292.5" y="-57.8" font-family="Times,serif" font-size="14.00" fill="#000000">+</text>
</g>
<!-- E&#45;&gt;H -->
<g id="edge17" class="edge">
<title>E&#45;&gt;H</title>
<path fill="none" stroke="#000000" d="M138.4306,-92.7934C132.8523,-85.9829 127.1649,-77.64 124,-69 121.3873,-61.8676 120.187,-53.7997 119.7464,-46.2204"/>
<polygon fill="#000000" stroke="#000000" points="123.2415,-45.9146 119.5614,-35.9795 116.2427,-46.0411 123.2415,-45.9146"/>
<text text-anchor="middle" x="127.5" y="-57.8" font-family="Times,serif" font-size="14.00" fill="#000000">*</text>
</g>
<!-- E&#45;&gt;G -->
<g id="edge20" class="edge">
<title>E&#45;&gt;G</title>
<path fill="none" stroke="#000000" d="M174.0175,-99.3256C186.6277,-92.3758 202.4586,-81.961 213,-69 218.584,-62.1343 222.8732,-53.5788 226.0746,-45.4483"/>
<polygon fill="#000000" stroke="#000000" points="229.4225,-46.4788 229.4542,-35.8841 222.8225,-44.1466 229.4225,-46.4788"/>
<text text-anchor="middle" x="223.5" y="-57.8" font-family="Times,serif" font-size="14.00" fill="#000000">&#45;</text>
</g>
<!-- G&#45;&gt;E -->
<g id="edge12" class="edge">
<title>G&#45;&gt;E</title>
<path fill="none" stroke="#000000" d="M216.9183,-31.9784C209.5363,-38.3639 201.0045,-46.2262 194,-54 186.2139,-62.6412 178.4968,-72.7767 171.9485,-81.9768"/>
<polygon fill="#000000" stroke="#000000" points="168.904,-80.2242 166.0644,-90.4314 174.6496,-84.2229 168.904,-80.2242"/>
<text text-anchor="middle" x="203.5" y="-57.8" font-family="Times,serif" font-size="14.00" fill="#000000">:Eb</text>
</g>
<!-- A&#45;&gt;D -->
<g id="edge4" class="edge">
<title>A&#45;&gt;D</title>
<path fill="none" stroke="#000000" d="M147.4492,-452.6168C156.1021,-439.1784 167.2702,-419.2906 172,-400 179.4312,-369.6915 172.5329,-359.1192 159,-331 157.0318,-326.9105 154.8083,-322.6719 152.5388,-318.5505"/>
<polygon fill="#000000" stroke="#000000" points="155.5612,-316.785 147.5785,-309.8188 149.4748,-320.2426 155.5612,-316.785"/>
<text text-anchor="middle" x="184.5" y="-378.3" font-family="Times,serif" font-size="14.00" fill="#000000">:Eb</text>
</g>
<!-- A&#45;&gt;B -->
<g id="edge2" class="edge">
<title>A&#45;&gt;B</title>
<path fill="none" stroke="#000000" d="M122.7941,-453.0429C111.8328,-439.798 96.0821,-420.7659 83.6416,-405.7336"/>
<polygon fill="#000000" stroke="#000000" points="86.1943,-403.3284 77.1222,-397.856 80.8015,-407.7914 86.1943,-403.3284"/>
<text text-anchor="middle" x="108.5" y="-421.8" font-family="Times,serif" font-size="14.00" fill="#000000">+</text>
</g>
<!-- A&#45;&gt;C -->
<g id="edge3" class="edge">
<title>A&#45;&gt;C</title>
<path fill="none" stroke="#000000" d="M136,-450.9735C136,-439.1918 136,-423.5607 136,-410.1581"/>
<polygon fill="#000000" stroke="#000000" points="139.5001,-410.0033 136,-400.0034 132.5001,-410.0034 139.5001,-410.0033"/>
<text text-anchor="middle" x="138.5" y="-421.8" font-family="Times,serif" font-size="14.00" fill="#000000">&#45;</text>
</g>
</g>
</svg>
