<?xml version="1.0" encoding="UTF-8" standalone="no"?>
<!DOCTYPE svg PUBLIC "-//W3C//DTD SVG 1.1//EN"
 "http://www.w3.org/Graphics/SVG/1.1/DTD/svg11.dtd">
<!-- Generated by graphviz version 2.40.1 (20161225.0304)
 -->
<!-- Title: %3 Pages: 1 -->
<svg width="105pt" height="916pt"
 viewBox="0.00 0.00 105.00 916.00" xmlns="http://www.w3.org/2000/svg" xmlns:xlink="http://www.w3.org/1999/xlink">
<g id="graph0" class="graph" transform="scale(1 1) rotate(0) translate(4 912)">
<title>%3</title>
<polygon fill="#ffffff" stroke="transparent" points="-4,4 -4,-912 101,-912 101,4 -4,4"/>
<!-- fake -->
<g id="node1" class="node">
<title>fake</title>
</g>
<!-- A -->
<g id="node11" class="node">
<title>A</title>
<ellipse fill="none" stroke="#000000" cx="69" cy="-817" rx="27" ry="18"/>
<text text-anchor="middle" x="69" y="-813.3" font-family="Times,serif" font-size="14.00" fill="#000000">A</text>
</g>
<!-- fake&#45;&gt;A -->
<g id="edge1" class="edge">
<title>fake&#45;&gt;A</title>
<path fill="none" stroke="#000000" stroke-width="2" d="M69,-871.9551C69,-863.8828 69,-854.1764 69,-845.1817"/>
<polygon fill="#000000" stroke="#000000" stroke-width="2" points="72.5001,-845.0903 69,-835.0904 65.5001,-845.0904 72.5001,-845.0903"/>
</g>
<!-- D -->
<g id="node2" class="node">
<title>D</title>
<ellipse fill="none" stroke="#000000" cx="27" cy="-556" rx="27" ry="18"/>
<text text-anchor="middle" x="27" y="-552.3" font-family="Times,serif" font-size="14.00" fill="#000000">D</text>
</g>
<!-- E -->
<g id="node9" class="node">
<title>E</title>
<ellipse fill="none" stroke="#000000" cx="59" cy="-469" rx="27" ry="18"/>
<text text-anchor="middle" x="59" y="-465.3" font-family="Times,serif" font-size="14.00" fill="#000000">E</text>
</g>
<!-- D&#45;&gt;E -->
<g id="edge6" class="edge">
<title>D&#45;&gt;E</title>
<path fill="none" stroke="#000000" d="M33.4757,-538.3943C37.9432,-526.2482 43.9683,-509.8674 49.0428,-496.0711"/>
<polygon fill="#000000" stroke="#000000" points="52.3667,-497.1731 52.534,-486.5796 45.797,-494.7566 52.3667,-497.1731"/>
<text text-anchor="middle" x="49.5" y="-508.8" font-family="Times,serif" font-size="14.00" fill="#000000">=</text>
</g>
<!-- B -->
<g id="node3" class="node">
<title>B</title>
<ellipse fill="none" stroke="#000000" cx="69" cy="-730" rx="27" ry="18"/>
<text text-anchor="middle" x="69" y="-726.3" font-family="Times,serif" font-size="14.00" fill="#000000">B</text>
</g>
<!-- C -->
<g id="node5" class="node">
<title>C</title>
<ellipse fill="none" stroke="#000000" cx="69" cy="-643" rx="27" ry="18"/>
<text text-anchor="middle" x="69" y="-639.3" font-family="Times,serif" font-size="14.00" fill="#000000">C</text>
</g>
<!-- B&#45;&gt;C -->
<g id="edge3" class="edge">
<title>B&#45;&gt;C</title>
<path fill="none" stroke="#000000" d="M69,-711.9735C69,-700.1918 69,-684.5607 69,-671.1581"/>
<polygon fill="#000000" stroke="#000000" points="72.5001,-671.0033 69,-661.0034 65.5001,-671.0034 72.5001,-671.0033"/>
<text text-anchor="middle" x="83" y="-682.8" font-family="Times,serif" font-size="14.00" fill="#000000">letter</text>
</g>
<!-- J -->
<g id="node4" class="node">
<title>J</title>
<ellipse fill="none" stroke="#000000" cx="59" cy="-22" rx="18" ry="18"/>
<ellipse fill="none" stroke="#000000" cx="59" cy="-22" rx="22" ry="22"/>
<text text-anchor="middle" x="59" y="-18.3" font-family="Times,serif" font-size="14.00" fill="#000000">J</text>
</g>
<!-- C&#45;&gt;D -->
<g id="edge4" class="edge">
<title>C&#45;&gt;D</title>
<path fill="none" stroke="#000000" d="M60.31,-625.8283C57.3278,-619.8806 53.9894,-613.161 51,-607 47.1734,-599.1136 43.0863,-590.5019 39.3894,-582.638"/>
<polygon fill="#000000" stroke="#000000" points="42.5281,-581.0875 35.1173,-573.5159 36.1888,-584.0564 42.5281,-581.0875"/>
<text text-anchor="middle" x="63.5" y="-595.8" font-family="Times,serif" font-size="14.00" fill="#000000">digit</text>
</g>
<!-- C&#45;&gt;E -->
<g id="edge5" class="edge">
<title>C&#45;&gt;E</title>
<path fill="none" stroke="#000000" d="M73.1724,-625.1538C74.33,-619.3937 75.4262,-612.9575 76,-607 79.694,-568.6487 72.1735,-524.4761 65.9865,-496.649"/>
<polygon fill="#000000" stroke="#000000" points="69.3779,-495.7798 63.7068,-486.8305 62.5593,-497.3631 69.3779,-495.7798"/>
<text text-anchor="middle" x="80.5" y="-552.3" font-family="Times,serif" font-size="14.00" fill="#000000">=</text>
</g>
<!-- I -->
<g id="node6" class="node">
<title>I</title>
<ellipse fill="none" stroke="#000000" cx="59" cy="-113" rx="27" ry="18"/>
<text text-anchor="middle" x="59" y="-109.3" font-family="Times,serif" font-size="14.00" fill="#000000">I</text>
</g>
<!-- I&#45;&gt;J -->
<g id="edge11" class="edge">
<title>I&#45;&gt;J</title>
<path fill="none" stroke="#000000" d="M59,-94.5848C59,-83.1105 59,-68.0231 59,-54.5774"/>
<polygon fill="#000000" stroke="#000000" points="62.5001,-54.2465 59,-44.2465 55.5001,-54.2466 62.5001,-54.2465"/>
<text text-anchor="middle" x="72" y="-65.8" font-family="Times,serif" font-size="14.00" fill="#000000">:Exp</text>
</g>
<!-- F -->
<g id="node7" class="node">
<title>F</title>
<ellipse fill="none" stroke="#000000" cx="59" cy="-382" rx="27" ry="18"/>
<text text-anchor="middle" x="59" y="-378.3" font-family="Times,serif" font-size="14.00" fill="#000000">F</text>
</g>
<!-- G -->
<g id="node10" class="node">
<title>G</title>
<ellipse fill="none" stroke="#000000" cx="59" cy="-295" rx="27" ry="18"/>
<text text-anchor="middle" x="59" y="-291.3" font-family="Times,serif" font-size="14.00" fill="#000000">G</text>
</g>
<!-- F&#45;&gt;G -->
<g id="edge8" class="edge">
<title>F&#45;&gt;G</title>
<path fill="none" stroke="#000000" d="M59,-363.9735C59,-352.1918 59,-336.5607 59,-323.1581"/>
<polygon fill="#000000" stroke="#000000" points="62.5001,-323.0033 59,-313.0034 55.5001,-323.0034 62.5001,-323.0033"/>
<text text-anchor="middle" x="68.5" y="-334.8" font-family="Times,serif" font-size="14.00" fill="#000000">TO</text>
</g>
<!-- H -->
<g id="node8" class="node">
<title>H</title>
<ellipse fill="none" stroke="#000000" cx="59" cy="-204" rx="18" ry="18"/>
<ellipse fill="none" stroke="#000000" cx="59" cy="-204" rx="22" ry="22"/>
<text text-anchor="middle" x="59" y="-200.3" font-family="Times,serif" font-size="14.00" fill="#000000">H</text>
</g>
<!-- H&#45;&gt;I -->
<g id="edge10" class="edge">
<title>H&#45;&gt;I</title>
<path fill="none" stroke="#000000" d="M59,-181.9714C59,-169.8075 59,-154.5615 59,-141.499"/>
<polygon fill="#000000" stroke="#000000" points="62.5001,-141.1556 59,-131.1556 55.5001,-141.1556 62.5001,-141.1556"/>
<text text-anchor="middle" x="75" y="-152.8" font-family="Times,serif" font-size="14.00" fill="#000000">STEP</text>
</g>
<!-- E&#45;&gt;F -->
<g id="edge7" class="edge">
<title>E&#45;&gt;F</title>
<path fill="none" stroke="#000000" d="M59,-450.9735C59,-439.1918 59,-423.5607 59,-410.1581"/>
<polygon fill="#000000" stroke="#000000" points="62.5001,-410.0033 59,-400.0034 55.5001,-410.0034 62.5001,-410.0033"/>
<text text-anchor="middle" x="72" y="-421.8" font-family="Times,serif" font-size="14.00" fill="#000000">:Exp</text>
</g>
<!-- G&#45;&gt;H -->
<g id="edge9" class="edge">
<title>G&#45;&gt;H</title>
<path fill="none" stroke="#000000" d="M59,-276.5848C59,-265.1105 59,-250.0231 59,-236.5774"/>
<polygon fill="#000000" stroke="#000000" points="62.5001,-236.2465 59,-226.2465 55.5001,-236.2466 62.5001,-236.2465"/>
<text text-anchor="middle" x="72" y="-247.8" font-family="Times,serif" font-size="14.00" fill="#000000">:Exp</text>
</g>
<!-- A&#45;&gt;B -->
<g id="edge2" class="edge">
<title>A&#45;&gt;B</title>
<path fill="none" stroke="#000000" d="M69,-798.9735C69,-787.1918 69,-771.5607 69,-758.1581"/>
<polygon fill="#000000" stroke="#000000" points="72.5001,-758.0033 69,-748.0034 65.5001,-758.0034 72.5001,-758.0033"/>
<text text-anchor="middle" x="82.5" y="-769.8" font-family="Times,serif" font-size="14.00" fill="#000000">FOR</text>
</g>
</g>
</svg>
