<?xml version="1.0" encoding="UTF-8" standalone="no"?>
<!DOCTYPE svg PUBLIC "-//W3C//DTD SVG 1.1//EN"
 "http://www.w3.org/Graphics/SVG/1.1/DTD/svg11.dtd">
<!-- Generated by graphviz version 2.40.1 (20161225.0304)
 -->
<!-- Title: %3 Pages: 1 -->
<svg width="81pt" height="299pt"
 viewBox="0.00 0.00 81.00 299.00" xmlns="http://www.w3.org/2000/svg" xmlns:xlink="http://www.w3.org/1999/xlink">
<g id="graph0" class="graph" transform="scale(1 1) rotate(0) translate(4 295)">
<title>%3</title>
<polygon fill="#ffffff" stroke="transparent" points="-4,4 -4,-295 77,-295 77,4 -4,4"/>
<!-- fake -->
<g id="node1" class="node">
<title>fake</title>
</g>
<!-- A -->
<g id="node2" class="node">
<title>A</title>
<ellipse fill="none" stroke="#000000" cx="27" cy="-200" rx="27" ry="18"/>
<text text-anchor="middle" x="27" y="-196.3" font-family="Times,serif" font-size="14.00" fill="#000000">A</text>
</g>
<!-- fake&#45;&gt;A -->
<g id="edge1" class="edge">
<title>fake&#45;&gt;A</title>
<path fill="none" stroke="#000000" stroke-width="2" d="M27,-254.9551C27,-246.8828 27,-237.1764 27,-228.1817"/>
<polygon fill="#000000" stroke="#000000" stroke-width="2" points="30.5001,-228.0903 27,-218.0904 23.5001,-228.0904 30.5001,-228.0903"/>
</g>
<!-- B -->
<g id="node4" class="node">
<title>B</title>
<ellipse fill="none" stroke="#000000" cx="27" cy="-113" rx="27" ry="18"/>
<text text-anchor="middle" x="27" y="-109.3" font-family="Times,serif" font-size="14.00" fill="#000000">B</text>
</g>
<!-- A&#45;&gt;B -->
<g id="edge2" class="edge">
<title>A&#45;&gt;B</title>
<path fill="none" stroke="#000000" d="M27,-181.9735C27,-170.1918 27,-154.5607 27,-141.1581"/>
<polygon fill="#000000" stroke="#000000" points="30.5001,-141.0033 27,-131.0034 23.5001,-141.0034 30.5001,-141.0033"/>
<text text-anchor="middle" x="50" y="-152.8" font-family="Times,serif" font-size="14.00" fill="#000000">GOSUB</text>
</g>
<!-- C -->
<g id="node3" class="node">
<title>C</title>
<ellipse fill="none" stroke="#000000" cx="27" cy="-22" rx="18" ry="18"/>
<ellipse fill="none" stroke="#000000" cx="27" cy="-22" rx="22" ry="22"/>
<text text-anchor="middle" x="27" y="-18.3" font-family="Times,serif" font-size="14.00" fill="#000000">C</text>
</g>
<!-- B&#45;&gt;C -->
<g id="edge3" class="edge">
<title>B&#45;&gt;C</title>
<path fill="none" stroke="#000000" d="M27,-94.5848C27,-83.1105 27,-68.0231 27,-54.5774"/>
<polygon fill="#000000" stroke="#000000" points="30.5001,-54.2465 27,-44.2465 23.5001,-54.2466 30.5001,-54.2465"/>
<text text-anchor="middle" x="36.5" y="-65.8" font-family="Times,serif" font-size="14.00" fill="#000000">:Int</text>
</g>
</g>
</svg>
