<?xml version="1.0" encoding="UTF-8" standalone="no"?>
<!DOCTYPE svg PUBLIC "-//W3C//DTD SVG 1.1//EN"
 "http://www.w3.org/Graphics/SVG/1.1/DTD/svg11.dtd">
<!-- Generated by graphviz version 2.40.1 (20161225.0304)
 -->
<!-- Title: %3 Pages: 1 -->
<svg width="126pt" height="407pt"
 viewBox="0.00 0.00 126.00 407.00" xmlns="http://www.w3.org/2000/svg" xmlns:xlink="http://www.w3.org/1999/xlink">
<g id="graph0" class="graph" transform="scale(1 1) rotate(0) translate(4 403)">
<title>%3</title>
<polygon fill="#ffffff" stroke="transparent" points="-4,4 -4,-403 122,-403 122,4 -4,4"/>
<!-- fake -->
<g id="node1" class="node">
<title>fake</title>
</g>
<!-- A -->
<g id="node6" class="node">
<title>A</title>
<ellipse fill="none" stroke="#000000" cx="57" cy="-308" rx="27" ry="18"/>
<text text-anchor="middle" x="57" y="-304.3" font-family="Times,serif" font-size="14.00" fill="#000000">A</text>
</g>
<!-- fake&#45;&gt;A -->
<g id="edge1" class="edge">
<title>fake&#45;&gt;A</title>
<path fill="none" stroke="#000000" stroke-width="2" d="M57,-362.9551C57,-354.8828 57,-345.1764 57,-336.1817"/>
<polygon fill="#000000" stroke="#000000" stroke-width="2" points="60.5001,-336.0903 57,-326.0904 53.5001,-336.0904 60.5001,-336.0903"/>
</g>
<!-- D -->
<g id="node2" class="node">
<title>D</title>
<ellipse fill="none" stroke="#000000" cx="91" cy="-113" rx="27" ry="18"/>
<text text-anchor="middle" x="91" y="-109.3" font-family="Times,serif" font-size="14.00" fill="#000000">D</text>
</g>
<!-- E -->
<g id="node5" class="node">
<title>E</title>
<ellipse fill="none" stroke="#000000" cx="43" cy="-22" rx="18" ry="18"/>
<ellipse fill="none" stroke="#000000" cx="43" cy="-22" rx="22" ry="22"/>
<text text-anchor="middle" x="43" y="-18.3" font-family="Times,serif" font-size="14.00" fill="#000000">E</text>
</g>
<!-- D&#45;&gt;E -->
<g id="edge6" class="edge">
<title>D&#45;&gt;E</title>
<path fill="none" stroke="#000000" d="M81.9716,-95.8836C75.2884,-83.2134 66.0263,-65.654 58.2084,-50.8327"/>
<polygon fill="#000000" stroke="#000000" points="61.0824,-48.7792 53.3212,-41.5672 54.8909,-52.0451 61.0824,-48.7792"/>
<text text-anchor="middle" x="80.5" y="-65.8" font-family="Times,serif" font-size="14.00" fill="#000000">:Int</text>
</g>
<!-- B -->
<g id="node3" class="node">
<title>B</title>
<ellipse fill="none" stroke="#000000" cx="27" cy="-167" rx="27" ry="18"/>
<text text-anchor="middle" x="27" y="-163.3" font-family="Times,serif" font-size="14.00" fill="#000000">B</text>
</g>
<!-- B&#45;&gt;E -->
<g id="edge4" class="edge">
<title>B&#45;&gt;E</title>
<path fill="none" stroke="#000000" d="M28.9941,-148.9288C31.6054,-125.2639 36.2286,-83.3661 39.446,-54.2085"/>
<polygon fill="#000000" stroke="#000000" points="42.9434,-54.4236 40.5614,-44.1 35.9856,-53.6558 42.9434,-54.4236"/>
<text text-anchor="middle" x="43.5" y="-109.3" font-family="Times,serif" font-size="14.00" fill="#000000">:Int</text>
</g>
<!-- C -->
<g id="node4" class="node">
<title>C</title>
<ellipse fill="none" stroke="#000000" cx="90" cy="-221" rx="27" ry="18"/>
<text text-anchor="middle" x="90" y="-217.3" font-family="Times,serif" font-size="14.00" fill="#000000">C</text>
</g>
<!-- C&#45;&gt;D -->
<g id="edge5" class="edge">
<title>C&#45;&gt;D</title>
<path fill="none" stroke="#000000" d="M90.1696,-202.6793C90.3257,-185.821 90.5596,-160.5651 90.7394,-141.147"/>
<polygon fill="#000000" stroke="#000000" points="94.24,-141.0822 90.8329,-131.0502 87.2403,-141.0173 94.24,-141.0822"/>
<text text-anchor="middle" x="99.5" y="-163.3" font-family="Times,serif" font-size="14.00" fill="#000000">TO</text>
</g>
<!-- A&#45;&gt;B -->
<g id="edge2" class="edge">
<title>A&#45;&gt;B</title>
<path fill="none" stroke="#000000" d="M41.7174,-292.8568C36.6859,-286.8754 31.6937,-279.6138 29,-272 20.2084,-247.1499 20.7089,-216.8795 22.8102,-195.2365"/>
<polygon fill="#000000" stroke="#000000" points="26.3135,-195.4069 23.9752,-185.0733 19.359,-194.6096 26.3135,-195.4069"/>
<text text-anchor="middle" x="48" y="-260.8" font-family="Times,serif" font-size="14.00" fill="#000000">GOTO</text>
</g>
<!-- A&#45;&gt;C -->
<g id="edge3" class="edge">
<title>A&#45;&gt;C</title>
<path fill="none" stroke="#000000" d="M63.678,-290.3943C68.2852,-278.2482 74.4986,-261.8674 79.7316,-248.0711"/>
<polygon fill="#000000" stroke="#000000" points="83.0578,-249.1709 83.3319,-238.5796 76.5128,-246.6882 83.0578,-249.1709"/>
<text text-anchor="middle" x="85" y="-260.8" font-family="Times,serif" font-size="14.00" fill="#000000">GO</text>
</g>
</g>
</svg>
