<?xml version="1.0" encoding="UTF-8" standalone="no"?>
<!DOCTYPE svg PUBLIC "-//W3C//DTD SVG 1.1//EN"
 "http://www.w3.org/Graphics/SVG/1.1/DTD/svg11.dtd">
<!-- Generated by graphviz version 2.40.1 (20161225.0304)
 -->
<!-- Title: %3 Pages: 1 -->
<svg width="422pt" height="647pt"
 viewBox="0.00 0.00 422.00 647.00" xmlns="http://www.w3.org/2000/svg" xmlns:xlink="http://www.w3.org/1999/xlink">
<g id="graph0" class="graph" transform="scale(1 1) rotate(0) translate(4 643)">
<title>%3</title>
<polygon fill="#ffffff" stroke="transparent" points="-4,4 -4,-643 418,-643 418,4 -4,4"/>
<!-- fake -->
<g id="node1" class="node">
<title>fake</title>
</g>
<!-- A -->
<g id="node12" class="node">
<title>A</title>
<ellipse fill="none" stroke="#000000" cx="201" cy="-548" rx="27" ry="18"/>
<text text-anchor="middle" x="201" y="-544.3" font-family="Times,serif" font-size="14.00" fill="#000000">A</text>
</g>
<!-- fake&#45;&gt;A -->
<g id="edge1" class="edge">
<title>fake&#45;&gt;A</title>
<path fill="none" stroke="#000000" stroke-width="2" d="M201,-602.9551C201,-594.8828 201,-585.1764 201,-576.1817"/>
<polygon fill="#000000" stroke="#000000" stroke-width="2" points="204.5001,-576.0903 201,-566.0904 197.5001,-576.0904 204.5001,-576.0903"/>
</g>
<!-- D -->
<g id="node2" class="node">
<title>D</title>
<ellipse fill="none" stroke="#000000" cx="27" cy="-287" rx="27" ry="18"/>
<text text-anchor="middle" x="27" y="-283.3" font-family="Times,serif" font-size="14.00" fill="#000000">D</text>
</g>
<!-- J -->
<g id="node4" class="node">
<title>J</title>
<ellipse fill="none" stroke="#000000" cx="206" cy="-200" rx="27" ry="18"/>
<text text-anchor="middle" x="206" y="-196.3" font-family="Times,serif" font-size="14.00" fill="#000000">J</text>
</g>
<!-- D&#45;&gt;J -->
<g id="edge11" class="edge">
<title>D&#45;&gt;J</title>
<path fill="none" stroke="#000000" d="M45.3919,-273.63C61.184,-262.5589 84.8413,-246.9276 107,-236 127.6723,-225.8054 151.9847,-216.9233 171.3429,-210.5323"/>
<polygon fill="#000000" stroke="#000000" points="172.5284,-213.8275 180.9688,-207.4235 170.3771,-207.1663 172.5284,-213.8275"/>
<text text-anchor="middle" x="120" y="-239.8" font-family="Times,serif" font-size="14.00" fill="#000000">:Exp</text>
</g>
<!-- B -->
<g id="node3" class="node">
<title>B</title>
<ellipse fill="none" stroke="#000000" cx="201" cy="-461" rx="27" ry="18"/>
<text text-anchor="middle" x="201" y="-457.3" font-family="Times,serif" font-size="14.00" fill="#000000">B</text>
</g>
<!-- C -->
<g id="node5" class="node">
<title>C</title>
<ellipse fill="none" stroke="#000000" cx="201" cy="-374" rx="27" ry="18"/>
<text text-anchor="middle" x="201" y="-370.3" font-family="Times,serif" font-size="14.00" fill="#000000">C</text>
</g>
<!-- B&#45;&gt;C -->
<g id="edge3" class="edge">
<title>B&#45;&gt;C</title>
<path fill="none" stroke="#000000" d="M201,-442.9735C201,-431.1918 201,-415.5607 201,-402.1581"/>
<polygon fill="#000000" stroke="#000000" points="204.5001,-402.0033 201,-392.0034 197.5001,-402.0034 204.5001,-402.0033"/>
<text text-anchor="middle" x="214" y="-413.8" font-family="Times,serif" font-size="14.00" fill="#000000">:Exp</text>
</g>
<!-- K -->
<g id="node9" class="node">
<title>K</title>
<ellipse fill="none" stroke="#000000" cx="206" cy="-113" rx="27" ry="18"/>
<text text-anchor="middle" x="206" y="-109.3" font-family="Times,serif" font-size="14.00" fill="#000000">K</text>
</g>
<!-- J&#45;&gt;K -->
<g id="edge16" class="edge">
<title>J&#45;&gt;K</title>
<path fill="none" stroke="#000000" d="M206,-181.9735C206,-170.1918 206,-154.5607 206,-141.1581"/>
<polygon fill="#000000" stroke="#000000" points="209.5001,-141.0033 206,-131.0034 202.5001,-141.0034 209.5001,-141.0033"/>
<text text-anchor="middle" x="224.5" y="-152.8" font-family="Times,serif" font-size="14.00" fill="#000000">THEN</text>
</g>
<!-- C&#45;&gt;D -->
<g id="edge5" class="edge">
<title>C&#45;&gt;D</title>
<path fill="none" stroke="#000000" d="M178.3139,-363.9335C162.6644,-356.8909 141.439,-347.1441 123,-338 100.5808,-326.8821 75.631,-313.599 56.7867,-303.3765"/>
<polygon fill="#000000" stroke="#000000" points="58.2562,-300.1914 47.8,-298.4825 54.9083,-306.3389 58.2562,-300.1914"/>
<text text-anchor="middle" x="131.5" y="-326.8" font-family="Times,serif" font-size="14.00" fill="#000000">&gt;=</text>
</g>
<!-- H -->
<g id="node6" class="node">
<title>H</title>
<ellipse fill="none" stroke="#000000" cx="99" cy="-287" rx="27" ry="18"/>
<text text-anchor="middle" x="99" y="-283.3" font-family="Times,serif" font-size="14.00" fill="#000000">H</text>
</g>
<!-- C&#45;&gt;H -->
<g id="edge6" class="edge">
<title>C&#45;&gt;H</title>
<path fill="none" stroke="#000000" d="M184.1568,-359.6337C167.694,-345.5919 142.4432,-324.0545 123.708,-308.0745"/>
<polygon fill="#000000" stroke="#000000" points="125.7479,-305.2142 115.8682,-301.3876 121.2053,-310.5401 125.7479,-305.2142"/>
<text text-anchor="middle" x="161.5" y="-326.8" font-family="Times,serif" font-size="14.00" fill="#000000">&lt;</text>
</g>
<!-- F -->
<g id="node7" class="node">
<title>F</title>
<ellipse fill="none" stroke="#000000" cx="171" cy="-287" rx="27" ry="18"/>
<text text-anchor="middle" x="171" y="-283.3" font-family="Times,serif" font-size="14.00" fill="#000000">F</text>
</g>
<!-- C&#45;&gt;F -->
<g id="edge9" class="edge">
<title>C&#45;&gt;F</title>
<path fill="none" stroke="#000000" d="M194.9291,-356.3943C190.7408,-344.2482 185.0922,-327.8674 180.3349,-314.0711"/>
<polygon fill="#000000" stroke="#000000" points="183.6307,-312.8923 177.0619,-304.5796 177.0131,-315.1743 183.6307,-312.8923"/>
<text text-anchor="middle" x="192.5" y="-326.8" font-family="Times,serif" font-size="14.00" fill="#000000">&gt;</text>
</g>
<!-- I -->
<g id="node8" class="node">
<title>I</title>
<ellipse fill="none" stroke="#000000" cx="243" cy="-287" rx="27" ry="18"/>
<text text-anchor="middle" x="243" y="-283.3" font-family="Times,serif" font-size="14.00" fill="#000000">I</text>
</g>
<!-- C&#45;&gt;I -->
<g id="edge4" class="edge">
<title>C&#45;&gt;I</title>
<path fill="none" stroke="#000000" d="M209.2978,-356.8116C215.2804,-344.4191 223.4661,-327.4631 230.272,-313.3651"/>
<polygon fill="#000000" stroke="#000000" points="233.5238,-314.6799 234.7194,-304.1527 227.2199,-311.6366 233.5238,-314.6799"/>
<text text-anchor="middle" x="232.5" y="-326.8" font-family="Times,serif" font-size="14.00" fill="#000000">&lt;=</text>
</g>
<!-- E -->
<g id="node10" class="node">
<title>E</title>
<ellipse fill="none" stroke="#000000" cx="315" cy="-287" rx="27" ry="18"/>
<text text-anchor="middle" x="315" y="-283.3" font-family="Times,serif" font-size="14.00" fill="#000000">E</text>
</g>
<!-- C&#45;&gt;E -->
<g id="edge7" class="edge">
<title>C&#45;&gt;E</title>
<path fill="none" stroke="#000000" d="M218.8125,-360.4063C237.6089,-346.0616 267.4246,-323.3076 288.8796,-306.934"/>
<polygon fill="#000000" stroke="#000000" points="291.1102,-309.6345 296.9364,-300.7854 286.8635,-304.0698 291.1102,-309.6345"/>
<text text-anchor="middle" x="268.5" y="-326.8" font-family="Times,serif" font-size="14.00" fill="#000000">=</text>
</g>
<!-- G -->
<g id="node11" class="node">
<title>G</title>
<ellipse fill="none" stroke="#000000" cx="387" cy="-287" rx="27" ry="18"/>
<text text-anchor="middle" x="387" y="-283.3" font-family="Times,serif" font-size="14.00" fill="#000000">G</text>
</g>
<!-- C&#45;&gt;G -->
<g id="edge8" class="edge">
<title>C&#45;&gt;G</title>
<path fill="none" stroke="#000000" d="M223.4697,-363.9386C252.8963,-350.6994 306.0323,-326.5775 351,-305 352.7482,-304.1611 354.5405,-303.2926 356.3466,-302.4107"/>
<polygon fill="#000000" stroke="#000000" points="357.9356,-305.5296 365.3541,-297.9654 354.8377,-299.2524 357.9356,-305.5296"/>
</g>
<!-- H&#45;&gt;J -->
<g id="edge12" class="edge">
<title>H&#45;&gt;J</title>
<path fill="none" stroke="#000000" d="M114.3531,-271.6543C125.1008,-261.1932 139.9886,-247.2522 154,-236 161.5445,-229.9412 170.0569,-223.7877 177.9766,-218.3227"/>
<polygon fill="#000000" stroke="#000000" points="179.9539,-221.2108 186.264,-212.6999 176.0238,-215.4182 179.9539,-221.2108"/>
<text text-anchor="middle" x="167" y="-239.8" font-family="Times,serif" font-size="14.00" fill="#000000">:Exp</text>
</g>
<!-- F&#45;&gt;J -->
<g id="edge15" class="edge">
<title>F&#45;&gt;J</title>
<path fill="none" stroke="#000000" d="M176.7293,-269.3668C180.0687,-259.4669 184.4995,-246.9413 189,-236 190.2621,-232.9318 191.6485,-229.7485 193.0683,-226.6012"/>
<polygon fill="#000000" stroke="#000000" points="196.2955,-227.9617 197.3369,-217.4182 189.9478,-225.011 196.2955,-227.9617"/>
<text text-anchor="middle" x="202" y="-239.8" font-family="Times,serif" font-size="14.00" fill="#000000">:Exp</text>
</g>
<!-- I&#45;&gt;J -->
<g id="edge10" class="edge">
<title>I&#45;&gt;J</title>
<path fill="none" stroke="#000000" d="M235.5125,-269.3943C230.3469,-257.2482 223.3804,-240.8674 217.513,-227.0711"/>
<polygon fill="#000000" stroke="#000000" points="220.6109,-225.4121 213.4764,-217.5796 214.1692,-228.1517 220.6109,-225.4121"/>
<text text-anchor="middle" x="239" y="-239.8" font-family="Times,serif" font-size="14.00" fill="#000000">:Exp</text>
</g>
<!-- L -->
<g id="node13" class="node">
<title>L</title>
<ellipse fill="none" stroke="#000000" cx="206" cy="-22" rx="18" ry="18"/>
<ellipse fill="none" stroke="#000000" cx="206" cy="-22" rx="22" ry="22"/>
<text text-anchor="middle" x="206" y="-18.3" font-family="Times,serif" font-size="14.00" fill="#000000">L</text>
</g>
<!-- K&#45;&gt;L -->
<g id="edge17" class="edge">
<title>K&#45;&gt;L</title>
<path fill="none" stroke="#000000" d="M206,-94.5848C206,-83.1105 206,-68.0231 206,-54.5774"/>
<polygon fill="#000000" stroke="#000000" points="209.5001,-54.2465 206,-44.2465 202.5001,-54.2466 209.5001,-54.2465"/>
<text text-anchor="middle" x="215.5" y="-65.8" font-family="Times,serif" font-size="14.00" fill="#000000">:Int</text>
</g>
<!-- E&#45;&gt;J -->
<g id="edge13" class="edge">
<title>E&#45;&gt;J</title>
<path fill="none" stroke="#000000" d="M298.7995,-272.3114C287.1268,-261.8987 270.8762,-247.7473 256,-236 248.7596,-230.2825 240.7224,-224.3312 233.2472,-218.9526"/>
<polygon fill="#000000" stroke="#000000" points="234.9886,-215.8961 224.8116,-212.9501 230.9302,-221.5996 234.9886,-215.8961"/>
<text text-anchor="middle" x="287" y="-239.8" font-family="Times,serif" font-size="14.00" fill="#000000">:Exp</text>
</g>
<!-- G&#45;&gt;J -->
<g id="edge14" class="edge">
<title>G&#45;&gt;J</title>
<path fill="none" stroke="#000000" d="M368.1622,-273.9228C351.7268,-262.8844 326.9788,-247.143 304,-236 283.4454,-226.0326 259.3771,-217.154 240.2366,-210.708"/>
<polygon fill="#000000" stroke="#000000" points="241.3144,-207.378 230.7212,-207.566 239.1195,-214.025 241.3144,-207.378"/>
<text text-anchor="middle" x="342" y="-239.8" font-family="Times,serif" font-size="14.00" fill="#000000">:Exp</text>
</g>
<!-- A&#45;&gt;B -->
<g id="edge2" class="edge">
<title>A&#45;&gt;B</title>
<path fill="none" stroke="#000000" d="M201,-529.9735C201,-518.1918 201,-502.5607 201,-489.1581"/>
<polygon fill="#000000" stroke="#000000" points="204.5001,-489.0033 201,-479.0034 197.5001,-489.0034 204.5001,-489.0033"/>
<text text-anchor="middle" x="207.5" y="-500.8" font-family="Times,serif" font-size="14.00" fill="#000000">IF</text>
</g>
</g>
</svg>
