<?xml version="1.0" encoding="UTF-8" standalone="no"?>
<!DOCTYPE svg PUBLIC "-//W3C//DTD SVG 1.1//EN"
 "http://www.w3.org/Graphics/SVG/1.1/DTD/svg11.dtd">
<!-- Generated by graphviz version 2.40.1 (20161225.0304)
 -->
<!-- Title: %3 Pages: 1 -->
<svg width="72pt" height="394pt"
 viewBox="0.00 0.00 72.00 394.00" xmlns="http://www.w3.org/2000/svg" xmlns:xlink="http://www.w3.org/1999/xlink">
<g id="graph0" class="graph" transform="scale(1 1) rotate(0) translate(4 390)">
<title>%3</title>
<polygon fill="#ffffff" stroke="transparent" points="-4,4 -4,-390 68,-390 68,4 -4,4"/>
<!-- fake -->
<g id="node1" class="node">
<title>fake</title>
</g>
<!-- A -->
<g id="node3" class="node">
<title>A</title>
<ellipse fill="none" stroke="#000000" cx="27" cy="-295" rx="27" ry="18"/>
<text text-anchor="middle" x="27" y="-291.3" font-family="Times,serif" font-size="14.00" fill="#000000">A</text>
</g>
<!-- fake&#45;&gt;A -->
<g id="edge1" class="edge">
<title>fake&#45;&gt;A</title>
<path fill="none" stroke="#000000" stroke-width="2" d="M27,-349.9551C27,-341.8828 27,-332.1764 27,-323.1817"/>
<polygon fill="#000000" stroke="#000000" stroke-width="2" points="30.5001,-323.0903 27,-313.0904 23.5001,-323.0904 30.5001,-323.0903"/>
</g>
<!-- D -->
<g id="node2" class="node">
<title>D</title>
<ellipse fill="none" stroke="#000000" cx="27" cy="-22" rx="18" ry="18"/>
<ellipse fill="none" stroke="#000000" cx="27" cy="-22" rx="22" ry="22"/>
<text text-anchor="middle" x="27" y="-18.3" font-family="Times,serif" font-size="14.00" fill="#000000">D</text>
</g>
<!-- B -->
<g id="node5" class="node">
<title>B</title>
<ellipse fill="none" stroke="#000000" cx="27" cy="-208" rx="27" ry="18"/>
<text text-anchor="middle" x="27" y="-204.3" font-family="Times,serif" font-size="14.00" fill="#000000">B</text>
</g>
<!-- A&#45;&gt;B -->
<g id="edge2" class="edge">
<title>A&#45;&gt;B</title>
<path fill="none" stroke="#000000" d="M27,-276.9735C27,-265.1918 27,-249.5607 27,-236.1581"/>
<polygon fill="#000000" stroke="#000000" points="30.5001,-236.0033 27,-226.0034 23.5001,-236.0034 30.5001,-236.0033"/>
<text text-anchor="middle" x="45.5" y="-247.8" font-family="Times,serif" font-size="14.00" fill="#000000">NEXT</text>
</g>
<!-- C -->
<g id="node4" class="node">
<title>C</title>
<ellipse fill="none" stroke="#000000" cx="27" cy="-117" rx="18" ry="18"/>
<ellipse fill="none" stroke="#000000" cx="27" cy="-117" rx="22" ry="22"/>
<text text-anchor="middle" x="27" y="-113.3" font-family="Times,serif" font-size="14.00" fill="#000000">C</text>
</g>
<!-- C&#45;&gt;D -->
<g id="edge4" class="edge">
<title>C&#45;&gt;D</title>
<path fill="none" stroke="#000000" d="M27,-94.9663C27,-82.9427 27,-67.8283 27,-54.4785"/>
<polygon fill="#000000" stroke="#000000" points="30.5001,-54.2433 27,-44.2433 23.5001,-54.2433 30.5001,-54.2433"/>
<text text-anchor="middle" x="39.5" y="-65.8" font-family="Times,serif" font-size="14.00" fill="#000000">digit</text>
</g>
<!-- B&#45;&gt;C -->
<g id="edge3" class="edge">
<title>B&#45;&gt;C</title>
<path fill="none" stroke="#000000" d="M27,-189.5848C27,-178.1105 27,-163.0231 27,-149.5774"/>
<polygon fill="#000000" stroke="#000000" points="30.5001,-149.2465 27,-139.2465 23.5001,-149.2466 30.5001,-149.2465"/>
<text text-anchor="middle" x="41" y="-160.8" font-family="Times,serif" font-size="14.00" fill="#000000">letter</text>
</g>
</g>
</svg>
