<?xml version="1.0" encoding="UTF-8" standalone="no"?>
<!DOCTYPE svg PUBLIC "-//W3C//DTD SVG 1.1//EN"
 "http://www.w3.org/Graphics/SVG/1.1/DTD/svg11.dtd">
<!-- Generated by graphviz version 2.40.1 (20161225.0304)
 -->
<!-- Title: %3 Pages: 1 -->
<svg width="248pt" height="721pt"
 viewBox="0.00 0.00 248.00 721.00" xmlns="http://www.w3.org/2000/svg" xmlns:xlink="http://www.w3.org/1999/xlink">
<g id="graph0" class="graph" transform="scale(1 1) rotate(0) translate(4 717)">
<title>%3</title>
<polygon fill="#ffffff" stroke="transparent" points="-4,4 -4,-717 244,-717 244,4 -4,4"/>
<!-- fake -->
<g id="node1" class="node">
<title>fake</title>
</g>
<!-- A -->
<g id="node11" class="node">
<title>A</title>
<ellipse fill="none" stroke="#000000" cx="185" cy="-622" rx="27" ry="18"/>
<text text-anchor="middle" x="185" y="-618.3" font-family="Times,serif" font-size="14.00" fill="#000000">A</text>
</g>
<!-- fake&#45;&gt;A -->
<g id="edge1" class="edge">
<title>fake&#45;&gt;A</title>
<path fill="none" stroke="#000000" stroke-width="2" d="M185,-676.9551C185,-668.8828 185,-659.1764 185,-650.1817"/>
<polygon fill="#000000" stroke="#000000" stroke-width="2" points="188.5001,-650.0903 185,-640.0904 181.5001,-650.0904 188.5001,-650.0903"/>
</g>
<!-- D -->
<g id="node2" class="node">
<title>D</title>
<ellipse fill="none" stroke="#000000" cx="22" cy="-291" rx="18" ry="18"/>
<ellipse fill="none" stroke="#000000" cx="22" cy="-291" rx="22" ry="22"/>
<text text-anchor="middle" x="22" y="-287.3" font-family="Times,serif" font-size="14.00" fill="#000000">D</text>
</g>
<!-- D&#45;&gt;D -->
<g id="edge13" class="edge">
<title>D&#45;&gt;D</title>
<path fill="none" stroke="#000000" d="M42.5808,-299.3702C52.8447,-300.5284 62,-297.7383 62,-291 62,-286.6833 58.2427,-283.9869 52.8436,-282.9109"/>
<polygon fill="#000000" stroke="#000000" points="52.6729,-279.405 42.5808,-282.6298 52.4812,-286.4024 52.6729,-279.405"/>
<text text-anchor="middle" x="74.5" y="-287.3" font-family="Times,serif" font-size="14.00" fill="#000000">digit</text>
</g>
<!-- G -->
<g id="node10" class="node">
<title>G</title>
<ellipse fill="none" stroke="#000000" cx="141" cy="-200" rx="27" ry="18"/>
<text text-anchor="middle" x="141" y="-196.3" font-family="Times,serif" font-size="14.00" fill="#000000">G</text>
</g>
<!-- D&#45;&gt;G -->
<g id="edge14" class="edge">
<title>D&#45;&gt;G</title>
<path fill="none" stroke="#000000" d="M39.5589,-277.5726C59.3944,-262.4043 91.8828,-237.5602 114.7378,-220.0829"/>
<polygon fill="#000000" stroke="#000000" points="117.1615,-222.6356 122.979,-213.7808 112.9093,-217.0751 117.1615,-222.6356"/>
<text text-anchor="middle" x="97.5" y="-239.8" font-family="Times,serif" font-size="14.00" fill="#000000">E</text>
</g>
<!-- B -->
<g id="node3" class="node">
<title>B</title>
<ellipse fill="none" stroke="#000000" cx="156" cy="-531" rx="18" ry="18"/>
<ellipse fill="none" stroke="#000000" cx="156" cy="-531" rx="22" ry="22"/>
<text text-anchor="middle" x="156" y="-527.3" font-family="Times,serif" font-size="14.00" fill="#000000">B</text>
</g>
<!-- C -->
<g id="node5" class="node">
<title>C</title>
<ellipse fill="none" stroke="#000000" cx="110" cy="-415" rx="18" ry="18"/>
<ellipse fill="none" stroke="#000000" cx="110" cy="-415" rx="22" ry="22"/>
<text text-anchor="middle" x="110" y="-411.3" font-family="Times,serif" font-size="14.00" fill="#000000">C</text>
</g>
<!-- B&#45;&gt;C -->
<g id="edge4" class="edge">
<title>B&#45;&gt;C</title>
<path fill="none" stroke="#000000" d="M147.882,-510.5286C140.7005,-492.4185 130.1265,-465.7538 121.9738,-445.1949"/>
<polygon fill="#000000" stroke="#000000" points="125.1314,-443.6626 118.1916,-435.657 118.6244,-446.243 125.1314,-443.6626"/>
<text text-anchor="middle" x="142" y="-469.3" font-family="Times,serif" font-size="14.00" fill="#000000">.</text>
</g>
<!-- B&#45;&gt;G -->
<g id="edge5" class="edge">
<title>B&#45;&gt;G</title>
<path fill="none" stroke="#000000" d="M156.0354,-508.7488C155.9408,-459.5017 154.7537,-337.6005 146,-236 145.7772,-233.4146 145.497,-230.7308 145.1836,-228.047"/>
<polygon fill="#000000" stroke="#000000" points="148.6246,-227.3673 143.861,-217.9038 141.6834,-228.2724 148.6246,-227.3673"/>
<text text-anchor="middle" x="158.5" y="-349.3" font-family="Times,serif" font-size="14.00" fill="#000000">E</text>
</g>
<!-- J -->
<g id="node4" class="node">
<title>J</title>
<ellipse fill="none" stroke="#000000" cx="141" cy="-22" rx="18" ry="18"/>
<ellipse fill="none" stroke="#000000" cx="141" cy="-22" rx="22" ry="22"/>
<text text-anchor="middle" x="141" y="-18.3" font-family="Times,serif" font-size="14.00" fill="#000000">J</text>
</g>
<!-- C&#45;&gt;D -->
<g id="edge7" class="edge">
<title>C&#45;&gt;D</title>
<path fill="none" stroke="#000000" d="M97.204,-396.9693C82.3447,-376.0311 57.7031,-341.3089 40.6985,-317.3478"/>
<polygon fill="#000000" stroke="#000000" points="43.4532,-315.1819 34.8114,-309.0524 37.7446,-319.2331 43.4532,-315.1819"/>
<text text-anchor="middle" x="94.5" y="-349.3" font-family="Times,serif" font-size="14.00" fill="#000000">digit</text>
</g>
<!-- C&#45;&gt;G -->
<g id="edge8" class="edge">
<title>C&#45;&gt;G</title>
<path fill="none" stroke="#000000" d="M113.143,-393.2015C118.7907,-354.0319 130.6495,-271.7855 136.9172,-228.3161"/>
<polygon fill="#000000" stroke="#000000" points="140.42,-228.547 138.383,-218.1498 133.4917,-227.5479 140.42,-228.547"/>
<text text-anchor="middle" x="135.5" y="-287.3" font-family="Times,serif" font-size="14.00" fill="#000000">E</text>
</g>
<!-- F -->
<g id="node6" class="node">
<title>F</title>
<ellipse fill="none" stroke="#000000" cx="206" cy="-353" rx="18" ry="18"/>
<ellipse fill="none" stroke="#000000" cx="206" cy="-353" rx="22" ry="22"/>
<text text-anchor="middle" x="206" y="-349.3" font-family="Times,serif" font-size="14.00" fill="#000000">F</text>
</g>
<!-- F&#45;&gt;G -->
<g id="edge12" class="edge">
<title>F&#45;&gt;G</title>
<path fill="none" stroke="#000000" d="M203.1805,-331.1326C199.3351,-306.7127 190.8961,-266.6027 174,-236 171.2851,-231.0826 167.7653,-226.2994 164.039,-221.9102"/>
<polygon fill="#000000" stroke="#000000" points="166.5755,-219.4976 157.238,-214.4914 161.4155,-224.2279 166.5755,-219.4976"/>
<text text-anchor="middle" x="203.5" y="-287.3" font-family="Times,serif" font-size="14.00" fill="#000000">E</text>
</g>
<!-- H -->
<g id="node7" class="node">
<title>H</title>
<ellipse fill="none" stroke="#000000" cx="141" cy="-113" rx="27" ry="18"/>
<text text-anchor="middle" x="141" y="-109.3" font-family="Times,serif" font-size="14.00" fill="#000000">H</text>
</g>
<!-- H&#45;&gt;J -->
<g id="edge15" class="edge">
<title>H&#45;&gt;J</title>
<path fill="none" stroke="#000000" d="M141,-94.5848C141,-83.1105 141,-68.0231 141,-54.5774"/>
<polygon fill="#000000" stroke="#000000" points="144.5001,-54.2465 141,-44.2465 137.5001,-54.2466 144.5001,-54.2465"/>
<text text-anchor="middle" x="150.5" y="-65.8" font-family="Times,serif" font-size="14.00" fill="#000000">:Int</text>
</g>
<!-- I -->
<g id="node8" class="node">
<title>I</title>
<ellipse fill="none" stroke="#000000" cx="213" cy="-113" rx="27" ry="18"/>
<text text-anchor="middle" x="213" y="-109.3" font-family="Times,serif" font-size="14.00" fill="#000000">I</text>
</g>
<!-- I&#45;&gt;J -->
<g id="edge16" class="edge">
<title>I&#45;&gt;J</title>
<path fill="none" stroke="#000000" d="M200.1278,-96.731C189.2433,-82.9742 173.4673,-63.0351 160.9481,-47.2121"/>
<polygon fill="#000000" stroke="#000000" points="163.691,-45.038 154.7413,-39.3675 158.2014,-49.3814 163.691,-45.038"/>
<text text-anchor="middle" x="192.5" y="-65.8" font-family="Times,serif" font-size="14.00" fill="#000000">:Int</text>
</g>
<!-- E -->
<g id="node9" class="node">
<title>E</title>
<ellipse fill="none" stroke="#000000" cx="206" cy="-473" rx="27" ry="18"/>
<text text-anchor="middle" x="206" y="-469.3" font-family="Times,serif" font-size="14.00" fill="#000000">E</text>
</g>
<!-- E&#45;&gt;F -->
<g id="edge6" class="edge">
<title>E&#45;&gt;F</title>
<path fill="none" stroke="#000000" d="M206,-454.7746C206,-436.3225 206,-407.4058 206,-385.1037"/>
<polygon fill="#000000" stroke="#000000" points="209.5001,-385.0731 206,-375.0732 202.5001,-385.0732 209.5001,-385.0731"/>
<text text-anchor="middle" x="215.5" y="-411.3" font-family="Times,serif" font-size="14.00" fill="#000000">:Int</text>
</g>
<!-- G&#45;&gt;J -->
<g id="edge10" class="edge">
<title>G&#45;&gt;J</title>
<path fill="none" stroke="#000000" d="M124.4223,-185.4631C111.1657,-172.6514 93.5869,-152.6901 86,-131 80.7173,-115.8973 80.9238,-110.1734 86,-95 92.3968,-75.8793 105.993,-57.7556 118.066,-44.3496"/>
<polygon fill="#000000" stroke="#000000" points="120.6436,-46.7176 124.9325,-37.0297 115.5382,-41.9285 120.6436,-46.7176"/>
<text text-anchor="middle" x="95.5" y="-109.3" font-family="Times,serif" font-size="14.00" fill="#000000">:Int</text>
</g>
<!-- G&#45;&gt;H -->
<g id="edge9" class="edge">
<title>G&#45;&gt;H</title>
<path fill="none" stroke="#000000" d="M141,-181.9735C141,-170.1918 141,-154.5607 141,-141.1581"/>
<polygon fill="#000000" stroke="#000000" points="144.5001,-141.0033 141,-131.0034 137.5001,-141.0034 144.5001,-141.0033"/>
<text text-anchor="middle" x="145.5" y="-152.8" font-family="Times,serif" font-size="14.00" fill="#000000">+</text>
</g>
<!-- G&#45;&gt;I -->
<g id="edge11" class="edge">
<title>G&#45;&gt;I</title>
<path fill="none" stroke="#000000" d="M154.2059,-184.0429C165.1672,-170.798 180.9179,-151.7659 193.3584,-136.7336"/>
<polygon fill="#000000" stroke="#000000" points="196.1985,-138.7914 199.8778,-128.856 190.8057,-134.3284 196.1985,-138.7914"/>
<text text-anchor="middle" x="183.5" y="-152.8" font-family="Times,serif" font-size="14.00" fill="#000000">&#45;</text>
</g>
<!-- A&#45;&gt;B -->
<g id="edge2" class="edge">
<title>A&#45;&gt;B</title>
<path fill="none" stroke="#000000" d="M174.1786,-605.3506C170.7715,-599.4448 167.3013,-592.6181 165,-586 162.4875,-578.7746 160.6685,-570.7662 159.3543,-563.1476"/>
<polygon fill="#000000" stroke="#000000" points="162.7942,-562.4847 157.8573,-553.1104 155.8708,-563.5173 162.7942,-562.4847"/>
<text text-anchor="middle" x="174.5" y="-574.8" font-family="Times,serif" font-size="14.00" fill="#000000">:Int</text>
</g>
<!-- A&#45;&gt;E -->
<g id="edge3" class="edge">
<title>A&#45;&gt;E</title>
<path fill="none" stroke="#000000" d="M187.5331,-604.0271C191.1437,-578.4091 197.8032,-531.1581 202.061,-500.9481"/>
<polygon fill="#000000" stroke="#000000" points="205.528,-501.4273 203.4579,-491.0366 198.5965,-500.4503 205.528,-501.4273"/>
<text text-anchor="middle" x="193" y="-574.8" font-family="Times,serif" font-size="14.00" fill="#000000">.</text>
</g>
</g>
</svg>
