<?xml version="1.0" encoding="UTF-8" standalone="no"?>
<!DOCTYPE svg PUBLIC "-//W3C//DTD SVG 1.1//EN"
 "http://www.w3.org/Graphics/SVG/1.1/DTD/svg11.dtd">
<!-- Generated by graphviz version 2.40.1 (20161225.0304)
 -->
<!-- Title: %3 Pages: 1 -->
<svg width="230pt" height="576pt"
 viewBox="0.00 0.00 230.00 576.00" xmlns="http://www.w3.org/2000/svg" xmlns:xlink="http://www.w3.org/1999/xlink">
<g id="graph0" class="graph" transform="scale(1 1) rotate(0) translate(4 572)">
<title>%3</title>
<polygon fill="#ffffff" stroke="transparent" points="-4,4 -4,-572 226,-572 226,4 -4,4"/>
<!-- fake -->
<g id="node1" class="node">
<title>fake</title>
</g>
<!-- A -->
<g id="node8" class="node">
<title>A</title>
<ellipse fill="none" stroke="#000000" cx="51" cy="-477" rx="27" ry="18"/>
<text text-anchor="middle" x="51" y="-473.3" font-family="Times,serif" font-size="14.00" fill="#000000">A</text>
</g>
<!-- fake&#45;&gt;A -->
<g id="edge1" class="edge">
<title>fake&#45;&gt;A</title>
<path fill="none" stroke="#000000" stroke-width="2" d="M51,-531.9551C51,-523.8828 51,-514.1764 51,-505.1817"/>
<polygon fill="#000000" stroke="#000000" stroke-width="2" points="54.5001,-505.0903 51,-495.0904 47.5001,-505.0904 54.5001,-505.0903"/>
</g>
<!-- D -->
<g id="node2" class="node">
<title>D</title>
<ellipse fill="none" stroke="#000000" cx="89" cy="-295" rx="27" ry="18"/>
<text text-anchor="middle" x="89" y="-291.3" font-family="Times,serif" font-size="14.00" fill="#000000">D</text>
</g>
<!-- F -->
<g id="node5" class="node">
<title>F</title>
<ellipse fill="none" stroke="#000000" cx="84" cy="-117" rx="18" ry="18"/>
<ellipse fill="none" stroke="#000000" cx="84" cy="-117" rx="22" ry="22"/>
<text text-anchor="middle" x="84" y="-113.3" font-family="Times,serif" font-size="14.00" fill="#000000">F</text>
</g>
<!-- D&#45;&gt;F -->
<g id="edge5" class="edge">
<title>D&#45;&gt;F</title>
<path fill="none" stroke="#000000" d="M84.9837,-276.9518C82.1143,-263.0956 78.5056,-243.4441 77,-226 74.772,-200.1854 76.9166,-170.8748 79.4008,-149.1546"/>
<polygon fill="#000000" stroke="#000000" points="82.8843,-149.5024 80.63,-139.1502 75.9366,-148.6488 82.8843,-149.5024"/>
<text text-anchor="middle" x="80.5" y="-204.3" font-family="Times,serif" font-size="14.00" fill="#000000">&quot;</text>
</g>
<!-- E -->
<g id="node6" class="node">
<title>E</title>
<ellipse fill="none" stroke="#000000" cx="120" cy="-208" rx="27" ry="18"/>
<text text-anchor="middle" x="120" y="-204.3" font-family="Times,serif" font-size="14.00" fill="#000000">E</text>
</g>
<!-- D&#45;&gt;E -->
<g id="edge6" class="edge">
<title>D&#45;&gt;E</title>
<path fill="none" stroke="#000000" d="M95.2733,-277.3943C99.6012,-265.2482 105.438,-248.8674 110.354,-235.0711"/>
<polygon fill="#000000" stroke="#000000" points="113.6764,-236.1742 113.736,-225.5796 107.0825,-233.8246 113.6764,-236.1742"/>
<text text-anchor="middle" x="134.5" y="-247.8" font-family="Times,serif" font-size="14.00" fill="#000000">:Character</text>
</g>
<!-- B -->
<g id="node3" class="node">
<title>B</title>
<ellipse fill="none" stroke="#000000" cx="22" cy="-386" rx="18" ry="18"/>
<ellipse fill="none" stroke="#000000" cx="22" cy="-386" rx="22" ry="22"/>
<text text-anchor="middle" x="22" y="-382.3" font-family="Times,serif" font-size="14.00" fill="#000000">B</text>
</g>
<!-- C -->
<g id="node4" class="node">
<title>C</title>
<ellipse fill="none" stroke="#000000" cx="89" cy="-386" rx="27" ry="18"/>
<text text-anchor="middle" x="89" y="-382.3" font-family="Times,serif" font-size="14.00" fill="#000000">C</text>
</g>
<!-- C&#45;&gt;D -->
<g id="edge4" class="edge">
<title>C&#45;&gt;D</title>
<path fill="none" stroke="#000000" d="M89,-367.5848C89,-354.9209 89,-337.8558 89,-323.4541"/>
<polygon fill="#000000" stroke="#000000" points="92.5001,-323.0772 89,-313.0773 85.5001,-323.0773 92.5001,-323.0772"/>
<text text-anchor="middle" x="117.5" y="-334.8" font-family="Times,serif" font-size="14.00" fill="#000000">:Character</text>
</g>
<!-- G -->
<g id="node7" class="node">
<title>G</title>
<ellipse fill="none" stroke="#000000" cx="84" cy="-22" rx="18" ry="18"/>
<ellipse fill="none" stroke="#000000" cx="84" cy="-22" rx="22" ry="22"/>
<text text-anchor="middle" x="84" y="-18.3" font-family="Times,serif" font-size="14.00" fill="#000000">G</text>
</g>
<!-- F&#45;&gt;G -->
<g id="edge7" class="edge">
<title>F&#45;&gt;G</title>
<path fill="none" stroke="#000000" d="M84,-94.9663C84,-82.9427 84,-67.8283 84,-54.4785"/>
<polygon fill="#000000" stroke="#000000" points="87.5001,-54.2433 84,-44.2433 80.5001,-54.2433 87.5001,-54.2433"/>
<text text-anchor="middle" x="97" y="-65.8" font-family="Times,serif" font-size="14.00" fill="#000000">:Exp</text>
</g>
<!-- E&#45;&gt;F -->
<g id="edge8" class="edge">
<title>E&#45;&gt;F</title>
<path fill="none" stroke="#000000" d="M113.0588,-190.4543C108.2113,-178.2009 101.6168,-161.5313 95.9351,-147.1694"/>
<polygon fill="#000000" stroke="#000000" points="99.1135,-145.689 92.1802,-137.6778 92.6043,-148.2641 99.1135,-145.689"/>
<text text-anchor="middle" x="108.5" y="-160.8" font-family="Times,serif" font-size="14.00" fill="#000000">&quot;</text>
</g>
<!-- E&#45;&gt;E -->
<g id="edge9" class="edge">
<title>E&#45;&gt;E</title>
<path fill="none" stroke="#000000" d="M144.5325,-215.752C155.5078,-216.4902 165,-213.9063 165,-208 165,-204.0317 160.7151,-201.5632 154.5743,-200.5944"/>
<polygon fill="#000000" stroke="#000000" points="154.6472,-197.0949 144.5325,-200.248 154.4059,-204.0908 154.6472,-197.0949"/>
<text text-anchor="middle" x="193.5" y="-204.3" font-family="Times,serif" font-size="14.00" fill="#000000">:Character</text>
</g>
<!-- A&#45;&gt;B -->
<g id="edge3" class="edge">
<title>A&#45;&gt;B</title>
<path fill="none" stroke="#000000" d="M40.8064,-460.2681C37.5767,-454.3557 34.2622,-447.5459 32,-441 29.4937,-433.7477 27.5817,-425.7291 26.1359,-418.1091"/>
<polygon fill="#000000" stroke="#000000" points="29.5578,-417.3524 24.4414,-408.0748 22.6555,-418.518 29.5578,-417.3524"/>
<text text-anchor="middle" x="45" y="-429.8" font-family="Times,serif" font-size="14.00" fill="#000000">:Exp</text>
</g>
<!-- A&#45;&gt;C -->
<g id="edge2" class="edge">
<title>A&#45;&gt;C</title>
<path fill="none" stroke="#000000" d="M58.3268,-459.4543C63.8466,-446.2357 71.5125,-427.8779 77.7997,-412.8218"/>
<polygon fill="#000000" stroke="#000000" points="81.072,-414.0683 81.6957,-403.4919 74.6126,-411.3709 81.072,-414.0683"/>
<text text-anchor="middle" x="75.5" y="-429.8" font-family="Times,serif" font-size="14.00" fill="#000000">&quot;</text>
</g>
</g>
</svg>
