<?xml version="1.0" encoding="UTF-8" standalone="no"?>
<!DOCTYPE svg PUBLIC "-//W3C//DTD SVG 1.1//EN"
 "http://www.w3.org/Graphics/SVG/1.1/DTD/svg11.dtd">
<!-- Generated by graphviz version 2.40.1 (20161225.0304)
 -->
<!-- Title: %3 Pages: 1 -->
<svg width="610pt" height="212pt"
 viewBox="0.00 0.00 610.00 212.00" xmlns="http://www.w3.org/2000/svg" xmlns:xlink="http://www.w3.org/1999/xlink">
<g id="graph0" class="graph" transform="scale(1 1) rotate(0) translate(4 208)">
<title>%3</title>
<polygon fill="#ffffff" stroke="transparent" points="-4,4 -4,-208 606,-208 606,4 -4,4"/>
<!-- fake -->
<g id="node1" class="node">
<title>fake</title>
</g>
<!-- A -->
<g id="node12" class="node">
<title>A</title>
<ellipse fill="none" stroke="#000000" cx="301" cy="-113" rx="27" ry="18"/>
<text text-anchor="middle" x="301" y="-109.3" font-family="Times,serif" font-size="14.00" fill="#000000">A</text>
</g>
<!-- fake&#45;&gt;A -->
<g id="edge1" class="edge">
<title>fake&#45;&gt;A</title>
<path fill="none" stroke="#000000" stroke-width="2" d="M301,-167.9551C301,-159.8828 301,-150.1764 301,-141.1817"/>
<polygon fill="#000000" stroke="#000000" stroke-width="2" points="304.5001,-141.0903 301,-131.0904 297.5001,-141.0904 304.5001,-141.0903"/>
</g>
<!-- D -->
<g id="node2" class="node">
<title>D</title>
<ellipse fill="none" stroke="#000000" cx="22" cy="-22" rx="18" ry="18"/>
<ellipse fill="none" stroke="#000000" cx="22" cy="-22" rx="22" ry="22"/>
<text text-anchor="middle" x="22" y="-18.3" font-family="Times,serif" font-size="14.00" fill="#000000">D</text>
</g>
<!-- B -->
<g id="node3" class="node">
<title>B</title>
<ellipse fill="none" stroke="#000000" cx="84" cy="-22" rx="18" ry="18"/>
<ellipse fill="none" stroke="#000000" cx="84" cy="-22" rx="22" ry="22"/>
<text text-anchor="middle" x="84" y="-18.3" font-family="Times,serif" font-size="14.00" fill="#000000">B</text>
</g>
<!-- J -->
<g id="node4" class="node">
<title>J</title>
<ellipse fill="none" stroke="#000000" cx="146" cy="-22" rx="18" ry="18"/>
<ellipse fill="none" stroke="#000000" cx="146" cy="-22" rx="22" ry="22"/>
<text text-anchor="middle" x="146" y="-18.3" font-family="Times,serif" font-size="14.00" fill="#000000">J</text>
</g>
<!-- C -->
<g id="node5" class="node">
<title>C</title>
<ellipse fill="none" stroke="#000000" cx="208" cy="-22" rx="18" ry="18"/>
<ellipse fill="none" stroke="#000000" cx="208" cy="-22" rx="22" ry="22"/>
<text text-anchor="middle" x="208" y="-18.3" font-family="Times,serif" font-size="14.00" fill="#000000">C</text>
</g>
<!-- F -->
<g id="node6" class="node">
<title>F</title>
<ellipse fill="none" stroke="#000000" cx="270" cy="-22" rx="18" ry="18"/>
<ellipse fill="none" stroke="#000000" cx="270" cy="-22" rx="22" ry="22"/>
<text text-anchor="middle" x="270" y="-18.3" font-family="Times,serif" font-size="14.00" fill="#000000">F</text>
</g>
<!-- I -->
<g id="node7" class="node">
<title>I</title>
<ellipse fill="none" stroke="#000000" cx="332" cy="-22" rx="18" ry="18"/>
<ellipse fill="none" stroke="#000000" cx="332" cy="-22" rx="22" ry="22"/>
<text text-anchor="middle" x="332" y="-18.3" font-family="Times,serif" font-size="14.00" fill="#000000">I</text>
</g>
<!-- H -->
<g id="node8" class="node">
<title>H</title>
<ellipse fill="none" stroke="#000000" cx="394" cy="-22" rx="18" ry="18"/>
<ellipse fill="none" stroke="#000000" cx="394" cy="-22" rx="22" ry="22"/>
<text text-anchor="middle" x="394" y="-18.3" font-family="Times,serif" font-size="14.00" fill="#000000">H</text>
</g>
<!-- K -->
<g id="node9" class="node">
<title>K</title>
<ellipse fill="none" stroke="#000000" cx="456" cy="-22" rx="18" ry="18"/>
<ellipse fill="none" stroke="#000000" cx="456" cy="-22" rx="22" ry="22"/>
<text text-anchor="middle" x="456" y="-18.3" font-family="Times,serif" font-size="14.00" fill="#000000">K</text>
</g>
<!-- E -->
<g id="node10" class="node">
<title>E</title>
<ellipse fill="none" stroke="#000000" cx="518" cy="-22" rx="18" ry="18"/>
<ellipse fill="none" stroke="#000000" cx="518" cy="-22" rx="22" ry="22"/>
<text text-anchor="middle" x="518" y="-18.3" font-family="Times,serif" font-size="14.00" fill="#000000">E</text>
</g>
<!-- G -->
<g id="node11" class="node">
<title>G</title>
<ellipse fill="none" stroke="#000000" cx="580" cy="-22" rx="18" ry="18"/>
<ellipse fill="none" stroke="#000000" cx="580" cy="-22" rx="22" ry="22"/>
<text text-anchor="middle" x="580" y="-18.3" font-family="Times,serif" font-size="14.00" fill="#000000">G</text>
</g>
<!-- A&#45;&gt;D -->
<g id="edge11" class="edge">
<title>A&#45;&gt;D</title>
<path fill="none" stroke="#000000" d="M273.9554,-111.4149C235.1161,-108.401 161.8517,-99.9409 104,-77 83.1604,-68.7361 62.2127,-54.5617 46.706,-42.6723"/>
<polygon fill="#000000" stroke="#000000" points="48.7074,-39.7934 38.6863,-36.3543 44.3755,-45.2921 48.7074,-39.7934"/>
<text text-anchor="middle" x="118" y="-65.8" font-family="Times,serif" font-size="14.00" fill="#000000">LOG</text>
</g>
<!-- A&#45;&gt;B -->
<g id="edge7" class="edge">
<title>A&#45;&gt;B</title>
<path fill="none" stroke="#000000" d="M274.526,-109.2925C245.4104,-104.5305 197.7475,-94.6884 160,-77 141.3839,-68.2765 122.6488,-54.784 108.438,-43.3463"/>
<polygon fill="#000000" stroke="#000000" points="110.5692,-40.5671 100.6289,-36.901 106.1134,-45.9658 110.5692,-40.5671"/>
<text text-anchor="middle" x="171" y="-65.8" font-family="Times,serif" font-size="14.00" fill="#000000">SIN</text>
</g>
<!-- A&#45;&gt;J -->
<g id="edge10" class="edge">
<title>A&#45;&gt;J</title>
<path fill="none" stroke="#000000" d="M275.5977,-106.2524C255.7412,-100.3154 227.9251,-90.5054 206,-77 192.1553,-68.4719 178.6341,-56.498 167.9429,-45.8991"/>
<polygon fill="#000000" stroke="#000000" points="170.1903,-43.1915 160.694,-38.4934 165.1878,-48.088 170.1903,-43.1915"/>
<text text-anchor="middle" x="220" y="-65.8" font-family="Times,serif" font-size="14.00" fill="#000000">ATN</text>
</g>
<!-- A&#45;&gt;C -->
<g id="edge4" class="edge">
<title>A&#45;&gt;C</title>
<path fill="none" stroke="#000000" d="M281.4693,-100.4138C272.0998,-93.9475 260.987,-85.625 252,-77 242.9245,-68.2901 234.0382,-57.6995 226.6543,-48.1458"/>
<polygon fill="#000000" stroke="#000000" points="229.3982,-45.9713 220.5852,-40.0905 223.8074,-50.1835 229.3982,-45.9713"/>
<text text-anchor="middle" x="265.5" y="-65.8" font-family="Times,serif" font-size="14.00" fill="#000000">ABS</text>
</g>
<!-- A&#45;&gt;F -->
<g id="edge2" class="edge">
<title>A&#45;&gt;F</title>
<path fill="none" stroke="#000000" d="M294.8754,-95.0213C290.7861,-83.0173 285.3023,-66.9196 280.5242,-52.8935"/>
<polygon fill="#000000" stroke="#000000" points="283.7374,-51.4718 277.1997,-43.1346 277.1113,-53.7291 283.7374,-51.4718"/>
<text text-anchor="middle" x="296" y="-65.8" font-family="Times,serif" font-size="14.00" fill="#000000">Int</text>
</g>
<!-- A&#45;&gt;I -->
<g id="edge5" class="edge">
<title>A&#45;&gt;I</title>
<path fill="none" stroke="#000000" d="M307.1246,-95.0213C311.2139,-83.0173 316.6977,-66.9196 321.4758,-52.8935"/>
<polygon fill="#000000" stroke="#000000" points="324.8887,-53.7291 324.8003,-43.1346 318.2626,-51.4718 324.8887,-53.7291"/>
<text text-anchor="middle" x="332" y="-65.8" font-family="Times,serif" font-size="14.00" fill="#000000">TAN</text>
</g>
<!-- A&#45;&gt;H -->
<g id="edge3" class="edge">
<title>A&#45;&gt;H</title>
<path fill="none" stroke="#000000" d="M320.5307,-100.4138C329.9002,-93.9475 341.013,-85.625 350,-77 359.0755,-68.2901 367.9618,-57.6995 375.3457,-48.1458"/>
<polygon fill="#000000" stroke="#000000" points="378.1926,-50.1835 381.4148,-40.0905 372.6018,-45.9713 378.1926,-50.1835"/>
<text text-anchor="middle" x="376.5" y="-65.8" font-family="Times,serif" font-size="14.00" fill="#000000">COS</text>
</g>
<!-- A&#45;&gt;K -->
<g id="edge8" class="edge">
<title>A&#45;&gt;K</title>
<path fill="none" stroke="#000000" d="M326.2013,-105.9353C345.576,-99.8817 372.5651,-90.0679 394,-77 408.3742,-68.2367 422.5599,-55.9954 433.727,-45.2856"/>
<polygon fill="#000000" stroke="#000000" points="436.2744,-47.6891 440.9409,-38.1773 431.3613,-42.7029 436.2744,-47.6891"/>
<text text-anchor="middle" x="427" y="-65.8" font-family="Times,serif" font-size="14.00" fill="#000000">EXP</text>
</g>
<!-- A&#45;&gt;E -->
<g id="edge9" class="edge">
<title>A&#45;&gt;E</title>
<path fill="none" stroke="#000000" d="M327.6255,-109.4915C357.168,-104.884 405.7183,-95.1577 444,-77 461.9653,-68.4787 479.9192,-55.2773 493.6428,-43.9441"/>
<polygon fill="#000000" stroke="#000000" points="496.2441,-46.3269 501.6033,-37.1874 491.7144,-40.9901 496.2441,-46.3269"/>
<text text-anchor="middle" x="481.5" y="-65.8" font-family="Times,serif" font-size="14.00" fill="#000000">SQR</text>
</g>
<!-- A&#45;&gt;G -->
<g id="edge6" class="edge">
<title>A&#45;&gt;G</title>
<path fill="none" stroke="#000000" d="M328.2102,-111.5099C367.281,-108.6117 440.9588,-100.291 499,-77 519.4979,-68.7745 540.0553,-54.7296 555.331,-42.8919"/>
<polygon fill="#000000" stroke="#000000" points="557.5979,-45.5609 563.2402,-36.5934 553.2373,-40.085 557.5979,-45.5609"/>
<text text-anchor="middle" x="541.5" y="-65.8" font-family="Times,serif" font-size="14.00" fill="#000000">RND</text>
</g>
</g>
</svg>
