<?xml version="1.0" encoding="UTF-8" standalone="no"?>
<!DOCTYPE svg PUBLIC "-//W3C//DTD SVG 1.1//EN"
 "http://www.w3.org/Graphics/SVG/1.1/DTD/svg11.dtd">
<!-- Generated by graphviz version 2.40.1 (20161225.0304)
 -->
<!-- Title: %3 Pages: 1 -->
<svg width="210pt" height="497pt"
 viewBox="0.00 0.00 209.73 497.00" xmlns="http://www.w3.org/2000/svg" xmlns:xlink="http://www.w3.org/1999/xlink">
<g id="graph0" class="graph" transform="scale(1 1) rotate(0) translate(4 493)">
<title>%3</title>
<polygon fill="#ffffff" stroke="transparent" points="-4,4 -4,-493 205.734,-493 205.734,4 -4,4"/>
<!-- fake -->
<g id="node1" class="node">
<title>fake</title>
</g>
<!-- A -->
<g id="node8" class="node">
<title>A</title>
<ellipse fill="none" stroke="#000000" cx="30.734" cy="-398" rx="27" ry="18"/>
<text text-anchor="middle" x="30.734" y="-394.3" font-family="Times,serif" font-size="14.00" fill="#000000">A</text>
</g>
<!-- fake&#45;&gt;A -->
<g id="edge1" class="edge">
<title>fake&#45;&gt;A</title>
<path fill="none" stroke="#000000" stroke-width="2" d="M30.734,-452.9551C30.734,-444.8828 30.734,-435.1764 30.734,-426.1817"/>
<polygon fill="#000000" stroke="#000000" stroke-width="2" points="34.2341,-426.0903 30.734,-416.0904 27.2341,-426.0904 34.2341,-426.0903"/>
</g>
<!-- D -->
<g id="node2" class="node">
<title>D</title>
<ellipse fill="none" stroke="#000000" cx="30.734" cy="-22" rx="18" ry="18"/>
<ellipse fill="none" stroke="#000000" cx="30.734" cy="-22" rx="22" ry="22"/>
<text text-anchor="middle" x="30.734" y="-18.3" font-family="Times,serif" font-size="14.00" fill="#000000">D</text>
</g>
<!-- F -->
<g id="node5" class="node">
<title>F</title>
<ellipse fill="none" stroke="#000000" cx="30.734" cy="-117" rx="18" ry="18"/>
<ellipse fill="none" stroke="#000000" cx="30.734" cy="-117" rx="22" ry="22"/>
<text text-anchor="middle" x="30.734" y="-113.3" font-family="Times,serif" font-size="14.00" fill="#000000">F</text>
</g>
<!-- D&#45;&gt;F -->
<g id="edge6" class="edge">
<title>D&#45;&gt;F</title>
<path fill="none" stroke="#000000" d="M36.2844,-43.3622C38.2977,-53.5246 39.8369,-65.8615 38.734,-77 38.462,-79.7463 38.0875,-82.5834 37.6479,-85.42"/>
<polygon fill="#000000" stroke="#000000" points="34.1555,-85.0673 35.8381,-95.5277 41.0459,-86.3011 34.1555,-85.0673"/>
<text text-anchor="middle" x="40.734" y="-65.8" font-family="Times,serif" font-size="14.00" fill="#000000">,</text>
</g>
<!-- B -->
<g id="node3" class="node">
<title>B</title>
<ellipse fill="none" stroke="#000000" cx="30.734" cy="-307" rx="18" ry="18"/>
<ellipse fill="none" stroke="#000000" cx="30.734" cy="-307" rx="22" ry="22"/>
<text text-anchor="middle" x="30.734" y="-303.3" font-family="Times,serif" font-size="14.00" fill="#000000">B</text>
</g>
<!-- C -->
<g id="node4" class="node">
<title>C</title>
<ellipse fill="none" stroke="#000000" cx="30.734" cy="-212" rx="18" ry="18"/>
<ellipse fill="none" stroke="#000000" cx="30.734" cy="-212" rx="22" ry="22"/>
<text text-anchor="middle" x="30.734" y="-208.3" font-family="Times,serif" font-size="14.00" fill="#000000">C</text>
</g>
<!-- B&#45;&gt;C -->
<g id="edge3" class="edge">
<title>B&#45;&gt;C</title>
<path fill="none" stroke="#000000" d="M30.734,-284.9663C30.734,-272.9427 30.734,-257.8283 30.734,-244.4785"/>
<polygon fill="#000000" stroke="#000000" points="34.2341,-244.2433 30.734,-234.2433 27.2341,-244.2433 34.2341,-244.2433"/>
<text text-anchor="middle" x="49.234" y="-255.8" font-family="Times,serif" font-size="14.00" fill="#000000">:Pitem</text>
</g>
<!-- C&#45;&gt;F -->
<g id="edge4" class="edge">
<title>C&#45;&gt;F</title>
<path fill="none" stroke="#000000" d="M30.734,-189.9663C30.734,-177.9427 30.734,-162.8283 30.734,-149.4785"/>
<polygon fill="#000000" stroke="#000000" points="34.2341,-149.2433 30.734,-139.2433 27.2341,-149.2433 34.2341,-149.2433"/>
<text text-anchor="middle" x="32.734" y="-160.8" font-family="Times,serif" font-size="14.00" fill="#000000">,</text>
</g>
<!-- F&#45;&gt;D -->
<g id="edge5" class="edge">
<title>F&#45;&gt;D</title>
<path fill="none" stroke="#000000" d="M15.4218,-100.8023C9.9934,-93.993 4.5392,-85.6486 1.734,-77 -1.734,-66.3084 2.4168,-55.2152 8.5624,-45.8159"/>
<polygon fill="#000000" stroke="#000000" points="11.4285,-47.8273 14.6058,-37.7201 5.8191,-43.6399 11.4285,-47.8273"/>
<text text-anchor="middle" x="20.234" y="-65.8" font-family="Times,serif" font-size="14.00" fill="#000000">:Pitem</text>
</g>
<!-- E -->
<g id="node6" class="node">
<title>E</title>
<ellipse fill="none" stroke="#000000" cx="102.734" cy="-471" rx="27" ry="18"/>
<text text-anchor="middle" x="102.734" y="-467.3" font-family="Times,serif" font-size="14.00" fill="#000000">E</text>
</g>
<!-- G -->
<g id="node7" class="node">
<title>G</title>
<ellipse fill="none" stroke="#000000" cx="174.734" cy="-471" rx="27" ry="18"/>
<text text-anchor="middle" x="174.734" y="-467.3" font-family="Times,serif" font-size="14.00" fill="#000000">G</text>
</g>
<!-- A&#45;&gt;B -->
<g id="edge2" class="edge">
<title>A&#45;&gt;B</title>
<path fill="none" stroke="#000000" d="M30.734,-379.5848C30.734,-368.1105 30.734,-353.0231 30.734,-339.5774"/>
<polygon fill="#000000" stroke="#000000" points="34.2341,-339.2465 30.734,-329.2465 27.2341,-339.2466 34.2341,-339.2465"/>
<text text-anchor="middle" x="50.734" y="-350.8" font-family="Times,serif" font-size="14.00" fill="#000000">PRINT</text>
</g>
</g>
</svg>
