<?xml version="1.0" encoding="UTF-8" standalone="no"?>
<!DOCTYPE svg PUBLIC "-//W3C//DTD SVG 1.1//EN"
 "http://www.w3.org/Graphics/SVG/1.1/DTD/svg11.dtd">
<!-- Generated by graphviz version 2.40.1 (20161225.0304)
 -->
<!-- Title: %3 Pages: 1 -->
<svg width="203pt" height="734pt"
 viewBox="0.00 0.00 203.00 734.00" xmlns="http://www.w3.org/2000/svg" xmlns:xlink="http://www.w3.org/1999/xlink">
<g id="graph0" class="graph" transform="scale(1 1) rotate(0) translate(4 730)">
<title>%3</title>
<polygon fill="#ffffff" stroke="transparent" points="-4,4 -4,-730 199,-730 199,4 -4,4"/>
<!-- fake -->
<g id="node1" class="node">
<title>fake</title>
</g>
<!-- A -->
<g id="node9" class="node">
<title>A</title>
<ellipse fill="none" stroke="#000000" cx="116" cy="-635" rx="27" ry="18"/>
<text text-anchor="middle" x="116" y="-631.3" font-family="Times,serif" font-size="14.00" fill="#000000">A</text>
</g>
<!-- fake&#45;&gt;A -->
<g id="edge1" class="edge">
<title>fake&#45;&gt;A</title>
<path fill="none" stroke="#000000" stroke-width="2" d="M116,-689.9551C116,-681.8828 116,-672.1764 116,-663.1817"/>
<polygon fill="#000000" stroke="#000000" stroke-width="2" points="119.5001,-663.0903 116,-653.0904 112.5001,-663.0904 119.5001,-663.0903"/>
</g>
<!-- D -->
<g id="node2" class="node">
<title>D</title>
<ellipse fill="none" stroke="#000000" cx="113" cy="-287" rx="27" ry="18"/>
<text text-anchor="middle" x="113" y="-283.3" font-family="Times,serif" font-size="14.00" fill="#000000">D</text>
</g>
<!-- F -->
<g id="node5" class="node">
<title>F</title>
<ellipse fill="none" stroke="#000000" cx="54" cy="-374" rx="27" ry="18"/>
<text text-anchor="middle" x="54" y="-370.3" font-family="Times,serif" font-size="14.00" fill="#000000">F</text>
</g>
<!-- D&#45;&gt;F -->
<g id="edge9" class="edge">
<title>D&#45;&gt;F</title>
<path fill="none" stroke="#000000" d="M90.2539,-297.0855C70.5687,-306.0436 44.8208,-318.4071 42,-323 37.5328,-330.2737 37.9533,-339.068 40.2783,-347.2906"/>
<polygon fill="#000000" stroke="#000000" points="37.0863,-348.7482 43.8584,-356.8962 43.6456,-346.3035 37.0863,-348.7482"/>
<text text-anchor="middle" x="76" y="-326.8" font-family="Times,serif" font-size="14.00" fill="#000000">:BStatement</text>
</g>
<!-- E -->
<g id="node7" class="node">
<title>E</title>
<ellipse fill="none" stroke="#000000" cx="27" cy="-200" rx="27" ry="18"/>
<text text-anchor="middle" x="27" y="-196.3" font-family="Times,serif" font-size="14.00" fill="#000000">E</text>
</g>
<!-- D&#45;&gt;E -->
<g id="edge8" class="edge">
<title>D&#45;&gt;E</title>
<path fill="none" stroke="#000000" d="M98.0199,-271.8458C84.5377,-258.2067 64.546,-237.9826 49.2053,-222.4635"/>
<polygon fill="#000000" stroke="#000000" points="51.6162,-219.9238 42.0969,-215.2725 46.6379,-224.8449 51.6162,-219.9238"/>
<text text-anchor="middle" x="81.5" y="-239.8" font-family="Times,serif" font-size="14.00" fill="#000000">↵</text>
</g>
<!-- G -->
<g id="node8" class="node">
<title>G</title>
<ellipse fill="none" stroke="#000000" cx="121" cy="-113" rx="27" ry="18"/>
<text text-anchor="middle" x="121" y="-109.3" font-family="Times,serif" font-size="14.00" fill="#000000">G</text>
</g>
<!-- D&#45;&gt;G -->
<g id="edge10" class="edge">
<title>D&#45;&gt;G</title>
<path fill="none" stroke="#000000" d="M113.841,-268.7078C115.2371,-238.3436 118.0426,-177.3226 119.6967,-141.3464"/>
<polygon fill="#000000" stroke="#000000" points="123.2072,-141.1973 120.1702,-131.0471 116.2146,-140.8758 123.2072,-141.1973"/>
<text text-anchor="middle" x="126.5" y="-196.3" font-family="Times,serif" font-size="14.00" fill="#000000">:Int</text>
</g>
<!-- B -->
<g id="node3" class="node">
<title>B</title>
<ellipse fill="none" stroke="#000000" cx="116" cy="-548" rx="27" ry="18"/>
<text text-anchor="middle" x="116" y="-544.3" font-family="Times,serif" font-size="14.00" fill="#000000">B</text>
</g>
<!-- C -->
<g id="node4" class="node">
<title>C</title>
<ellipse fill="none" stroke="#000000" cx="116" cy="-461" rx="27" ry="18"/>
<text text-anchor="middle" x="116" y="-457.3" font-family="Times,serif" font-size="14.00" fill="#000000">C</text>
</g>
<!-- B&#45;&gt;C -->
<g id="edge3" class="edge">
<title>B&#45;&gt;C</title>
<path fill="none" stroke="#000000" d="M116,-529.9735C116,-518.1918 116,-502.5607 116,-489.1581"/>
<polygon fill="#000000" stroke="#000000" points="119.5001,-489.0033 116,-479.0034 112.5001,-489.0034 119.5001,-489.0033"/>
<text text-anchor="middle" x="122.5" y="-500.8" font-family="Times,serif" font-size="14.00" fill="#000000">↵</text>
</g>
<!-- C&#45;&gt;F -->
<g id="edge4" class="edge">
<title>C&#45;&gt;F</title>
<path fill="none" stroke="#000000" d="M104.3383,-444.636C95.0722,-431.6336 81.9682,-413.2457 71.4529,-398.4904"/>
<polygon fill="#000000" stroke="#000000" points="74.2633,-396.4031 65.6094,-390.2907 68.5627,-400.4656 74.2633,-396.4031"/>
<text text-anchor="middle" x="122" y="-413.8" font-family="Times,serif" font-size="14.00" fill="#000000">:BStatement</text>
</g>
<!-- C&#45;&gt;G -->
<g id="edge5" class="edge">
<title>C&#45;&gt;G</title>
<path fill="none" stroke="#000000" d="M135.7777,-448.6623C144.283,-442.4794 153.6977,-434.321 160,-425 173.3063,-405.3203 176,-397.756 176,-374 176,-374 176,-374 176,-200 176,-174.969 159.5327,-151.2826 144.6192,-134.9638"/>
<polygon fill="#000000" stroke="#000000" points="146.9588,-132.3475 137.5018,-127.5709 141.916,-137.2024 146.9588,-132.3475"/>
<text text-anchor="middle" x="185.5" y="-283.3" font-family="Times,serif" font-size="14.00" fill="#000000">:Int</text>
</g>
<!-- F&#45;&gt;D -->
<g id="edge6" class="edge">
<title>F&#45;&gt;D</title>
<path fill="none" stroke="#000000" d="M78.5612,-366.0159C91.5729,-360.39 106.3988,-351.4252 114,-338 117.8397,-331.2184 118.9214,-323.0728 118.6876,-315.3022"/>
<polygon fill="#000000" stroke="#000000" points="122.1467,-314.7132 117.6887,-305.1019 115.1801,-315.3954 122.1467,-314.7132"/>
<text text-anchor="middle" x="124.5" y="-326.8" font-family="Times,serif" font-size="14.00" fill="#000000">↵</text>
</g>
<!-- H -->
<g id="node6" class="node">
<title>H</title>
<ellipse fill="none" stroke="#000000" cx="121" cy="-22" rx="18" ry="18"/>
<ellipse fill="none" stroke="#000000" cx="121" cy="-22" rx="22" ry="22"/>
<text text-anchor="middle" x="121" y="-18.3" font-family="Times,serif" font-size="14.00" fill="#000000">H</text>
</g>
<!-- E&#45;&gt;F -->
<g id="edge12" class="edge">
<title>E&#45;&gt;F</title>
<path fill="none" stroke="#000000" d="M19.2375,-217.3839C10.9182,-238.4481 .0408,-274.8618 9,-305 13.9004,-321.4847 24.1261,-337.7072 33.5929,-350.2765"/>
<polygon fill="#000000" stroke="#000000" points="31.0152,-352.6605 39.9508,-358.3531 36.5154,-348.3307 31.0152,-352.6605"/>
<text text-anchor="middle" x="43" y="-283.3" font-family="Times,serif" font-size="14.00" fill="#000000">:BStatement</text>
</g>
<!-- E&#45;&gt;E -->
<g id="edge11" class="edge">
<title>E&#45;&gt;E</title>
<path fill="none" stroke="#000000" d="M51.5325,-207.752C62.5078,-208.4902 72,-205.9063 72,-200 72,-196.0317 67.7151,-193.5632 61.5743,-192.5944"/>
<polygon fill="#000000" stroke="#000000" points="61.6472,-189.0949 51.5325,-192.248 61.4059,-196.0908 61.6472,-189.0949"/>
<text text-anchor="middle" x="78.5" y="-196.3" font-family="Times,serif" font-size="14.00" fill="#000000">↵</text>
</g>
<!-- E&#45;&gt;G -->
<g id="edge13" class="edge">
<title>E&#45;&gt;G</title>
<path fill="none" stroke="#000000" d="M42.9458,-185.2416C57.9355,-171.3682 80.5532,-150.4348 97.5889,-134.6677"/>
<polygon fill="#000000" stroke="#000000" points="100.0143,-137.192 104.976,-127.8308 95.2595,-132.0546 100.0143,-137.192"/>
<text text-anchor="middle" x="88.5" y="-152.8" font-family="Times,serif" font-size="14.00" fill="#000000">:Int</text>
</g>
<!-- G&#45;&gt;H -->
<g id="edge7" class="edge">
<title>G&#45;&gt;H</title>
<path fill="none" stroke="#000000" d="M121,-94.5848C121,-83.1105 121,-68.0231 121,-54.5774"/>
<polygon fill="#000000" stroke="#000000" points="124.5001,-54.2465 121,-44.2465 117.5001,-54.2466 124.5001,-54.2465"/>
<text text-anchor="middle" x="135" y="-65.8" font-family="Times,serif" font-size="14.00" fill="#000000">END</text>
</g>
<!-- A&#45;&gt;B -->
<g id="edge2" class="edge">
<title>A&#45;&gt;B</title>
<path fill="none" stroke="#000000" d="M116,-616.9735C116,-605.1918 116,-589.5607 116,-576.1581"/>
<polygon fill="#000000" stroke="#000000" points="119.5001,-576.0033 116,-566.0034 112.5001,-576.0034 119.5001,-576.0033"/>
<text text-anchor="middle" x="150" y="-587.8" font-family="Times,serif" font-size="14.00" fill="#000000">:BStatement</text>
</g>
</g>
</svg>
