<?xml version="1.0" encoding="UTF-8" standalone="no"?>
<!DOCTYPE svg PUBLIC "-//W3C//DTD SVG 1.1//EN"
 "http://www.w3.org/Graphics/SVG/1.1/DTD/svg11.dtd">
<!-- Generated by graphviz version 2.40.1 (20161225.0304)
 -->
<!-- Title: %3 Pages: 1 -->
<svg width="72pt" height="481pt"
 viewBox="0.00 0.00 72.00 481.00" xmlns="http://www.w3.org/2000/svg" xmlns:xlink="http://www.w3.org/1999/xlink">
<g id="graph0" class="graph" transform="scale(1 1) rotate(0) translate(4 477)">
<title>%3</title>
<polygon fill="#ffffff" stroke="transparent" points="-4,4 -4,-477 68,-477 68,4 -4,4"/>
<!-- fake -->
<g id="node1" class="node">
<title>fake</title>
</g>
<!-- A -->
<g id="node6" class="node">
<title>A</title>
<ellipse fill="none" stroke="#000000" cx="27" cy="-382" rx="27" ry="18"/>
<text text-anchor="middle" x="27" y="-378.3" font-family="Times,serif" font-size="14.00" fill="#000000">A</text>
</g>
<!-- fake&#45;&gt;A -->
<g id="edge1" class="edge">
<title>fake&#45;&gt;A</title>
<path fill="none" stroke="#000000" stroke-width="2" d="M27,-436.9551C27,-428.8828 27,-419.1764 27,-410.1817"/>
<polygon fill="#000000" stroke="#000000" stroke-width="2" points="30.5001,-410.0903 27,-400.0904 23.5001,-410.0904 30.5001,-410.0903"/>
</g>
<!-- D -->
<g id="node2" class="node">
<title>D</title>
<ellipse fill="none" stroke="#000000" cx="27" cy="-22" rx="18" ry="18"/>
<ellipse fill="none" stroke="#000000" cx="27" cy="-22" rx="22" ry="22"/>
<text text-anchor="middle" x="27" y="-18.3" font-family="Times,serif" font-size="14.00" fill="#000000">D</text>
</g>
<!-- E -->
<g id="node5" class="node">
<title>E</title>
<ellipse fill="none" stroke="#000000" cx="27" cy="-113" rx="27" ry="18"/>
<text text-anchor="middle" x="27" y="-109.3" font-family="Times,serif" font-size="14.00" fill="#000000">E</text>
</g>
<!-- D&#45;&gt;E -->
<g id="edge6" class="edge">
<title>D&#45;&gt;E</title>
<path fill="none" stroke="#000000" d="M28.4554,-44.2088C28.945,-54.2261 29.2996,-66.2071 29,-77 28.9326,-79.4286 28.8397,-81.9483 28.7305,-84.4756"/>
<polygon fill="#000000" stroke="#000000" points="25.2233,-84.5301 28.214,-94.6941 32.2144,-84.8835 25.2233,-84.5301"/>
<text text-anchor="middle" x="31" y="-65.8" font-family="Times,serif" font-size="14.00" fill="#000000">,</text>
</g>
<!-- B -->
<g id="node3" class="node">
<title>B</title>
<ellipse fill="none" stroke="#000000" cx="27" cy="-295" rx="27" ry="18"/>
<text text-anchor="middle" x="27" y="-291.3" font-family="Times,serif" font-size="14.00" fill="#000000">B</text>
</g>
<!-- C -->
<g id="node4" class="node">
<title>C</title>
<ellipse fill="none" stroke="#000000" cx="27" cy="-204" rx="18" ry="18"/>
<ellipse fill="none" stroke="#000000" cx="27" cy="-204" rx="22" ry="22"/>
<text text-anchor="middle" x="27" y="-200.3" font-family="Times,serif" font-size="14.00" fill="#000000">C</text>
</g>
<!-- B&#45;&gt;C -->
<g id="edge3" class="edge">
<title>B&#45;&gt;C</title>
<path fill="none" stroke="#000000" d="M27,-276.5848C27,-265.1105 27,-250.0231 27,-236.5774"/>
<polygon fill="#000000" stroke="#000000" points="30.5001,-236.2465 27,-226.2465 23.5001,-236.2466 30.5001,-236.2465"/>
<text text-anchor="middle" x="39.5" y="-247.8" font-family="Times,serif" font-size="14.00" fill="#000000">:Var</text>
</g>
<!-- C&#45;&gt;E -->
<g id="edge4" class="edge">
<title>C&#45;&gt;E</title>
<path fill="none" stroke="#000000" d="M27,-181.9714C27,-169.8075 27,-154.5615 27,-141.499"/>
<polygon fill="#000000" stroke="#000000" points="30.5001,-141.1556 27,-131.1556 23.5001,-141.1556 30.5001,-141.1556"/>
<text text-anchor="middle" x="29" y="-152.8" font-family="Times,serif" font-size="14.00" fill="#000000">,</text>
</g>
<!-- E&#45;&gt;D -->
<g id="edge5" class="edge">
<title>E&#45;&gt;D</title>
<path fill="none" stroke="#000000" d="M14.1039,-97.1187C10.0445,-91.1695 6.08,-84.119 4,-77 1.1994,-67.4147 3.777,-57.242 8.0765,-48.2863"/>
<polygon fill="#000000" stroke="#000000" points="11.1829,-49.9027 13.0272,-39.4697 5.0793,-46.4755 11.1829,-49.9027"/>
<text text-anchor="middle" x="16.5" y="-65.8" font-family="Times,serif" font-size="14.00" fill="#000000">:Var</text>
</g>
<!-- A&#45;&gt;B -->
<g id="edge2" class="edge">
<title>A&#45;&gt;B</title>
<path fill="none" stroke="#000000" d="M27,-363.9735C27,-352.1918 27,-336.5607 27,-323.1581"/>
<polygon fill="#000000" stroke="#000000" points="30.5001,-323.0033 27,-313.0034 23.5001,-323.0034 30.5001,-323.0033"/>
<text text-anchor="middle" x="45.5" y="-334.8" font-family="Times,serif" font-size="14.00" fill="#000000">READ</text>
</g>
</g>
</svg>
