<?xml version="1.0" encoding="UTF-8" standalone="no"?>
<!DOCTYPE svg PUBLIC "-//W3C//DTD SVG 1.1//EN"
 "http://www.w3.org/Graphics/SVG/1.1/DTD/svg11.dtd">
<!-- Generated by graphviz version 2.40.1 (20161225.0304)
 -->
<!-- Title: %3 Pages: 1 -->
<svg width="90pt" height="212pt"
 viewBox="0.00 0.00 90.00 212.00" xmlns="http://www.w3.org/2000/svg" xmlns:xlink="http://www.w3.org/1999/xlink">
<g id="graph0" class="graph" transform="scale(1 1) rotate(0) translate(4 208)">
<title>%3</title>
<polygon fill="#ffffff" stroke="transparent" points="-4,4 -4,-208 86,-208 86,4 -4,4"/>
<!-- fake -->
<g id="node1" class="node">
<title>fake</title>
</g>
<!-- A -->
<g id="node2" class="node">
<title>A</title>
<ellipse fill="none" stroke="#000000" cx="27" cy="-113" rx="27" ry="18"/>
<text text-anchor="middle" x="27" y="-109.3" font-family="Times,serif" font-size="14.00" fill="#000000">A</text>
</g>
<!-- fake&#45;&gt;A -->
<g id="edge1" class="edge">
<title>fake&#45;&gt;A</title>
<path fill="none" stroke="#000000" stroke-width="2" d="M27,-167.9551C27,-159.8828 27,-150.1764 27,-141.1817"/>
<polygon fill="#000000" stroke="#000000" stroke-width="2" points="30.5001,-141.0903 27,-131.0904 23.5001,-141.0904 30.5001,-141.0903"/>
</g>
<!-- B -->
<g id="node3" class="node">
<title>B</title>
<ellipse fill="none" stroke="#000000" cx="27" cy="-22" rx="18" ry="18"/>
<ellipse fill="none" stroke="#000000" cx="27" cy="-22" rx="22" ry="22"/>
<text text-anchor="middle" x="27" y="-18.3" font-family="Times,serif" font-size="14.00" fill="#000000">B</text>
</g>
<!-- A&#45;&gt;B -->
<g id="edge2" class="edge">
<title>A&#45;&gt;B</title>
<path fill="none" stroke="#000000" d="M27,-94.5848C27,-83.1105 27,-68.0231 27,-54.5774"/>
<polygon fill="#000000" stroke="#000000" points="30.5001,-54.2465 27,-44.2465 23.5001,-54.2466 30.5001,-54.2465"/>
<text text-anchor="middle" x="54.5" y="-65.8" font-family="Times,serif" font-size="14.00" fill="#000000">RETURN</text>
</g>
</g>
</svg>
