<?xml version="1.0" encoding="UTF-8" standalone="no"?>
<!DOCTYPE svg PUBLIC "-//W3C//DTD SVG 1.1//EN"
 "http://www.w3.org/Graphics/SVG/1.1/DTD/svg11.dtd">
<!-- Generated by graphviz version 2.40.1 (20161225.0304)
 -->
<!-- Title: %3 Pages: 1 -->
<svg width="179pt" height="299pt"
 viewBox="0.00 0.00 179.50 299.00" xmlns="http://www.w3.org/2000/svg" xmlns:xlink="http://www.w3.org/1999/xlink">
<g id="graph0" class="graph" transform="scale(1 1) rotate(0) translate(4 295)">
<title>%3</title>
<polygon fill="#ffffff" stroke="transparent" points="-4,4 -4,-295 175.4995,-295 175.4995,4 -4,4"/>
<!-- fake -->
<g id="node1" class="node">
<title>fake</title>
</g>
<!-- A -->
<g id="node3" class="node">
<title>A</title>
<ellipse fill="none" stroke="#000000" cx="72.4995" cy="-200" rx="27" ry="18"/>
<text text-anchor="middle" x="72.4995" y="-196.3" font-family="Times,serif" font-size="14.00" fill="#000000">A</text>
</g>
<!-- fake&#45;&gt;A -->
<g id="edge1" class="edge">
<title>fake&#45;&gt;A</title>
<path fill="none" stroke="#000000" stroke-width="2" d="M72.4995,-254.9551C72.4995,-246.8828 72.4995,-237.1764 72.4995,-228.1817"/>
<polygon fill="#000000" stroke="#000000" stroke-width="2" points="75.9996,-228.0903 72.4995,-218.0904 68.9996,-228.0904 75.9996,-228.0903"/>
</g>
<!-- D -->
<g id="node2" class="node">
<title>D</title>
<ellipse fill="none" stroke="#000000" cx="72.4995" cy="-22" rx="18" ry="18"/>
<ellipse fill="none" stroke="#000000" cx="72.4995" cy="-22" rx="22" ry="22"/>
<text text-anchor="middle" x="72.4995" y="-18.3" font-family="Times,serif" font-size="14.00" fill="#000000">D</text>
</g>
<!-- A&#45;&gt;D -->
<g id="edge4" class="edge">
<title>A&#45;&gt;D</title>
<path fill="none" stroke="#000000" d="M53.0739,-187.0419C36.6429,-174.8057 14.2601,-154.8097 4.4995,-131 -1.5695,-116.1957 -1.3605,-109.8883 4.4995,-95 12.9805,-73.4526 31.1496,-54.5012 46.5745,-41.3111"/>
<polygon fill="#000000" stroke="#000000" points="48.8117,-44.0029 54.3248,-34.9555 44.3729,-38.5902 48.8117,-44.0029"/>
<text text-anchor="middle" x="20.4995" y="-109.3" font-family="Times,serif" font-size="14.00" fill="#000000">:Num</text>
</g>
<!-- C -->
<g id="node4" class="node">
<title>C</title>
<ellipse fill="none" stroke="#000000" cx="72.4995" cy="-113" rx="27" ry="18"/>
<text text-anchor="middle" x="72.4995" y="-109.3" font-family="Times,serif" font-size="14.00" fill="#000000">C</text>
</g>
<!-- A&#45;&gt;C -->
<g id="edge3" class="edge">
<title>A&#45;&gt;C</title>
<path fill="none" stroke="#000000" d="M72.4995,-181.9735C72.4995,-170.1918 72.4995,-154.5607 72.4995,-141.1581"/>
<polygon fill="#000000" stroke="#000000" points="75.9996,-141.0033 72.4995,-131.0034 68.9996,-141.0034 75.9996,-141.0033"/>
<text text-anchor="middle" x="74.9995" y="-152.8" font-family="Times,serif" font-size="14.00" fill="#000000">&#45;</text>
</g>
<!-- B -->
<g id="node5" class="node">
<title>B</title>
<ellipse fill="none" stroke="#000000" cx="144.4995" cy="-113" rx="27" ry="18"/>
<text text-anchor="middle" x="144.4995" y="-109.3" font-family="Times,serif" font-size="14.00" fill="#000000">B</text>
</g>
<!-- A&#45;&gt;B -->
<g id="edge2" class="edge">
<title>A&#45;&gt;B</title>
<path fill="none" stroke="#000000" d="M85.7054,-184.0429C96.6666,-170.798 112.4173,-151.7659 124.8579,-136.7336"/>
<polygon fill="#000000" stroke="#000000" points="127.698,-138.7914 131.3773,-128.856 122.3052,-134.3284 127.698,-138.7914"/>
<text text-anchor="middle" x="116.9995" y="-152.8" font-family="Times,serif" font-size="14.00" fill="#000000">+</text>
</g>
<!-- C&#45;&gt;D -->
<g id="edge6" class="edge">
<title>C&#45;&gt;D</title>
<path fill="none" stroke="#000000" d="M72.4995,-94.5848C72.4995,-83.1105 72.4995,-68.0231 72.4995,-54.5774"/>
<polygon fill="#000000" stroke="#000000" points="75.9996,-54.2465 72.4995,-44.2465 68.9996,-54.2466 75.9996,-54.2465"/>
<text text-anchor="middle" x="88.4995" y="-65.8" font-family="Times,serif" font-size="14.00" fill="#000000">:Num</text>
</g>
<!-- B&#45;&gt;D -->
<g id="edge5" class="edge">
<title>B&#45;&gt;D</title>
<path fill="none" stroke="#000000" d="M133.3097,-96.0995C126.436,-85.9901 117.2899,-73.0106 108.4995,-62 104.1131,-56.5057 99.1949,-50.7854 94.4365,-45.4465"/>
<polygon fill="#000000" stroke="#000000" points="96.9683,-43.0282 87.6598,-37.9682 91.7812,-47.7286 96.9683,-43.0282"/>
<text text-anchor="middle" x="134.4995" y="-65.8" font-family="Times,serif" font-size="14.00" fill="#000000">:Num</text>
</g>
</g>
</svg>
