<?xml version="1.0" encoding="UTF-8" standalone="no"?>
<!DOCTYPE svg PUBLIC "-//W3C//DTD SVG 1.1//EN"
 "http://www.w3.org/Graphics/SVG/1.1/DTD/svg11.dtd">
<!-- Generated by graphviz version 2.40.1 (20161225.0304)
 -->
<!-- Title: %3 Pages: 1 -->
<svg width="157pt" height="663pt"
 viewBox="0.00 0.00 157.00 663.00" xmlns="http://www.w3.org/2000/svg" xmlns:xlink="http://www.w3.org/1999/xlink">
<g id="graph0" class="graph" transform="scale(1 1) rotate(0) translate(4 659)">
<title>%3</title>
<polygon fill="#ffffff" stroke="transparent" points="-4,4 -4,-659 153,-659 153,4 -4,4"/>
<!-- fake -->
<g id="node1" class="node">
<title>fake</title>
</g>
<!-- A -->
<g id="node10" class="node">
<title>A</title>
<ellipse fill="none" stroke="#000000" cx="50" cy="-564" rx="27" ry="18"/>
<text text-anchor="middle" x="50" y="-560.3" font-family="Times,serif" font-size="14.00" fill="#000000">A</text>
</g>
<!-- fake&#45;&gt;A -->
<g id="edge1" class="edge">
<title>fake&#45;&gt;A</title>
<path fill="none" stroke="#000000" stroke-width="2" d="M50,-618.9551C50,-610.8828 50,-601.1764 50,-592.1817"/>
<polygon fill="#000000" stroke="#000000" stroke-width="2" points="53.5001,-592.0903 50,-582.0904 46.5001,-592.0904 53.5001,-592.0903"/>
</g>
<!-- D -->
<g id="node2" class="node">
<title>D</title>
<ellipse fill="none" stroke="#000000" cx="122" cy="-637" rx="27" ry="18"/>
<text text-anchor="middle" x="122" y="-633.3" font-family="Times,serif" font-size="14.00" fill="#000000">D</text>
</g>
<!-- B -->
<g id="node3" class="node">
<title>B</title>
<ellipse fill="none" stroke="#000000" cx="50" cy="-473" rx="18" ry="18"/>
<ellipse fill="none" stroke="#000000" cx="50" cy="-473" rx="22" ry="22"/>
<text text-anchor="middle" x="50" y="-469.3" font-family="Times,serif" font-size="14.00" fill="#000000">B</text>
</g>
<!-- C -->
<g id="node4" class="node">
<title>C</title>
<ellipse fill="none" stroke="#000000" cx="22" cy="-378" rx="18" ry="18"/>
<ellipse fill="none" stroke="#000000" cx="22" cy="-378" rx="22" ry="22"/>
<text text-anchor="middle" x="22" y="-374.3" font-family="Times,serif" font-size="14.00" fill="#000000">C</text>
</g>
<!-- B&#45;&gt;C -->
<g id="edge3" class="edge">
<title>B&#45;&gt;C</title>
<path fill="none" stroke="#000000" d="M39.8635,-453.022C36.989,-446.7379 34.0795,-439.6902 32,-433 29.7225,-425.6726 27.898,-417.6253 26.4638,-410.0015"/>
<polygon fill="#000000" stroke="#000000" points="29.8844,-409.2399 24.7443,-399.9754 22.9851,-410.4232 29.8844,-409.2399"/>
<text text-anchor="middle" x="44.5" y="-421.8" font-family="Times,serif" font-size="14.00" fill="#000000">digit</text>
</g>
<!-- E -->
<g id="node8" class="node">
<title>E</title>
<ellipse fill="none" stroke="#000000" cx="89" cy="-378" rx="27" ry="18"/>
<text text-anchor="middle" x="89" y="-374.3" font-family="Times,serif" font-size="14.00" fill="#000000">E</text>
</g>
<!-- B&#45;&gt;E -->
<g id="edge4" class="edge">
<title>B&#45;&gt;E</title>
<path fill="none" stroke="#000000" d="M58.4624,-452.3864C64.1961,-438.4197 71.8282,-419.8288 78.028,-404.7267"/>
<polygon fill="#000000" stroke="#000000" points="81.301,-405.97 81.861,-395.3899 74.8254,-403.3115 81.301,-405.97"/>
<text text-anchor="middle" x="73.5" y="-421.8" font-family="Times,serif" font-size="14.00" fill="#000000">(</text>
</g>
<!-- H -->
<g id="node5" class="node">
<title>H</title>
<ellipse fill="none" stroke="#000000" cx="62" cy="-200" rx="27" ry="18"/>
<text text-anchor="middle" x="62" y="-196.3" font-family="Times,serif" font-size="14.00" fill="#000000">H</text>
</g>
<!-- G -->
<g id="node9" class="node">
<title>G</title>
<ellipse fill="none" stroke="#000000" cx="62" cy="-113" rx="27" ry="18"/>
<text text-anchor="middle" x="62" y="-109.3" font-family="Times,serif" font-size="14.00" fill="#000000">G</text>
</g>
<!-- H&#45;&gt;G -->
<g id="edge8" class="edge">
<title>H&#45;&gt;G</title>
<path fill="none" stroke="#000000" d="M43.53,-186.1801C32.8784,-176.4 22.5746,-162.6461 28,-149 30.1042,-143.7076 33.3963,-138.7434 37.1206,-134.292"/>
<polygon fill="#000000" stroke="#000000" points="39.8057,-136.5464 44.1279,-126.8732 34.7168,-131.7398 39.8057,-136.5464"/>
<text text-anchor="middle" x="41" y="-152.8" font-family="Times,serif" font-size="14.00" fill="#000000">:Exp</text>
</g>
<!-- F -->
<g id="node6" class="node">
<title>F</title>
<ellipse fill="none" stroke="#000000" cx="89" cy="-287" rx="27" ry="18"/>
<text text-anchor="middle" x="89" y="-283.3" font-family="Times,serif" font-size="14.00" fill="#000000">F</text>
</g>
<!-- F&#45;&gt;H -->
<g id="edge6" class="edge">
<title>F&#45;&gt;H</title>
<path fill="none" stroke="#000000" d="M83.4056,-268.9735C79.6884,-256.9958 74.7364,-241.0396 70.5317,-227.4912"/>
<polygon fill="#000000" stroke="#000000" points="73.8017,-226.2189 67.4949,-217.7057 67.1162,-228.2938 73.8017,-226.2189"/>
<text text-anchor="middle" x="79" y="-239.8" font-family="Times,serif" font-size="14.00" fill="#000000">,</text>
</g>
<!-- I -->
<g id="node7" class="node">
<title>I</title>
<ellipse fill="none" stroke="#000000" cx="90" cy="-22" rx="18" ry="18"/>
<ellipse fill="none" stroke="#000000" cx="90" cy="-22" rx="22" ry="22"/>
<text text-anchor="middle" x="90" y="-18.3" font-family="Times,serif" font-size="14.00" fill="#000000">I</text>
</g>
<!-- F&#45;&gt;I -->
<g id="edge7" class="edge">
<title>F&#45;&gt;I</title>
<path fill="none" stroke="#000000" d="M92.0133,-268.9032C94.1659,-255.0216 96.8726,-235.3596 98,-218 101.5427,-163.4482 100.982,-149.5853 98,-95 97.2665,-81.5733 95.7795,-66.8193 94.2844,-54.1106"/>
<polygon fill="#000000" stroke="#000000" points="97.7346,-53.4899 93.0429,-43.9905 90.7866,-54.3422 97.7346,-53.4899"/>
<text text-anchor="middle" x="102.5" y="-152.8" font-family="Times,serif" font-size="14.00" fill="#000000">)</text>
</g>
<!-- E&#45;&gt;F -->
<g id="edge5" class="edge">
<title>E&#45;&gt;F</title>
<path fill="none" stroke="#000000" d="M89,-359.5848C89,-346.9209 89,-329.8558 89,-315.4541"/>
<polygon fill="#000000" stroke="#000000" points="92.5001,-315.0772 89,-305.0773 85.5001,-315.0773 92.5001,-315.0772"/>
<text text-anchor="middle" x="102" y="-326.8" font-family="Times,serif" font-size="14.00" fill="#000000">:Exp</text>
</g>
<!-- G&#45;&gt;H -->
<g id="edge9" class="edge">
<title>G&#45;&gt;H</title>
<path fill="none" stroke="#000000" d="M62,-131.0034C62,-142.7801 62,-158.4102 62,-171.8156"/>
<polygon fill="#000000" stroke="#000000" points="58.5001,-171.9735 62,-181.9735 65.5001,-171.9736 58.5001,-171.9735"/>
<text text-anchor="middle" x="64" y="-152.8" font-family="Times,serif" font-size="14.00" fill="#000000">,</text>
</g>
<!-- G&#45;&gt;I -->
<g id="edge10" class="edge">
<title>G&#45;&gt;I</title>
<path fill="none" stroke="#000000" d="M67.5319,-95.0213C71.2254,-83.0173 76.1786,-66.9196 80.4943,-52.8935"/>
<polygon fill="#000000" stroke="#000000" points="83.9013,-53.7217 83.497,-43.1346 77.2109,-51.6631 83.9013,-53.7217"/>
<text text-anchor="middle" x="79.5" y="-65.8" font-family="Times,serif" font-size="14.00" fill="#000000">)</text>
</g>
<!-- A&#45;&gt;B -->
<g id="edge2" class="edge">
<title>A&#45;&gt;B</title>
<path fill="none" stroke="#000000" d="M50,-545.5848C50,-534.1105 50,-519.0231 50,-505.5774"/>
<polygon fill="#000000" stroke="#000000" points="53.5001,-505.2465 50,-495.2465 46.5001,-505.2466 53.5001,-505.2465"/>
<text text-anchor="middle" x="64" y="-516.8" font-family="Times,serif" font-size="14.00" fill="#000000">letter</text>
</g>
</g>
</svg>
