<?xml version="1.0" encoding="UTF-8" standalone="no"?>
<!DOCTYPE svg PUBLIC "-//W3C//DTD SVG 1.1//EN"
 "http://www.w3.org/Graphics/SVG/1.1/DTD/svg11.dtd">
<!-- Generated by graphviz version 2.40.1 (20161225.0304)
 -->
<!-- Title: %3 Pages: 1 -->
<svg width="911pt" height="755pt"
 viewBox="0.00 0.00 911.00 755.00" xmlns="http://www.w3.org/2000/svg" xmlns:xlink="http://www.w3.org/1999/xlink">
<g id="graph0" class="graph" transform="scale(1 1) rotate(0) translate(4 751)">
<title>%3</title>
<polygon fill="#ffffff" stroke="transparent" points="-4,4 -4,-751 907,-751 907,4 -4,4"/>
<!-- fake0 -->
<g id="node1" class="node">
<title>fake0</title>
</g>
<!-- 0 -->
<g id="node25" class="node">
<title>0</title>
<ellipse fill="none" stroke="#000000" cx="459" cy="-656" rx="27" ry="18"/>
<text text-anchor="middle" x="459" y="-652.3" font-family="Times,serif" font-size="14.00" fill="#000000">0</text>
</g>
<!-- fake0&#45;&gt;0 -->
<g id="edge1" class="edge">
<title>fake0&#45;&gt;0</title>
<path fill="none" stroke="#000000" stroke-width="2" d="M459,-710.9551C459,-702.8828 459,-693.1764 459,-684.1817"/>
<polygon fill="#000000" stroke="#000000" stroke-width="2" points="462.5001,-684.0903 459,-674.0904 455.5001,-684.0904 462.5001,-684.0903"/>
</g>
<!-- 2 -->
<g id="node2" class="node">
<title>2</title>
<ellipse fill="none" stroke="#000000" cx="459" cy="-113" rx="27" ry="18"/>
<text text-anchor="middle" x="459" y="-109.3" font-family="Times,serif" font-size="14.00" fill="#000000">2</text>
</g>
<!-- 3 -->
<g id="node17" class="node">
<title>3</title>
<ellipse fill="none" stroke="#000000" cx="459" cy="-22" rx="18" ry="18"/>
<ellipse fill="none" stroke="#000000" cx="459" cy="-22" rx="22" ry="22"/>
<text text-anchor="middle" x="459" y="-18.3" font-family="Times,serif" font-size="14.00" fill="#000000">3</text>
</g>
<!-- 2&#45;&gt;3 -->
<g id="edge45" class="edge">
<title>2&#45;&gt;3</title>
<path fill="none" stroke="#000000" d="M459,-94.5848C459,-83.1105 459,-68.0231 459,-54.5774"/>
<polygon fill="#000000" stroke="#000000" points="462.5001,-54.2465 459,-44.2465 455.5001,-54.2466 462.5001,-54.2465"/>
<text text-anchor="middle" x="462.5" y="-65.8" font-family="Times,serif" font-size="14.00" fill="#000000">ε</text>
</g>
<!-- 1 -->
<g id="node3" class="node">
<title>1</title>
<ellipse fill="none" stroke="#000000" cx="459" cy="-569" rx="27" ry="18"/>
<text text-anchor="middle" x="459" y="-565.3" font-family="Times,serif" font-size="14.00" fill="#000000">1</text>
</g>
<!-- 1&#45;0 -->
<g id="node27" class="node">
<title>1&#45;0</title>
<ellipse fill="none" stroke="#000000" cx="459" cy="-482" rx="27" ry="18"/>
<text text-anchor="middle" x="459" y="-478.3" font-family="Times,serif" font-size="14.00" fill="#000000">1&#45;0</text>
</g>
<!-- 1&#45;&gt;1&#45;0 -->
<g id="edge4" class="edge">
<title>1&#45;&gt;1&#45;0</title>
<path fill="none" stroke="#000000" d="M459,-550.9735C459,-539.1918 459,-523.5607 459,-510.1581"/>
<polygon fill="#000000" stroke="#000000" points="462.5001,-510.0033 459,-500.0034 455.5001,-510.0034 462.5001,-510.0033"/>
<text text-anchor="middle" x="462.5" y="-521.8" font-family="Times,serif" font-size="14.00" fill="#000000">ε</text>
</g>
<!-- 1&#45;20 -->
<g id="node4" class="node">
<title>1&#45;20</title>
<ellipse fill="none" stroke="#000000" cx="27" cy="-395" rx="27" ry="18"/>
<text text-anchor="middle" x="27" y="-391.3" font-family="Times,serif" font-size="14.00" fill="#000000">1&#45;20</text>
</g>
<!-- 1&#45;21 -->
<g id="node31" class="node">
<title>1&#45;21</title>
<ellipse fill="none" stroke="#000000" cx="27" cy="-287" rx="27" ry="18"/>
<text text-anchor="middle" x="27" y="-283.3" font-family="Times,serif" font-size="14.00" fill="#000000">1&#45;21</text>
</g>
<!-- 1&#45;20&#45;&gt;1&#45;21 -->
<g id="edge29" class="edge">
<title>1&#45;20&#45;&gt;1&#45;21</title>
<path fill="none" stroke="#000000" d="M27,-376.6793C27,-359.821 27,-334.5651 27,-315.147"/>
<polygon fill="#000000" stroke="#000000" points="30.5001,-315.0501 27,-305.0502 23.5001,-315.0502 30.5001,-315.0501"/>
<text text-anchor="middle" x="47" y="-337.3" font-family="Times,serif" font-size="14.00" fill="#000000">:Gosub</text>
</g>
<!-- 1&#45;6 -->
<g id="node5" class="node">
<title>1&#45;6</title>
<ellipse fill="none" stroke="#000000" cx="99" cy="-395" rx="27" ry="18"/>
<text text-anchor="middle" x="99" y="-391.3" font-family="Times,serif" font-size="14.00" fill="#000000">1&#45;6</text>
</g>
<!-- 1&#45;7 -->
<g id="node10" class="node">
<title>1&#45;7</title>
<ellipse fill="none" stroke="#000000" cx="99" cy="-287" rx="27" ry="18"/>
<text text-anchor="middle" x="99" y="-283.3" font-family="Times,serif" font-size="14.00" fill="#000000">1&#45;7</text>
</g>
<!-- 1&#45;6&#45;&gt;1&#45;7 -->
<g id="edge22" class="edge">
<title>1&#45;6&#45;&gt;1&#45;7</title>
<path fill="none" stroke="#000000" d="M99,-376.6793C99,-359.821 99,-334.5651 99,-315.147"/>
<polygon fill="#000000" stroke="#000000" points="102.5001,-315.0501 99,-305.0502 95.5001,-315.0502 102.5001,-315.0501"/>
<text text-anchor="middle" x="114.5" y="-337.3" font-family="Times,serif" font-size="14.00" fill="#000000">:Print</text>
</g>
<!-- 1&#45;15 -->
<g id="node6" class="node">
<title>1&#45;15</title>
<ellipse fill="none" stroke="#000000" cx="718" cy="-287" rx="27" ry="18"/>
<text text-anchor="middle" x="718" y="-283.3" font-family="Times,serif" font-size="14.00" fill="#000000">1&#45;15</text>
</g>
<!-- 1&#45;26 -->
<g id="node21" class="node">
<title>1&#45;26</title>
<ellipse fill="none" stroke="#000000" cx="459" cy="-200" rx="27" ry="18"/>
<text text-anchor="middle" x="459" y="-196.3" font-family="Times,serif" font-size="14.00" fill="#000000">1&#45;26</text>
</g>
<!-- 1&#45;15&#45;&gt;1&#45;26 -->
<g id="edge39" class="edge">
<title>1&#45;15&#45;&gt;1&#45;26</title>
<path fill="none" stroke="#000000" d="M696.4476,-275.8324C691.7245,-273.4953 686.7236,-271.1037 682,-269 645.3586,-252.6813 636.1513,-248.3843 598,-236 563.3682,-224.7582 523.0059,-214.6253 494.726,-207.9955"/>
<polygon fill="#000000" stroke="#000000" points="495.4188,-204.5634 484.8868,-205.7159 493.8388,-211.3828 495.4188,-204.5634"/>
<text text-anchor="middle" x="642.5" y="-239.8" font-family="Times,serif" font-size="14.00" fill="#000000">ε</text>
</g>
<!-- 1&#45;10 -->
<g id="node7" class="node">
<title>1&#45;10</title>
<ellipse fill="none" stroke="#000000" cx="171" cy="-395" rx="27" ry="18"/>
<text text-anchor="middle" x="171" y="-391.3" font-family="Times,serif" font-size="14.00" fill="#000000">1&#45;10</text>
</g>
<!-- 1&#45;11 -->
<g id="node30" class="node">
<title>1&#45;11</title>
<ellipse fill="none" stroke="#000000" cx="171" cy="-287" rx="27" ry="18"/>
<text text-anchor="middle" x="171" y="-283.3" font-family="Times,serif" font-size="14.00" fill="#000000">1&#45;11</text>
</g>
<!-- 1&#45;10&#45;&gt;1&#45;11 -->
<g id="edge24" class="edge">
<title>1&#45;10&#45;&gt;1&#45;11</title>
<path fill="none" stroke="#000000" d="M171,-376.6793C171,-359.821 171,-334.5651 171,-315.147"/>
<polygon fill="#000000" stroke="#000000" points="174.5001,-315.0501 171,-305.0502 167.5001,-315.0502 174.5001,-315.0501"/>
<text text-anchor="middle" x="177.5" y="-337.3" font-family="Times,serif" font-size="14.00" fill="#000000">:If</text>
</g>
<!-- 1&#45;18 -->
<g id="node8" class="node">
<title>1&#45;18</title>
<ellipse fill="none" stroke="#000000" cx="243" cy="-395" rx="27" ry="18"/>
<text text-anchor="middle" x="243" y="-391.3" font-family="Times,serif" font-size="14.00" fill="#000000">1&#45;18</text>
</g>
<!-- 1&#45;19 -->
<g id="node24" class="node">
<title>1&#45;19</title>
<ellipse fill="none" stroke="#000000" cx="243" cy="-287" rx="27" ry="18"/>
<text text-anchor="middle" x="243" y="-283.3" font-family="Times,serif" font-size="14.00" fill="#000000">1&#45;19</text>
</g>
<!-- 1&#45;18&#45;&gt;1&#45;19 -->
<g id="edge28" class="edge">
<title>1&#45;18&#45;&gt;1&#45;19</title>
<path fill="none" stroke="#000000" d="M243,-376.6793C243,-359.821 243,-334.5651 243,-315.147"/>
<polygon fill="#000000" stroke="#000000" points="246.5001,-315.0501 243,-305.0502 239.5001,-315.0502 246.5001,-315.0501"/>
<text text-anchor="middle" x="255.5" y="-337.3" font-family="Times,serif" font-size="14.00" fill="#000000">:Def</text>
</g>
<!-- 1&#45;3 -->
<g id="node9" class="node">
<title>1&#45;3</title>
<ellipse fill="none" stroke="#000000" cx="574" cy="-287" rx="27" ry="18"/>
<text text-anchor="middle" x="574" y="-283.3" font-family="Times,serif" font-size="14.00" fill="#000000">1&#45;3</text>
</g>
<!-- 1&#45;3&#45;&gt;1&#45;26 -->
<g id="edge33" class="edge">
<title>1&#45;3&#45;&gt;1&#45;26</title>
<path fill="none" stroke="#000000" d="M564.4517,-270.1417C557.6369,-259.2883 547.6398,-245.4878 536,-236 523.3605,-225.6974 507.2863,-217.5816 493.0974,-211.6842"/>
<polygon fill="#000000" stroke="#000000" points="494.2278,-208.3677 483.641,-207.9562 491.6605,-214.8799 494.2278,-208.3677"/>
<text text-anchor="middle" x="553.5" y="-239.8" font-family="Times,serif" font-size="14.00" fill="#000000">ε</text>
</g>
<!-- 1&#45;7&#45;&gt;1&#45;26 -->
<g id="edge35" class="edge">
<title>1&#45;7&#45;&gt;1&#45;26</title>
<path fill="none" stroke="#000000" d="M120.0296,-275.6855C124.8718,-273.3059 130.0539,-270.9338 135,-269 234.7484,-230 360.8276,-211.2275 422.1442,-203.8916"/>
<polygon fill="#000000" stroke="#000000" points="422.5894,-207.3635 432.1181,-202.7316 421.7807,-200.4104 422.5894,-207.3635"/>
<text text-anchor="middle" x="242.5" y="-239.8" font-family="Times,serif" font-size="14.00" fill="#000000">ε</text>
</g>
<!-- 1&#45;8 -->
<g id="node11" class="node">
<title>1&#45;8</title>
<ellipse fill="none" stroke="#000000" cx="315" cy="-395" rx="27" ry="18"/>
<text text-anchor="middle" x="315" y="-391.3" font-family="Times,serif" font-size="14.00" fill="#000000">1&#45;8</text>
</g>
<!-- 1&#45;9 -->
<g id="node19" class="node">
<title>1&#45;9</title>
<ellipse fill="none" stroke="#000000" cx="315" cy="-287" rx="27" ry="18"/>
<text text-anchor="middle" x="315" y="-283.3" font-family="Times,serif" font-size="14.00" fill="#000000">1&#45;9</text>
</g>
<!-- 1&#45;8&#45;&gt;1&#45;9 -->
<g id="edge23" class="edge">
<title>1&#45;8&#45;&gt;1&#45;9</title>
<path fill="none" stroke="#000000" d="M315,-376.6793C315,-359.821 315,-334.5651 315,-315.147"/>
<polygon fill="#000000" stroke="#000000" points="318.5001,-315.0501 315,-305.0502 311.5001,-315.0502 318.5001,-315.0501"/>
<text text-anchor="middle" x="330.5" y="-337.3" font-family="Times,serif" font-size="14.00" fill="#000000">:Goto</text>
</g>
<!-- 1&#45;4 -->
<g id="node12" class="node">
<title>1&#45;4</title>
<ellipse fill="none" stroke="#000000" cx="387" cy="-395" rx="27" ry="18"/>
<text text-anchor="middle" x="387" y="-391.3" font-family="Times,serif" font-size="14.00" fill="#000000">1&#45;4</text>
</g>
<!-- 1&#45;5 -->
<g id="node13" class="node">
<title>1&#45;5</title>
<ellipse fill="none" stroke="#000000" cx="387" cy="-287" rx="27" ry="18"/>
<text text-anchor="middle" x="387" y="-283.3" font-family="Times,serif" font-size="14.00" fill="#000000">1&#45;5</text>
</g>
<!-- 1&#45;4&#45;&gt;1&#45;5 -->
<g id="edge21" class="edge">
<title>1&#45;4&#45;&gt;1&#45;5</title>
<path fill="none" stroke="#000000" d="M387,-376.6793C387,-359.821 387,-334.5651 387,-315.147"/>
<polygon fill="#000000" stroke="#000000" points="390.5001,-315.0501 387,-305.0502 383.5001,-315.0502 390.5001,-315.0501"/>
<text text-anchor="middle" x="402" y="-337.3" font-family="Times,serif" font-size="14.00" fill="#000000">:Data</text>
</g>
<!-- 1&#45;5&#45;&gt;1&#45;26 -->
<g id="edge34" class="edge">
<title>1&#45;5&#45;&gt;1&#45;26</title>
<path fill="none" stroke="#000000" d="M400.2059,-271.0429C411.1672,-257.798 426.9179,-238.7659 439.3584,-223.7336"/>
<polygon fill="#000000" stroke="#000000" points="442.1985,-225.7914 445.8778,-215.856 436.8057,-221.3284 442.1985,-225.7914"/>
<text text-anchor="middle" x="430.5" y="-239.8" font-family="Times,serif" font-size="14.00" fill="#000000">ε</text>
</g>
<!-- 1&#45;24 -->
<g id="node14" class="node">
<title>1&#45;24</title>
<ellipse fill="none" stroke="#000000" cx="459" cy="-395" rx="27" ry="18"/>
<text text-anchor="middle" x="459" y="-391.3" font-family="Times,serif" font-size="14.00" fill="#000000">1&#45;24</text>
</g>
<!-- 1&#45;25 -->
<g id="node22" class="node">
<title>1&#45;25</title>
<ellipse fill="none" stroke="#000000" cx="459" cy="-287" rx="27" ry="18"/>
<text text-anchor="middle" x="459" y="-283.3" font-family="Times,serif" font-size="14.00" fill="#000000">1&#45;25</text>
</g>
<!-- 1&#45;24&#45;&gt;1&#45;25 -->
<g id="edge31" class="edge">
<title>1&#45;24&#45;&gt;1&#45;25</title>
<path fill="none" stroke="#000000" d="M447.5572,-378.5388C444.1004,-372.6481 440.7576,-365.7827 439,-359 434.9865,-343.5115 434.9865,-338.4885 439,-323 439.9063,-319.5027 441.234,-315.9833 442.7815,-312.587"/>
<polygon fill="#000000" stroke="#000000" points="446.0215,-313.9442 447.5572,-303.4612 439.8195,-310.6984 446.0215,-313.9442"/>
<text text-anchor="middle" x="463" y="-337.3" font-family="Times,serif" font-size="14.00" fill="#000000">:Remark</text>
</g>
<!-- 1&#45;23 -->
<g id="node15" class="node">
<title>1&#45;23</title>
<ellipse fill="none" stroke="#000000" cx="862" cy="-287" rx="27" ry="18"/>
<text text-anchor="middle" x="862" y="-283.3" font-family="Times,serif" font-size="14.00" fill="#000000">1&#45;23</text>
</g>
<!-- 1&#45;23&#45;&gt;1&#45;26 -->
<g id="edge43" class="edge">
<title>1&#45;23&#45;&gt;1&#45;26</title>
<path fill="none" stroke="#000000" d="M840.977,-275.6686C836.1345,-273.2898 830.9505,-270.9224 826,-269 710.9815,-224.3351 564.1425,-207.9451 496.3653,-202.475"/>
<polygon fill="#000000" stroke="#000000" points="496.4232,-198.9692 486.1832,-201.6882 495.8838,-205.9484 496.4232,-198.9692"/>
<text text-anchor="middle" x="771.5" y="-239.8" font-family="Times,serif" font-size="14.00" fill="#000000">ε</text>
</g>
<!-- 1&#45;1 -->
<g id="node16" class="node">
<title>1&#45;1</title>
<ellipse fill="none" stroke="#000000" cx="523" cy="-341" rx="27" ry="18"/>
<text text-anchor="middle" x="523" y="-337.3" font-family="Times,serif" font-size="14.00" fill="#000000">1&#45;1</text>
</g>
<!-- 1&#45;1&#45;&gt;1&#45;26 -->
<g id="edge32" class="edge">
<title>1&#45;1&#45;&gt;1&#45;26</title>
<path fill="none" stroke="#000000" d="M516.7413,-323.3177C511.3867,-308.6037 503.2559,-287.1987 495,-269 488.4611,-254.5863 480.3687,-238.9162 473.5136,-226.1575"/>
<polygon fill="#000000" stroke="#000000" points="476.4081,-224.1536 468.5588,-217.0374 470.2572,-227.4952 476.4081,-224.1536"/>
<text text-anchor="middle" x="512.5" y="-283.3" font-family="Times,serif" font-size="14.00" fill="#000000">ε</text>
</g>
<!-- 1&#45;13 -->
<g id="node18" class="node">
<title>1&#45;13</title>
<ellipse fill="none" stroke="#000000" cx="646" cy="-287" rx="27" ry="18"/>
<text text-anchor="middle" x="646" y="-283.3" font-family="Times,serif" font-size="14.00" fill="#000000">1&#45;13</text>
</g>
<!-- 1&#45;13&#45;&gt;1&#45;26 -->
<g id="edge38" class="edge">
<title>1&#45;13&#45;&gt;1&#45;26</title>
<path fill="none" stroke="#000000" d="M627.0317,-274.1027C610.1964,-263.0295 584.6684,-247.1384 561,-236 539.1966,-225.7392 513.6234,-216.7198 493.5377,-210.2753"/>
<polygon fill="#000000" stroke="#000000" points="494.4613,-206.8968 483.8719,-207.2359 492.3615,-213.5745 494.4613,-206.8968"/>
<text text-anchor="middle" x="590.5" y="-239.8" font-family="Times,serif" font-size="14.00" fill="#000000">ε</text>
</g>
<!-- 1&#45;9&#45;&gt;1&#45;26 -->
<g id="edge36" class="edge">
<title>1&#45;9&#45;&gt;1&#45;26</title>
<path fill="none" stroke="#000000" d="M335.0226,-274.903C359.708,-259.9889 401.8479,-234.5294 430.0546,-217.4878"/>
<polygon fill="#000000" stroke="#000000" points="431.934,-220.4416 438.6832,-212.2747 428.3142,-214.4502 431.934,-220.4416"/>
<text text-anchor="middle" x="398.5" y="-239.8" font-family="Times,serif" font-size="14.00" fill="#000000">ε</text>
</g>
<!-- 1&#45;2 -->
<g id="node20" class="node">
<title>1&#45;2</title>
<ellipse fill="none" stroke="#000000" cx="574" cy="-395" rx="27" ry="18"/>
<text text-anchor="middle" x="574" y="-391.3" font-family="Times,serif" font-size="14.00" fill="#000000">1&#45;2</text>
</g>
<!-- 1&#45;2&#45;&gt;1&#45;3 -->
<g id="edge20" class="edge">
<title>1&#45;2&#45;&gt;1&#45;3</title>
<path fill="none" stroke="#000000" d="M574,-376.6793C574,-359.821 574,-334.5651 574,-315.147"/>
<polygon fill="#000000" stroke="#000000" points="577.5001,-315.0501 574,-305.0502 570.5001,-315.0502 577.5001,-315.0501"/>
<text text-anchor="middle" x="590" y="-337.3" font-family="Times,serif" font-size="14.00" fill="#000000">:Read</text>
</g>
<!-- 1&#45;26&#45;&gt;2 -->
<g id="edge5" class="edge">
<title>1&#45;26&#45;&gt;2</title>
<path fill="none" stroke="#000000" d="M459,-181.9735C459,-170.1918 459,-154.5607 459,-141.1581"/>
<polygon fill="#000000" stroke="#000000" points="462.5001,-141.0033 459,-131.0034 455.5001,-141.0034 462.5001,-141.0033"/>
<text text-anchor="middle" x="462.5" y="-152.8" font-family="Times,serif" font-size="14.00" fill="#000000">ε</text>
</g>
<!-- 1&#45;25&#45;&gt;1&#45;26 -->
<g id="edge44" class="edge">
<title>1&#45;25&#45;&gt;1&#45;26</title>
<path fill="none" stroke="#000000" d="M459,-268.9735C459,-257.1918 459,-241.5607 459,-228.1581"/>
<polygon fill="#000000" stroke="#000000" points="462.5001,-228.0033 459,-218.0034 455.5001,-228.0034 462.5001,-228.0033"/>
<text text-anchor="middle" x="462.5" y="-239.8" font-family="Times,serif" font-size="14.00" fill="#000000">ε</text>
</g>
<!-- 1&#45;12 -->
<g id="node23" class="node">
<title>1&#45;12</title>
<ellipse fill="none" stroke="#000000" cx="646" cy="-395" rx="27" ry="18"/>
<text text-anchor="middle" x="646" y="-391.3" font-family="Times,serif" font-size="14.00" fill="#000000">1&#45;12</text>
</g>
<!-- 1&#45;12&#45;&gt;1&#45;13 -->
<g id="edge25" class="edge">
<title>1&#45;12&#45;&gt;1&#45;13</title>
<path fill="none" stroke="#000000" d="M646,-376.6793C646,-359.821 646,-334.5651 646,-315.147"/>
<polygon fill="#000000" stroke="#000000" points="649.5001,-315.0501 646,-305.0502 642.5001,-315.0502 649.5001,-315.0501"/>
<text text-anchor="middle" x="657.5" y="-337.3" font-family="Times,serif" font-size="14.00" fill="#000000">:For</text>
</g>
<!-- 1&#45;19&#45;&gt;1&#45;26 -->
<g id="edge41" class="edge">
<title>1&#45;19&#45;&gt;1&#45;26</title>
<path fill="none" stroke="#000000" d="M264.5393,-275.8028C269.2632,-273.4674 274.2677,-271.0842 279,-269 329.1135,-246.9294 388.6966,-224.8852 425.1739,-211.8491"/>
<polygon fill="#000000" stroke="#000000" points="426.5729,-215.0665 434.8226,-208.4187 424.2279,-208.4709 426.5729,-215.0665"/>
<text text-anchor="middle" x="360.5" y="-239.8" font-family="Times,serif" font-size="14.00" fill="#000000">ε</text>
</g>
<!-- 0&#45;&gt;1 -->
<g id="edge2" class="edge">
<title>0&#45;&gt;1</title>
<path fill="none" stroke="#000000" d="M459,-637.9735C459,-626.1918 459,-610.5607 459,-597.1581"/>
<polygon fill="#000000" stroke="#000000" points="462.5001,-597.0033 459,-587.0034 455.5001,-597.0034 462.5001,-597.0033"/>
<text text-anchor="middle" x="468.5" y="-608.8" font-family="Times,serif" font-size="14.00" fill="#000000">:Int</text>
</g>
<!-- 0&#45;&gt;0 -->
<g id="edge3" class="edge">
<title>0&#45;&gt;0</title>
<path fill="none" stroke="#000000" d="M484.4435,-662.6907C495.0278,-663.1521 504,-660.9219 504,-656 504,-652.77 500.136,-650.6992 494.4881,-649.7876"/>
<polygon fill="#000000" stroke="#000000" points="494.5987,-646.289 484.4435,-649.3093 494.2656,-653.2811 494.5987,-646.289"/>
<text text-anchor="middle" x="507.5" y="-652.3" font-family="Times,serif" font-size="14.00" fill="#000000">ε</text>
</g>
<!-- 1&#45;14 -->
<g id="node26" class="node">
<title>1&#45;14</title>
<ellipse fill="none" stroke="#000000" cx="718" cy="-395" rx="27" ry="18"/>
<text text-anchor="middle" x="718" y="-391.3" font-family="Times,serif" font-size="14.00" fill="#000000">1&#45;14</text>
</g>
<!-- 1&#45;14&#45;&gt;1&#45;15 -->
<g id="edge26" class="edge">
<title>1&#45;14&#45;&gt;1&#45;15</title>
<path fill="none" stroke="#000000" d="M718,-376.6793C718,-359.821 718,-334.5651 718,-315.147"/>
<polygon fill="#000000" stroke="#000000" points="721.5001,-315.0501 718,-305.0502 714.5001,-315.0502 721.5001,-315.0501"/>
<text text-anchor="middle" x="733.5" y="-337.3" font-family="Times,serif" font-size="14.00" fill="#000000">:Next</text>
</g>
<!-- 1&#45;0&#45;&gt;1&#45;20 -->
<g id="edge15" class="edge">
<title>1&#45;0&#45;&gt;1&#45;20</title>
<path fill="none" stroke="#000000" d="M432.154,-479.7454C382.5808,-475.3067 273.474,-464.249 183,-446 128.7787,-435.0633 114.6495,-432.796 63,-413 61.1404,-412.2873 59.2487,-411.5101 57.355,-410.6918"/>
<polygon fill="#000000" stroke="#000000" points="58.5555,-407.3906 48.0105,-406.3637 55.6135,-413.7424 58.5555,-407.3906"/>
<text text-anchor="middle" x="186.5" y="-434.8" font-family="Times,serif" font-size="14.00" fill="#000000">ε</text>
</g>
<!-- 1&#45;0&#45;&gt;1&#45;6 -->
<g id="edge16" class="edge">
<title>1&#45;0&#45;&gt;1&#45;6</title>
<path fill="none" stroke="#000000" d="M432.1181,-479.2684C375.5034,-472.8768 240.5189,-454.2562 135,-413 133.1452,-412.2748 131.2573,-411.488 129.3665,-410.6623"/>
<polygon fill="#000000" stroke="#000000" points="130.5724,-407.363 120.0296,-406.3145 127.6174,-413.7088 130.5724,-407.363"/>
<text text-anchor="middle" x="242.5" y="-434.8" font-family="Times,serif" font-size="14.00" fill="#000000">ε</text>
</g>
<!-- 1&#45;0&#45;&gt;1&#45;10 -->
<g id="edge19" class="edge">
<title>1&#45;0&#45;&gt;1&#45;10</title>
<path fill="none" stroke="#000000" d="M432.945,-476.9933C386.4638,-467.5987 286.651,-445.3184 207,-413 205.2032,-412.2709 203.3729,-411.4884 201.5375,-410.6726"/>
<polygon fill="#000000" stroke="#000000" points="202.9894,-407.4878 192.4495,-406.4095 200.0165,-413.8252 202.9894,-407.4878"/>
<text text-anchor="middle" x="305.5" y="-434.8" font-family="Times,serif" font-size="14.00" fill="#000000">ε</text>
</g>
<!-- 1&#45;0&#45;&gt;1&#45;18 -->
<g id="edge9" class="edge">
<title>1&#45;0&#45;&gt;1&#45;18</title>
<path fill="none" stroke="#000000" d="M434.8226,-473.5813C399.9839,-461.2597 333.825,-437.1456 279,-413 277.2254,-412.2184 275.4125,-411.3948 273.5905,-410.5474"/>
<polygon fill="#000000" stroke="#000000" points="275.0685,-407.3746 264.5393,-406.1972 272.0362,-413.6837 275.0685,-407.3746"/>
<text text-anchor="middle" x="360.5" y="-434.8" font-family="Times,serif" font-size="14.00" fill="#000000">ε</text>
</g>
<!-- 1&#45;0&#45;&gt;1&#45;8 -->
<g id="edge11" class="edge">
<title>1&#45;0&#45;&gt;1&#45;8</title>
<path fill="none" stroke="#000000" d="M438.9774,-469.903C414.292,-454.9889 372.1521,-429.5294 343.9454,-412.4878"/>
<polygon fill="#000000" stroke="#000000" points="345.6858,-409.4502 335.3168,-407.2747 342.066,-415.4416 345.6858,-409.4502"/>
<text text-anchor="middle" x="398.5" y="-434.8" font-family="Times,serif" font-size="14.00" fill="#000000">ε</text>
</g>
<!-- 1&#45;0&#45;&gt;1&#45;4 -->
<g id="edge17" class="edge">
<title>1&#45;0&#45;&gt;1&#45;4</title>
<path fill="none" stroke="#000000" d="M445.7941,-466.0429C434.8328,-452.798 419.0821,-433.7659 406.6416,-418.7336"/>
<polygon fill="#000000" stroke="#000000" points="409.1943,-416.3284 400.1222,-410.856 403.8015,-420.7914 409.1943,-416.3284"/>
<text text-anchor="middle" x="430.5" y="-434.8" font-family="Times,serif" font-size="14.00" fill="#000000">ε</text>
</g>
<!-- 1&#45;0&#45;&gt;1&#45;24 -->
<g id="edge7" class="edge">
<title>1&#45;0&#45;&gt;1&#45;24</title>
<path fill="none" stroke="#000000" d="M459,-463.9735C459,-452.1918 459,-436.5607 459,-423.1581"/>
<polygon fill="#000000" stroke="#000000" points="462.5001,-423.0033 459,-413.0034 455.5001,-423.0034 462.5001,-423.0033"/>
<text text-anchor="middle" x="462.5" y="-434.8" font-family="Times,serif" font-size="14.00" fill="#000000">ε</text>
</g>
<!-- 1&#45;0&#45;&gt;1&#45;1 -->
<g id="edge6" class="edge">
<title>1&#45;0&#45;&gt;1&#45;1</title>
<path fill="none" stroke="#000000" d="M468.5588,-464.9626C476.1422,-451.1541 486.7944,-431.0878 495,-413 501.5789,-398.4979 508.0784,-381.9598 513.1569,-368.3939"/>
<polygon fill="#000000" stroke="#000000" points="516.5622,-369.2756 516.7413,-358.6823 509.9952,-366.8518 516.5622,-369.2756"/>
<text text-anchor="middle" x="506" y="-434.8" font-family="Times,serif" font-size="14.00" fill="#000000">:Assign</text>
</g>
<!-- 1&#45;0&#45;&gt;1&#45;2 -->
<g id="edge12" class="edge">
<title>1&#45;0&#45;&gt;1&#45;2</title>
<path fill="none" stroke="#000000" d="M485.7542,-478.6318C507.6766,-474.5197 538.0684,-465.514 557,-446 563.0987,-439.7137 567.0106,-431.1829 569.5193,-422.8979"/>
<polygon fill="#000000" stroke="#000000" points="572.944,-423.6282 571.9363,-413.0814 566.147,-421.9546 572.944,-423.6282"/>
<text text-anchor="middle" x="569.5" y="-434.8" font-family="Times,serif" font-size="14.00" fill="#000000">ε</text>
</g>
<!-- 1&#45;0&#45;&gt;1&#45;12 -->
<g id="edge14" class="edge">
<title>1&#45;0&#45;&gt;1&#45;12</title>
<path fill="none" stroke="#000000" d="M485.2874,-476.6886C509.8656,-471.1042 547.1548,-461.0221 577,-446 593.0449,-437.9241 609.2838,-426.1405 621.9739,-415.9341"/>
<polygon fill="#000000" stroke="#000000" points="624.2756,-418.5727 629.763,-409.5096 619.8215,-413.1725 624.2756,-418.5727"/>
<text text-anchor="middle" x="604.5" y="-434.8" font-family="Times,serif" font-size="14.00" fill="#000000">ε</text>
</g>
<!-- 1&#45;0&#45;&gt;1&#45;14 -->
<g id="edge10" class="edge">
<title>1&#45;0&#45;&gt;1&#45;14</title>
<path fill="none" stroke="#000000" d="M485.1892,-477.5683C516.0396,-471.9542 568.5882,-461.152 612,-446 644.4738,-434.6657 651.0605,-428.0253 682,-413 683.7443,-412.1529 685.5334,-411.278 687.3372,-410.3912"/>
<polygon fill="#000000" stroke="#000000" points="688.931,-413.5076 696.3381,-405.9323 685.8236,-407.2351 688.931,-413.5076"/>
<text text-anchor="middle" x="649.5" y="-434.8" font-family="Times,serif" font-size="14.00" fill="#000000">ε</text>
</g>
<!-- 1&#45;0&#45;&gt;1&#45;0 -->
<g id="edge18" class="edge">
<title>1&#45;0&#45;&gt;1&#45;0</title>
<path fill="none" stroke="#000000" d="M483.5325,-489.752C494.5078,-490.4902 504,-487.9063 504,-482 504,-478.0317 499.7151,-475.5632 493.5743,-474.5944"/>
<polygon fill="#000000" stroke="#000000" points="493.6472,-471.0949 483.5325,-474.248 493.4059,-478.0908 493.6472,-471.0949"/>
<text text-anchor="middle" x="507.5" y="-478.3" font-family="Times,serif" font-size="14.00" fill="#000000">ε</text>
</g>
<!-- 1&#45;16 -->
<g id="node28" class="node">
<title>1&#45;16</title>
<ellipse fill="none" stroke="#000000" cx="790" cy="-395" rx="27" ry="18"/>
<text text-anchor="middle" x="790" y="-391.3" font-family="Times,serif" font-size="14.00" fill="#000000">1&#45;16</text>
</g>
<!-- 1&#45;0&#45;&gt;1&#45;16 -->
<g id="edge8" class="edge">
<title>1&#45;0&#45;&gt;1&#45;16</title>
<path fill="none" stroke="#000000" d="M485.5333,-478.4519C523.7807,-473.0501 596.4648,-461.7082 657,-446 701.0779,-434.5623 711.9827,-430.5563 754,-413 755.7892,-412.2524 757.6135,-411.4554 759.4443,-410.6285"/>
<polygon fill="#000000" stroke="#000000" points="760.9772,-413.7752 768.5196,-406.3346 757.9834,-407.4477 760.9772,-413.7752"/>
<text text-anchor="middle" x="710.5" y="-434.8" font-family="Times,serif" font-size="14.00" fill="#000000">ε</text>
</g>
<!-- 1&#45;22 -->
<g id="node32" class="node">
<title>1&#45;22</title>
<ellipse fill="none" stroke="#000000" cx="862" cy="-395" rx="27" ry="18"/>
<text text-anchor="middle" x="862" y="-391.3" font-family="Times,serif" font-size="14.00" fill="#000000">1&#45;22</text>
</g>
<!-- 1&#45;0&#45;&gt;1&#45;22 -->
<g id="edge13" class="edge">
<title>1&#45;0&#45;&gt;1&#45;22</title>
<path fill="none" stroke="#000000" d="M486.0954,-479.6598C533.51,-475.2488 634.4386,-464.4517 718,-446 767.0101,-435.1778 779.3914,-431.6213 826,-413 827.8007,-412.2806 829.634,-411.5056 831.4717,-410.6956"/>
<polygon fill="#000000" stroke="#000000" points="832.9865,-413.8511 840.5662,-406.4485 830.0245,-407.5087 832.9865,-413.8511"/>
<text text-anchor="middle" x="779.5" y="-434.8" font-family="Times,serif" font-size="14.00" fill="#000000">ε</text>
</g>
<!-- 1&#45;17 -->
<g id="node29" class="node">
<title>1&#45;17</title>
<ellipse fill="none" stroke="#000000" cx="790" cy="-287" rx="27" ry="18"/>
<text text-anchor="middle" x="790" y="-283.3" font-family="Times,serif" font-size="14.00" fill="#000000">1&#45;17</text>
</g>
<!-- 1&#45;16&#45;&gt;1&#45;17 -->
<g id="edge27" class="edge">
<title>1&#45;16&#45;&gt;1&#45;17</title>
<path fill="none" stroke="#000000" d="M790,-376.6793C790,-359.821 790,-334.5651 790,-315.147"/>
<polygon fill="#000000" stroke="#000000" points="793.5001,-315.0501 790,-305.0502 786.5001,-315.0502 793.5001,-315.0501"/>
<text text-anchor="middle" x="804.5" y="-337.3" font-family="Times,serif" font-size="14.00" fill="#000000">:Dim</text>
</g>
<!-- 1&#45;17&#45;&gt;1&#45;26 -->
<g id="edge40" class="edge">
<title>1&#45;17&#45;&gt;1&#45;26</title>
<path fill="none" stroke="#000000" d="M768.5505,-275.5905C763.821,-273.2684 758.7915,-270.9442 754,-269 664.9877,-232.8833 552.8387,-213.1808 495.8679,-204.8542"/>
<polygon fill="#000000" stroke="#000000" points="496.2846,-201.3782 485.8904,-203.4304 495.2956,-208.308 496.2846,-201.3782"/>
<text text-anchor="middle" x="702.5" y="-239.8" font-family="Times,serif" font-size="14.00" fill="#000000">ε</text>
</g>
<!-- 1&#45;11&#45;&gt;1&#45;26 -->
<g id="edge37" class="edge">
<title>1&#45;11&#45;&gt;1&#45;26</title>
<path fill="none" stroke="#000000" d="M192.4495,-275.5905C197.179,-273.2684 202.2085,-270.9442 207,-269 281.3617,-238.8278 373.2963,-217.4046 423.001,-207.0479"/>
<polygon fill="#000000" stroke="#000000" points="423.853,-210.4461 432.945,-205.0067 422.4454,-203.589 423.853,-210.4461"/>
<text text-anchor="middle" x="305.5" y="-239.8" font-family="Times,serif" font-size="14.00" fill="#000000">ε</text>
</g>
<!-- 1&#45;21&#45;&gt;1&#45;26 -->
<g id="edge42" class="edge">
<title>1&#45;21&#45;&gt;1&#45;26</title>
<path fill="none" stroke="#000000" d="M48.0105,-275.6363C52.8537,-273.2592 58.0411,-270.9006 63,-269 114.6495,-249.204 128.7787,-246.9367 183,-236 267.8193,-218.8915 369.0153,-208.1036 422.1804,-203.1645"/>
<polygon fill="#000000" stroke="#000000" points="422.5134,-206.6488 432.154,-202.2546 421.8773,-199.6777 422.5134,-206.6488"/>
<text text-anchor="middle" x="186.5" y="-239.8" font-family="Times,serif" font-size="14.00" fill="#000000">ε</text>
</g>
<!-- 1&#45;22&#45;&gt;1&#45;23 -->
<g id="edge30" class="edge">
<title>1&#45;22&#45;&gt;1&#45;23</title>
<path fill="none" stroke="#000000" d="M862,-376.6793C862,-359.821 862,-334.5651 862,-315.147"/>
<polygon fill="#000000" stroke="#000000" points="865.5001,-315.0501 862,-305.0502 858.5001,-315.0502 865.5001,-315.0501"/>
<text text-anchor="middle" x="882.5" y="-337.3" font-family="Times,serif" font-size="14.00" fill="#000000">:Return</text>
</g>
</g>
</svg>
