<?xml version="1.0" encoding="UTF-8" standalone="no"?>
<!DOCTYPE svg PUBLIC "-//W3C//DTD SVG 1.1//EN"
 "http://www.w3.org/Graphics/SVG/1.1/DTD/svg11.dtd">
<!-- Generated by graphviz version 2.40.1 (20161225.0304)
 -->
<!-- Title: %3 Pages: 1 -->
<svg width="188pt" height="407pt"
 viewBox="0.00 0.00 188.00 407.00" xmlns="http://www.w3.org/2000/svg" xmlns:xlink="http://www.w3.org/1999/xlink">
<g id="graph0" class="graph" transform="scale(1 1) rotate(0) translate(4 403)">
<title>%3</title>
<polygon fill="#ffffff" stroke="transparent" points="-4,4 -4,-403 184,-403 184,4 -4,4"/>
<!-- fake0 -->
<g id="node1" class="node">
<title>fake0</title>
</g>
<!-- 0 -->
<g id="node7" class="node">
<title>0</title>
<ellipse fill="none" stroke="#000000" cx="87" cy="-308" rx="27" ry="18"/>
<text text-anchor="middle" x="87" y="-304.3" font-family="Times,serif" font-size="14.00" fill="#000000">0</text>
</g>
<!-- fake0&#45;&gt;0 -->
<g id="edge1" class="edge">
<title>fake0&#45;&gt;0</title>
<path fill="none" stroke="#000000" stroke-width="2" d="M87,-362.9551C87,-354.8828 87,-345.1764 87,-336.1817"/>
<polygon fill="#000000" stroke="#000000" stroke-width="2" points="90.5001,-336.0903 87,-326.0904 83.5001,-336.0904 90.5001,-336.0903"/>
</g>
<!-- 3 -->
<g id="node2" class="node">
<title>3</title>
<ellipse fill="none" stroke="#000000" cx="27" cy="-113" rx="27" ry="18"/>
<text text-anchor="middle" x="27" y="-109.3" font-family="Times,serif" font-size="14.00" fill="#000000">3</text>
</g>
<!-- 6 -->
<g id="node8" class="node">
<title>6</title>
<ellipse fill="none" stroke="#000000" cx="90" cy="-22" rx="18" ry="18"/>
<ellipse fill="none" stroke="#000000" cx="90" cy="-22" rx="22" ry="22"/>
<text text-anchor="middle" x="90" y="-18.3" font-family="Times,serif" font-size="14.00" fill="#000000">6</text>
</g>
<!-- 3&#45;&gt;6 -->
<g id="edge9" class="edge">
<title>3&#45;&gt;6</title>
<path fill="none" stroke="#000000" d="M38.5552,-96.3092C47.7605,-83.0126 60.8263,-64.1398 71.4866,-48.7416"/>
<polygon fill="#000000" stroke="#000000" points="74.6234,-50.3596 77.4378,-40.1454 68.868,-46.3751 74.6234,-50.3596"/>
<text text-anchor="middle" x="65.5" y="-65.8" font-family="Times,serif" font-size="14.00" fill="#000000">ε</text>
</g>
<!-- 2 -->
<g id="node3" class="node">
<title>2</title>
<ellipse fill="none" stroke="#000000" cx="31" cy="-221" rx="27" ry="18"/>
<text text-anchor="middle" x="31" y="-217.3" font-family="Times,serif" font-size="14.00" fill="#000000">2</text>
</g>
<!-- 2&#45;&gt;3 -->
<g id="edge6" class="edge">
<title>2&#45;&gt;3</title>
<path fill="none" stroke="#000000" d="M29.2284,-202.7021C28.746,-197.0334 28.2798,-190.7631 28,-185 27.3038,-170.66 27.0309,-154.6962 26.9418,-141.4513"/>
<polygon fill="#000000" stroke="#000000" points="30.4405,-141.0479 26.9048,-131.0604 23.4405,-141.0729 30.4405,-141.0479"/>
<text text-anchor="middle" x="40.5" y="-163.3" font-family="Times,serif" font-size="14.00" fill="#000000">digit</text>
</g>
<!-- 5 -->
<g id="node4" class="node">
<title>5</title>
<ellipse fill="none" stroke="#000000" cx="142" cy="-113" rx="27" ry="18"/>
<text text-anchor="middle" x="142" y="-109.3" font-family="Times,serif" font-size="14.00" fill="#000000">5</text>
</g>
<!-- 5&#45;&gt;6 -->
<g id="edge10" class="edge">
<title>5&#45;&gt;6</title>
<path fill="none" stroke="#000000" d="M132.2192,-95.8836C124.8614,-83.0074 114.6182,-65.0819 106.0641,-50.1122"/>
<polygon fill="#000000" stroke="#000000" points="108.9974,-48.1908 100.9971,-41.2449 102.9197,-51.6638 108.9974,-48.1908"/>
<text text-anchor="middle" x="123.5" y="-65.8" font-family="Times,serif" font-size="14.00" fill="#000000">ε</text>
</g>
<!-- 1 -->
<g id="node5" class="node">
<title>1</title>
<ellipse fill="none" stroke="#000000" cx="89" cy="-167" rx="27" ry="18"/>
<text text-anchor="middle" x="89" y="-163.3" font-family="Times,serif" font-size="14.00" fill="#000000">1</text>
</g>
<!-- 1&#45;&gt;6 -->
<g id="edge8" class="edge">
<title>1&#45;&gt;6</title>
<path fill="none" stroke="#000000" d="M89.1246,-148.9288C89.2878,-125.2639 89.5768,-83.3661 89.7779,-54.2085"/>
<polygon fill="#000000" stroke="#000000" points="93.2784,-54.1239 89.8476,-44.1 86.2786,-54.0756 93.2784,-54.1239"/>
<text text-anchor="middle" x="92.5" y="-109.3" font-family="Times,serif" font-size="14.00" fill="#000000">ε</text>
</g>
<!-- 4 -->
<g id="node6" class="node">
<title>4</title>
<ellipse fill="none" stroke="#000000" cx="142" cy="-221" rx="27" ry="18"/>
<text text-anchor="middle" x="142" y="-217.3" font-family="Times,serif" font-size="14.00" fill="#000000">4</text>
</g>
<!-- 4&#45;&gt;5 -->
<g id="edge7" class="edge">
<title>4&#45;&gt;5</title>
<path fill="none" stroke="#000000" d="M142,-202.6793C142,-185.821 142,-160.5651 142,-141.147"/>
<polygon fill="#000000" stroke="#000000" points="145.5001,-141.0501 142,-131.0502 138.5001,-141.0502 145.5001,-141.0501"/>
<text text-anchor="middle" x="161" y="-163.3" font-family="Times,serif" font-size="14.00" fill="#000000">special</text>
</g>
<!-- 0&#45;&gt;2 -->
<g id="edge4" class="edge">
<title>0&#45;&gt;2</title>
<path fill="none" stroke="#000000" d="M73.3259,-292.3686C68.2388,-286.2185 62.5917,-278.9702 58,-272 52.9296,-264.3031 48.0164,-255.5516 43.8024,-247.4977"/>
<polygon fill="#000000" stroke="#000000" points="46.8629,-245.7944 39.2091,-238.4684 40.6238,-248.9684 46.8629,-245.7944"/>
<text text-anchor="middle" x="61.5" y="-260.8" font-family="Times,serif" font-size="14.00" fill="#000000">ε</text>
</g>
<!-- 0&#45;&gt;1 -->
<g id="edge2" class="edge">
<title>0&#45;&gt;1</title>
<path fill="none" stroke="#000000" d="M86.393,-289.6879C86.2315,-284.0187 86.0799,-277.7517 86,-272 85.6399,-246.0681 86.6057,-216.5448 87.5353,-195.4227"/>
<polygon fill="#000000" stroke="#000000" points="91.042,-195.3585 88.011,-185.2066 84.0496,-195.0329 91.042,-195.3585"/>
<text text-anchor="middle" x="100" y="-260.8" font-family="Times,serif" font-size="14.00" fill="#000000">letter</text>
</g>
<!-- 0&#45;&gt;4 -->
<g id="edge3" class="edge">
<title>0&#45;&gt;4</title>
<path fill="none" stroke="#000000" d="M101.8717,-292.6082C107.341,-286.4875 113.3324,-279.1967 118,-272 122.8456,-264.5289 127.2789,-255.9251 130.9807,-247.9378"/>
<polygon fill="#000000" stroke="#000000" points="134.2589,-249.1789 135.1118,-238.6184 127.8595,-246.342 134.2589,-249.1789"/>
<text text-anchor="middle" x="129.5" y="-260.8" font-family="Times,serif" font-size="14.00" fill="#000000">ε</text>
</g>
<!-- 0&#45;&gt;0 -->
<g id="edge5" class="edge">
<title>0&#45;&gt;0</title>
<path fill="none" stroke="#000000" d="M112.4435,-314.6907C123.0278,-315.1521 132,-312.9219 132,-308 132,-304.77 128.136,-302.6992 122.4881,-301.7876"/>
<polygon fill="#000000" stroke="#000000" points="122.5987,-298.289 112.4435,-301.3093 122.2656,-305.2811 122.5987,-298.289"/>
<text text-anchor="middle" x="135.5" y="-304.3" font-family="Times,serif" font-size="14.00" fill="#000000">ε</text>
</g>
</g>
</svg>
