<?xml version="1.0" encoding="UTF-8" standalone="no"?>
<!DOCTYPE svg PUBLIC "-//W3C//DTD SVG 1.1//EN"
 "http://www.w3.org/Graphics/SVG/1.1/DTD/svg11.dtd">
<!-- Generated by graphviz version 2.40.1 (20161225.0304)
 -->
<!-- Title: %3 Pages: 1 -->
<svg width="129pt" height="1169pt"
 viewBox="0.00 0.00 129.00 1169.00" xmlns="http://www.w3.org/2000/svg" xmlns:xlink="http://www.w3.org/1999/xlink">
<g id="graph0" class="graph" transform="scale(1 1) rotate(0) translate(4 1165)">
<title>%3</title>
<polygon fill="#ffffff" stroke="transparent" points="-4,4 -4,-1165 125,-1165 125,4 -4,4"/>
<!-- fake0 -->
<g id="node1" class="node">
<title>fake0</title>
</g>
<!-- 0 -->
<g id="node10" class="node">
<title>0</title>
<ellipse fill="none" stroke="#000000" cx="69" cy="-1070" rx="27" ry="18"/>
<text text-anchor="middle" x="69" y="-1066.3" font-family="Times,serif" font-size="14.00" fill="#000000">0</text>
</g>
<!-- fake0&#45;&gt;0 -->
<g id="edge1" class="edge">
<title>fake0&#45;&gt;0</title>
<path fill="none" stroke="#000000" stroke-width="2" d="M69,-1124.9551C69,-1116.8828 69,-1107.1764 69,-1098.1817"/>
<polygon fill="#000000" stroke="#000000" stroke-width="2" points="72.5001,-1098.0903 69,-1088.0904 65.5001,-1098.0904 72.5001,-1098.0903"/>
</g>
<!-- 9 -->
<g id="node2" class="node">
<title>9</title>
<ellipse fill="none" stroke="#000000" cx="59" cy="-22" rx="18" ry="18"/>
<ellipse fill="none" stroke="#000000" cx="59" cy="-22" rx="22" ry="22"/>
<text text-anchor="middle" x="59" y="-18.3" font-family="Times,serif" font-size="14.00" fill="#000000">9</text>
</g>
<!-- 3 -->
<g id="node3" class="node">
<title>3</title>
<ellipse fill="none" stroke="#000000" cx="69" cy="-809" rx="27" ry="18"/>
<text text-anchor="middle" x="69" y="-805.3" font-family="Times,serif" font-size="14.00" fill="#000000">3</text>
</g>
<!-- 4 -->
<g id="node9" class="node">
<title>4</title>
<ellipse fill="none" stroke="#000000" cx="69" cy="-722" rx="27" ry="18"/>
<text text-anchor="middle" x="69" y="-718.3" font-family="Times,serif" font-size="14.00" fill="#000000">4</text>
</g>
<!-- 3&#45;&gt;4 -->
<g id="edge6" class="edge">
<title>3&#45;&gt;4</title>
<path fill="none" stroke="#000000" d="M69,-790.9735C69,-779.1918 69,-763.5607 69,-750.1581"/>
<polygon fill="#000000" stroke="#000000" points="72.5001,-750.0033 69,-740.0034 65.5001,-750.0034 72.5001,-750.0033"/>
<text text-anchor="middle" x="83" y="-761.8" font-family="Times,serif" font-size="14.00" fill="#000000">letter</text>
</g>
<!-- 4&#45;1 -->
<g id="node4" class="node">
<title>4&#45;1</title>
<ellipse fill="none" stroke="#000000" cx="27" cy="-548" rx="27" ry="18"/>
<text text-anchor="middle" x="27" y="-544.3" font-family="Times,serif" font-size="14.00" fill="#000000">4&#45;1</text>
</g>
<!-- 4&#45;2 -->
<g id="node7" class="node">
<title>4&#45;2</title>
<ellipse fill="none" stroke="#000000" cx="59" cy="-461" rx="27" ry="18"/>
<text text-anchor="middle" x="59" y="-457.3" font-family="Times,serif" font-size="14.00" fill="#000000">4&#45;2</text>
</g>
<!-- 4&#45;1&#45;&gt;4&#45;2 -->
<g id="edge12" class="edge">
<title>4&#45;1&#45;&gt;4&#45;2</title>
<path fill="none" stroke="#000000" d="M33.4757,-530.3943C37.9432,-518.2482 43.9683,-501.8674 49.0428,-488.0711"/>
<polygon fill="#000000" stroke="#000000" points="52.3667,-489.1731 52.534,-478.5796 45.797,-486.7566 52.3667,-489.1731"/>
<text text-anchor="middle" x="48.5" y="-500.8" font-family="Times,serif" font-size="14.00" fill="#000000">ε</text>
</g>
<!-- 2 -->
<g id="node5" class="node">
<title>2</title>
<ellipse fill="none" stroke="#000000" cx="69" cy="-896" rx="27" ry="18"/>
<text text-anchor="middle" x="69" y="-892.3" font-family="Times,serif" font-size="14.00" fill="#000000">2</text>
</g>
<!-- 2&#45;&gt;3 -->
<g id="edge5" class="edge">
<title>2&#45;&gt;3</title>
<path fill="none" stroke="#000000" d="M69,-877.9735C69,-866.1918 69,-850.5607 69,-837.1581"/>
<polygon fill="#000000" stroke="#000000" points="72.5001,-837.0033 69,-827.0034 65.5001,-837.0034 72.5001,-837.0033"/>
<text text-anchor="middle" x="71.5" y="-848.8" font-family="Times,serif" font-size="14.00" fill="#000000">(</text>
</g>
<!-- 5 -->
<g id="node6" class="node">
<title>5</title>
<ellipse fill="none" stroke="#000000" cx="59" cy="-374" rx="27" ry="18"/>
<text text-anchor="middle" x="59" y="-370.3" font-family="Times,serif" font-size="14.00" fill="#000000">5</text>
</g>
<!-- 6 -->
<g id="node12" class="node">
<title>6</title>
<ellipse fill="none" stroke="#000000" cx="59" cy="-287" rx="27" ry="18"/>
<text text-anchor="middle" x="59" y="-283.3" font-family="Times,serif" font-size="14.00" fill="#000000">6</text>
</g>
<!-- 5&#45;&gt;6 -->
<g id="edge13" class="edge">
<title>5&#45;&gt;6</title>
<path fill="none" stroke="#000000" d="M59,-355.9735C59,-344.1918 59,-328.5607 59,-315.1581"/>
<polygon fill="#000000" stroke="#000000" points="62.5001,-315.0033 59,-305.0034 55.5001,-315.0034 62.5001,-315.0033"/>
<text text-anchor="middle" x="61.5" y="-326.8" font-family="Times,serif" font-size="14.00" fill="#000000">)</text>
</g>
<!-- 4&#45;2&#45;&gt;5 -->
<g id="edge8" class="edge">
<title>4&#45;2&#45;&gt;5</title>
<path fill="none" stroke="#000000" d="M59,-442.9735C59,-431.1918 59,-415.5607 59,-402.1581"/>
<polygon fill="#000000" stroke="#000000" points="62.5001,-402.0033 59,-392.0034 55.5001,-402.0034 62.5001,-402.0033"/>
<text text-anchor="middle" x="62.5" y="-413.8" font-family="Times,serif" font-size="14.00" fill="#000000">ε</text>
</g>
<!-- 1 -->
<g id="node8" class="node">
<title>1</title>
<ellipse fill="none" stroke="#000000" cx="69" cy="-983" rx="27" ry="18"/>
<text text-anchor="middle" x="69" y="-979.3" font-family="Times,serif" font-size="14.00" fill="#000000">1</text>
</g>
<!-- 1&#45;&gt;2 -->
<g id="edge4" class="edge">
<title>1&#45;&gt;2</title>
<path fill="none" stroke="#000000" d="M69,-964.9735C69,-953.1918 69,-937.5607 69,-924.1581"/>
<polygon fill="#000000" stroke="#000000" points="72.5001,-924.0033 69,-914.0034 65.5001,-924.0034 72.5001,-924.0033"/>
<text text-anchor="middle" x="83" y="-935.8" font-family="Times,serif" font-size="14.00" fill="#000000">letter</text>
</g>
<!-- 4&#45;0 -->
<g id="node14" class="node">
<title>4&#45;0</title>
<ellipse fill="none" stroke="#000000" cx="69" cy="-635" rx="27" ry="18"/>
<text text-anchor="middle" x="69" y="-631.3" font-family="Times,serif" font-size="14.00" fill="#000000">4&#45;0</text>
</g>
<!-- 4&#45;&gt;4&#45;0 -->
<g id="edge7" class="edge">
<title>4&#45;&gt;4&#45;0</title>
<path fill="none" stroke="#000000" d="M69,-703.9735C69,-692.1918 69,-676.5607 69,-663.1581"/>
<polygon fill="#000000" stroke="#000000" points="72.5001,-663.0033 69,-653.0034 65.5001,-663.0034 72.5001,-663.0033"/>
<text text-anchor="middle" x="72.5" y="-674.8" font-family="Times,serif" font-size="14.00" fill="#000000">ε</text>
</g>
<!-- 0&#45;&gt;1 -->
<g id="edge2" class="edge">
<title>0&#45;&gt;1</title>
<path fill="none" stroke="#000000" d="M69,-1051.9735C69,-1040.1918 69,-1024.5607 69,-1011.1581"/>
<polygon fill="#000000" stroke="#000000" points="72.5001,-1011.0033 69,-1001.0034 65.5001,-1011.0034 72.5001,-1011.0033"/>
<text text-anchor="middle" x="92.5" y="-1022.8" font-family="Times,serif" font-size="14.00" fill="#000000">DEF FN</text>
</g>
<!-- 0&#45;&gt;0 -->
<g id="edge3" class="edge">
<title>0&#45;&gt;0</title>
<path fill="none" stroke="#000000" d="M94.4435,-1076.6907C105.0278,-1077.1521 114,-1074.9219 114,-1070 114,-1066.77 110.136,-1064.6992 104.4881,-1063.7876"/>
<polygon fill="#000000" stroke="#000000" points="104.5987,-1060.289 94.4435,-1063.3093 104.2656,-1067.2811 104.5987,-1060.289"/>
<text text-anchor="middle" x="117.5" y="-1066.3" font-family="Times,serif" font-size="14.00" fill="#000000">ε</text>
</g>
<!-- 8 -->
<g id="node11" class="node">
<title>8</title>
<ellipse fill="none" stroke="#000000" cx="59" cy="-113" rx="27" ry="18"/>
<text text-anchor="middle" x="59" y="-109.3" font-family="Times,serif" font-size="14.00" fill="#000000">8</text>
</g>
<!-- 8&#45;&gt;9 -->
<g id="edge16" class="edge">
<title>8&#45;&gt;9</title>
<path fill="none" stroke="#000000" d="M59,-94.5848C59,-83.1105 59,-68.0231 59,-54.5774"/>
<polygon fill="#000000" stroke="#000000" points="62.5001,-54.2465 59,-44.2465 55.5001,-54.2466 62.5001,-54.2465"/>
<text text-anchor="middle" x="62.5" y="-65.8" font-family="Times,serif" font-size="14.00" fill="#000000">ε</text>
</g>
<!-- 7 -->
<g id="node13" class="node">
<title>7</title>
<ellipse fill="none" stroke="#000000" cx="59" cy="-200" rx="27" ry="18"/>
<text text-anchor="middle" x="59" y="-196.3" font-family="Times,serif" font-size="14.00" fill="#000000">7</text>
</g>
<!-- 6&#45;&gt;7 -->
<g id="edge14" class="edge">
<title>6&#45;&gt;7</title>
<path fill="none" stroke="#000000" d="M59,-268.9735C59,-257.1918 59,-241.5607 59,-228.1581"/>
<polygon fill="#000000" stroke="#000000" points="62.5001,-228.0033 59,-218.0034 55.5001,-228.0034 62.5001,-228.0033"/>
<text text-anchor="middle" x="63.5" y="-239.8" font-family="Times,serif" font-size="14.00" fill="#000000">=</text>
</g>
<!-- 7&#45;&gt;8 -->
<g id="edge15" class="edge">
<title>7&#45;&gt;8</title>
<path fill="none" stroke="#000000" d="M59,-181.9735C59,-170.1918 59,-154.5607 59,-141.1581"/>
<polygon fill="#000000" stroke="#000000" points="62.5001,-141.0033 59,-131.0034 55.5001,-141.0034 62.5001,-141.0033"/>
<text text-anchor="middle" x="72" y="-152.8" font-family="Times,serif" font-size="14.00" fill="#000000">:Exp</text>
</g>
<!-- 4&#45;0&#45;&gt;4&#45;1 -->
<g id="edge9" class="edge">
<title>4&#45;0&#45;&gt;4&#45;1</title>
<path fill="none" stroke="#000000" d="M60.31,-617.8283C57.3278,-611.8806 53.9894,-605.161 51,-599 47.1734,-591.1136 43.0863,-582.5019 39.3894,-574.638"/>
<polygon fill="#000000" stroke="#000000" points="42.5281,-573.0875 35.1173,-565.5159 36.1888,-576.0564 42.5281,-573.0875"/>
<text text-anchor="middle" x="63.5" y="-587.8" font-family="Times,serif" font-size="14.00" fill="#000000">digit</text>
</g>
<!-- 4&#45;0&#45;&gt;4&#45;2 -->
<g id="edge10" class="edge">
<title>4&#45;0&#45;&gt;4&#45;2</title>
<path fill="none" stroke="#000000" d="M73.1724,-617.1538C74.33,-611.3937 75.4262,-604.9575 76,-599 79.694,-560.6487 72.1735,-516.4761 65.9865,-488.649"/>
<polygon fill="#000000" stroke="#000000" points="69.3779,-487.7798 63.7068,-478.8305 62.5593,-489.3631 69.3779,-487.7798"/>
<text text-anchor="middle" x="79.5" y="-544.3" font-family="Times,serif" font-size="14.00" fill="#000000">ε</text>
</g>
<!-- 4&#45;0&#45;&gt;4&#45;0 -->
<g id="edge11" class="edge">
<title>4&#45;0&#45;&gt;4&#45;0</title>
<path fill="none" stroke="#000000" d="M93.5325,-642.752C104.5078,-643.4902 114,-640.9063 114,-635 114,-631.0317 109.7151,-628.5632 103.5743,-627.5944"/>
<polygon fill="#000000" stroke="#000000" points="103.6472,-624.0949 93.5325,-627.248 103.4059,-631.0908 103.6472,-624.0949"/>
<text text-anchor="middle" x="117.5" y="-631.3" font-family="Times,serif" font-size="14.00" fill="#000000">ε</text>
</g>
</g>
</svg>
