<?xml version="1.0" encoding="UTF-8" standalone="no"?>
<!DOCTYPE svg PUBLIC "-//W3C//DTD SVG 1.1//EN"
 "http://www.w3.org/Graphics/SVG/1.1/DTD/svg11.dtd">
<!-- Generated by graphviz version 2.40.1 (20161225.0304)
 -->
<!-- Title: %3 Pages: 1 -->
<svg width="284pt" height="1517pt"
 viewBox="0.00 0.00 283.90 1517.00" xmlns="http://www.w3.org/2000/svg" xmlns:xlink="http://www.w3.org/1999/xlink">
<g id="graph0" class="graph" transform="scale(1 1) rotate(0) translate(4 1513)">
<title>%3</title>
<polygon fill="#ffffff" stroke="transparent" points="-4,4 -4,-1513 279.8973,-1513 279.8973,4 -4,4"/>
<!-- fake0 -->
<g id="node1" class="node">
<title>fake0</title>
</g>
<!-- 0 -->
<g id="node19" class="node">
<title>0</title>
<ellipse fill="none" stroke="#000000" cx="60" cy="-1418" rx="27" ry="18"/>
<text text-anchor="middle" x="60" y="-1414.3" font-family="Times,serif" font-size="14.00" fill="#000000">0</text>
</g>
<!-- fake0&#45;&gt;0 -->
<g id="edge1" class="edge">
<title>fake0&#45;&gt;0</title>
<path fill="none" stroke="#000000" stroke-width="2" d="M60,-1472.9551C60,-1464.8828 60,-1455.1764 60,-1446.1817"/>
<polygon fill="#000000" stroke="#000000" stroke-width="2" points="63.5001,-1446.0903 60,-1436.0904 56.5001,-1446.0904 63.5001,-1446.0903"/>
</g>
<!-- 6&#45;4&#45;2 -->
<g id="node2" class="node">
<title>6&#45;4&#45;2</title>
<ellipse fill="none" stroke="#000000" cx="246" cy="-105" rx="29.795" ry="18"/>
<text text-anchor="middle" x="246" y="-101.3" font-family="Times,serif" font-size="14.00" fill="#000000">6&#45;4&#45;2</text>
</g>
<!-- 6&#45;4&#45;3 -->
<g id="node16" class="node">
<title>6&#45;4&#45;3</title>
<ellipse fill="none" stroke="#000000" cx="193" cy="-18" rx="29.795" ry="18"/>
<text text-anchor="middle" x="193" y="-14.3" font-family="Times,serif" font-size="14.00" fill="#000000">6&#45;4&#45;3</text>
</g>
<!-- 6&#45;4&#45;2&#45;&gt;6&#45;4&#45;3 -->
<g id="edge27" class="edge">
<title>6&#45;4&#45;2&#45;&gt;6&#45;4&#45;3</title>
<path fill="none" stroke="#000000" d="M235.5289,-87.8116C227.9069,-75.3 217.451,-58.1366 208.8142,-43.9592"/>
<polygon fill="#000000" stroke="#000000" points="211.641,-41.8719 203.4493,-35.1527 205.6629,-45.5137 211.641,-41.8719"/>
<text text-anchor="middle" x="225.5" y="-57.8" font-family="Times,serif" font-size="14.00" fill="#000000">ε</text>
</g>
<!-- 6&#45;2 -->
<g id="node3" class="node">
<title>6&#45;2</title>
<ellipse fill="none" stroke="#000000" cx="201" cy="-544" rx="27" ry="18"/>
<text text-anchor="middle" x="201" y="-540.3" font-family="Times,serif" font-size="14.00" fill="#000000">6&#45;2</text>
</g>
<!-- 6&#45;3 -->
<g id="node26" class="node">
<title>6&#45;3</title>
<ellipse fill="none" stroke="#000000" cx="200" cy="-453" rx="27" ry="18"/>
<text text-anchor="middle" x="200" y="-449.3" font-family="Times,serif" font-size="14.00" fill="#000000">6&#45;3</text>
</g>
<!-- 6&#45;2&#45;&gt;6&#45;3 -->
<g id="edge20" class="edge">
<title>6&#45;2&#45;&gt;6&#45;3</title>
<path fill="none" stroke="#000000" d="M200.7976,-525.5848C200.6585,-512.9209 200.4709,-495.8558 200.3127,-481.4541"/>
<polygon fill="#000000" stroke="#000000" points="203.8084,-481.0382 200.1987,-471.0773 196.8088,-481.1152 203.8084,-481.0382"/>
<text text-anchor="middle" x="202.5" y="-492.8" font-family="Times,serif" font-size="14.00" fill="#000000">(</text>
</g>
<!-- 2 -->
<g id="node4" class="node">
<title>2</title>
<ellipse fill="none" stroke="#000000" cx="60" cy="-1244" rx="27" ry="18"/>
<text text-anchor="middle" x="60" y="-1240.3" font-family="Times,serif" font-size="14.00" fill="#000000">2</text>
</g>
<!-- 3 -->
<g id="node18" class="node">
<title>3</title>
<ellipse fill="none" stroke="#000000" cx="60" cy="-1157" rx="27" ry="18"/>
<text text-anchor="middle" x="60" y="-1153.3" font-family="Times,serif" font-size="14.00" fill="#000000">3</text>
</g>
<!-- 2&#45;&gt;3 -->
<g id="edge5" class="edge">
<title>2&#45;&gt;3</title>
<path fill="none" stroke="#000000" d="M60,-1225.9735C60,-1214.1918 60,-1198.5607 60,-1185.1581"/>
<polygon fill="#000000" stroke="#000000" points="63.5001,-1185.0033 60,-1175.0034 56.5001,-1185.0034 63.5001,-1185.0033"/>
<text text-anchor="middle" x="62.5" y="-1196.8" font-family="Times,serif" font-size="14.00" fill="#000000">(</text>
</g>
<!-- 5 -->
<g id="node5" class="node">
<title>5</title>
<ellipse fill="none" stroke="#000000" cx="132" cy="-896" rx="27" ry="18"/>
<text text-anchor="middle" x="132" y="-892.3" font-family="Times,serif" font-size="14.00" fill="#000000">5</text>
</g>
<!-- 6 -->
<g id="node21" class="node">
<title>6</title>
<ellipse fill="none" stroke="#000000" cx="132" cy="-809" rx="27" ry="18"/>
<text text-anchor="middle" x="132" y="-805.3" font-family="Times,serif" font-size="14.00" fill="#000000">6</text>
</g>
<!-- 5&#45;&gt;6 -->
<g id="edge14" class="edge">
<title>5&#45;&gt;6</title>
<path fill="none" stroke="#000000" d="M132,-877.9735C132,-866.1918 132,-850.5607 132,-837.1581"/>
<polygon fill="#000000" stroke="#000000" points="135.5001,-837.0033 132,-827.0034 128.5001,-837.0034 135.5001,-837.0033"/>
<text text-anchor="middle" x="134.5" y="-848.8" font-family="Times,serif" font-size="14.00" fill="#000000">)</text>
</g>
<!-- 4&#45;2 -->
<g id="node6" class="node">
<title>4&#45;2</title>
<ellipse fill="none" stroke="#000000" cx="60" cy="-809" rx="27" ry="18"/>
<text text-anchor="middle" x="60" y="-805.3" font-family="Times,serif" font-size="14.00" fill="#000000">4&#45;2</text>
</g>
<!-- 4&#45;3 -->
<g id="node20" class="node">
<title>4&#45;3</title>
<ellipse fill="none" stroke="#000000" cx="27" cy="-722" rx="27" ry="18"/>
<text text-anchor="middle" x="27" y="-718.3" font-family="Times,serif" font-size="14.00" fill="#000000">4&#45;3</text>
</g>
<!-- 4&#45;2&#45;&gt;4&#45;3 -->
<g id="edge12" class="edge">
<title>4&#45;2&#45;&gt;4&#45;3</title>
<path fill="none" stroke="#000000" d="M53.322,-791.3943C48.7148,-779.2482 42.5014,-762.8674 37.2684,-749.0711"/>
<polygon fill="#000000" stroke="#000000" points="40.4872,-747.6882 33.6681,-739.5796 33.9422,-750.1709 40.4872,-747.6882"/>
<text text-anchor="middle" x="49.5" y="-761.8" font-family="Times,serif" font-size="14.00" fill="#000000">ε</text>
</g>
<!-- 1 -->
<g id="node7" class="node">
<title>1</title>
<ellipse fill="none" stroke="#000000" cx="60" cy="-1331" rx="27" ry="18"/>
<text text-anchor="middle" x="60" y="-1327.3" font-family="Times,serif" font-size="14.00" fill="#000000">1</text>
</g>
<!-- 1&#45;&gt;2 -->
<g id="edge4" class="edge">
<title>1&#45;&gt;2</title>
<path fill="none" stroke="#000000" d="M60,-1312.9735C60,-1301.1918 60,-1285.5607 60,-1272.1581"/>
<polygon fill="#000000" stroke="#000000" points="63.5001,-1272.0033 60,-1262.0034 56.5001,-1272.0034 63.5001,-1272.0033"/>
<text text-anchor="middle" x="74" y="-1283.8" font-family="Times,serif" font-size="14.00" fill="#000000">letter</text>
</g>
<!-- 6&#45;4&#45;1 -->
<g id="node8" class="node">
<title>6&#45;4&#45;1</title>
<ellipse fill="none" stroke="#000000" cx="246" cy="-192" rx="29.795" ry="18"/>
<text text-anchor="middle" x="246" y="-188.3" font-family="Times,serif" font-size="14.00" fill="#000000">6&#45;4&#45;1</text>
</g>
<!-- 6&#45;4&#45;1&#45;&gt;6&#45;4&#45;2 -->
<g id="edge26" class="edge">
<title>6&#45;4&#45;1&#45;&gt;6&#45;4&#45;2</title>
<path fill="none" stroke="#000000" d="M246,-173.9735C246,-162.1918 246,-146.5607 246,-133.1581"/>
<polygon fill="#000000" stroke="#000000" points="249.5001,-133.0033 246,-123.0034 242.5001,-133.0034 249.5001,-133.0033"/>
<text text-anchor="middle" x="255.5" y="-144.8" font-family="Times,serif" font-size="14.00" fill="#000000">:Int</text>
</g>
<!-- 8 -->
<g id="node9" class="node">
<title>8</title>
<ellipse fill="none" stroke="#000000" cx="132" cy="-544" rx="18" ry="18"/>
<ellipse fill="none" stroke="#000000" cx="132" cy="-544" rx="22" ry="22"/>
<text text-anchor="middle" x="132" y="-540.3" font-family="Times,serif" font-size="14.00" fill="#000000">8</text>
</g>
<!-- 6&#45;5 -->
<g id="node10" class="node">
<title>6&#45;5</title>
<ellipse fill="none" stroke="#000000" cx="133" cy="-192" rx="27" ry="18"/>
<text text-anchor="middle" x="133" y="-188.3" font-family="Times,serif" font-size="14.00" fill="#000000">6&#45;5</text>
</g>
<!-- 6&#45;6 -->
<g id="node15" class="node">
<title>6&#45;6</title>
<ellipse fill="none" stroke="#000000" cx="133" cy="-105" rx="27" ry="18"/>
<text text-anchor="middle" x="133" y="-101.3" font-family="Times,serif" font-size="14.00" fill="#000000">6&#45;6</text>
</g>
<!-- 6&#45;5&#45;&gt;6&#45;6 -->
<g id="edge29" class="edge">
<title>6&#45;5&#45;&gt;6&#45;6</title>
<path fill="none" stroke="#000000" d="M133,-173.9735C133,-162.1918 133,-146.5607 133,-133.1581"/>
<polygon fill="#000000" stroke="#000000" points="136.5001,-133.0033 133,-123.0034 129.5001,-133.0034 136.5001,-133.0033"/>
<text text-anchor="middle" x="135.5" y="-144.8" font-family="Times,serif" font-size="14.00" fill="#000000">)</text>
</g>
<!-- 6&#45;4&#45;0 -->
<g id="node11" class="node">
<title>6&#45;4&#45;0</title>
<ellipse fill="none" stroke="#000000" cx="190" cy="-279" rx="29.795" ry="18"/>
<text text-anchor="middle" x="190" y="-275.3" font-family="Times,serif" font-size="14.00" fill="#000000">6&#45;4&#45;0</text>
</g>
<!-- 6&#45;4&#45;0&#45;&gt;6&#45;4&#45;1 -->
<g id="edge25" class="edge">
<title>6&#45;4&#45;0&#45;&gt;6&#45;4&#45;1</title>
<path fill="none" stroke="#000000" d="M201.0638,-261.8116C209.2468,-249.0988 220.521,-231.5834 229.7293,-217.2776"/>
<polygon fill="#000000" stroke="#000000" points="232.6803,-219.1597 235.1497,-208.8567 226.7942,-215.3709 232.6803,-219.1597"/>
<text text-anchor="middle" x="223" y="-231.8" font-family="Times,serif" font-size="14.00" fill="#000000">,</text>
</g>
<!-- 6&#45;4&#45;0&#45;&gt;6&#45;5 -->
<g id="edge23" class="edge">
<title>6&#45;4&#45;0&#45;&gt;6&#45;5</title>
<path fill="none" stroke="#000000" d="M179.0098,-262.2255C170.6512,-249.4677 159.0119,-231.7024 149.5316,-217.2325"/>
<polygon fill="#000000" stroke="#000000" points="152.3644,-215.1695 143.9564,-208.723 146.5091,-219.0057 152.3644,-215.1695"/>
<text text-anchor="middle" x="167.5" y="-231.8" font-family="Times,serif" font-size="14.00" fill="#000000">ε</text>
</g>
<!-- 6&#45;4&#45;0&#45;&gt;6&#45;4&#45;0 -->
<g id="edge24" class="edge">
<title>6&#45;4&#45;0&#45;&gt;6&#45;4&#45;0</title>
<path fill="none" stroke="#000000" d="M217.0817,-286.8058C228.3475,-287.3441 237.8973,-284.7422 237.8973,-279 237.8973,-275.142 233.5864,-272.7015 227.3405,-271.6786"/>
<polygon fill="#000000" stroke="#000000" points="227.2356,-268.1698 217.0817,-271.1942 226.9054,-275.162 227.2356,-268.1698"/>
<text text-anchor="middle" x="241.3973" y="-275.3" font-family="Times,serif" font-size="14.00" fill="#000000">ε</text>
</g>
<!-- 6&#45;7 -->
<g id="node12" class="node">
<title>6&#45;7</title>
<ellipse fill="none" stroke="#000000" cx="98" cy="-18" rx="27" ry="18"/>
<text text-anchor="middle" x="98" y="-14.3" font-family="Times,serif" font-size="14.00" fill="#000000">6&#45;7</text>
</g>
<!-- 6&#45;0 -->
<g id="node13" class="node">
<title>6&#45;0</title>
<ellipse fill="none" stroke="#000000" cx="132" cy="-722" rx="27" ry="18"/>
<text text-anchor="middle" x="132" y="-718.3" font-family="Times,serif" font-size="14.00" fill="#000000">6&#45;0</text>
</g>
<!-- 6&#45;7&#45;&gt;6&#45;0 -->
<g id="edge31" class="edge">
<title>6&#45;7&#45;&gt;6&#45;0</title>
<path fill="none" stroke="#000000" d="M91.1238,-35.694C84.9993,-53.0639 77,-80.45 77,-105 77,-635 77,-635 77,-635 77,-660.031 93.4673,-683.7174 108.3808,-700.0362"/>
<polygon fill="#000000" stroke="#000000" points="106.0412,-702.6525 115.4982,-707.4291 111.084,-697.7976 106.0412,-702.6525"/>
<text text-anchor="middle" x="80.5" y="-362.3" font-family="Times,serif" font-size="14.00" fill="#000000">ε</text>
</g>
<!-- 6&#45;0&#45;&gt;6&#45;0 -->
<g id="edge17" class="edge">
<title>6&#45;0&#45;&gt;6&#45;0</title>
<path fill="none" stroke="#000000" d="M156.5325,-729.752C167.5078,-730.4902 177,-727.9063 177,-722 177,-718.0317 172.7151,-715.5632 166.5743,-714.5944"/>
<polygon fill="#000000" stroke="#000000" points="166.6472,-711.0949 156.5325,-714.248 166.4059,-718.0908 166.6472,-711.0949"/>
<text text-anchor="middle" x="180.5" y="-718.3" font-family="Times,serif" font-size="14.00" fill="#000000">ε</text>
</g>
<!-- 7 -->
<g id="node22" class="node">
<title>7</title>
<ellipse fill="none" stroke="#000000" cx="132" cy="-635" rx="27" ry="18"/>
<text text-anchor="middle" x="132" y="-631.3" font-family="Times,serif" font-size="14.00" fill="#000000">7</text>
</g>
<!-- 6&#45;0&#45;&gt;7 -->
<g id="edge16" class="edge">
<title>6&#45;0&#45;&gt;7</title>
<path fill="none" stroke="#000000" d="M132,-703.9735C132,-692.1918 132,-676.5607 132,-663.1581"/>
<polygon fill="#000000" stroke="#000000" points="135.5001,-663.0033 132,-653.0034 128.5001,-663.0034 135.5001,-663.0033"/>
<text text-anchor="middle" x="135.5" y="-674.8" font-family="Times,serif" font-size="14.00" fill="#000000">ε</text>
</g>
<!-- 6&#45;1 -->
<g id="node24" class="node">
<title>6&#45;1</title>
<ellipse fill="none" stroke="#000000" cx="204" cy="-635" rx="27" ry="18"/>
<text text-anchor="middle" x="204" y="-631.3" font-family="Times,serif" font-size="14.00" fill="#000000">6&#45;1</text>
</g>
<!-- 6&#45;0&#45;&gt;6&#45;1 -->
<g id="edge18" class="edge">
<title>6&#45;0&#45;&gt;6&#45;1</title>
<path fill="none" stroke="#000000" d="M145.2059,-706.0429C156.1672,-692.798 171.9179,-673.7659 184.3584,-658.7336"/>
<polygon fill="#000000" stroke="#000000" points="187.1985,-660.7914 190.8778,-650.856 181.8057,-656.3284 187.1985,-660.7914"/>
<text text-anchor="middle" x="174" y="-674.8" font-family="Times,serif" font-size="14.00" fill="#000000">,</text>
</g>
<!-- 4&#45;1 -->
<g id="node14" class="node">
<title>4&#45;1</title>
<ellipse fill="none" stroke="#000000" cx="60" cy="-896" rx="27" ry="18"/>
<text text-anchor="middle" x="60" y="-892.3" font-family="Times,serif" font-size="14.00" fill="#000000">4&#45;1</text>
</g>
<!-- 4&#45;1&#45;&gt;4&#45;2 -->
<g id="edge11" class="edge">
<title>4&#45;1&#45;&gt;4&#45;2</title>
<path fill="none" stroke="#000000" d="M60,-877.9735C60,-866.1918 60,-850.5607 60,-837.1581"/>
<polygon fill="#000000" stroke="#000000" points="63.5001,-837.0033 60,-827.0034 56.5001,-837.0034 63.5001,-837.0033"/>
<text text-anchor="middle" x="69.5" y="-848.8" font-family="Times,serif" font-size="14.00" fill="#000000">:Int</text>
</g>
<!-- 6&#45;6&#45;&gt;6&#45;7 -->
<g id="edge30" class="edge">
<title>6&#45;6&#45;&gt;6&#45;7</title>
<path fill="none" stroke="#000000" d="M125.9172,-87.3943C121.0309,-75.2482 114.4409,-58.8674 108.8907,-45.0711"/>
<polygon fill="#000000" stroke="#000000" points="112.0517,-43.5506 105.0722,-35.5796 105.5575,-46.1633 112.0517,-43.5506"/>
<text text-anchor="middle" x="121.5" y="-57.8" font-family="Times,serif" font-size="14.00" fill="#000000">ε</text>
</g>
<!-- 6&#45;4&#45;3&#45;&gt;6&#45;4&#45;0 -->
<g id="edge28" class="edge">
<title>6&#45;4&#45;3&#45;&gt;6&#45;4&#45;0</title>
<path fill="none" stroke="#000000" d="M192.7893,-36.3327C192.2742,-81.1446 190.9483,-196.4964 190.3285,-250.4199"/>
<polygon fill="#000000" stroke="#000000" points="186.8262,-250.6074 190.211,-260.647 193.8258,-250.6879 186.8262,-250.6074"/>
<text text-anchor="middle" x="194.5" y="-144.8" font-family="Times,serif" font-size="14.00" fill="#000000">ε</text>
</g>
<!-- 4 -->
<g id="node17" class="node">
<title>4</title>
<ellipse fill="none" stroke="#000000" cx="60" cy="-1070" rx="27" ry="18"/>
<text text-anchor="middle" x="60" y="-1066.3" font-family="Times,serif" font-size="14.00" fill="#000000">4</text>
</g>
<!-- 4&#45;0 -->
<g id="node23" class="node">
<title>4&#45;0</title>
<ellipse fill="none" stroke="#000000" cx="60" cy="-983" rx="27" ry="18"/>
<text text-anchor="middle" x="60" y="-979.3" font-family="Times,serif" font-size="14.00" fill="#000000">4&#45;0</text>
</g>
<!-- 4&#45;&gt;4&#45;0 -->
<g id="edge7" class="edge">
<title>4&#45;&gt;4&#45;0</title>
<path fill="none" stroke="#000000" d="M60,-1051.9735C60,-1040.1918 60,-1024.5607 60,-1011.1581"/>
<polygon fill="#000000" stroke="#000000" points="63.5001,-1011.0033 60,-1001.0034 56.5001,-1011.0034 63.5001,-1011.0033"/>
<text text-anchor="middle" x="63.5" y="-1022.8" font-family="Times,serif" font-size="14.00" fill="#000000">ε</text>
</g>
<!-- 3&#45;&gt;4 -->
<g id="edge6" class="edge">
<title>3&#45;&gt;4</title>
<path fill="none" stroke="#000000" d="M60,-1138.9735C60,-1127.1918 60,-1111.5607 60,-1098.1581"/>
<polygon fill="#000000" stroke="#000000" points="63.5001,-1098.0033 60,-1088.0034 56.5001,-1098.0034 63.5001,-1098.0033"/>
<text text-anchor="middle" x="69.5" y="-1109.8" font-family="Times,serif" font-size="14.00" fill="#000000">:Int</text>
</g>
<!-- 0&#45;&gt;1 -->
<g id="edge2" class="edge">
<title>0&#45;&gt;1</title>
<path fill="none" stroke="#000000" d="M60,-1399.9735C60,-1388.1918 60,-1372.5607 60,-1359.1581"/>
<polygon fill="#000000" stroke="#000000" points="63.5001,-1359.0033 60,-1349.0034 56.5001,-1359.0034 63.5001,-1359.0033"/>
<text text-anchor="middle" x="74" y="-1370.8" font-family="Times,serif" font-size="14.00" fill="#000000">DIM</text>
</g>
<!-- 0&#45;&gt;0 -->
<g id="edge3" class="edge">
<title>0&#45;&gt;0</title>
<path fill="none" stroke="#000000" d="M85.4435,-1424.6907C96.0278,-1425.1521 105,-1422.9219 105,-1418 105,-1414.77 101.136,-1412.6992 95.4881,-1411.7876"/>
<polygon fill="#000000" stroke="#000000" points="95.5987,-1408.289 85.4435,-1411.3093 95.2656,-1415.2811 95.5987,-1408.289"/>
<text text-anchor="middle" x="108.5" y="-1414.3" font-family="Times,serif" font-size="14.00" fill="#000000">ε</text>
</g>
<!-- 4&#45;3&#45;&gt;4&#45;0 -->
<g id="edge13" class="edge">
<title>4&#45;3&#45;&gt;4&#45;0</title>
<path fill="none" stroke="#000000" d="M23.717,-740.0745C18.1149,-774.5161 8.7179,-851.6716 24,-914 27.806,-929.5229 35.781,-945.4325 43.2596,-958.0572"/>
<polygon fill="#000000" stroke="#000000" points="40.3156,-959.9511 48.5508,-966.6168 46.2698,-956.2704 40.3156,-959.9511"/>
<text text-anchor="middle" x="20.5" y="-848.8" font-family="Times,serif" font-size="14.00" fill="#000000">ε</text>
</g>
<!-- 6&#45;&gt;6&#45;0 -->
<g id="edge15" class="edge">
<title>6&#45;&gt;6&#45;0</title>
<path fill="none" stroke="#000000" d="M132,-790.9735C132,-779.1918 132,-763.5607 132,-750.1581"/>
<polygon fill="#000000" stroke="#000000" points="135.5001,-750.0033 132,-740.0034 128.5001,-750.0034 135.5001,-750.0033"/>
<text text-anchor="middle" x="135.5" y="-761.8" font-family="Times,serif" font-size="14.00" fill="#000000">ε</text>
</g>
<!-- 7&#45;&gt;8 -->
<g id="edge32" class="edge">
<title>7&#45;&gt;8</title>
<path fill="none" stroke="#000000" d="M132,-616.5848C132,-605.1105 132,-590.0231 132,-576.5774"/>
<polygon fill="#000000" stroke="#000000" points="135.5001,-576.2465 132,-566.2465 128.5001,-576.2466 135.5001,-576.2465"/>
<text text-anchor="middle" x="135.5" y="-587.8" font-family="Times,serif" font-size="14.00" fill="#000000">ε</text>
</g>
<!-- 4&#45;0&#45;&gt;5 -->
<g id="edge8" class="edge">
<title>4&#45;0&#45;&gt;5</title>
<path fill="none" stroke="#000000" d="M73.2059,-967.0429C84.1672,-953.798 99.9179,-934.7659 112.3584,-919.7336"/>
<polygon fill="#000000" stroke="#000000" points="115.1985,-921.7914 118.8778,-911.856 109.8057,-917.3284 115.1985,-921.7914"/>
<text text-anchor="middle" x="104.5" y="-935.8" font-family="Times,serif" font-size="14.00" fill="#000000">ε</text>
</g>
<!-- 4&#45;0&#45;&gt;4&#45;1 -->
<g id="edge10" class="edge">
<title>4&#45;0&#45;&gt;4&#45;1</title>
<path fill="none" stroke="#000000" d="M60,-964.9735C60,-953.1918 60,-937.5607 60,-924.1581"/>
<polygon fill="#000000" stroke="#000000" points="63.5001,-924.0033 60,-914.0034 56.5001,-924.0034 63.5001,-924.0033"/>
<text text-anchor="middle" x="62" y="-935.8" font-family="Times,serif" font-size="14.00" fill="#000000">,</text>
</g>
<!-- 4&#45;0&#45;&gt;4&#45;0 -->
<g id="edge9" class="edge">
<title>4&#45;0&#45;&gt;4&#45;0</title>
<path fill="none" stroke="#000000" d="M84.5325,-990.752C95.5078,-991.4902 105,-988.9063 105,-983 105,-979.0317 100.7151,-976.5632 94.5743,-975.5944"/>
<polygon fill="#000000" stroke="#000000" points="94.6472,-972.0949 84.5325,-975.248 94.4059,-979.0908 94.6472,-972.0949"/>
<text text-anchor="middle" x="108.5" y="-979.3" font-family="Times,serif" font-size="14.00" fill="#000000">ε</text>
</g>
<!-- 6&#45;1&#45;&gt;6&#45;2 -->
<g id="edge19" class="edge">
<title>6&#45;1&#45;&gt;6&#45;2</title>
<path fill="none" stroke="#000000" d="M203.3929,-616.5848C202.9754,-603.9209 202.4128,-586.8558 201.938,-572.4541"/>
<polygon fill="#000000" stroke="#000000" points="205.4236,-571.9565 201.596,-562.0773 198.4274,-572.1872 205.4236,-571.9565"/>
<text text-anchor="middle" x="216" y="-587.8" font-family="Times,serif" font-size="14.00" fill="#000000">letter</text>
</g>
<!-- 6&#45;4 -->
<g id="node25" class="node">
<title>6&#45;4</title>
<ellipse fill="none" stroke="#000000" cx="193" cy="-366" rx="27" ry="18"/>
<text text-anchor="middle" x="193" y="-362.3" font-family="Times,serif" font-size="14.00" fill="#000000">6&#45;4</text>
</g>
<!-- 6&#45;4&#45;&gt;6&#45;4&#45;0 -->
<g id="edge22" class="edge">
<title>6&#45;4&#45;&gt;6&#45;4&#45;0</title>
<path fill="none" stroke="#000000" d="M192.3784,-347.9735C191.9721,-336.1918 191.4331,-320.5607 190.971,-307.1581"/>
<polygon fill="#000000" stroke="#000000" points="194.4634,-306.8768 190.6208,-297.0034 187.4676,-307.1181 194.4634,-306.8768"/>
<text text-anchor="middle" x="194.5" y="-318.8" font-family="Times,serif" font-size="14.00" fill="#000000">ε</text>
</g>
<!-- 6&#45;3&#45;&gt;6&#45;4 -->
<g id="edge21" class="edge">
<title>6&#45;3&#45;&gt;6&#45;4</title>
<path fill="none" stroke="#000000" d="M198.5496,-434.9735C197.6016,-423.1918 196.344,-407.5607 195.2656,-394.1581"/>
<polygon fill="#000000" stroke="#000000" points="198.7394,-393.6904 194.4485,-384.0034 191.7619,-394.2519 198.7394,-393.6904"/>
<text text-anchor="middle" x="205.5" y="-405.8" font-family="Times,serif" font-size="14.00" fill="#000000">:Int</text>
</g>
</g>
</svg>
