<?xml version="1.0" encoding="UTF-8" standalone="no"?>
<!DOCTYPE svg PUBLIC "-//W3C//DTD SVG 1.1//EN"
 "http://www.w3.org/Graphics/SVG/1.1/DTD/svg11.dtd">
<!-- Generated by graphviz version 2.40.1 (20161225.0304)
 -->
<!-- Title: %3 Pages: 1 -->
<svg width="290pt" height="1082pt"
 viewBox="0.00 0.00 290.00 1082.00" xmlns="http://www.w3.org/2000/svg" xmlns:xlink="http://www.w3.org/1999/xlink">
<g id="graph0" class="graph" transform="scale(1 1) rotate(0) translate(4 1077.9965)">
<title>%3</title>
<polygon fill="#ffffff" stroke="transparent" points="-4,4 -4,-1077.9965 286,-1077.9965 286,4 -4,4"/>
<!-- fake0 -->
<g id="node1" class="node">
<title>fake0</title>
</g>
<!-- 0 -->
<g id="node15" class="node">
<title>0</title>
<ellipse fill="none" stroke="#000000" cx="165" cy="-982.9965" rx="27" ry="18"/>
<text text-anchor="middle" x="165" y="-979.2965" font-family="Times,serif" font-size="14.00" fill="#000000">0</text>
</g>
<!-- fake0&#45;&gt;0 -->
<g id="edge1" class="edge">
<title>fake0&#45;&gt;0</title>
<path fill="none" stroke="#000000" stroke-width="2" d="M165,-1037.9516C165,-1029.8794 165,-1020.1729 165,-1011.1783"/>
<polygon fill="#000000" stroke="#000000" stroke-width="2" points="168.5001,-1011.0869 165,-1001.0869 161.5001,-1011.0869 168.5001,-1011.0869"/>
</g>
<!-- 2 -->
<g id="node2" class="node">
<title>2</title>
<ellipse fill="none" stroke="#000000" cx="31" cy="-787.9965" rx="27" ry="18"/>
<text text-anchor="middle" x="31" y="-784.2965" font-family="Times,serif" font-size="14.00" fill="#000000">2</text>
</g>
<!-- 3 -->
<g id="node13" class="node">
<title>3</title>
<ellipse fill="none" stroke="#000000" cx="27" cy="-625.9965" rx="27" ry="18"/>
<text text-anchor="middle" x="27" y="-622.2965" font-family="Times,serif" font-size="14.00" fill="#000000">3</text>
</g>
<!-- 2&#45;&gt;3 -->
<g id="edge8" class="edge">
<title>2&#45;&gt;3</title>
<path fill="none" stroke="#000000" d="M30.5489,-769.728C29.8557,-741.653 28.5228,-687.6715 27.7025,-654.4459"/>
<polygon fill="#000000" stroke="#000000" points="31.2014,-654.3574 27.4556,-644.4469 24.2036,-654.5303 31.2014,-654.3574"/>
<text text-anchor="middle" x="33.5" y="-730.2965" font-family="Times,serif" font-size="14.00" fill="#000000">)</text>
</g>
<!-- 5 -->
<g id="node3" class="node">
<title>5</title>
<ellipse fill="none" stroke="#000000" cx="202" cy="-733.9965" rx="27" ry="18"/>
<text text-anchor="middle" x="202" y="-730.2965" font-family="Times,serif" font-size="14.00" fill="#000000">5</text>
</g>
<!-- 13 -->
<g id="node16" class="node">
<title>13</title>
<ellipse fill="none" stroke="#000000" cx="200" cy="-23.4983" rx="19.4968" ry="19.4968"/>
<ellipse fill="none" stroke="#000000" cx="200" cy="-23.4983" rx="23.4965" ry="23.4965"/>
<text text-anchor="middle" x="200" y="-19.7983" font-family="Times,serif" font-size="14.00" fill="#000000">13</text>
</g>
<!-- 5&#45;&gt;13 -->
<g id="edge24" class="edge">
<title>5&#45;&gt;13</title>
<path fill="none" stroke="#000000" d="M203.9128,-715.675C205.9854,-694.2099 209,-657.5626 209,-625.9965 209,-625.9965 209,-625.9965 209,-115.9965 209,-96.4888 206.9925,-74.7753 204.8737,-57.2908"/>
<polygon fill="#000000" stroke="#000000" points="208.2989,-56.4827 203.557,-47.0083 201.3556,-57.3718 208.2989,-56.4827"/>
<text text-anchor="middle" x="212.5" y="-373.2965" font-family="Times,serif" font-size="14.00" fill="#000000">ε</text>
</g>
<!-- 1 -->
<g id="node4" class="node">
<title>1</title>
<ellipse fill="none" stroke="#000000" cx="31" cy="-895.9965" rx="27" ry="18"/>
<text text-anchor="middle" x="31" y="-892.2965" font-family="Times,serif" font-size="14.00" fill="#000000">1</text>
</g>
<!-- 1&#45;&gt;2 -->
<g id="edge7" class="edge">
<title>1&#45;&gt;2</title>
<path fill="none" stroke="#000000" d="M31,-877.6758C31,-860.8175 31,-835.5617 31,-816.1435"/>
<polygon fill="#000000" stroke="#000000" points="34.5001,-816.0467 31,-806.0467 27.5001,-816.0467 34.5001,-816.0467"/>
<text text-anchor="middle" x="44" y="-838.2965" font-family="Times,serif" font-size="14.00" fill="#000000">:Exp</text>
</g>
<!-- 8&#45;0 -->
<g id="node5" class="node">
<title>8&#45;0</title>
<ellipse fill="none" stroke="#000000" cx="107" cy="-787.9965" rx="27" ry="18"/>
<text text-anchor="middle" x="107" y="-784.2965" font-family="Times,serif" font-size="14.00" fill="#000000">8&#45;0</text>
</g>
<!-- 8&#45;0&#45;&gt;8&#45;0 -->
<g id="edge14" class="edge">
<title>8&#45;0&#45;&gt;8&#45;0</title>
<path fill="none" stroke="#000000" d="M129.6909,-797.7656C141.4238,-799.2685 152,-796.0122 152,-787.9965 152,-782.4858 147.0011,-779.2246 140.0642,-778.2128"/>
<polygon fill="#000000" stroke="#000000" points="139.6859,-774.7133 129.6909,-778.2275 139.6959,-781.7132 139.6859,-774.7133"/>
<text text-anchor="middle" x="155.5" y="-784.2965" font-family="Times,serif" font-size="14.00" fill="#000000">ε</text>
</g>
<!-- 8&#45;1 -->
<g id="node11" class="node">
<title>8&#45;1</title>
<ellipse fill="none" stroke="#000000" cx="82" cy="-679.9965" rx="27" ry="18"/>
<text text-anchor="middle" x="82" y="-676.2965" font-family="Times,serif" font-size="14.00" fill="#000000">8&#45;1</text>
</g>
<!-- 8&#45;0&#45;&gt;8&#45;1 -->
<g id="edge13" class="edge">
<title>8&#45;0&#45;&gt;8&#45;1</title>
<path fill="none" stroke="#000000" d="M102.8718,-770.1625C98.9453,-753.2004 92.9793,-727.4272 88.4299,-707.7739"/>
<polygon fill="#000000" stroke="#000000" points="91.7995,-706.8101 86.1344,-697.857 84.9798,-708.3888 91.7995,-706.8101"/>
<text text-anchor="middle" x="108" y="-730.2965" font-family="Times,serif" font-size="14.00" fill="#000000">FN</text>
</g>
<!-- 8&#45;3 -->
<g id="node19" class="node">
<title>8&#45;3</title>
<ellipse fill="none" stroke="#000000" cx="154" cy="-679.9965" rx="27" ry="18"/>
<text text-anchor="middle" x="154" y="-676.2965" font-family="Times,serif" font-size="14.00" fill="#000000">8&#45;3</text>
</g>
<!-- 8&#45;0&#45;&gt;8&#45;3 -->
<g id="edge15" class="edge">
<title>8&#45;0&#45;&gt;8&#45;3</title>
<path fill="none" stroke="#000000" d="M114.5514,-770.6445C122.0887,-753.3247 133.7705,-726.4813 142.4684,-706.4946"/>
<polygon fill="#000000" stroke="#000000" points="145.6862,-707.8716 146.4674,-697.3055 139.2677,-705.0783 145.6862,-707.8716"/>
<text text-anchor="middle" x="141.5" y="-730.2965" font-family="Times,serif" font-size="14.00" fill="#000000">ε</text>
</g>
<!-- 8 -->
<g id="node6" class="node">
<title>8</title>
<ellipse fill="none" stroke="#000000" cx="125" cy="-895.9965" rx="27" ry="18"/>
<text text-anchor="middle" x="125" y="-892.2965" font-family="Times,serif" font-size="14.00" fill="#000000">8</text>
</g>
<!-- 8&#45;&gt;8&#45;0 -->
<g id="edge11" class="edge">
<title>8&#45;&gt;8&#45;0</title>
<path fill="none" stroke="#000000" d="M121.9465,-877.6758C119.1368,-860.8175 114.9275,-835.5617 111.6912,-816.1435"/>
<polygon fill="#000000" stroke="#000000" points="115.1048,-815.3352 110.0084,-806.0467 108.2001,-816.4861 115.1048,-815.3352"/>
<text text-anchor="middle" x="122.5" y="-838.2965" font-family="Times,serif" font-size="14.00" fill="#000000">ε</text>
</g>
<!-- 8&#45;5 -->
<g id="node7" class="node">
<title>8&#45;5</title>
<ellipse fill="none" stroke="#000000" cx="146" cy="-463.9965" rx="27" ry="18"/>
<text text-anchor="middle" x="146" y="-460.2965" font-family="Times,serif" font-size="14.00" fill="#000000">8&#45;5</text>
</g>
<!-- 9 -->
<g id="node20" class="node">
<title>9</title>
<ellipse fill="none" stroke="#000000" cx="146" cy="-376.9965" rx="27" ry="18"/>
<text text-anchor="middle" x="146" y="-373.2965" font-family="Times,serif" font-size="14.00" fill="#000000">9</text>
</g>
<!-- 8&#45;5&#45;&gt;9 -->
<g id="edge12" class="edge">
<title>8&#45;5&#45;&gt;9</title>
<path fill="none" stroke="#000000" d="M146,-445.9701C146,-434.1883 146,-418.5572 146,-405.1546"/>
<polygon fill="#000000" stroke="#000000" points="149.5001,-404.9999 146,-394.9999 142.5001,-404.9999 149.5001,-404.9999"/>
<text text-anchor="middle" x="149.5" y="-416.7965" font-family="Times,serif" font-size="14.00" fill="#000000">ε</text>
</g>
<!-- 8&#45;4 -->
<g id="node8" class="node">
<title>8&#45;4</title>
<ellipse fill="none" stroke="#000000" cx="154" cy="-571.9965" rx="27" ry="18"/>
<text text-anchor="middle" x="154" y="-568.2965" font-family="Times,serif" font-size="14.00" fill="#000000">8&#45;4</text>
</g>
<!-- 8&#45;4&#45;&gt;8&#45;5 -->
<g id="edge19" class="edge">
<title>8&#45;4&#45;&gt;8&#45;5</title>
<path fill="none" stroke="#000000" d="M152.6429,-553.6758C151.3941,-536.8175 149.5233,-511.5617 148.085,-492.1435"/>
<polygon fill="#000000" stroke="#000000" points="151.5663,-491.7608 147.337,-482.0467 144.5854,-492.278 151.5663,-491.7608"/>
<text text-anchor="middle" x="154.5" y="-514.2965" font-family="Times,serif" font-size="14.00" fill="#000000">ε</text>
</g>
<!-- 10 -->
<g id="node9" class="node">
<title>10</title>
<ellipse fill="none" stroke="#000000" cx="146" cy="-289.9965" rx="27" ry="18"/>
<text text-anchor="middle" x="146" y="-286.2965" font-family="Times,serif" font-size="14.00" fill="#000000">10</text>
</g>
<!-- 11 -->
<g id="node21" class="node">
<title>11</title>
<ellipse fill="none" stroke="#000000" cx="147" cy="-202.9965" rx="27" ry="18"/>
<text text-anchor="middle" x="147" y="-199.2965" font-family="Times,serif" font-size="14.00" fill="#000000">11</text>
</g>
<!-- 10&#45;&gt;11 -->
<g id="edge21" class="edge">
<title>10&#45;&gt;11</title>
<path fill="none" stroke="#000000" d="M146.2072,-271.9701C146.3426,-260.1883 146.5223,-244.5572 146.6763,-231.1546"/>
<polygon fill="#000000" stroke="#000000" points="150.1778,-231.0395 146.7931,-220.9999 143.1783,-230.959 150.1778,-231.0395"/>
<text text-anchor="middle" x="160" y="-242.7965" font-family="Times,serif" font-size="14.00" fill="#000000">:Exp</text>
</g>
<!-- 4 -->
<g id="node10" class="node">
<title>4</title>
<ellipse fill="none" stroke="#000000" cx="189" cy="-841.9965" rx="27" ry="18"/>
<text text-anchor="middle" x="189" y="-838.2965" font-family="Times,serif" font-size="14.00" fill="#000000">4</text>
</g>
<!-- 4&#45;&gt;5 -->
<g id="edge9" class="edge">
<title>4&#45;&gt;5</title>
<path fill="none" stroke="#000000" d="M191.2053,-823.6758C193.2345,-806.8175 196.2746,-781.5617 198.6119,-762.1435"/>
<polygon fill="#000000" stroke="#000000" points="202.107,-762.3933 199.8273,-752.0467 195.1572,-761.5567 202.107,-762.3933"/>
<text text-anchor="middle" x="213" y="-784.2965" font-family="Times,serif" font-size="14.00" fill="#000000">:Num</text>
</g>
<!-- 8&#45;2 -->
<g id="node14" class="node">
<title>8&#45;2</title>
<ellipse fill="none" stroke="#000000" cx="82" cy="-571.9965" rx="27" ry="18"/>
<text text-anchor="middle" x="82" y="-568.2965" font-family="Times,serif" font-size="14.00" fill="#000000">8&#45;2</text>
</g>
<!-- 8&#45;1&#45;&gt;8&#45;2 -->
<g id="edge16" class="edge">
<title>8&#45;1&#45;&gt;8&#45;2</title>
<path fill="none" stroke="#000000" d="M82,-661.6758C82,-644.8175 82,-619.5617 82,-600.1435"/>
<polygon fill="#000000" stroke="#000000" points="85.5001,-600.0467 82,-590.0467 78.5001,-600.0467 85.5001,-600.0467"/>
<text text-anchor="middle" x="96" y="-622.2965" font-family="Times,serif" font-size="14.00" fill="#000000">letter</text>
</g>
<!-- 12 -->
<g id="node12" class="node">
<title>12</title>
<ellipse fill="none" stroke="#000000" cx="153" cy="-115.9965" rx="27" ry="18"/>
<text text-anchor="middle" x="153" y="-112.2965" font-family="Times,serif" font-size="14.00" fill="#000000">12</text>
</g>
<!-- 12&#45;&gt;13 -->
<g id="edge26" class="edge">
<title>12&#45;&gt;13</title>
<path fill="none" stroke="#000000" d="M161.8403,-98.5983C168.2098,-86.0629 176.9715,-68.8194 184.4931,-54.0167"/>
<polygon fill="#000000" stroke="#000000" points="187.8094,-55.2163 189.2191,-44.7156 181.5688,-52.0453 187.8094,-55.2163"/>
<text text-anchor="middle" x="180.5" y="-68.7965" font-family="Times,serif" font-size="14.00" fill="#000000">ε</text>
</g>
<!-- 3&#45;&gt;13 -->
<g id="edge23" class="edge">
<title>3&#45;&gt;13</title>
<path fill="none" stroke="#000000" d="M27,-607.6516C27,-586.1645 27,-549.4965 27,-517.9965 27,-517.9965 27,-517.9965 27,-115.9965 27,-53.5162 115.8397,-33.0833 166.193,-26.5202"/>
<polygon fill="#000000" stroke="#000000" points="166.7899,-29.974 176.3078,-25.32 165.9651,-23.0227 166.7899,-29.974"/>
<text text-anchor="middle" x="30.5" y="-329.7965" font-family="Times,serif" font-size="14.00" fill="#000000">ε</text>
</g>
<!-- 8&#45;2&#45;&gt;8&#45;5 -->
<g id="edge18" class="edge">
<title>8&#45;2&#45;&gt;8&#45;5</title>
<path fill="none" stroke="#000000" d="M92,-555.1215C102.4266,-537.5267 118.8928,-509.74 130.9032,-489.4724"/>
<polygon fill="#000000" stroke="#000000" points="133.9832,-491.1403 136.0702,-480.753 127.9611,-487.5716 133.9832,-491.1403"/>
<text text-anchor="middle" x="127.5" y="-514.2965" font-family="Times,serif" font-size="14.00" fill="#000000">ε</text>
</g>
<!-- 0&#45;&gt;1 -->
<g id="edge2" class="edge">
<title>0&#45;&gt;1</title>
<path fill="none" stroke="#000000" d="M145.5152,-970.346C122.7893,-955.5911 85.0366,-931.08 59.1326,-914.2617"/>
<polygon fill="#000000" stroke="#000000" points="60.8015,-911.1723 50.5083,-908.6624 56.9896,-917.0434 60.8015,-911.1723"/>
<text text-anchor="middle" x="109.5" y="-935.7965" font-family="Times,serif" font-size="14.00" fill="#000000">(</text>
</g>
<!-- 0&#45;&gt;8 -->
<g id="edge6" class="edge">
<title>0&#45;&gt;8</title>
<path fill="none" stroke="#000000" d="M156.9054,-965.3908C151.2297,-953.0461 143.5428,-936.3271 137.1363,-922.393"/>
<polygon fill="#000000" stroke="#000000" points="140.3034,-920.9028 132.946,-913.2792 133.9434,-923.827 140.3034,-920.9028"/>
<text text-anchor="middle" x="151.5" y="-935.7965" font-family="Times,serif" font-size="14.00" fill="#000000">ε</text>
</g>
<!-- 0&#45;&gt;4 -->
<g id="edge3" class="edge">
<title>0&#45;&gt;4</title>
<path fill="none" stroke="#000000" d="M168.0884,-964.8519C172.1747,-940.845 179.4194,-898.2826 184.2164,-870.1"/>
<polygon fill="#000000" stroke="#000000" points="187.6957,-870.5171 185.9234,-860.0715 180.795,-869.3424 187.6957,-870.5171"/>
<text text-anchor="middle" x="176.5" y="-935.7965" font-family="Times,serif" font-size="14.00" fill="#000000">ε</text>
</g>
<!-- 0&#45;&gt;0 -->
<g id="edge5" class="edge">
<title>0&#45;&gt;0</title>
<path fill="none" stroke="#000000" d="M190.4435,-989.6872C201.0278,-990.1486 210,-987.9184 210,-982.9965 210,-979.7666 206.136,-977.6958 200.4881,-976.7842"/>
<polygon fill="#000000" stroke="#000000" points="200.5987,-973.2856 190.4435,-976.3059 200.2656,-980.2777 200.5987,-973.2856"/>
<text text-anchor="middle" x="213.5" y="-979.2965" font-family="Times,serif" font-size="14.00" fill="#000000">ε</text>
</g>
<!-- 6 -->
<g id="node17" class="node">
<title>6</title>
<ellipse fill="none" stroke="#000000" cx="253" cy="-841.9965" rx="27" ry="18"/>
<text text-anchor="middle" x="253" y="-838.2965" font-family="Times,serif" font-size="14.00" fill="#000000">6</text>
</g>
<!-- 0&#45;&gt;6 -->
<g id="edge4" class="edge">
<title>0&#45;&gt;6</title>
<path fill="none" stroke="#000000" d="M175.4403,-966.2683C190.7228,-941.7817 219.3035,-895.9874 237.1769,-867.3495"/>
<polygon fill="#000000" stroke="#000000" points="240.2478,-869.0395 242.5733,-858.703 234.3095,-865.3333 240.2478,-869.0395"/>
<text text-anchor="middle" x="198.5" y="-935.7965" font-family="Times,serif" font-size="14.00" fill="#000000">ε</text>
</g>
<!-- 7 -->
<g id="node18" class="node">
<title>7</title>
<ellipse fill="none" stroke="#000000" cx="255" cy="-517.9965" rx="27" ry="18"/>
<text text-anchor="middle" x="255" y="-514.2965" font-family="Times,serif" font-size="14.00" fill="#000000">7</text>
</g>
<!-- 6&#45;&gt;7 -->
<g id="edge10" class="edge">
<title>6&#45;&gt;7</title>
<path fill="none" stroke="#000000" d="M253.1133,-823.6486C253.446,-769.7397 254.4225,-611.5476 254.8243,-546.4654"/>
<polygon fill="#000000" stroke="#000000" points="258.3261,-546.1647 254.888,-536.1433 251.3262,-546.1215 258.3261,-546.1647"/>
<text text-anchor="middle" x="266.5" y="-676.2965" font-family="Times,serif" font-size="14.00" fill="#000000">:Var</text>
</g>
<!-- 7&#45;&gt;13 -->
<g id="edge25" class="edge">
<title>7&#45;&gt;13</title>
<path fill="none" stroke="#000000" d="M255,-499.6672C255,-480.0708 255,-448.0877 255,-420.4965 255,-420.4965 255,-420.4965 255,-115.9965 255,-89.9117 238.6409,-64.7666 223.7665,-47.2948"/>
<polygon fill="#000000" stroke="#000000" points="226.3725,-44.9584 217.1009,-39.8313 221.1516,-49.6213 226.3725,-44.9584"/>
<text text-anchor="middle" x="258.5" y="-286.2965" font-family="Times,serif" font-size="14.00" fill="#000000">ε</text>
</g>
<!-- 8&#45;3&#45;&gt;8&#45;4 -->
<g id="edge17" class="edge">
<title>8&#45;3&#45;&gt;8&#45;4</title>
<path fill="none" stroke="#000000" d="M154,-661.6758C154,-644.8175 154,-619.5617 154,-600.1435"/>
<polygon fill="#000000" stroke="#000000" points="157.5001,-600.0467 154,-590.0467 150.5001,-600.0467 157.5001,-600.0467"/>
<text text-anchor="middle" x="174" y="-622.2965" font-family="Times,serif" font-size="14.00" fill="#000000">:Predef</text>
</g>
<!-- 9&#45;&gt;10 -->
<g id="edge20" class="edge">
<title>9&#45;&gt;10</title>
<path fill="none" stroke="#000000" d="M146,-358.9701C146,-347.1883 146,-331.5572 146,-318.1546"/>
<polygon fill="#000000" stroke="#000000" points="149.5001,-317.9999 146,-307.9999 142.5001,-317.9999 149.5001,-317.9999"/>
<text text-anchor="middle" x="148.5" y="-329.7965" font-family="Times,serif" font-size="14.00" fill="#000000">(</text>
</g>
<!-- 11&#45;&gt;12 -->
<g id="edge22" class="edge">
<title>11&#45;&gt;12</title>
<path fill="none" stroke="#000000" d="M148.2432,-184.9701C149.0557,-173.1883 150.1337,-157.5572 151.0581,-144.1546"/>
<polygon fill="#000000" stroke="#000000" points="154.562,-144.217 151.7584,-133.9999 147.5786,-143.7354 154.562,-144.217"/>
<text text-anchor="middle" x="152.5" y="-155.7965" font-family="Times,serif" font-size="14.00" fill="#000000">)</text>
</g>
</g>
</svg>
