<?xml version="1.0" encoding="UTF-8" standalone="no"?>
<!DOCTYPE svg PUBLIC "-//W3C//DTD SVG 1.1//EN"
 "http://www.w3.org/Graphics/SVG/1.1/DTD/svg11.dtd">
<!-- Generated by graphviz version 2.40.1 (20161225.0304)
 -->
<!-- Title: %3 Pages: 1 -->
<svg width="468pt" height="1385pt"
 viewBox="0.00 0.00 467.90 1385.00" xmlns="http://www.w3.org/2000/svg" xmlns:xlink="http://www.w3.org/1999/xlink">
<g id="graph0" class="graph" transform="scale(1 1) rotate(0) translate(4 1381)">
<title>%3</title>
<polygon fill="#ffffff" stroke="transparent" points="-4,4 -4,-1381 463.8973,-1381 463.8973,4 -4,4"/>
<!-- fake0 -->
<g id="node1" class="node">
<title>fake0</title>
</g>
<!-- 0 -->
<g id="node20" class="node">
<title>0</title>
<ellipse fill="none" stroke="#000000" cx="82" cy="-1286" rx="27" ry="18"/>
<text text-anchor="middle" x="82" y="-1282.3" font-family="Times,serif" font-size="14.00" fill="#000000">0</text>
</g>
<!-- fake0&#45;&gt;0 -->
<g id="edge1" class="edge">
<title>fake0&#45;&gt;0</title>
<path fill="none" stroke="#000000" stroke-width="2" d="M82,-1340.9551C82,-1332.8828 82,-1323.1764 82,-1314.1817"/>
<polygon fill="#000000" stroke="#000000" stroke-width="2" points="85.5001,-1314.0903 82,-1304.0904 78.5001,-1314.0904 85.5001,-1314.0903"/>
</g>
<!-- 2&#45;0&#45;9 -->
<g id="node2" class="node">
<title>2&#45;0&#45;9</title>
<ellipse fill="none" stroke="#000000" cx="153" cy="-366" rx="29.795" ry="18"/>
<text text-anchor="middle" x="153" y="-362.3" font-family="Times,serif" font-size="14.00" fill="#000000">2&#45;0&#45;9</text>
</g>
<!-- 2&#45;0&#45;10 -->
<g id="node8" class="node">
<title>2&#45;0&#45;10</title>
<ellipse fill="none" stroke="#000000" cx="280" cy="-279" rx="34.394" ry="18"/>
<text text-anchor="middle" x="280" y="-275.3" font-family="Times,serif" font-size="14.00" fill="#000000">2&#45;0&#45;10</text>
</g>
<!-- 2&#45;0&#45;9&#45;&gt;2&#45;0&#45;10 -->
<g id="edge32" class="edge">
<title>2&#45;0&#45;9&#45;&gt;2&#45;0&#45;10</title>
<path fill="none" stroke="#000000" d="M172.8438,-352.4063C193.7204,-338.1049 226.7988,-315.4449 250.6842,-299.0825"/>
<polygon fill="#000000" stroke="#000000" points="252.7567,-301.9053 259.0285,-293.3663 248.8006,-296.1304 252.7567,-301.9053"/>
<text text-anchor="middle" x="227.5" y="-318.8" font-family="Times,serif" font-size="14.00" fill="#000000">ε</text>
</g>
<!-- 2 -->
<g id="node3" class="node">
<title>2</title>
<ellipse fill="none" stroke="#000000" cx="90" cy="-743" rx="27" ry="18"/>
<text text-anchor="middle" x="90" y="-739.3" font-family="Times,serif" font-size="14.00" fill="#000000">2</text>
</g>
<!-- 2&#45;0 -->
<g id="node24" class="node">
<title>2&#45;0</title>
<ellipse fill="none" stroke="#000000" cx="90" cy="-656" rx="27" ry="18"/>
<text text-anchor="middle" x="90" y="-652.3" font-family="Times,serif" font-size="14.00" fill="#000000">2&#45;0</text>
</g>
<!-- 2&#45;&gt;2&#45;0 -->
<g id="edge13" class="edge">
<title>2&#45;&gt;2&#45;0</title>
<path fill="none" stroke="#000000" d="M90,-724.9735C90,-713.1918 90,-697.5607 90,-684.1581"/>
<polygon fill="#000000" stroke="#000000" points="93.5001,-684.0033 90,-674.0034 86.5001,-684.0034 93.5001,-684.0033"/>
<text text-anchor="middle" x="93.5" y="-695.8" font-family="Times,serif" font-size="14.00" fill="#000000">ε</text>
</g>
<!-- 1 -->
<g id="node4" class="node">
<title>1</title>
<ellipse fill="none" stroke="#000000" cx="90" cy="-830" rx="27" ry="18"/>
<text text-anchor="middle" x="90" y="-826.3" font-family="Times,serif" font-size="14.00" fill="#000000">1</text>
</g>
<!-- 1&#45;&gt;2 -->
<g id="edge12" class="edge">
<title>1&#45;&gt;2</title>
<path fill="none" stroke="#000000" d="M90,-811.9735C90,-800.1918 90,-784.5607 90,-771.1581"/>
<polygon fill="#000000" stroke="#000000" points="93.5001,-771.0033 90,-761.0034 86.5001,-771.0034 93.5001,-771.0033"/>
<text text-anchor="middle" x="99.5" y="-782.8" font-family="Times,serif" font-size="14.00" fill="#000000">:Eb</text>
</g>
<!-- 2&#45;2 -->
<g id="node5" class="node">
<title>2&#45;2</title>
<ellipse fill="none" stroke="#000000" cx="90" cy="-105" rx="27" ry="18"/>
<text text-anchor="middle" x="90" y="-101.3" font-family="Times,serif" font-size="14.00" fill="#000000">2&#45;2</text>
</g>
<!-- 2&#45;3 -->
<g id="node16" class="node">
<title>2&#45;3</title>
<ellipse fill="none" stroke="#000000" cx="51" cy="-18" rx="27" ry="18"/>
<text text-anchor="middle" x="51" y="-14.3" font-family="Times,serif" font-size="14.00" fill="#000000">2&#45;3</text>
</g>
<!-- 2&#45;2&#45;&gt;2&#45;3 -->
<g id="edge34" class="edge">
<title>2&#45;2&#45;&gt;2&#45;3</title>
<path fill="none" stroke="#000000" d="M82.1078,-87.3943C76.6272,-75.1683 69.2232,-58.6517 63.0134,-44.7992"/>
<polygon fill="#000000" stroke="#000000" points="66.0318,-42.976 58.7474,-35.2827 59.6442,-45.8395 66.0318,-42.976"/>
<text text-anchor="middle" x="76.5" y="-57.8" font-family="Times,serif" font-size="14.00" fill="#000000">ε</text>
</g>
<!-- 0&#45;2 -->
<g id="node6" class="node">
<title>0&#45;2</title>
<ellipse fill="none" stroke="#000000" cx="27" cy="-1112" rx="27" ry="18"/>
<text text-anchor="middle" x="27" y="-1108.3" font-family="Times,serif" font-size="14.00" fill="#000000">0&#45;2</text>
</g>
<!-- 0&#45;3 -->
<g id="node11" class="node">
<title>0&#45;3</title>
<ellipse fill="none" stroke="#000000" cx="27" cy="-1004" rx="27" ry="18"/>
<text text-anchor="middle" x="27" y="-1000.3" font-family="Times,serif" font-size="14.00" fill="#000000">0&#45;3</text>
</g>
<!-- 0&#45;2&#45;&gt;0&#45;3 -->
<g id="edge9" class="edge">
<title>0&#45;2&#45;&gt;0&#45;3</title>
<path fill="none" stroke="#000000" d="M27,-1093.6793C27,-1076.821 27,-1051.5651 27,-1032.147"/>
<polygon fill="#000000" stroke="#000000" points="30.5001,-1032.0501 27,-1022.0502 23.5001,-1032.0502 30.5001,-1032.0501"/>
<text text-anchor="middle" x="29.5" y="-1054.3" font-family="Times,serif" font-size="14.00" fill="#000000">&#45;</text>
</g>
<!-- 2&#45;0&#45;8 -->
<g id="node7" class="node">
<title>2&#45;0&#45;8</title>
<ellipse fill="none" stroke="#000000" cx="155" cy="-478" rx="29.795" ry="18"/>
<text text-anchor="middle" x="155" y="-474.3" font-family="Times,serif" font-size="14.00" fill="#000000">2&#45;0&#45;8</text>
</g>
<!-- 2&#45;0&#45;8&#45;&gt;2&#45;0&#45;9 -->
<g id="edge27" class="edge">
<title>2&#45;0&#45;8&#45;&gt;2&#45;0&#45;9</title>
<path fill="none" stroke="#000000" d="M154.6697,-459.5055C154.3523,-441.7282 153.8682,-414.6184 153.5028,-394.1587"/>
<polygon fill="#000000" stroke="#000000" points="157.0022,-394.0863 153.3241,-384.1504 150.0033,-394.2113 157.0022,-394.0863"/>
<text text-anchor="middle" x="158" y="-416.3" font-family="Times,serif" font-size="14.00" fill="#000000">↑</text>
</g>
<!-- 2&#45;1 -->
<g id="node25" class="node">
<title>2&#45;1</title>
<ellipse fill="none" stroke="#000000" cx="161" cy="-192" rx="27" ry="18"/>
<text text-anchor="middle" x="161" y="-188.3" font-family="Times,serif" font-size="14.00" fill="#000000">2&#45;1</text>
</g>
<!-- 2&#45;0&#45;10&#45;&gt;2&#45;1 -->
<g id="edge17" class="edge">
<title>2&#45;0&#45;10&#45;&gt;2&#45;1</title>
<path fill="none" stroke="#000000" d="M259.8133,-264.2416C239.9096,-249.6902 209.3825,-227.3721 187.5283,-211.3946"/>
<polygon fill="#000000" stroke="#000000" points="189.4672,-208.4766 179.3289,-205.4001 185.3359,-214.1275 189.4672,-208.4766"/>
<text text-anchor="middle" x="230.5" y="-231.8" font-family="Times,serif" font-size="14.00" fill="#000000">ε</text>
</g>
<!-- 2&#45;0&#45;2 -->
<g id="node9" class="node">
<title>2&#45;0&#45;2</title>
<ellipse fill="none" stroke="#000000" cx="233" cy="-478" rx="29.795" ry="18"/>
<text text-anchor="middle" x="233" y="-474.3" font-family="Times,serif" font-size="14.00" fill="#000000">2&#45;0&#45;2</text>
</g>
<!-- 2&#45;0&#45;3 -->
<g id="node18" class="node">
<title>2&#45;0&#45;3</title>
<ellipse fill="none" stroke="#000000" cx="231" cy="-366" rx="29.795" ry="18"/>
<text text-anchor="middle" x="231" y="-362.3" font-family="Times,serif" font-size="14.00" fill="#000000">2&#45;0&#45;3</text>
</g>
<!-- 2&#45;0&#45;2&#45;&gt;2&#45;0&#45;3 -->
<g id="edge24" class="edge">
<title>2&#45;0&#45;2&#45;&gt;2&#45;0&#45;3</title>
<path fill="none" stroke="#000000" d="M232.6697,-459.5055C232.3523,-441.7282 231.8682,-414.6184 231.5028,-394.1587"/>
<polygon fill="#000000" stroke="#000000" points="235.0022,-394.0863 231.3241,-384.1504 228.0033,-394.2113 235.0022,-394.0863"/>
<text text-anchor="middle" x="234.5" y="-416.3" font-family="Times,serif" font-size="14.00" fill="#000000">&#45;</text>
</g>
<!-- 0&#45;0 -->
<g id="node10" class="node">
<title>0&#45;0</title>
<ellipse fill="none" stroke="#000000" cx="82" cy="-1199" rx="27" ry="18"/>
<text text-anchor="middle" x="82" y="-1195.3" font-family="Times,serif" font-size="14.00" fill="#000000">0&#45;0</text>
</g>
<!-- 0&#45;0&#45;&gt;0&#45;2 -->
<g id="edge8" class="edge">
<title>0&#45;0&#45;&gt;0&#45;2</title>
<path fill="none" stroke="#000000" d="M68.2689,-1183.4059C63.1747,-1177.2603 57.5377,-1170.0054 53,-1163 48.0292,-1155.326 43.2732,-1146.581 39.2197,-1138.5259"/>
<polygon fill="#000000" stroke="#000000" points="42.343,-1136.9455 34.813,-1129.4923 36.0516,-1140.0145 42.343,-1136.9455"/>
<text text-anchor="middle" x="56.5" y="-1151.8" font-family="Times,serif" font-size="14.00" fill="#000000">ε</text>
</g>
<!-- 0&#45;0&#45;&gt;0&#45;0 -->
<g id="edge6" class="edge">
<title>0&#45;0&#45;&gt;0&#45;0</title>
<path fill="none" stroke="#000000" d="M106.5325,-1206.752C117.5078,-1207.4902 127,-1204.9063 127,-1199 127,-1195.0317 122.7151,-1192.5632 116.5743,-1191.5944"/>
<polygon fill="#000000" stroke="#000000" points="116.6472,-1188.0949 106.5325,-1191.248 116.4059,-1195.0908 116.6472,-1188.0949"/>
<text text-anchor="middle" x="130.5" y="-1195.3" font-family="Times,serif" font-size="14.00" fill="#000000">ε</text>
</g>
<!-- 0&#45;1 -->
<g id="node15" class="node">
<title>0&#45;1</title>
<ellipse fill="none" stroke="#000000" cx="78" cy="-1058" rx="27" ry="18"/>
<text text-anchor="middle" x="78" y="-1054.3" font-family="Times,serif" font-size="14.00" fill="#000000">0&#45;1</text>
</g>
<!-- 0&#45;0&#45;&gt;0&#45;1 -->
<g id="edge5" class="edge">
<title>0&#45;0&#45;&gt;0&#45;1</title>
<path fill="none" stroke="#000000" d="M81.4853,-1180.8554C80.8042,-1156.8485 79.5968,-1114.2861 78.7973,-1086.1035"/>
<polygon fill="#000000" stroke="#000000" points="82.295,-1085.9717 78.5128,-1076.075 75.2978,-1086.1702 82.295,-1085.9717"/>
<text text-anchor="middle" x="85.5" y="-1151.8" font-family="Times,serif" font-size="14.00" fill="#000000">+</text>
</g>
<!-- 0&#45;4 -->
<g id="node23" class="node">
<title>0&#45;4</title>
<ellipse fill="none" stroke="#000000" cx="90" cy="-917" rx="27" ry="18"/>
<text text-anchor="middle" x="90" y="-913.3" font-family="Times,serif" font-size="14.00" fill="#000000">0&#45;4</text>
</g>
<!-- 0&#45;0&#45;&gt;0&#45;4 -->
<g id="edge7" class="edge">
<title>0&#45;0&#45;&gt;0&#45;4</title>
<path fill="none" stroke="#000000" d="M88.6426,-1181.2416C90.5998,-1175.4862 92.5917,-1169.0305 94,-1163 115.2359,-1072.0614 117.4409,-1044.9265 101,-953 100.5099,-950.2599 99.8784,-947.435 99.1661,-944.6294"/>
<polygon fill="#000000" stroke="#000000" points="102.4528,-943.3923 96.3406,-934.7384 95.7221,-945.3152 102.4528,-943.3923"/>
<text text-anchor="middle" x="114.5" y="-1054.3" font-family="Times,serif" font-size="14.00" fill="#000000">ε</text>
</g>
<!-- 0&#45;3&#45;&gt;0&#45;4 -->
<g id="edge11" class="edge">
<title>0&#45;3&#45;&gt;0&#45;4</title>
<path fill="none" stroke="#000000" d="M38.8498,-987.636C48.2653,-974.6336 61.5807,-956.2457 72.2656,-941.4904"/>
<polygon fill="#000000" stroke="#000000" points="75.173,-943.4429 78.2033,-933.2907 69.5034,-939.3373 75.173,-943.4429"/>
<text text-anchor="middle" x="66.5" y="-956.8" font-family="Times,serif" font-size="14.00" fill="#000000">ε</text>
</g>
<!-- 2&#45;0&#45;6 -->
<g id="node12" class="node">
<title>2&#45;0&#45;6</title>
<ellipse fill="none" stroke="#000000" cx="311" cy="-478" rx="29.795" ry="18"/>
<text text-anchor="middle" x="311" y="-474.3" font-family="Times,serif" font-size="14.00" fill="#000000">2&#45;0&#45;6</text>
</g>
<!-- 2&#45;0&#45;7 -->
<g id="node21" class="node">
<title>2&#45;0&#45;7</title>
<ellipse fill="none" stroke="#000000" cx="309" cy="-366" rx="29.795" ry="18"/>
<text text-anchor="middle" x="309" y="-362.3" font-family="Times,serif" font-size="14.00" fill="#000000">2&#45;0&#45;7</text>
</g>
<!-- 2&#45;0&#45;6&#45;&gt;2&#45;0&#45;7 -->
<g id="edge26" class="edge">
<title>2&#45;0&#45;6&#45;&gt;2&#45;0&#45;7</title>
<path fill="none" stroke="#000000" d="M310.6697,-459.5055C310.3523,-441.7282 309.8682,-414.6184 309.5028,-394.1587"/>
<polygon fill="#000000" stroke="#000000" points="313.0022,-394.0863 309.3241,-384.1504 306.0033,-394.2113 313.0022,-394.0863"/>
<text text-anchor="middle" x="312" y="-416.3" font-family="Times,serif" font-size="14.00" fill="#000000">/</text>
</g>
<!-- 4 -->
<g id="node13" class="node">
<title>4</title>
<ellipse fill="none" stroke="#000000" cx="85" cy="-478" rx="18" ry="18"/>
<ellipse fill="none" stroke="#000000" cx="85" cy="-478" rx="22" ry="22"/>
<text text-anchor="middle" x="85" y="-474.3" font-family="Times,serif" font-size="14.00" fill="#000000">4</text>
</g>
<!-- 2&#45;0&#45;1 -->
<g id="node14" class="node">
<title>2&#45;0&#45;1</title>
<ellipse fill="none" stroke="#000000" cx="372" cy="-420" rx="29.795" ry="18"/>
<text text-anchor="middle" x="372" y="-416.3" font-family="Times,serif" font-size="14.00" fill="#000000">2&#45;0&#45;1</text>
</g>
<!-- 2&#45;0&#45;1&#45;&gt;2&#45;0&#45;10 -->
<g id="edge28" class="edge">
<title>2&#45;0&#45;1&#45;&gt;2&#45;0&#45;10</title>
<path fill="none" stroke="#000000" d="M368.3761,-401.8567C364.7937,-386.6734 358.3292,-364.8503 348,-348 337.1253,-330.2599 320.8797,-313.5511 306.9944,-301.0202"/>
<polygon fill="#000000" stroke="#000000" points="308.9785,-298.1053 299.1501,-294.1488 304.366,-303.3708 308.9785,-298.1053"/>
<text text-anchor="middle" x="366.5" y="-362.3" font-family="Times,serif" font-size="14.00" fill="#000000">ε</text>
</g>
<!-- 0&#45;1&#45;&gt;0&#45;4 -->
<g id="edge10" class="edge">
<title>0&#45;1&#45;&gt;0&#45;4</title>
<path fill="none" stroke="#000000" d="M79.5442,-1039.8554C81.5874,-1015.8485 85.2097,-973.2861 87.6082,-945.1035"/>
<polygon fill="#000000" stroke="#000000" points="91.101,-945.3358 88.4617,-935.075 84.1262,-944.7421 91.101,-945.3358"/>
<text text-anchor="middle" x="87.5" y="-1000.3" font-family="Times,serif" font-size="14.00" fill="#000000">ε</text>
</g>
<!-- 2&#45;3&#45;&gt;2&#45;0 -->
<g id="edge35" class="edge">
<title>2&#45;3&#45;&gt;2&#45;0</title>
<path fill="none" stroke="#000000" d="M45.761,-35.8194C41.0947,-53.2822 35,-80.7352 35,-105 35,-569 35,-569 35,-569 35,-594.031 51.4673,-617.7174 66.3808,-634.0362"/>
<polygon fill="#000000" stroke="#000000" points="64.0412,-636.6525 73.4982,-641.4291 69.084,-631.7976 64.0412,-636.6525"/>
<text text-anchor="middle" x="38.5" y="-318.8" font-family="Times,serif" font-size="14.00" fill="#000000">ε</text>
</g>
<!-- 3 -->
<g id="node17" class="node">
<title>3</title>
<ellipse fill="none" stroke="#000000" cx="90" cy="-569" rx="27" ry="18"/>
<text text-anchor="middle" x="90" y="-565.3" font-family="Times,serif" font-size="14.00" fill="#000000">3</text>
</g>
<!-- 3&#45;&gt;4 -->
<g id="edge36" class="edge">
<title>3&#45;&gt;4</title>
<path fill="none" stroke="#000000" d="M88.9882,-550.5848C88.3577,-539.1105 87.5287,-524.0231 86.79,-510.5774"/>
<polygon fill="#000000" stroke="#000000" points="90.2658,-510.0394 86.2223,-500.2465 83.2763,-510.4235 90.2658,-510.0394"/>
<text text-anchor="middle" x="91.5" y="-521.8" font-family="Times,serif" font-size="14.00" fill="#000000">ε</text>
</g>
<!-- 2&#45;0&#45;3&#45;&gt;2&#45;0&#45;10 -->
<g id="edge29" class="edge">
<title>2&#45;0&#45;3&#45;&gt;2&#45;0&#45;10</title>
<path fill="none" stroke="#000000" d="M240.6808,-348.8116C247.6819,-336.3812 257.2689,-319.3593 265.2236,-305.2357"/>
<polygon fill="#000000" stroke="#000000" points="268.3137,-306.8812 270.1716,-296.4505 262.2146,-303.446 268.3137,-306.8812"/>
<text text-anchor="middle" x="261.5" y="-318.8" font-family="Times,serif" font-size="14.00" fill="#000000">ε</text>
</g>
<!-- 2&#45;0&#45;4 -->
<g id="node19" class="node">
<title>2&#45;0&#45;4</title>
<ellipse fill="none" stroke="#000000" cx="429" cy="-478" rx="29.795" ry="18"/>
<text text-anchor="middle" x="429" y="-474.3" font-family="Times,serif" font-size="14.00" fill="#000000">2&#45;0&#45;4</text>
</g>
<!-- 2&#45;0&#45;5 -->
<g id="node26" class="node">
<title>2&#45;0&#45;5</title>
<ellipse fill="none" stroke="#000000" cx="430" cy="-366" rx="29.795" ry="18"/>
<text text-anchor="middle" x="430" y="-362.3" font-family="Times,serif" font-size="14.00" fill="#000000">2&#45;0&#45;5</text>
</g>
<!-- 2&#45;0&#45;4&#45;&gt;2&#45;0&#45;5 -->
<g id="edge25" class="edge">
<title>2&#45;0&#45;4&#45;&gt;2&#45;0&#45;5</title>
<path fill="none" stroke="#000000" d="M429.1651,-459.5055C429.3239,-441.7282 429.5659,-414.6184 429.7486,-394.1587"/>
<polygon fill="#000000" stroke="#000000" points="433.2484,-394.1813 429.8379,-384.1504 426.2487,-394.1187 433.2484,-394.1813"/>
<text text-anchor="middle" x="432.5" y="-416.3" font-family="Times,serif" font-size="14.00" fill="#000000">*</text>
</g>
<!-- 0&#45;&gt;0&#45;0 -->
<g id="edge2" class="edge">
<title>0&#45;&gt;0&#45;0</title>
<path fill="none" stroke="#000000" d="M82,-1267.9735C82,-1256.1918 82,-1240.5607 82,-1227.1581"/>
<polygon fill="#000000" stroke="#000000" points="85.5001,-1227.0033 82,-1217.0034 78.5001,-1227.0034 85.5001,-1227.0033"/>
<text text-anchor="middle" x="85.5" y="-1238.8" font-family="Times,serif" font-size="14.00" fill="#000000">ε</text>
</g>
<!-- 0&#45;&gt;0 -->
<g id="edge3" class="edge">
<title>0&#45;&gt;0</title>
<path fill="none" stroke="#000000" d="M107.4435,-1292.6907C118.0278,-1293.1521 127,-1290.9219 127,-1286 127,-1282.77 123.136,-1280.6992 117.4881,-1279.7876"/>
<polygon fill="#000000" stroke="#000000" points="117.5987,-1276.289 107.4435,-1279.3093 117.2656,-1283.2811 117.5987,-1276.289"/>
<text text-anchor="middle" x="130.5" y="-1282.3" font-family="Times,serif" font-size="14.00" fill="#000000">ε</text>
</g>
<!-- 2&#45;0&#45;7&#45;&gt;2&#45;0&#45;10 -->
<g id="edge31" class="edge">
<title>2&#45;0&#45;7&#45;&gt;2&#45;0&#45;10</title>
<path fill="none" stroke="#000000" d="M302.9912,-347.9735C299.025,-336.0751 293.7503,-320.2508 289.2535,-306.7606"/>
<polygon fill="#000000" stroke="#000000" points="292.4839,-305.3834 286.0011,-297.0034 285.8431,-307.597 292.4839,-305.3834"/>
<text text-anchor="middle" x="299.5" y="-318.8" font-family="Times,serif" font-size="14.00" fill="#000000">ε</text>
</g>
<!-- 2&#45;0&#45;0 -->
<g id="node22" class="node">
<title>2&#45;0&#45;0</title>
<ellipse fill="none" stroke="#000000" cx="260" cy="-569" rx="29.795" ry="18"/>
<text text-anchor="middle" x="260" y="-565.3" font-family="Times,serif" font-size="14.00" fill="#000000">2&#45;0&#45;0</text>
</g>
<!-- 2&#45;0&#45;0&#45;&gt;2&#45;0&#45;8 -->
<g id="edge22" class="edge">
<title>2&#45;0&#45;0&#45;&gt;2&#45;0&#45;8</title>
<path fill="none" stroke="#000000" d="M242.6614,-553.9732C225.6384,-539.22 199.4876,-516.556 180.1757,-499.8189"/>
<polygon fill="#000000" stroke="#000000" points="182.2136,-496.9535 172.3644,-493.0491 177.629,-502.2434 182.2136,-496.9535"/>
<text text-anchor="middle" x="219.5" y="-521.8" font-family="Times,serif" font-size="14.00" fill="#000000">ε</text>
</g>
<!-- 2&#45;0&#45;0&#45;&gt;2&#45;0&#45;2 -->
<g id="edge19" class="edge">
<title>2&#45;0&#45;0&#45;&gt;2&#45;0&#45;2</title>
<path fill="none" stroke="#000000" d="M254.6657,-551.0213C250.8197,-538.0591 245.5575,-520.3234 241.1823,-505.5772"/>
<polygon fill="#000000" stroke="#000000" points="244.5232,-504.5327 238.3232,-495.9413 237.8124,-506.5238 244.5232,-504.5327"/>
<text text-anchor="middle" x="251.5" y="-521.8" font-family="Times,serif" font-size="14.00" fill="#000000">ε</text>
</g>
<!-- 2&#45;0&#45;0&#45;&gt;2&#45;0&#45;6 -->
<g id="edge20" class="edge">
<title>2&#45;0&#45;0&#45;&gt;2&#45;0&#45;6</title>
<path fill="none" stroke="#000000" d="M269.5927,-551.8836C277.0958,-538.4958 287.658,-519.6494 296.2368,-504.3422"/>
<polygon fill="#000000" stroke="#000000" points="299.4411,-505.7836 301.2769,-495.3491 293.3347,-502.3613 299.4411,-505.7836"/>
<text text-anchor="middle" x="291.5" y="-521.8" font-family="Times,serif" font-size="14.00" fill="#000000">ε</text>
</g>
<!-- 2&#45;0&#45;0&#45;&gt;2&#45;0&#45;1 -->
<g id="edge18" class="edge">
<title>2&#45;0&#45;0&#45;&gt;2&#45;0&#45;1</title>
<path fill="none" stroke="#000000" d="M283.0144,-557.0753C303.5587,-545.2699 332.957,-525.3149 350,-500 360.3604,-484.6111 365.8646,-464.4587 368.7765,-448.2303"/>
<polygon fill="#000000" stroke="#000000" points="372.2545,-448.6428 370.3407,-438.2222 365.3384,-447.5618 372.2545,-448.6428"/>
<text text-anchor="middle" x="338.5" y="-521.8" font-family="Times,serif" font-size="14.00" fill="#000000">+</text>
</g>
<!-- 2&#45;0&#45;0&#45;&gt;2&#45;0&#45;4 -->
<g id="edge21" class="edge">
<title>2&#45;0&#45;0&#45;&gt;2&#45;0&#45;4</title>
<path fill="none" stroke="#000000" d="M289.3648,-565.3453C315.6421,-560.98 354.3292,-551.7638 383,-533 394.6363,-525.3845 404.877,-513.9413 412.724,-503.4616"/>
<polygon fill="#000000" stroke="#000000" points="415.8015,-505.1723 418.7306,-494.9904 410.0913,-501.1234 415.8015,-505.1723"/>
<text text-anchor="middle" x="402.5" y="-521.8" font-family="Times,serif" font-size="14.00" fill="#000000">ε</text>
</g>
<!-- 2&#45;0&#45;0&#45;&gt;2&#45;0&#45;0 -->
<g id="edge23" class="edge">
<title>2&#45;0&#45;0&#45;&gt;2&#45;0&#45;0</title>
<path fill="none" stroke="#000000" d="M287.0817,-576.8058C298.3475,-577.3441 307.8973,-574.7422 307.8973,-569 307.8973,-565.142 303.5864,-562.7015 297.3405,-561.6786"/>
<polygon fill="#000000" stroke="#000000" points="297.2356,-558.1698 287.0817,-561.1942 296.9054,-565.162 297.2356,-558.1698"/>
<text text-anchor="middle" x="311.3973" y="-565.3" font-family="Times,serif" font-size="14.00" fill="#000000">ε</text>
</g>
<!-- 0&#45;4&#45;&gt;1 -->
<g id="edge4" class="edge">
<title>0&#45;4&#45;&gt;1</title>
<path fill="none" stroke="#000000" d="M90,-898.9735C90,-887.1918 90,-871.5607 90,-858.1581"/>
<polygon fill="#000000" stroke="#000000" points="93.5001,-858.0033 90,-848.0034 86.5001,-858.0034 93.5001,-858.0033"/>
<text text-anchor="middle" x="93.5" y="-869.8" font-family="Times,serif" font-size="14.00" fill="#000000">ε</text>
</g>
<!-- 2&#45;0&#45;&gt;3 -->
<g id="edge16" class="edge">
<title>2&#45;0&#45;&gt;3</title>
<path fill="none" stroke="#000000" d="M90,-637.9735C90,-626.1918 90,-610.5607 90,-597.1581"/>
<polygon fill="#000000" stroke="#000000" points="93.5001,-597.0033 90,-587.0034 86.5001,-597.0034 93.5001,-597.0033"/>
<text text-anchor="middle" x="93.5" y="-608.8" font-family="Times,serif" font-size="14.00" fill="#000000">ε</text>
</g>
<!-- 2&#45;0&#45;&gt;2&#45;0&#45;0 -->
<g id="edge15" class="edge">
<title>2&#45;0&#45;&gt;2&#45;0&#45;0</title>
<path fill="none" stroke="#000000" d="M111.5306,-644.9814C140.9307,-629.9355 193.8672,-602.8444 227.9423,-585.406"/>
<polygon fill="#000000" stroke="#000000" points="229.7103,-588.4329 237.0178,-580.7615 226.5213,-582.2015 229.7103,-588.4329"/>
<text text-anchor="middle" x="188.5" y="-608.8" font-family="Times,serif" font-size="14.00" fill="#000000">ε</text>
</g>
<!-- 2&#45;0&#45;&gt;2&#45;0 -->
<g id="edge14" class="edge">
<title>2&#45;0&#45;&gt;2&#45;0</title>
<path fill="none" stroke="#000000" d="M114.5325,-663.752C125.5078,-664.4902 135,-661.9063 135,-656 135,-652.0317 130.7151,-649.5632 124.5743,-648.5944"/>
<polygon fill="#000000" stroke="#000000" points="124.6472,-645.0949 114.5325,-648.248 124.4059,-652.0908 124.6472,-645.0949"/>
<text text-anchor="middle" x="138.5" y="-652.3" font-family="Times,serif" font-size="14.00" fill="#000000">ε</text>
</g>
<!-- 2&#45;1&#45;&gt;2&#45;2 -->
<g id="edge33" class="edge">
<title>2&#45;1&#45;&gt;2&#45;2</title>
<path fill="none" stroke="#000000" d="M147.9775,-176.0429C137.1685,-162.798 121.6366,-143.7659 109.3688,-128.7336"/>
<polygon fill="#000000" stroke="#000000" points="111.9743,-126.3906 102.9399,-120.856 106.551,-130.8165 111.9743,-126.3906"/>
<text text-anchor="middle" x="138.5" y="-144.8" font-family="Times,serif" font-size="14.00" fill="#000000">:Eb</text>
</g>
<!-- 2&#45;0&#45;5&#45;&gt;2&#45;0&#45;10 -->
<g id="edge30" class="edge">
<title>2&#45;0&#45;5&#45;&gt;2&#45;0&#45;10</title>
<path fill="none" stroke="#000000" d="M419.7885,-348.6913C412.474,-337.6478 401.6963,-323.8045 389,-315 369.2074,-301.2744 343.8088,-292.4848 322.5089,-287.0299"/>
<polygon fill="#000000" stroke="#000000" points="323.2769,-283.6148 312.736,-284.6827 321.6421,-290.4213 323.2769,-283.6148"/>
<text text-anchor="middle" x="407.5" y="-318.8" font-family="Times,serif" font-size="14.00" fill="#000000">ε</text>
</g>
</g>
</svg>
