<?xml version="1.0" encoding="UTF-8" standalone="no"?>
<!DOCTYPE svg PUBLIC "-//W3C//DTD SVG 1.1//EN"
 "http://www.w3.org/Graphics/SVG/1.1/DTD/svg11.dtd">
<!-- Generated by graphviz version 2.40.1 (20161225.0304)
 -->
<!-- Title: %3 Pages: 1 -->
<svg width="129pt" height="1517pt"
 viewBox="0.00 0.00 129.00 1517.00" xmlns="http://www.w3.org/2000/svg" xmlns:xlink="http://www.w3.org/1999/xlink">
<g id="graph0" class="graph" transform="scale(1 1) rotate(0) translate(4 1513)">
<title>%3</title>
<polygon fill="#ffffff" stroke="transparent" points="-4,4 -4,-1513 125,-1513 125,4 -4,4"/>
<!-- fake0 -->
<g id="node1" class="node">
<title>fake0</title>
</g>
<!-- 0 -->
<g id="node13" class="node">
<title>0</title>
<ellipse fill="none" stroke="#000000" cx="69" cy="-1418" rx="27" ry="18"/>
<text text-anchor="middle" x="69" y="-1414.3" font-family="Times,serif" font-size="14.00" fill="#000000">0</text>
</g>
<!-- fake0&#45;&gt;0 -->
<g id="edge1" class="edge">
<title>fake0&#45;&gt;0</title>
<path fill="none" stroke="#000000" stroke-width="2" d="M69,-1472.9551C69,-1464.8828 69,-1455.1764 69,-1446.1817"/>
<polygon fill="#000000" stroke="#000000" stroke-width="2" points="72.5001,-1446.0903 69,-1436.0904 65.5001,-1446.0904 72.5001,-1446.0903"/>
</g>
<!-- 2&#45;0 -->
<g id="node2" class="node">
<title>2&#45;0</title>
<ellipse fill="none" stroke="#000000" cx="69" cy="-1157" rx="27" ry="18"/>
<text text-anchor="middle" x="69" y="-1153.3" font-family="Times,serif" font-size="14.00" fill="#000000">2&#45;0</text>
</g>
<!-- 2&#45;0&#45;&gt;2&#45;0 -->
<g id="edge8" class="edge">
<title>2&#45;0&#45;&gt;2&#45;0</title>
<path fill="none" stroke="#000000" d="M93.5325,-1164.752C104.5078,-1165.4902 114,-1162.9063 114,-1157 114,-1153.0317 109.7151,-1150.5632 103.5743,-1149.5944"/>
<polygon fill="#000000" stroke="#000000" points="103.6472,-1146.0949 93.5325,-1149.248 103.4059,-1153.0908 103.6472,-1146.0949"/>
<text text-anchor="middle" x="117.5" y="-1153.3" font-family="Times,serif" font-size="14.00" fill="#000000">ε</text>
</g>
<!-- 2&#45;1 -->
<g id="node4" class="node">
<title>2&#45;1</title>
<ellipse fill="none" stroke="#000000" cx="27" cy="-1070" rx="27" ry="18"/>
<text text-anchor="middle" x="27" y="-1066.3" font-family="Times,serif" font-size="14.00" fill="#000000">2&#45;1</text>
</g>
<!-- 2&#45;0&#45;&gt;2&#45;1 -->
<g id="edge7" class="edge">
<title>2&#45;0&#45;&gt;2&#45;1</title>
<path fill="none" stroke="#000000" d="M60.31,-1139.8283C57.3278,-1133.8806 53.9894,-1127.161 51,-1121 47.1734,-1113.1136 43.0863,-1104.5019 39.3894,-1096.638"/>
<polygon fill="#000000" stroke="#000000" points="42.5281,-1095.0875 35.1173,-1087.5159 36.1888,-1098.0564 42.5281,-1095.0875"/>
<text text-anchor="middle" x="63.5" y="-1109.8" font-family="Times,serif" font-size="14.00" fill="#000000">digit</text>
</g>
<!-- 2&#45;2 -->
<g id="node10" class="node">
<title>2&#45;2</title>
<ellipse fill="none" stroke="#000000" cx="59" cy="-983" rx="27" ry="18"/>
<text text-anchor="middle" x="59" y="-979.3" font-family="Times,serif" font-size="14.00" fill="#000000">2&#45;2</text>
</g>
<!-- 2&#45;0&#45;&gt;2&#45;2 -->
<g id="edge9" class="edge">
<title>2&#45;0&#45;&gt;2&#45;2</title>
<path fill="none" stroke="#000000" d="M73.1724,-1139.1538C74.33,-1133.3937 75.4262,-1126.9575 76,-1121 79.694,-1082.6487 72.1735,-1038.4761 65.9865,-1010.649"/>
<polygon fill="#000000" stroke="#000000" points="69.3779,-1009.7798 63.7068,-1000.8305 62.5593,-1011.3631 69.3779,-1009.7798"/>
<text text-anchor="middle" x="79.5" y="-1066.3" font-family="Times,serif" font-size="14.00" fill="#000000">ε</text>
</g>
<!-- 3 -->
<g id="node3" class="node">
<title>3</title>
<ellipse fill="none" stroke="#000000" cx="59" cy="-896" rx="27" ry="18"/>
<text text-anchor="middle" x="59" y="-892.3" font-family="Times,serif" font-size="14.00" fill="#000000">3</text>
</g>
<!-- 4 -->
<g id="node11" class="node">
<title>4</title>
<ellipse fill="none" stroke="#000000" cx="59" cy="-809" rx="27" ry="18"/>
<text text-anchor="middle" x="59" y="-805.3" font-family="Times,serif" font-size="14.00" fill="#000000">4</text>
</g>
<!-- 3&#45;&gt;4 -->
<g id="edge11" class="edge">
<title>3&#45;&gt;4</title>
<path fill="none" stroke="#000000" d="M59,-877.9735C59,-866.1918 59,-850.5607 59,-837.1581"/>
<polygon fill="#000000" stroke="#000000" points="62.5001,-837.0033 59,-827.0034 55.5001,-837.0034 62.5001,-837.0033"/>
<text text-anchor="middle" x="63.5" y="-848.8" font-family="Times,serif" font-size="14.00" fill="#000000">=</text>
</g>
<!-- 2&#45;1&#45;&gt;2&#45;2 -->
<g id="edge10" class="edge">
<title>2&#45;1&#45;&gt;2&#45;2</title>
<path fill="none" stroke="#000000" d="M33.4757,-1052.3943C37.9432,-1040.2482 43.9683,-1023.8674 49.0428,-1010.0711"/>
<polygon fill="#000000" stroke="#000000" points="52.3667,-1011.1731 52.534,-1000.5796 45.797,-1008.7566 52.3667,-1011.1731"/>
<text text-anchor="middle" x="48.5" y="-1022.8" font-family="Times,serif" font-size="14.00" fill="#000000">ε</text>
</g>
<!-- 9 -->
<g id="node5" class="node">
<title>9</title>
<ellipse fill="none" stroke="#000000" cx="60" cy="-22" rx="18" ry="18"/>
<ellipse fill="none" stroke="#000000" cx="60" cy="-22" rx="22" ry="22"/>
<text text-anchor="middle" x="60" y="-18.3" font-family="Times,serif" font-size="14.00" fill="#000000">9</text>
</g>
<!-- 7&#45;1 -->
<g id="node6" class="node">
<title>7&#45;1</title>
<ellipse fill="none" stroke="#000000" cx="32" cy="-374" rx="27" ry="18"/>
<text text-anchor="middle" x="32" y="-370.3" font-family="Times,serif" font-size="14.00" fill="#000000">7&#45;1</text>
</g>
<!-- 7&#45;2 -->
<g id="node18" class="node">
<title>7&#45;2</title>
<ellipse fill="none" stroke="#000000" cx="32" cy="-287" rx="27" ry="18"/>
<text text-anchor="middle" x="32" y="-283.3" font-family="Times,serif" font-size="14.00" fill="#000000">7&#45;2</text>
</g>
<!-- 7&#45;1&#45;&gt;7&#45;2 -->
<g id="edge20" class="edge">
<title>7&#45;1&#45;&gt;7&#45;2</title>
<path fill="none" stroke="#000000" d="M32,-355.9735C32,-344.1918 32,-328.5607 32,-315.1581"/>
<polygon fill="#000000" stroke="#000000" points="35.5001,-315.0033 32,-305.0034 28.5001,-315.0034 35.5001,-315.0033"/>
<text text-anchor="middle" x="45" y="-326.8" font-family="Times,serif" font-size="14.00" fill="#000000">:Exp</text>
</g>
<!-- 2 -->
<g id="node7" class="node">
<title>2</title>
<ellipse fill="none" stroke="#000000" cx="69" cy="-1244" rx="27" ry="18"/>
<text text-anchor="middle" x="69" y="-1240.3" font-family="Times,serif" font-size="14.00" fill="#000000">2</text>
</g>
<!-- 2&#45;&gt;2&#45;0 -->
<g id="edge5" class="edge">
<title>2&#45;&gt;2&#45;0</title>
<path fill="none" stroke="#000000" d="M69,-1225.9735C69,-1214.1918 69,-1198.5607 69,-1185.1581"/>
<polygon fill="#000000" stroke="#000000" points="72.5001,-1185.0033 69,-1175.0034 65.5001,-1185.0034 72.5001,-1185.0033"/>
<text text-anchor="middle" x="72.5" y="-1196.8" font-family="Times,serif" font-size="14.00" fill="#000000">ε</text>
</g>
<!-- 5 -->
<g id="node8" class="node">
<title>5</title>
<ellipse fill="none" stroke="#000000" cx="59" cy="-722" rx="27" ry="18"/>
<text text-anchor="middle" x="59" y="-718.3" font-family="Times,serif" font-size="14.00" fill="#000000">5</text>
</g>
<!-- 6 -->
<g id="node15" class="node">
<title>6</title>
<ellipse fill="none" stroke="#000000" cx="59" cy="-635" rx="27" ry="18"/>
<text text-anchor="middle" x="59" y="-631.3" font-family="Times,serif" font-size="14.00" fill="#000000">6</text>
</g>
<!-- 5&#45;&gt;6 -->
<g id="edge13" class="edge">
<title>5&#45;&gt;6</title>
<path fill="none" stroke="#000000" d="M59,-703.9735C59,-692.1918 59,-676.5607 59,-663.1581"/>
<polygon fill="#000000" stroke="#000000" points="62.5001,-663.0033 59,-653.0034 55.5001,-663.0034 62.5001,-663.0033"/>
<text text-anchor="middle" x="68.5" y="-674.8" font-family="Times,serif" font-size="14.00" fill="#000000">TO</text>
</g>
<!-- 1 -->
<g id="node9" class="node">
<title>1</title>
<ellipse fill="none" stroke="#000000" cx="69" cy="-1331" rx="27" ry="18"/>
<text text-anchor="middle" x="69" y="-1327.3" font-family="Times,serif" font-size="14.00" fill="#000000">1</text>
</g>
<!-- 1&#45;&gt;2 -->
<g id="edge4" class="edge">
<title>1&#45;&gt;2</title>
<path fill="none" stroke="#000000" d="M69,-1312.9735C69,-1301.1918 69,-1285.5607 69,-1272.1581"/>
<polygon fill="#000000" stroke="#000000" points="72.5001,-1272.0033 69,-1262.0034 65.5001,-1272.0034 72.5001,-1272.0033"/>
<text text-anchor="middle" x="83" y="-1283.8" font-family="Times,serif" font-size="14.00" fill="#000000">letter</text>
</g>
<!-- 2&#45;2&#45;&gt;3 -->
<g id="edge6" class="edge">
<title>2&#45;2&#45;&gt;3</title>
<path fill="none" stroke="#000000" d="M59,-964.9735C59,-953.1918 59,-937.5607 59,-924.1581"/>
<polygon fill="#000000" stroke="#000000" points="62.5001,-924.0033 59,-914.0034 55.5001,-924.0034 62.5001,-924.0033"/>
<text text-anchor="middle" x="62.5" y="-935.8" font-family="Times,serif" font-size="14.00" fill="#000000">ε</text>
</g>
<!-- 4&#45;&gt;5 -->
<g id="edge12" class="edge">
<title>4&#45;&gt;5</title>
<path fill="none" stroke="#000000" d="M59,-790.9735C59,-779.1918 59,-763.5607 59,-750.1581"/>
<polygon fill="#000000" stroke="#000000" points="62.5001,-750.0033 59,-740.0034 55.5001,-750.0034 62.5001,-750.0033"/>
<text text-anchor="middle" x="72" y="-761.8" font-family="Times,serif" font-size="14.00" fill="#000000">:Exp</text>
</g>
<!-- 7&#45;3 -->
<g id="node12" class="node">
<title>7&#45;3</title>
<ellipse fill="none" stroke="#000000" cx="60" cy="-200" rx="27" ry="18"/>
<text text-anchor="middle" x="60" y="-196.3" font-family="Times,serif" font-size="14.00" fill="#000000">7&#45;3</text>
</g>
<!-- 8 -->
<g id="node14" class="node">
<title>8</title>
<ellipse fill="none" stroke="#000000" cx="60" cy="-113" rx="27" ry="18"/>
<text text-anchor="middle" x="60" y="-109.3" font-family="Times,serif" font-size="14.00" fill="#000000">8</text>
</g>
<!-- 7&#45;3&#45;&gt;8 -->
<g id="edge16" class="edge">
<title>7&#45;3&#45;&gt;8</title>
<path fill="none" stroke="#000000" d="M60,-181.9735C60,-170.1918 60,-154.5607 60,-141.1581"/>
<polygon fill="#000000" stroke="#000000" points="63.5001,-141.0033 60,-131.0034 56.5001,-141.0034 63.5001,-141.0033"/>
<text text-anchor="middle" x="63.5" y="-152.8" font-family="Times,serif" font-size="14.00" fill="#000000">ε</text>
</g>
<!-- 0&#45;&gt;1 -->
<g id="edge2" class="edge">
<title>0&#45;&gt;1</title>
<path fill="none" stroke="#000000" d="M69,-1399.9735C69,-1388.1918 69,-1372.5607 69,-1359.1581"/>
<polygon fill="#000000" stroke="#000000" points="72.5001,-1359.0033 69,-1349.0034 65.5001,-1359.0034 72.5001,-1359.0033"/>
<text text-anchor="middle" x="82.5" y="-1370.8" font-family="Times,serif" font-size="14.00" fill="#000000">FOR</text>
</g>
<!-- 0&#45;&gt;0 -->
<g id="edge3" class="edge">
<title>0&#45;&gt;0</title>
<path fill="none" stroke="#000000" d="M94.4435,-1424.6907C105.0278,-1425.1521 114,-1422.9219 114,-1418 114,-1414.77 110.136,-1412.6992 104.4881,-1411.7876"/>
<polygon fill="#000000" stroke="#000000" points="104.5987,-1408.289 94.4435,-1411.3093 104.2656,-1415.2811 104.5987,-1408.289"/>
<text text-anchor="middle" x="117.5" y="-1414.3" font-family="Times,serif" font-size="14.00" fill="#000000">ε</text>
</g>
<!-- 8&#45;&gt;9 -->
<g id="edge22" class="edge">
<title>8&#45;&gt;9</title>
<path fill="none" stroke="#000000" d="M60,-94.5848C60,-83.1105 60,-68.0231 60,-54.5774"/>
<polygon fill="#000000" stroke="#000000" points="63.5001,-54.2465 60,-44.2465 56.5001,-54.2466 63.5001,-54.2465"/>
<text text-anchor="middle" x="63.5" y="-65.8" font-family="Times,serif" font-size="14.00" fill="#000000">ε</text>
</g>
<!-- 7 -->
<g id="node16" class="node">
<title>7</title>
<ellipse fill="none" stroke="#000000" cx="59" cy="-548" rx="27" ry="18"/>
<text text-anchor="middle" x="59" y="-544.3" font-family="Times,serif" font-size="14.00" fill="#000000">7</text>
</g>
<!-- 6&#45;&gt;7 -->
<g id="edge14" class="edge">
<title>6&#45;&gt;7</title>
<path fill="none" stroke="#000000" d="M59,-616.9735C59,-605.1918 59,-589.5607 59,-576.1581"/>
<polygon fill="#000000" stroke="#000000" points="62.5001,-576.0033 59,-566.0034 55.5001,-576.0034 62.5001,-576.0033"/>
<text text-anchor="middle" x="72" y="-587.8" font-family="Times,serif" font-size="14.00" fill="#000000">:Exp</text>
</g>
<!-- 7&#45;0 -->
<g id="node17" class="node">
<title>7&#45;0</title>
<ellipse fill="none" stroke="#000000" cx="59" cy="-461" rx="27" ry="18"/>
<text text-anchor="middle" x="59" y="-457.3" font-family="Times,serif" font-size="14.00" fill="#000000">7&#45;0</text>
</g>
<!-- 7&#45;&gt;7&#45;0 -->
<g id="edge15" class="edge">
<title>7&#45;&gt;7&#45;0</title>
<path fill="none" stroke="#000000" d="M59,-529.9735C59,-518.1918 59,-502.5607 59,-489.1581"/>
<polygon fill="#000000" stroke="#000000" points="62.5001,-489.0033 59,-479.0034 55.5001,-489.0034 62.5001,-489.0033"/>
<text text-anchor="middle" x="62.5" y="-500.8" font-family="Times,serif" font-size="14.00" fill="#000000">ε</text>
</g>
<!-- 7&#45;0&#45;&gt;7&#45;1 -->
<g id="edge17" class="edge">
<title>7&#45;0&#45;&gt;7&#45;1</title>
<path fill="none" stroke="#000000" d="M49.1619,-443.8548C46.1623,-438.0243 43.1048,-431.3694 41,-425 38.6224,-417.805 36.8348,-409.8197 35.5064,-402.3444"/>
<polygon fill="#000000" stroke="#000000" points="38.9305,-401.5872 33.9207,-392.2516 32.0153,-402.6737 38.9305,-401.5872"/>
<text text-anchor="middle" x="57" y="-413.8" font-family="Times,serif" font-size="14.00" fill="#000000">STEP</text>
</g>
<!-- 7&#45;0&#45;&gt;7&#45;3 -->
<g id="edge18" class="edge">
<title>7&#45;0&#45;&gt;7&#45;3</title>
<path fill="none" stroke="#000000" d="M67.1793,-443.8055C69.5475,-437.9717 71.813,-431.3274 73,-425 74.2292,-418.4476 73.1181,-416.6656 73,-410 71.8887,-347.3038 72.7258,-331.5277 68,-269 66.9878,-255.607 65.3421,-240.8075 63.8057,-228.3602"/>
<polygon fill="#000000" stroke="#000000" points="67.2372,-227.5996 62.5024,-218.1217 60.2933,-228.4836 67.2372,-227.5996"/>
<text text-anchor="middle" x="74.5" y="-326.8" font-family="Times,serif" font-size="14.00" fill="#000000">ε</text>
</g>
<!-- 7&#45;0&#45;&gt;7&#45;0 -->
<g id="edge19" class="edge">
<title>7&#45;0&#45;&gt;7&#45;0</title>
<path fill="none" stroke="#000000" d="M83.5325,-468.752C94.5078,-469.4902 104,-466.9063 104,-461 104,-457.0317 99.7151,-454.5632 93.5743,-453.5944"/>
<polygon fill="#000000" stroke="#000000" points="93.6472,-450.0949 83.5325,-453.248 93.4059,-457.0908 93.6472,-450.0949"/>
<text text-anchor="middle" x="107.5" y="-457.3" font-family="Times,serif" font-size="14.00" fill="#000000">ε</text>
</g>
<!-- 7&#45;2&#45;&gt;7&#45;3 -->
<g id="edge21" class="edge">
<title>7&#45;2&#45;&gt;7&#45;3</title>
<path fill="none" stroke="#000000" d="M37.6662,-269.3943C41.5119,-257.4453 46.6766,-241.3978 51.0707,-227.7446"/>
<polygon fill="#000000" stroke="#000000" points="54.5141,-228.4696 54.2461,-217.8782 47.8507,-226.325 54.5141,-228.4696"/>
<text text-anchor="middle" x="51.5" y="-239.8" font-family="Times,serif" font-size="14.00" fill="#000000">ε</text>
</g>
</g>
</svg>
