<?xml version="1.0" encoding="UTF-8" standalone="no"?>
<!DOCTYPE svg PUBLIC "-//W3C//DTD SVG 1.1//EN"
 "http://www.w3.org/Graphics/SVG/1.1/DTD/svg11.dtd">
<!-- Generated by graphviz version 2.40.1 (20161225.0304)
 -->
<!-- Title: %3 Pages: 1 -->
<svg width="91pt" height="386pt"
 viewBox="0.00 0.00 90.55 386.00" xmlns="http://www.w3.org/2000/svg" xmlns:xlink="http://www.w3.org/1999/xlink">
<g id="graph0" class="graph" transform="scale(1 1) rotate(0) translate(4 382)">
<title>%3</title>
<polygon fill="#ffffff" stroke="transparent" points="-4,4 -4,-382 86.5473,-382 86.5473,4 -4,4"/>
<!-- fake0 -->
<g id="node1" class="node">
<title>fake0</title>
</g>
<!-- 0 -->
<g id="node3" class="node">
<title>0</title>
<ellipse fill="none" stroke="#000000" cx="30.5473" cy="-287" rx="27" ry="18"/>
<text text-anchor="middle" x="30.5473" y="-283.3" font-family="Times,serif" font-size="14.00" fill="#000000">0</text>
</g>
<!-- fake0&#45;&gt;0 -->
<g id="edge1" class="edge">
<title>fake0&#45;&gt;0</title>
<path fill="none" stroke="#000000" stroke-width="2" d="M30.5473,-341.9551C30.5473,-333.8828 30.5473,-324.1764 30.5473,-315.1817"/>
<polygon fill="#000000" stroke="#000000" stroke-width="2" points="34.0474,-315.0903 30.5473,-305.0904 27.0474,-315.0904 34.0474,-315.0903"/>
</g>
<!-- 2 -->
<g id="node2" class="node">
<title>2</title>
<ellipse fill="none" stroke="#000000" cx="30.5473" cy="-113" rx="27" ry="18"/>
<text text-anchor="middle" x="30.5473" y="-109.3" font-family="Times,serif" font-size="14.00" fill="#000000">2</text>
</g>
<!-- 3 -->
<g id="node4" class="node">
<title>3</title>
<ellipse fill="none" stroke="#000000" cx="30.5473" cy="-22" rx="18" ry="18"/>
<ellipse fill="none" stroke="#000000" cx="30.5473" cy="-22" rx="22" ry="22"/>
<text text-anchor="middle" x="30.5473" y="-18.3" font-family="Times,serif" font-size="14.00" fill="#000000">3</text>
</g>
<!-- 2&#45;&gt;3 -->
<g id="edge5" class="edge">
<title>2&#45;&gt;3</title>
<path fill="none" stroke="#000000" d="M30.5473,-94.5848C30.5473,-83.1105 30.5473,-68.0231 30.5473,-54.5774"/>
<polygon fill="#000000" stroke="#000000" points="34.0474,-54.2465 30.5473,-44.2465 27.0474,-54.2466 34.0474,-54.2465"/>
<text text-anchor="middle" x="34.0473" y="-65.8" font-family="Times,serif" font-size="14.00" fill="#000000">ε</text>
</g>
<!-- 0&#45;&gt;0 -->
<g id="edge3" class="edge">
<title>0&#45;&gt;0</title>
<path fill="none" stroke="#000000" d="M55.9908,-293.6907C66.5751,-294.1521 75.5473,-291.9219 75.5473,-287 75.5473,-283.77 71.6833,-281.6992 66.0354,-280.7876"/>
<polygon fill="#000000" stroke="#000000" points="66.146,-277.289 55.9908,-280.3093 65.8129,-284.2811 66.146,-277.289"/>
<text text-anchor="middle" x="79.0473" y="-283.3" font-family="Times,serif" font-size="14.00" fill="#000000">ε</text>
</g>
<!-- 1 -->
<g id="node5" class="node">
<title>1</title>
<ellipse fill="none" stroke="#000000" cx="30.5473" cy="-200" rx="27" ry="18"/>
<text text-anchor="middle" x="30.5473" y="-196.3" font-family="Times,serif" font-size="14.00" fill="#000000">1</text>
</g>
<!-- 0&#45;&gt;1 -->
<g id="edge2" class="edge">
<title>0&#45;&gt;1</title>
<path fill="none" stroke="#000000" d="M30.5473,-268.9735C30.5473,-257.1918 30.5473,-241.5607 30.5473,-228.1581"/>
<polygon fill="#000000" stroke="#000000" points="34.0474,-228.0033 30.5473,-218.0034 27.0474,-228.0034 34.0474,-228.0033"/>
<text text-anchor="middle" x="53.5473" y="-239.8" font-family="Times,serif" font-size="14.00" fill="#000000">GOSUB</text>
</g>
<!-- 1&#45;&gt;2 -->
<g id="edge4" class="edge">
<title>1&#45;&gt;2</title>
<path fill="none" stroke="#000000" d="M30.5473,-181.9735C30.5473,-170.1918 30.5473,-154.5607 30.5473,-141.1581"/>
<polygon fill="#000000" stroke="#000000" points="34.0474,-141.0033 30.5473,-131.0034 27.0474,-141.0034 34.0474,-141.0033"/>
<text text-anchor="middle" x="40.0473" y="-152.8" font-family="Times,serif" font-size="14.00" fill="#000000">:Int</text>
</g>
</g>
</svg>
