<?xml version="1.0" encoding="UTF-8" standalone="no"?>
<!DOCTYPE svg PUBLIC "-//W3C//DTD SVG 1.1//EN"
 "http://www.w3.org/Graphics/SVG/1.1/DTD/svg11.dtd">
<!-- Generated by graphviz version 2.40.1 (20161225.0304)
 -->
<!-- Title: %3 Pages: 1 -->
<svg width="126pt" height="842pt"
 viewBox="0.00 0.00 126.00 842.00" xmlns="http://www.w3.org/2000/svg" xmlns:xlink="http://www.w3.org/1999/xlink">
<g id="graph0" class="graph" transform="scale(1 1) rotate(0) translate(4 838)">
<title>%3</title>
<polygon fill="#ffffff" stroke="transparent" points="-4,4 -4,-838 122,-838 122,4 -4,4"/>
<!-- fake0 -->
<g id="node1" class="node">
<title>fake0</title>
</g>
<!-- 0 -->
<g id="node8" class="node">
<title>0</title>
<ellipse fill="none" stroke="#000000" cx="66" cy="-743" rx="27" ry="18"/>
<text text-anchor="middle" x="66" y="-739.3" font-family="Times,serif" font-size="14.00" fill="#000000">0</text>
</g>
<!-- fake0&#45;&gt;0 -->
<g id="edge1" class="edge">
<title>fake0&#45;&gt;0</title>
<path fill="none" stroke="#000000" stroke-width="2" d="M66,-797.9551C66,-789.8828 66,-780.1764 66,-771.1817"/>
<polygon fill="#000000" stroke="#000000" stroke-width="2" points="69.5001,-771.0903 66,-761.0904 62.5001,-771.0904 69.5001,-771.0903"/>
</g>
<!-- 0&#45;5 -->
<g id="node2" class="node">
<title>0&#45;5</title>
<ellipse fill="none" stroke="#000000" cx="55" cy="-287" rx="27" ry="18"/>
<text text-anchor="middle" x="55" y="-283.3" font-family="Times,serif" font-size="14.00" fill="#000000">0&#45;5</text>
</g>
<!-- 1 -->
<g id="node7" class="node">
<title>1</title>
<ellipse fill="none" stroke="#000000" cx="55" cy="-200" rx="27" ry="18"/>
<text text-anchor="middle" x="55" y="-196.3" font-family="Times,serif" font-size="14.00" fill="#000000">1</text>
</g>
<!-- 0&#45;5&#45;&gt;1 -->
<g id="edge4" class="edge">
<title>0&#45;5&#45;&gt;1</title>
<path fill="none" stroke="#000000" d="M55,-268.9735C55,-257.1918 55,-241.5607 55,-228.1581"/>
<polygon fill="#000000" stroke="#000000" points="58.5001,-228.0033 55,-218.0034 51.5001,-228.0034 58.5001,-228.0033"/>
<text text-anchor="middle" x="58.5" y="-239.8" font-family="Times,serif" font-size="14.00" fill="#000000">ε</text>
</g>
<!-- 0&#45;0 -->
<g id="node3" class="node">
<title>0&#45;0</title>
<ellipse fill="none" stroke="#000000" cx="66" cy="-656" rx="27" ry="18"/>
<text text-anchor="middle" x="66" y="-652.3" font-family="Times,serif" font-size="14.00" fill="#000000">0&#45;0</text>
</g>
<!-- 0&#45;0&#45;&gt;0&#45;0 -->
<g id="edge6" class="edge">
<title>0&#45;0&#45;&gt;0&#45;0</title>
<path fill="none" stroke="#000000" d="M90.5325,-663.752C101.5078,-664.4902 111,-661.9063 111,-656 111,-652.0317 106.7151,-649.5632 100.5743,-648.5944"/>
<polygon fill="#000000" stroke="#000000" points="100.6472,-645.0949 90.5325,-648.248 100.4059,-652.0908 100.6472,-645.0949"/>
<text text-anchor="middle" x="114.5" y="-652.3" font-family="Times,serif" font-size="14.00" fill="#000000">ε</text>
</g>
<!-- 0&#45;2 -->
<g id="node9" class="node">
<title>0&#45;2</title>
<ellipse fill="none" stroke="#000000" cx="27" cy="-569" rx="27" ry="18"/>
<text text-anchor="middle" x="27" y="-565.3" font-family="Times,serif" font-size="14.00" fill="#000000">0&#45;2</text>
</g>
<!-- 0&#45;0&#45;&gt;0&#45;2 -->
<g id="edge7" class="edge">
<title>0&#45;0&#45;&gt;0&#45;2</title>
<path fill="none" stroke="#000000" d="M58.1078,-638.3943C52.6272,-626.1683 45.2232,-609.6517 39.0134,-595.7992"/>
<polygon fill="#000000" stroke="#000000" points="42.0318,-593.976 34.7474,-586.2827 35.6442,-596.8395 42.0318,-593.976"/>
<text text-anchor="middle" x="52.5" y="-608.8" font-family="Times,serif" font-size="14.00" fill="#000000">ε</text>
</g>
<!-- 0&#45;1 -->
<g id="node10" class="node">
<title>0&#45;1</title>
<ellipse fill="none" stroke="#000000" cx="82" cy="-515" rx="27" ry="18"/>
<text text-anchor="middle" x="82" y="-511.3" font-family="Times,serif" font-size="14.00" fill="#000000">0&#45;1</text>
</g>
<!-- 0&#45;0&#45;&gt;0&#45;1 -->
<g id="edge5" class="edge">
<title>0&#45;0&#45;&gt;0&#45;1</title>
<path fill="none" stroke="#000000" d="M68.059,-637.8554C70.7831,-613.8485 75.6129,-571.2861 78.811,-543.1035"/>
<polygon fill="#000000" stroke="#000000" points="82.299,-543.4059 79.9489,-533.075 75.3437,-542.6166 82.299,-543.4059"/>
<text text-anchor="middle" x="90" y="-608.8" font-family="Times,serif" font-size="14.00" fill="#000000">GOTO</text>
</g>
<!-- 0&#45;3 -->
<g id="node4" class="node">
<title>0&#45;3</title>
<ellipse fill="none" stroke="#000000" cx="27" cy="-461" rx="27" ry="18"/>
<text text-anchor="middle" x="27" y="-457.3" font-family="Times,serif" font-size="14.00" fill="#000000">0&#45;3</text>
</g>
<!-- 0&#45;4 -->
<g id="node11" class="node">
<title>0&#45;4</title>
<ellipse fill="none" stroke="#000000" cx="27" cy="-374" rx="27" ry="18"/>
<text text-anchor="middle" x="27" y="-370.3" font-family="Times,serif" font-size="14.00" fill="#000000">0&#45;4</text>
</g>
<!-- 0&#45;3&#45;&gt;0&#45;4 -->
<g id="edge9" class="edge">
<title>0&#45;3&#45;&gt;0&#45;4</title>
<path fill="none" stroke="#000000" d="M27,-442.9735C27,-431.1918 27,-415.5607 27,-402.1581"/>
<polygon fill="#000000" stroke="#000000" points="30.5001,-402.0033 27,-392.0034 23.5001,-402.0034 30.5001,-402.0033"/>
<text text-anchor="middle" x="36.5" y="-413.8" font-family="Times,serif" font-size="14.00" fill="#000000">TO</text>
</g>
<!-- 3 -->
<g id="node5" class="node">
<title>3</title>
<ellipse fill="none" stroke="#000000" cx="55" cy="-22" rx="18" ry="18"/>
<ellipse fill="none" stroke="#000000" cx="55" cy="-22" rx="22" ry="22"/>
<text text-anchor="middle" x="55" y="-18.3" font-family="Times,serif" font-size="14.00" fill="#000000">3</text>
</g>
<!-- 2 -->
<g id="node6" class="node">
<title>2</title>
<ellipse fill="none" stroke="#000000" cx="55" cy="-113" rx="27" ry="18"/>
<text text-anchor="middle" x="55" y="-109.3" font-family="Times,serif" font-size="14.00" fill="#000000">2</text>
</g>
<!-- 2&#45;&gt;3 -->
<g id="edge13" class="edge">
<title>2&#45;&gt;3</title>
<path fill="none" stroke="#000000" d="M55,-94.5848C55,-83.1105 55,-68.0231 55,-54.5774"/>
<polygon fill="#000000" stroke="#000000" points="58.5001,-54.2465 55,-44.2465 51.5001,-54.2466 58.5001,-54.2465"/>
<text text-anchor="middle" x="58.5" y="-65.8" font-family="Times,serif" font-size="14.00" fill="#000000">ε</text>
</g>
<!-- 1&#45;&gt;2 -->
<g id="edge12" class="edge">
<title>1&#45;&gt;2</title>
<path fill="none" stroke="#000000" d="M55,-181.9735C55,-170.1918 55,-154.5607 55,-141.1581"/>
<polygon fill="#000000" stroke="#000000" points="58.5001,-141.0033 55,-131.0034 51.5001,-141.0034 58.5001,-141.0033"/>
<text text-anchor="middle" x="64.5" y="-152.8" font-family="Times,serif" font-size="14.00" fill="#000000">:Int</text>
</g>
<!-- 0&#45;&gt;0&#45;0 -->
<g id="edge2" class="edge">
<title>0&#45;&gt;0&#45;0</title>
<path fill="none" stroke="#000000" d="M66,-724.9735C66,-713.1918 66,-697.5607 66,-684.1581"/>
<polygon fill="#000000" stroke="#000000" points="69.5001,-684.0033 66,-674.0034 62.5001,-684.0034 69.5001,-684.0033"/>
<text text-anchor="middle" x="69.5" y="-695.8" font-family="Times,serif" font-size="14.00" fill="#000000">ε</text>
</g>
<!-- 0&#45;&gt;0 -->
<g id="edge3" class="edge">
<title>0&#45;&gt;0</title>
<path fill="none" stroke="#000000" d="M91.4435,-749.6907C102.0278,-750.1521 111,-747.9219 111,-743 111,-739.77 107.136,-737.6992 101.4881,-736.7876"/>
<polygon fill="#000000" stroke="#000000" points="101.5987,-733.289 91.4435,-736.3093 101.2656,-740.2811 101.5987,-733.289"/>
<text text-anchor="middle" x="114.5" y="-739.3" font-family="Times,serif" font-size="14.00" fill="#000000">ε</text>
</g>
<!-- 0&#45;2&#45;&gt;0&#45;3 -->
<g id="edge8" class="edge">
<title>0&#45;2&#45;&gt;0&#45;3</title>
<path fill="none" stroke="#000000" d="M26.393,-550.6879C26.2315,-545.0187 26.0799,-538.7517 26,-533 25.7778,-517.0015 25.7778,-512.9985 26,-497 26.0337,-494.5735 26.0802,-492.0553 26.1347,-489.5289"/>
<polygon fill="#000000" stroke="#000000" points="29.6391,-489.3973 26.393,-479.3121 22.6413,-489.2204 29.6391,-489.3973"/>
<text text-anchor="middle" x="36" y="-511.3" font-family="Times,serif" font-size="14.00" fill="#000000">GO</text>
</g>
<!-- 0&#45;1&#45;&gt;0&#45;5 -->
<g id="edge10" class="edge">
<title>0&#45;1&#45;&gt;0&#45;5</title>
<path fill="none" stroke="#000000" d="M79.8361,-496.7272C75.1343,-457.0232 63.9582,-362.6466 58.3422,-315.2228"/>
<polygon fill="#000000" stroke="#000000" points="61.7885,-314.5623 57.1367,-305.0433 54.8371,-315.3856 61.7885,-314.5623"/>
<text text-anchor="middle" x="74.5" y="-413.8" font-family="Times,serif" font-size="14.00" fill="#000000">ε</text>
</g>
<!-- 0&#45;4&#45;&gt;0&#45;5 -->
<g id="edge11" class="edge">
<title>0&#45;4&#45;&gt;0&#45;5</title>
<path fill="none" stroke="#000000" d="M32.6662,-356.3943C36.5119,-344.4453 41.6766,-328.3978 46.0707,-314.7446"/>
<polygon fill="#000000" stroke="#000000" points="49.5141,-315.4696 49.2461,-304.8782 42.8507,-313.325 49.5141,-315.4696"/>
<text text-anchor="middle" x="46.5" y="-326.8" font-family="Times,serif" font-size="14.00" fill="#000000">ε</text>
</g>
</g>
</svg>
