<?xml version="1.0" encoding="UTF-8" standalone="no"?>
<!DOCTYPE svg PUBLIC "-//W3C//DTD SVG 1.1//EN"
 "http://www.w3.org/Graphics/SVG/1.1/DTD/svg11.dtd">
<!-- Generated by graphviz version 2.40.1 (20161225.0304)
 -->
<!-- Title: %3 Pages: 1 -->
<svg width="393pt" height="1103pt"
 viewBox="0.00 0.00 393.00 1103.00" xmlns="http://www.w3.org/2000/svg" xmlns:xlink="http://www.w3.org/1999/xlink">
<g id="graph0" class="graph" transform="scale(1 1) rotate(0) translate(4 1099)">
<title>%3</title>
<polygon fill="#ffffff" stroke="transparent" points="-4,4 -4,-1099 389,-1099 389,4 -4,4"/>
<!-- fake0 -->
<g id="node1" class="node">
<title>fake0</title>
</g>
<!-- 0 -->
<g id="node15" class="node">
<title>0</title>
<ellipse fill="none" stroke="#000000" cx="206" cy="-1004" rx="27" ry="18"/>
<text text-anchor="middle" x="206" y="-1000.3" font-family="Times,serif" font-size="14.00" fill="#000000">0</text>
</g>
<!-- fake0&#45;&gt;0 -->
<g id="edge1" class="edge">
<title>fake0&#45;&gt;0</title>
<path fill="none" stroke="#000000" stroke-width="2" d="M206,-1058.9551C206,-1050.8828 206,-1041.1764 206,-1032.1817"/>
<polygon fill="#000000" stroke="#000000" stroke-width="2" points="209.5001,-1032.0903 206,-1022.0904 202.5001,-1032.0904 209.5001,-1032.0903"/>
</g>
<!-- 2 -->
<g id="node2" class="node">
<title>2</title>
<ellipse fill="none" stroke="#000000" cx="206" cy="-830" rx="27" ry="18"/>
<text text-anchor="middle" x="206" y="-826.3" font-family="Times,serif" font-size="14.00" fill="#000000">2</text>
</g>
<!-- 2&#45;0 -->
<g id="node18" class="node">
<title>2&#45;0</title>
<ellipse fill="none" stroke="#000000" cx="206" cy="-743" rx="27" ry="18"/>
<text text-anchor="middle" x="206" y="-739.3" font-family="Times,serif" font-size="14.00" fill="#000000">2&#45;0</text>
</g>
<!-- 2&#45;&gt;2&#45;0 -->
<g id="edge5" class="edge">
<title>2&#45;&gt;2&#45;0</title>
<path fill="none" stroke="#000000" d="M206,-811.9735C206,-800.1918 206,-784.5607 206,-771.1581"/>
<polygon fill="#000000" stroke="#000000" points="209.5001,-771.0033 206,-761.0034 202.5001,-771.0034 209.5001,-771.0033"/>
<text text-anchor="middle" x="209.5" y="-782.8" font-family="Times,serif" font-size="14.00" fill="#000000">ε</text>
</g>
<!-- 5 -->
<g id="node3" class="node">
<title>5</title>
<ellipse fill="none" stroke="#000000" cx="204" cy="-200" rx="27" ry="18"/>
<text text-anchor="middle" x="204" y="-196.3" font-family="Times,serif" font-size="14.00" fill="#000000">5</text>
</g>
<!-- 6 -->
<g id="node16" class="node">
<title>6</title>
<ellipse fill="none" stroke="#000000" cx="204" cy="-113" rx="27" ry="18"/>
<text text-anchor="middle" x="204" y="-109.3" font-family="Times,serif" font-size="14.00" fill="#000000">6</text>
</g>
<!-- 5&#45;&gt;6 -->
<g id="edge27" class="edge">
<title>5&#45;&gt;6</title>
<path fill="none" stroke="#000000" d="M204,-181.9735C204,-170.1918 204,-154.5607 204,-141.1581"/>
<polygon fill="#000000" stroke="#000000" points="207.5001,-141.0033 204,-131.0034 200.5001,-141.0034 207.5001,-141.0033"/>
<text text-anchor="middle" x="213.5" y="-152.8" font-family="Times,serif" font-size="14.00" fill="#000000">:Int</text>
</g>
<!-- 1 -->
<g id="node4" class="node">
<title>1</title>
<ellipse fill="none" stroke="#000000" cx="206" cy="-917" rx="27" ry="18"/>
<text text-anchor="middle" x="206" y="-913.3" font-family="Times,serif" font-size="14.00" fill="#000000">1</text>
</g>
<!-- 1&#45;&gt;2 -->
<g id="edge4" class="edge">
<title>1&#45;&gt;2</title>
<path fill="none" stroke="#000000" d="M206,-898.9735C206,-887.1918 206,-871.5607 206,-858.1581"/>
<polygon fill="#000000" stroke="#000000" points="209.5001,-858.0033 206,-848.0034 202.5001,-858.0034 209.5001,-858.0033"/>
<text text-anchor="middle" x="219" y="-869.8" font-family="Times,serif" font-size="14.00" fill="#000000">:Exp</text>
</g>
<!-- 2&#45;2 -->
<g id="node5" class="node">
<title>2&#45;2</title>
<ellipse fill="none" stroke="#000000" cx="27" cy="-656" rx="27" ry="18"/>
<text text-anchor="middle" x="27" y="-652.3" font-family="Times,serif" font-size="14.00" fill="#000000">2&#45;2</text>
</g>
<!-- 2&#45;3 -->
<g id="node10" class="node">
<title>2&#45;3</title>
<ellipse fill="none" stroke="#000000" cx="27" cy="-548" rx="27" ry="18"/>
<text text-anchor="middle" x="27" y="-544.3" font-family="Times,serif" font-size="14.00" fill="#000000">2&#45;3</text>
</g>
<!-- 2&#45;2&#45;&gt;2&#45;3 -->
<g id="edge14" class="edge">
<title>2&#45;2&#45;&gt;2&#45;3</title>
<path fill="none" stroke="#000000" d="M27,-637.6793C27,-620.821 27,-595.5651 27,-576.147"/>
<polygon fill="#000000" stroke="#000000" points="30.5001,-576.0501 27,-566.0502 23.5001,-576.0502 30.5001,-576.0501"/>
<text text-anchor="middle" x="31.5" y="-598.3" font-family="Times,serif" font-size="14.00" fill="#000000">&gt;</text>
</g>
<!-- 2&#45;6 -->
<g id="node6" class="node">
<title>2&#45;6</title>
<ellipse fill="none" stroke="#000000" cx="99" cy="-656" rx="27" ry="18"/>
<text text-anchor="middle" x="99" y="-652.3" font-family="Times,serif" font-size="14.00" fill="#000000">2&#45;6</text>
</g>
<!-- 2&#45;7 -->
<g id="node14" class="node">
<title>2&#45;7</title>
<ellipse fill="none" stroke="#000000" cx="99" cy="-548" rx="27" ry="18"/>
<text text-anchor="middle" x="99" y="-544.3" font-family="Times,serif" font-size="14.00" fill="#000000">2&#45;7</text>
</g>
<!-- 2&#45;6&#45;&gt;2&#45;7 -->
<g id="edge16" class="edge">
<title>2&#45;6&#45;&gt;2&#45;7</title>
<path fill="none" stroke="#000000" d="M99,-637.6793C99,-620.821 99,-595.5651 99,-576.147"/>
<polygon fill="#000000" stroke="#000000" points="102.5001,-576.0501 99,-566.0502 95.5001,-576.0502 102.5001,-576.0501"/>
<text text-anchor="middle" x="103.5" y="-598.3" font-family="Times,serif" font-size="14.00" fill="#000000">&lt;</text>
</g>
<!-- 4 -->
<g id="node7" class="node">
<title>4</title>
<ellipse fill="none" stroke="#000000" cx="204" cy="-287" rx="27" ry="18"/>
<text text-anchor="middle" x="204" y="-283.3" font-family="Times,serif" font-size="14.00" fill="#000000">4</text>
</g>
<!-- 4&#45;&gt;5 -->
<g id="edge26" class="edge">
<title>4&#45;&gt;5</title>
<path fill="none" stroke="#000000" d="M204,-268.9735C204,-257.1918 204,-241.5607 204,-228.1581"/>
<polygon fill="#000000" stroke="#000000" points="207.5001,-228.0033 204,-218.0034 200.5001,-228.0034 207.5001,-228.0033"/>
<text text-anchor="middle" x="222.5" y="-239.8" font-family="Times,serif" font-size="14.00" fill="#000000">THEN</text>
</g>
<!-- 2&#45;9 -->
<g id="node8" class="node">
<title>2&#45;9</title>
<ellipse fill="none" stroke="#000000" cx="243" cy="-548" rx="27" ry="18"/>
<text text-anchor="middle" x="243" y="-544.3" font-family="Times,serif" font-size="14.00" fill="#000000">2&#45;9</text>
</g>
<!-- 2&#45;12 -->
<g id="node13" class="node">
<title>2&#45;12</title>
<ellipse fill="none" stroke="#000000" cx="204" cy="-461" rx="27" ry="18"/>
<text text-anchor="middle" x="204" y="-457.3" font-family="Times,serif" font-size="14.00" fill="#000000">2&#45;12</text>
</g>
<!-- 2&#45;9&#45;&gt;2&#45;12 -->
<g id="edge23" class="edge">
<title>2&#45;9&#45;&gt;2&#45;12</title>
<path fill="none" stroke="#000000" d="M235.1078,-530.3943C229.6272,-518.1683 222.2232,-501.6517 216.0134,-487.7992"/>
<polygon fill="#000000" stroke="#000000" points="219.0318,-485.976 211.7474,-478.2827 212.6442,-488.8395 219.0318,-485.976"/>
<text text-anchor="middle" x="228.5" y="-500.8" font-family="Times,serif" font-size="14.00" fill="#000000">ε</text>
</g>
<!-- 2&#45;10 -->
<g id="node9" class="node">
<title>2&#45;10</title>
<ellipse fill="none" stroke="#000000" cx="171" cy="-656" rx="27" ry="18"/>
<text text-anchor="middle" x="171" y="-652.3" font-family="Times,serif" font-size="14.00" fill="#000000">2&#45;10</text>
</g>
<!-- 2&#45;11 -->
<g id="node20" class="node">
<title>2&#45;11</title>
<ellipse fill="none" stroke="#000000" cx="171" cy="-548" rx="27" ry="18"/>
<text text-anchor="middle" x="171" y="-544.3" font-family="Times,serif" font-size="14.00" fill="#000000">2&#45;11</text>
</g>
<!-- 2&#45;10&#45;&gt;2&#45;11 -->
<g id="edge18" class="edge">
<title>2&#45;10&#45;&gt;2&#45;11</title>
<path fill="none" stroke="#000000" d="M171,-637.6793C171,-620.821 171,-595.5651 171,-576.147"/>
<polygon fill="#000000" stroke="#000000" points="174.5001,-576.0501 171,-566.0502 167.5001,-576.0502 174.5001,-576.0501"/>
<text text-anchor="middle" x="175.5" y="-598.3" font-family="Times,serif" font-size="14.00" fill="#000000">=</text>
</g>
<!-- 2&#45;3&#45;&gt;2&#45;12 -->
<g id="edge20" class="edge">
<title>2&#45;3&#45;&gt;2&#45;12</title>
<path fill="none" stroke="#000000" d="M48.6871,-537.119C53.4018,-534.764 58.3652,-532.2927 63,-530 100.7485,-511.327 144.3015,-490.0553 172.8967,-476.1263"/>
<polygon fill="#000000" stroke="#000000" points="174.532,-479.223 181.9907,-471.6985 171.4676,-472.9293 174.532,-479.223"/>
<text text-anchor="middle" x="132.5" y="-500.8" font-family="Times,serif" font-size="14.00" fill="#000000">ε</text>
</g>
<!-- 2&#45;8 -->
<g id="node11" class="node">
<title>2&#45;8</title>
<ellipse fill="none" stroke="#000000" cx="243" cy="-656" rx="27" ry="18"/>
<text text-anchor="middle" x="243" y="-652.3" font-family="Times,serif" font-size="14.00" fill="#000000">2&#45;8</text>
</g>
<!-- 2&#45;8&#45;&gt;2&#45;9 -->
<g id="edge17" class="edge">
<title>2&#45;8&#45;&gt;2&#45;9</title>
<path fill="none" stroke="#000000" d="M243,-637.6793C243,-620.821 243,-595.5651 243,-576.147"/>
<polygon fill="#000000" stroke="#000000" points="246.5001,-576.0501 243,-566.0502 239.5001,-576.0502 246.5001,-576.0501"/>
<text text-anchor="middle" x="251.5" y="-598.3" font-family="Times,serif" font-size="14.00" fill="#000000">&lt;=</text>
</g>
<!-- 3 -->
<g id="node12" class="node">
<title>3</title>
<ellipse fill="none" stroke="#000000" cx="204" cy="-374" rx="27" ry="18"/>
<text text-anchor="middle" x="204" y="-370.3" font-family="Times,serif" font-size="14.00" fill="#000000">3</text>
</g>
<!-- 3&#45;&gt;4 -->
<g id="edge25" class="edge">
<title>3&#45;&gt;4</title>
<path fill="none" stroke="#000000" d="M204,-355.9735C204,-344.1918 204,-328.5607 204,-315.1581"/>
<polygon fill="#000000" stroke="#000000" points="207.5001,-315.0033 204,-305.0034 200.5001,-315.0034 207.5001,-315.0033"/>
<text text-anchor="middle" x="217" y="-326.8" font-family="Times,serif" font-size="14.00" fill="#000000">:Exp</text>
</g>
<!-- 2&#45;12&#45;&gt;3 -->
<g id="edge6" class="edge">
<title>2&#45;12&#45;&gt;3</title>
<path fill="none" stroke="#000000" d="M204,-442.9735C204,-431.1918 204,-415.5607 204,-402.1581"/>
<polygon fill="#000000" stroke="#000000" points="207.5001,-402.0033 204,-392.0034 200.5001,-402.0034 207.5001,-402.0033"/>
<text text-anchor="middle" x="207.5" y="-413.8" font-family="Times,serif" font-size="14.00" fill="#000000">ε</text>
</g>
<!-- 2&#45;7&#45;&gt;2&#45;12 -->
<g id="edge22" class="edge">
<title>2&#45;7&#45;&gt;2&#45;12</title>
<path fill="none" stroke="#000000" d="M116.3386,-533.6337C133.4635,-519.4445 159.8259,-497.6014 179.1705,-481.573"/>
<polygon fill="#000000" stroke="#000000" points="181.5169,-484.1743 186.984,-475.099 177.0507,-478.7841 181.5169,-484.1743"/>
<text text-anchor="middle" x="161.5" y="-500.8" font-family="Times,serif" font-size="14.00" fill="#000000">ε</text>
</g>
<!-- 0&#45;&gt;1 -->
<g id="edge2" class="edge">
<title>0&#45;&gt;1</title>
<path fill="none" stroke="#000000" d="M206,-985.9735C206,-974.1918 206,-958.5607 206,-945.1581"/>
<polygon fill="#000000" stroke="#000000" points="209.5001,-945.0033 206,-935.0034 202.5001,-945.0034 209.5001,-945.0033"/>
<text text-anchor="middle" x="212.5" y="-956.8" font-family="Times,serif" font-size="14.00" fill="#000000">IF</text>
</g>
<!-- 0&#45;&gt;0 -->
<g id="edge3" class="edge">
<title>0&#45;&gt;0</title>
<path fill="none" stroke="#000000" d="M231.4435,-1010.6907C242.0278,-1011.1521 251,-1008.9219 251,-1004 251,-1000.77 247.136,-998.6992 241.4881,-997.7876"/>
<polygon fill="#000000" stroke="#000000" points="241.5987,-994.289 231.4435,-997.3093 241.2656,-1001.2811 241.5987,-994.289"/>
<text text-anchor="middle" x="254.5" y="-1000.3" font-family="Times,serif" font-size="14.00" fill="#000000">ε</text>
</g>
<!-- 7 -->
<g id="node17" class="node">
<title>7</title>
<ellipse fill="none" stroke="#000000" cx="204" cy="-22" rx="18" ry="18"/>
<ellipse fill="none" stroke="#000000" cx="204" cy="-22" rx="22" ry="22"/>
<text text-anchor="middle" x="204" y="-18.3" font-family="Times,serif" font-size="14.00" fill="#000000">7</text>
</g>
<!-- 6&#45;&gt;7 -->
<g id="edge28" class="edge">
<title>6&#45;&gt;7</title>
<path fill="none" stroke="#000000" d="M204,-94.5848C204,-83.1105 204,-68.0231 204,-54.5774"/>
<polygon fill="#000000" stroke="#000000" points="207.5001,-54.2465 204,-44.2465 200.5001,-54.2466 207.5001,-54.2465"/>
<text text-anchor="middle" x="207.5" y="-65.8" font-family="Times,serif" font-size="14.00" fill="#000000">ε</text>
</g>
<!-- 2&#45;0&#45;&gt;2&#45;2 -->
<g id="edge11" class="edge">
<title>2&#45;0&#45;&gt;2&#45;2</title>
<path fill="none" stroke="#000000" d="M183.6603,-732.3404C155.4794,-718.8662 105.5552,-694.9043 63,-674 61.2596,-673.145 59.4734,-672.2639 57.672,-671.3724"/>
<polygon fill="#000000" stroke="#000000" points="59.19,-668.2185 48.6775,-666.9005 56.0736,-674.4865 59.19,-668.2185"/>
<text text-anchor="middle" x="133.5" y="-695.8" font-family="Times,serif" font-size="14.00" fill="#000000">ε</text>
</g>
<!-- 2&#45;0&#45;&gt;2&#45;6 -->
<g id="edge12" class="edge">
<title>2&#45;0&#45;&gt;2&#45;6</title>
<path fill="none" stroke="#000000" d="M188.8086,-729.0219C171.2592,-714.7528 143.8406,-692.4592 123.9133,-676.2566"/>
<polygon fill="#000000" stroke="#000000" points="126.1157,-673.5364 116.1487,-669.9434 121.6996,-678.9677 126.1157,-673.5364"/>
<text text-anchor="middle" x="162.5" y="-695.8" font-family="Times,serif" font-size="14.00" fill="#000000">ε</text>
</g>
<!-- 2&#45;0&#45;&gt;2&#45;10 -->
<g id="edge13" class="edge">
<title>2&#45;0&#45;&gt;2&#45;10</title>
<path fill="none" stroke="#000000" d="M198.9172,-725.3943C194.0309,-713.2482 187.4409,-696.8674 181.8907,-683.0711"/>
<polygon fill="#000000" stroke="#000000" points="185.0517,-681.5506 178.0722,-673.5796 178.5575,-684.1633 185.0517,-681.5506"/>
<text text-anchor="middle" x="193.5" y="-695.8" font-family="Times,serif" font-size="14.00" fill="#000000">ε</text>
</g>
<!-- 2&#45;0&#45;&gt;2&#45;8 -->
<g id="edge8" class="edge">
<title>2&#45;0&#45;&gt;2&#45;8</title>
<path fill="none" stroke="#000000" d="M213.4875,-725.3943C218.6531,-713.2482 225.6196,-696.8674 231.487,-683.0711"/>
<polygon fill="#000000" stroke="#000000" points="234.8308,-684.1517 235.5236,-673.5796 228.3891,-681.4121 234.8308,-684.1517"/>
<text text-anchor="middle" x="229.5" y="-695.8" font-family="Times,serif" font-size="14.00" fill="#000000">ε</text>
</g>
<!-- 2&#45;0&#45;&gt;2&#45;0 -->
<g id="edge9" class="edge">
<title>2&#45;0&#45;&gt;2&#45;0</title>
<path fill="none" stroke="#000000" d="M230.5325,-750.752C241.5078,-751.4902 251,-748.9063 251,-743 251,-739.0317 246.7151,-736.5632 240.5743,-735.5944"/>
<polygon fill="#000000" stroke="#000000" points="240.6472,-732.0949 230.5325,-735.248 240.4059,-739.0908 240.6472,-732.0949"/>
<text text-anchor="middle" x="254.5" y="-739.3" font-family="Times,serif" font-size="14.00" fill="#000000">ε</text>
</g>
<!-- 2&#45;1 -->
<g id="node19" class="node">
<title>2&#45;1</title>
<ellipse fill="none" stroke="#000000" cx="302" cy="-602" rx="27" ry="18"/>
<text text-anchor="middle" x="302" y="-598.3" font-family="Times,serif" font-size="14.00" fill="#000000">2&#45;1</text>
</g>
<!-- 2&#45;0&#45;&gt;2&#45;1 -->
<g id="edge7" class="edge">
<title>2&#45;0&#45;&gt;2&#45;1</title>
<path fill="none" stroke="#000000" d="M224.7228,-729.6945C241.19,-717.086 264.703,-696.7343 279,-674 287.4058,-660.6336 292.991,-643.9255 296.55,-629.9702"/>
<polygon fill="#000000" stroke="#000000" points="300.0274,-630.4695 298.8899,-619.936 293.2103,-628.8798 300.0274,-630.4695"/>
<text text-anchor="middle" x="272.5" y="-695.8" font-family="Times,serif" font-size="14.00" fill="#000000">&gt;=</text>
</g>
<!-- 2&#45;4 -->
<g id="node21" class="node">
<title>2&#45;4</title>
<ellipse fill="none" stroke="#000000" cx="355" cy="-656" rx="27" ry="18"/>
<text text-anchor="middle" x="355" y="-652.3" font-family="Times,serif" font-size="14.00" fill="#000000">2&#45;4</text>
</g>
<!-- 2&#45;0&#45;&gt;2&#45;4 -->
<g id="edge10" class="edge">
<title>2&#45;0&#45;&gt;2&#45;4</title>
<path fill="none" stroke="#000000" d="M232.6859,-739.6349C257.3422,-735.4258 293.9837,-726.2738 320,-707 328.8013,-700.4797 336.1454,-691.0589 341.7963,-682.084"/>
<polygon fill="#000000" stroke="#000000" points="344.8572,-683.7829 346.874,-673.3817 338.8112,-680.255 344.8572,-683.7829"/>
<text text-anchor="middle" x="337.5" y="-695.8" font-family="Times,serif" font-size="14.00" fill="#000000">ε</text>
</g>
<!-- 2&#45;1&#45;&gt;2&#45;12 -->
<g id="edge19" class="edge">
<title>2&#45;1&#45;&gt;2&#45;12</title>
<path fill="none" stroke="#000000" d="M298.9468,-584.028C295.7476,-568.7508 289.6612,-546.7021 279,-530 266.4348,-510.3151 246.8888,-492.5863 230.9009,-480.0294"/>
<polygon fill="#000000" stroke="#000000" points="232.9966,-477.2259 222.9204,-473.9514 228.7553,-482.7948 232.9966,-477.2259"/>
<text text-anchor="middle" x="297.5" y="-544.3" font-family="Times,serif" font-size="14.00" fill="#000000">ε</text>
</g>
<!-- 2&#45;11&#45;&gt;2&#45;12 -->
<g id="edge24" class="edge">
<title>2&#45;11&#45;&gt;2&#45;12</title>
<path fill="none" stroke="#000000" d="M177.678,-530.3943C182.2852,-518.2482 188.4986,-501.8674 193.7316,-488.0711"/>
<polygon fill="#000000" stroke="#000000" points="197.0578,-489.1709 197.3319,-478.5796 190.5128,-486.6882 197.0578,-489.1709"/>
<text text-anchor="middle" x="192.5" y="-500.8" font-family="Times,serif" font-size="14.00" fill="#000000">ε</text>
</g>
<!-- 2&#45;5 -->
<g id="node22" class="node">
<title>2&#45;5</title>
<ellipse fill="none" stroke="#000000" cx="358" cy="-548" rx="27" ry="18"/>
<text text-anchor="middle" x="358" y="-544.3" font-family="Times,serif" font-size="14.00" fill="#000000">2&#45;5</text>
</g>
<!-- 2&#45;4&#45;&gt;2&#45;5 -->
<g id="edge15" class="edge">
<title>2&#45;4&#45;&gt;2&#45;5</title>
<path fill="none" stroke="#000000" d="M355.5089,-637.6793C355.9772,-620.821 356.6787,-595.5651 357.2181,-576.147"/>
<polygon fill="#000000" stroke="#000000" points="360.7195,-576.1435 357.4986,-566.0502 353.7222,-575.9491 360.7195,-576.1435"/>
</g>
<!-- 2&#45;5&#45;&gt;2&#45;12 -->
<g id="edge21" class="edge">
<title>2&#45;5&#45;&gt;2&#45;12</title>
<path fill="none" stroke="#000000" d="M348.8601,-530.6042C342.2178,-519.5239 332.2594,-505.6724 320,-497 296.5021,-480.3774 265.0831,-471.2463 240.8706,-466.3435"/>
<polygon fill="#000000" stroke="#000000" points="241.4525,-462.8917 230.9792,-464.4917 240.1643,-469.7722 241.4525,-462.8917"/>
<text text-anchor="middle" x="338.5" y="-500.8" font-family="Times,serif" font-size="14.00" fill="#000000">ε</text>
</g>
</g>
</svg>
