<?xml version="1.0" encoding="UTF-8" standalone="no"?>
<!DOCTYPE svg PUBLIC "-//W3C//DTD SVG 1.1//EN"
 "http://www.w3.org/Graphics/SVG/1.1/DTD/svg11.dtd">
<!-- Generated by graphviz version 2.40.1 (20161225.0304)
 -->
<!-- Title: %3 Pages: 1 -->
<svg width="164pt" height="473pt"
 viewBox="0.00 0.00 164.00 473.00" xmlns="http://www.w3.org/2000/svg" xmlns:xlink="http://www.w3.org/1999/xlink">
<g id="graph0" class="graph" transform="scale(1 1) rotate(0) translate(4 469)">
<title>%3</title>
<polygon fill="#ffffff" stroke="transparent" points="-4,4 -4,-469 160,-469 160,4 -4,4"/>
<!-- fake0 -->
<g id="node1" class="node">
<title>fake0</title>
</g>
<!-- 0 -->
<g id="node7" class="node">
<title>0</title>
<ellipse fill="none" stroke="#000000" cx="57" cy="-374" rx="27" ry="18"/>
<text text-anchor="middle" x="57" y="-370.3" font-family="Times,serif" font-size="14.00" fill="#000000">0</text>
</g>
<!-- fake0&#45;&gt;0 -->
<g id="edge1" class="edge">
<title>fake0&#45;&gt;0</title>
<path fill="none" stroke="#000000" stroke-width="2" d="M57,-428.9551C57,-420.8828 57,-411.1764 57,-402.1817"/>
<polygon fill="#000000" stroke="#000000" stroke-width="2" points="60.5001,-402.0903 57,-392.0904 53.5001,-402.0904 60.5001,-402.0903"/>
</g>
<!-- 1&#45;1 -->
<g id="node2" class="node">
<title>1&#45;1</title>
<ellipse fill="none" stroke="#000000" cx="57" cy="-113" rx="27" ry="18"/>
<text text-anchor="middle" x="57" y="-109.3" font-family="Times,serif" font-size="14.00" fill="#000000">1&#45;1</text>
</g>
<!-- 1&#45;2 -->
<g id="node5" class="node">
<title>1&#45;2</title>
<ellipse fill="none" stroke="#000000" cx="27" cy="-22" rx="27" ry="18"/>
<text text-anchor="middle" x="27" y="-18.3" font-family="Times,serif" font-size="14.00" fill="#000000">1&#45;2</text>
</g>
<!-- 1&#45;1&#45;&gt;1&#45;2 -->
<g id="edge8" class="edge">
<title>1&#45;1&#45;&gt;1&#45;2</title>
<path fill="none" stroke="#000000" d="M51.073,-95.0213C46.7719,-81.9749 40.8768,-64.0929 35.9968,-49.2904"/>
<polygon fill="#000000" stroke="#000000" points="39.2677,-48.033 32.8126,-39.6317 32.6196,-50.2248 39.2677,-48.033"/>
<text text-anchor="middle" x="48.5" y="-65.8" font-family="Times,serif" font-size="14.00" fill="#000000">ε</text>
</g>
<!-- 3 -->
<g id="node3" class="node">
<title>3</title>
<ellipse fill="none" stroke="#000000" cx="129" cy="-22" rx="18" ry="18"/>
<ellipse fill="none" stroke="#000000" cx="129" cy="-22" rx="22" ry="22"/>
<text text-anchor="middle" x="129" y="-18.3" font-family="Times,serif" font-size="14.00" fill="#000000">3</text>
</g>
<!-- 2 -->
<g id="node4" class="node">
<title>2</title>
<ellipse fill="none" stroke="#000000" cx="129" cy="-113" rx="27" ry="18"/>
<text text-anchor="middle" x="129" y="-109.3" font-family="Times,serif" font-size="14.00" fill="#000000">2</text>
</g>
<!-- 2&#45;&gt;3 -->
<g id="edge10" class="edge">
<title>2&#45;&gt;3</title>
<path fill="none" stroke="#000000" d="M129,-94.5848C129,-83.1105 129,-68.0231 129,-54.5774"/>
<polygon fill="#000000" stroke="#000000" points="132.5001,-54.2465 129,-44.2465 125.5001,-54.2466 132.5001,-54.2465"/>
<text text-anchor="middle" x="132.5" y="-65.8" font-family="Times,serif" font-size="14.00" fill="#000000">ε</text>
</g>
<!-- 1&#45;0 -->
<g id="node8" class="node">
<title>1&#45;0</title>
<ellipse fill="none" stroke="#000000" cx="57" cy="-200" rx="27" ry="18"/>
<text text-anchor="middle" x="57" y="-196.3" font-family="Times,serif" font-size="14.00" fill="#000000">1&#45;0</text>
</g>
<!-- 1&#45;2&#45;&gt;1&#45;0 -->
<g id="edge9" class="edge">
<title>1&#45;2&#45;&gt;1&#45;0</title>
<path fill="none" stroke="#000000" d="M20.6876,-39.7077C13.8479,-61.5599 5.0363,-99.6683 14,-131 18.6686,-147.3185 28.4389,-163.5309 37.488,-176.1363"/>
<polygon fill="#000000" stroke="#000000" points="34.7672,-178.342 43.566,-184.2439 40.3681,-174.1432 34.7672,-178.342"/>
<text text-anchor="middle" x="17.5" y="-109.3" font-family="Times,serif" font-size="14.00" fill="#000000">ε</text>
</g>
<!-- 1 -->
<g id="node6" class="node">
<title>1</title>
<ellipse fill="none" stroke="#000000" cx="57" cy="-287" rx="27" ry="18"/>
<text text-anchor="middle" x="57" y="-283.3" font-family="Times,serif" font-size="14.00" fill="#000000">1</text>
</g>
<!-- 1&#45;&gt;1&#45;0 -->
<g id="edge4" class="edge">
<title>1&#45;&gt;1&#45;0</title>
<path fill="none" stroke="#000000" d="M57,-268.9735C57,-257.1918 57,-241.5607 57,-228.1581"/>
<polygon fill="#000000" stroke="#000000" points="60.5001,-228.0033 57,-218.0034 53.5001,-228.0034 60.5001,-228.0033"/>
<text text-anchor="middle" x="60.5" y="-239.8" font-family="Times,serif" font-size="14.00" fill="#000000">ε</text>
</g>
<!-- 0&#45;&gt;1 -->
<g id="edge2" class="edge">
<title>0&#45;&gt;1</title>
<path fill="none" stroke="#000000" d="M57,-355.9735C57,-344.1918 57,-328.5607 57,-315.1581"/>
<polygon fill="#000000" stroke="#000000" points="60.5001,-315.0033 57,-305.0034 53.5001,-315.0034 60.5001,-315.0033"/>
<text text-anchor="middle" x="69.5" y="-326.8" font-family="Times,serif" font-size="14.00" fill="#000000">digit</text>
</g>
<!-- 0&#45;&gt;0 -->
<g id="edge3" class="edge">
<title>0&#45;&gt;0</title>
<path fill="none" stroke="#000000" d="M82.4435,-380.6907C93.0278,-381.1521 102,-378.9219 102,-374 102,-370.77 98.136,-368.6992 92.4881,-367.7876"/>
<polygon fill="#000000" stroke="#000000" points="92.5987,-364.289 82.4435,-367.3093 92.2656,-371.2811 92.5987,-364.289"/>
<text text-anchor="middle" x="105.5" y="-370.3" font-family="Times,serif" font-size="14.00" fill="#000000">ε</text>
</g>
<!-- 1&#45;0&#45;&gt;1&#45;1 -->
<g id="edge7" class="edge">
<title>1&#45;0&#45;&gt;1&#45;1</title>
<path fill="none" stroke="#000000" d="M57,-181.9735C57,-170.1918 57,-154.5607 57,-141.1581"/>
<polygon fill="#000000" stroke="#000000" points="60.5001,-141.0033 57,-131.0034 53.5001,-141.0034 60.5001,-141.0033"/>
<text text-anchor="middle" x="69.5" y="-152.8" font-family="Times,serif" font-size="14.00" fill="#000000">digit</text>
</g>
<!-- 1&#45;0&#45;&gt;2 -->
<g id="edge5" class="edge">
<title>1&#45;0&#45;&gt;2</title>
<path fill="none" stroke="#000000" d="M70.2059,-184.0429C81.1672,-170.798 96.9179,-151.7659 109.3584,-136.7336"/>
<polygon fill="#000000" stroke="#000000" points="112.1985,-138.7914 115.8778,-128.856 106.8057,-134.3284 112.1985,-138.7914"/>
<text text-anchor="middle" x="100.5" y="-152.8" font-family="Times,serif" font-size="14.00" fill="#000000">ε</text>
</g>
<!-- 1&#45;0&#45;&gt;1&#45;0 -->
<g id="edge6" class="edge">
<title>1&#45;0&#45;&gt;1&#45;0</title>
<path fill="none" stroke="#000000" d="M81.5325,-207.752C92.5078,-208.4902 102,-205.9063 102,-200 102,-196.0317 97.7151,-193.5632 91.5743,-192.5944"/>
<polygon fill="#000000" stroke="#000000" points="91.6472,-189.0949 81.5325,-192.248 91.4059,-196.0908 91.6472,-189.0949"/>
<text text-anchor="middle" x="105.5" y="-196.3" font-family="Times,serif" font-size="14.00" fill="#000000">ε</text>
</g>
</g>
</svg>
