<?xml version="1.0" encoding="UTF-8" standalone="no"?>
<!DOCTYPE svg PUBLIC "-//W3C//DTD SVG 1.1//EN"
 "http://www.w3.org/Graphics/SVG/1.1/DTD/svg11.dtd">
<!-- Generated by graphviz version 2.40.1 (20161225.0304)
 -->
<!-- Title: %3 Pages: 1 -->
<svg width="129pt" height="734pt"
 viewBox="0.00 0.00 129.00 734.00" xmlns="http://www.w3.org/2000/svg" xmlns:xlink="http://www.w3.org/1999/xlink">
<g id="graph0" class="graph" transform="scale(1 1) rotate(0) translate(4 730)">
<title>%3</title>
<polygon fill="#ffffff" stroke="transparent" points="-4,4 -4,-730 125,-730 125,4 -4,4"/>
<!-- fake0 -->
<g id="node1" class="node">
<title>fake0</title>
</g>
<!-- 0 -->
<g id="node9" class="node">
<title>0</title>
<ellipse fill="none" stroke="#000000" cx="69" cy="-635" rx="27" ry="18"/>
<text text-anchor="middle" x="69" y="-631.3" font-family="Times,serif" font-size="14.00" fill="#000000">0</text>
</g>
<!-- fake0&#45;&gt;0 -->
<g id="edge1" class="edge">
<title>fake0&#45;&gt;0</title>
<path fill="none" stroke="#000000" stroke-width="2" d="M69,-689.9551C69,-681.8828 69,-672.1764 69,-663.1817"/>
<polygon fill="#000000" stroke="#000000" stroke-width="2" points="72.5001,-663.0903 69,-653.0904 65.5001,-663.0904 72.5001,-663.0903"/>
</g>
<!-- 2&#45;0 -->
<g id="node2" class="node">
<title>2&#45;0</title>
<ellipse fill="none" stroke="#000000" cx="69" cy="-374" rx="27" ry="18"/>
<text text-anchor="middle" x="69" y="-370.3" font-family="Times,serif" font-size="14.00" fill="#000000">2&#45;0</text>
</g>
<!-- 2&#45;0&#45;&gt;2&#45;0 -->
<g id="edge8" class="edge">
<title>2&#45;0&#45;&gt;2&#45;0</title>
<path fill="none" stroke="#000000" d="M93.5325,-381.752C104.5078,-382.4902 114,-379.9063 114,-374 114,-370.0317 109.7151,-367.5632 103.5743,-366.5944"/>
<polygon fill="#000000" stroke="#000000" points="103.6472,-363.0949 93.5325,-366.248 103.4059,-370.0908 103.6472,-363.0949"/>
<text text-anchor="middle" x="117.5" y="-370.3" font-family="Times,serif" font-size="14.00" fill="#000000">ε</text>
</g>
<!-- 2&#45;1 -->
<g id="node4" class="node">
<title>2&#45;1</title>
<ellipse fill="none" stroke="#000000" cx="27" cy="-287" rx="27" ry="18"/>
<text text-anchor="middle" x="27" y="-283.3" font-family="Times,serif" font-size="14.00" fill="#000000">2&#45;1</text>
</g>
<!-- 2&#45;0&#45;&gt;2&#45;1 -->
<g id="edge7" class="edge">
<title>2&#45;0&#45;&gt;2&#45;1</title>
<path fill="none" stroke="#000000" d="M60.31,-356.8283C57.3278,-350.8806 53.9894,-344.161 51,-338 47.1734,-330.1136 43.0863,-321.5019 39.3894,-313.638"/>
<polygon fill="#000000" stroke="#000000" points="42.5281,-312.0875 35.1173,-304.5159 36.1888,-315.0564 42.5281,-312.0875"/>
<text text-anchor="middle" x="63.5" y="-326.8" font-family="Times,serif" font-size="14.00" fill="#000000">digit</text>
</g>
<!-- 2&#45;2 -->
<g id="node7" class="node">
<title>2&#45;2</title>
<ellipse fill="none" stroke="#000000" cx="59" cy="-200" rx="27" ry="18"/>
<text text-anchor="middle" x="59" y="-196.3" font-family="Times,serif" font-size="14.00" fill="#000000">2&#45;2</text>
</g>
<!-- 2&#45;0&#45;&gt;2&#45;2 -->
<g id="edge9" class="edge">
<title>2&#45;0&#45;&gt;2&#45;2</title>
<path fill="none" stroke="#000000" d="M73.1724,-356.1538C74.33,-350.3937 75.4262,-343.9575 76,-338 79.694,-299.6487 72.1735,-255.4761 65.9865,-227.649"/>
<polygon fill="#000000" stroke="#000000" points="69.3779,-226.7798 63.7068,-217.8305 62.5593,-228.3631 69.3779,-226.7798"/>
<text text-anchor="middle" x="79.5" y="-283.3" font-family="Times,serif" font-size="14.00" fill="#000000">ε</text>
</g>
<!-- 3 -->
<g id="node3" class="node">
<title>3</title>
<ellipse fill="none" stroke="#000000" cx="59" cy="-113" rx="27" ry="18"/>
<text text-anchor="middle" x="59" y="-109.3" font-family="Times,serif" font-size="14.00" fill="#000000">3</text>
</g>
<!-- 4 -->
<g id="node8" class="node">
<title>4</title>
<ellipse fill="none" stroke="#000000" cx="59" cy="-22" rx="18" ry="18"/>
<ellipse fill="none" stroke="#000000" cx="59" cy="-22" rx="22" ry="22"/>
<text text-anchor="middle" x="59" y="-18.3" font-family="Times,serif" font-size="14.00" fill="#000000">4</text>
</g>
<!-- 3&#45;&gt;4 -->
<g id="edge11" class="edge">
<title>3&#45;&gt;4</title>
<path fill="none" stroke="#000000" d="M59,-94.5848C59,-83.1105 59,-68.0231 59,-54.5774"/>
<polygon fill="#000000" stroke="#000000" points="62.5001,-54.2465 59,-44.2465 55.5001,-54.2466 62.5001,-54.2465"/>
<text text-anchor="middle" x="62.5" y="-65.8" font-family="Times,serif" font-size="14.00" fill="#000000">ε</text>
</g>
<!-- 2&#45;1&#45;&gt;2&#45;2 -->
<g id="edge10" class="edge">
<title>2&#45;1&#45;&gt;2&#45;2</title>
<path fill="none" stroke="#000000" d="M33.4757,-269.3943C37.9432,-257.2482 43.9683,-240.8674 49.0428,-227.0711"/>
<polygon fill="#000000" stroke="#000000" points="52.3667,-228.1731 52.534,-217.5796 45.797,-225.7566 52.3667,-228.1731"/>
<text text-anchor="middle" x="48.5" y="-239.8" font-family="Times,serif" font-size="14.00" fill="#000000">ε</text>
</g>
<!-- 2 -->
<g id="node5" class="node">
<title>2</title>
<ellipse fill="none" stroke="#000000" cx="69" cy="-461" rx="27" ry="18"/>
<text text-anchor="middle" x="69" y="-457.3" font-family="Times,serif" font-size="14.00" fill="#000000">2</text>
</g>
<!-- 2&#45;&gt;2&#45;0 -->
<g id="edge5" class="edge">
<title>2&#45;&gt;2&#45;0</title>
<path fill="none" stroke="#000000" d="M69,-442.9735C69,-431.1918 69,-415.5607 69,-402.1581"/>
<polygon fill="#000000" stroke="#000000" points="72.5001,-402.0033 69,-392.0034 65.5001,-402.0034 72.5001,-402.0033"/>
<text text-anchor="middle" x="72.5" y="-413.8" font-family="Times,serif" font-size="14.00" fill="#000000">ε</text>
</g>
<!-- 1 -->
<g id="node6" class="node">
<title>1</title>
<ellipse fill="none" stroke="#000000" cx="69" cy="-548" rx="27" ry="18"/>
<text text-anchor="middle" x="69" y="-544.3" font-family="Times,serif" font-size="14.00" fill="#000000">1</text>
</g>
<!-- 1&#45;&gt;2 -->
<g id="edge4" class="edge">
<title>1&#45;&gt;2</title>
<path fill="none" stroke="#000000" d="M69,-529.9735C69,-518.1918 69,-502.5607 69,-489.1581"/>
<polygon fill="#000000" stroke="#000000" points="72.5001,-489.0033 69,-479.0034 65.5001,-489.0034 72.5001,-489.0033"/>
<text text-anchor="middle" x="83" y="-500.8" font-family="Times,serif" font-size="14.00" fill="#000000">letter</text>
</g>
<!-- 2&#45;2&#45;&gt;3 -->
<g id="edge6" class="edge">
<title>2&#45;2&#45;&gt;3</title>
<path fill="none" stroke="#000000" d="M59,-181.9735C59,-170.1918 59,-154.5607 59,-141.1581"/>
<polygon fill="#000000" stroke="#000000" points="62.5001,-141.0033 59,-131.0034 55.5001,-141.0034 62.5001,-141.0033"/>
<text text-anchor="middle" x="62.5" y="-152.8" font-family="Times,serif" font-size="14.00" fill="#000000">ε</text>
</g>
<!-- 0&#45;&gt;1 -->
<g id="edge2" class="edge">
<title>0&#45;&gt;1</title>
<path fill="none" stroke="#000000" d="M69,-616.9735C69,-605.1918 69,-589.5607 69,-576.1581"/>
<polygon fill="#000000" stroke="#000000" points="72.5001,-576.0033 69,-566.0034 65.5001,-576.0034 72.5001,-576.0033"/>
<text text-anchor="middle" x="87.5" y="-587.8" font-family="Times,serif" font-size="14.00" fill="#000000">NEXT</text>
</g>
<!-- 0&#45;&gt;0 -->
<g id="edge3" class="edge">
<title>0&#45;&gt;0</title>
<path fill="none" stroke="#000000" d="M94.4435,-641.6907C105.0278,-642.1521 114,-639.9219 114,-635 114,-631.77 110.136,-629.6992 104.4881,-628.7876"/>
<polygon fill="#000000" stroke="#000000" points="104.5987,-625.289 94.4435,-628.3093 104.2656,-632.2811 104.5987,-625.289"/>
<text text-anchor="middle" x="117.5" y="-631.3" font-family="Times,serif" font-size="14.00" fill="#000000">ε</text>
</g>
</g>
</svg>
