<?xml version="1.0" encoding="UTF-8" standalone="no"?>
<!DOCTYPE svg PUBLIC "-//W3C//DTD SVG 1.1//EN"
 "http://www.w3.org/Graphics/SVG/1.1/DTD/svg11.dtd">
<!-- Generated by graphviz version 2.40.1 (20161225.0304)
 -->
<!-- Title: %3 Pages: 1 -->
<svg width="288pt" height="1994pt"
 viewBox="0.00 0.00 288.00 1994.00" xmlns="http://www.w3.org/2000/svg" xmlns:xlink="http://www.w3.org/1999/xlink">
<g id="graph0" class="graph" transform="scale(1 1) rotate(0) translate(4 1990)">
<title>%3</title>
<polygon fill="#ffffff" stroke="transparent" points="-4,4 -4,-1990 284,-1990 284,4 -4,4"/>
<!-- fake0 -->
<g id="node1" class="node">
<title>fake0</title>
</g>
<!-- 0 -->
<g id="node21" class="node">
<title>0</title>
<ellipse fill="none" stroke="#000000" cx="89" cy="-1895" rx="27" ry="18"/>
<text text-anchor="middle" x="89" y="-1891.3" font-family="Times,serif" font-size="14.00" fill="#000000">0</text>
</g>
<!-- fake0&#45;&gt;0 -->
<g id="edge1" class="edge">
<title>fake0&#45;&gt;0</title>
<path fill="none" stroke="#000000" stroke-width="2" d="M89,-1949.9551C89,-1941.8828 89,-1932.1764 89,-1923.1817"/>
<polygon fill="#000000" stroke="#000000" stroke-width="2" points="92.5001,-1923.0903 89,-1913.0904 85.5001,-1923.0904 92.5001,-1923.0903"/>
</g>
<!-- 2 -->
<g id="node2" class="node">
<title>2</title>
<ellipse fill="none" stroke="#000000" cx="38" cy="-113" rx="27" ry="18"/>
<text text-anchor="middle" x="38" y="-109.3" font-family="Times,serif" font-size="14.00" fill="#000000">2</text>
</g>
<!-- 3 -->
<g id="node17" class="node">
<title>3</title>
<ellipse fill="none" stroke="#000000" cx="38" cy="-22" rx="18" ry="18"/>
<ellipse fill="none" stroke="#000000" cx="38" cy="-22" rx="22" ry="22"/>
<text text-anchor="middle" x="38" y="-18.3" font-family="Times,serif" font-size="14.00" fill="#000000">3</text>
</g>
<!-- 2&#45;&gt;3 -->
<g id="edge40" class="edge">
<title>2&#45;&gt;3</title>
<path fill="none" stroke="#000000" d="M38,-94.5848C38,-83.1105 38,-68.0231 38,-54.5774"/>
<polygon fill="#000000" stroke="#000000" points="41.5001,-54.2465 38,-44.2465 34.5001,-54.2466 41.5001,-54.2465"/>
<text text-anchor="middle" x="41.5" y="-65.8" font-family="Times,serif" font-size="14.00" fill="#000000">ε</text>
</g>
<!-- 1 -->
<g id="node3" class="node">
<title>1</title>
<ellipse fill="none" stroke="#000000" cx="38" cy="-1004" rx="27" ry="18"/>
<text text-anchor="middle" x="38" y="-1000.3" font-family="Times,serif" font-size="14.00" fill="#000000">1</text>
</g>
<!-- 1&#45;0 -->
<g id="node24" class="node">
<title>1&#45;0</title>
<ellipse fill="none" stroke="#000000" cx="38" cy="-917" rx="27" ry="18"/>
<text text-anchor="middle" x="38" y="-913.3" font-family="Times,serif" font-size="14.00" fill="#000000">1&#45;0</text>
</g>
<!-- 1&#45;&gt;1&#45;0 -->
<g id="edge24" class="edge">
<title>1&#45;&gt;1&#45;0</title>
<path fill="none" stroke="#000000" d="M38,-985.9735C38,-974.1918 38,-958.5607 38,-945.1581"/>
<polygon fill="#000000" stroke="#000000" points="41.5001,-945.0033 38,-935.0034 34.5001,-945.0034 41.5001,-945.0033"/>
<text text-anchor="middle" x="41.5" y="-956.8" font-family="Times,serif" font-size="14.00" fill="#000000">ε</text>
</g>
<!-- 0&#45;2 -->
<g id="node4" class="node">
<title>0&#45;2</title>
<ellipse fill="none" stroke="#000000" cx="146" cy="-1178" rx="27" ry="18"/>
<text text-anchor="middle" x="146" y="-1174.3" font-family="Times,serif" font-size="14.00" fill="#000000">0&#45;2</text>
</g>
<!-- 0&#45;6 -->
<g id="node29" class="node">
<title>0&#45;6</title>
<ellipse fill="none" stroke="#000000" cx="38" cy="-1091" rx="27" ry="18"/>
<text text-anchor="middle" x="38" y="-1087.3" font-family="Times,serif" font-size="14.00" fill="#000000">0&#45;6</text>
</g>
<!-- 0&#45;2&#45;&gt;0&#45;6 -->
<g id="edge22" class="edge">
<title>0&#45;2&#45;&gt;0&#45;6</title>
<path fill="none" stroke="#000000" d="M128.6479,-1164.0219C110.9345,-1149.7528 83.2596,-1127.4592 63.1461,-1111.2566"/>
<polygon fill="#000000" stroke="#000000" points="65.2922,-1108.4911 55.309,-1104.9434 60.9009,-1113.9423 65.2922,-1108.4911"/>
<text text-anchor="middle" x="102.5" y="-1130.8" font-family="Times,serif" font-size="14.00" fill="#000000">ε</text>
</g>
<!-- 1&#45;1&#45;1 -->
<g id="node5" class="node">
<title>1&#45;1&#45;1</title>
<ellipse fill="none" stroke="#000000" cx="105" cy="-602" rx="29.795" ry="18"/>
<text text-anchor="middle" x="105" y="-598.3" font-family="Times,serif" font-size="14.00" fill="#000000">1&#45;1&#45;1</text>
</g>
<!-- 1&#45;1&#45;4 -->
<g id="node23" class="node">
<title>1&#45;1&#45;4</title>
<ellipse fill="none" stroke="#000000" cx="102" cy="-461" rx="29.795" ry="18"/>
<text text-anchor="middle" x="102" y="-457.3" font-family="Times,serif" font-size="14.00" fill="#000000">1&#45;1&#45;4</text>
</g>
<!-- 1&#45;1&#45;1&#45;&gt;1&#45;1&#45;4 -->
<g id="edge36" class="edge">
<title>1&#45;1&#45;1&#45;&gt;1&#45;1&#45;4</title>
<path fill="none" stroke="#000000" d="M104.6139,-583.8554C104.1032,-559.8485 103.1976,-517.2861 102.5979,-489.1035"/>
<polygon fill="#000000" stroke="#000000" points="106.0966,-488.9982 102.3846,-479.075 99.0982,-489.1472 106.0966,-488.9982"/>
<text text-anchor="middle" x="108.5" y="-544.3" font-family="Times,serif" font-size="14.00" fill="#000000">ε</text>
</g>
<!-- 1&#45;1&#45;0 -->
<g id="node6" class="node">
<title>1&#45;1&#45;0</title>
<ellipse fill="none" stroke="#000000" cx="89" cy="-743" rx="29.795" ry="18"/>
<text text-anchor="middle" x="89" y="-739.3" font-family="Times,serif" font-size="14.00" fill="#000000">1&#45;1&#45;0</text>
</g>
<!-- 1&#45;1&#45;0&#45;&gt;1&#45;1&#45;1 -->
<g id="edge31" class="edge">
<title>1&#45;1&#45;0&#45;&gt;1&#45;1&#45;1</title>
<path fill="none" stroke="#000000" d="M91.059,-724.8554C93.7831,-700.8485 98.6129,-658.2861 101.811,-630.1035"/>
<polygon fill="#000000" stroke="#000000" points="105.299,-630.4059 102.9489,-620.075 98.3437,-629.6166 105.299,-630.4059"/>
<text text-anchor="middle" x="99.5" y="-695.8" font-family="Times,serif" font-size="14.00" fill="#000000">+</text>
</g>
<!-- 1&#45;1&#45;0&#45;&gt;1&#45;1&#45;0 -->
<g id="edge32" class="edge">
<title>1&#45;1&#45;0&#45;&gt;1&#45;1&#45;0</title>
<path fill="none" stroke="#000000" d="M116.0817,-750.8058C127.3475,-751.3441 136.8973,-748.7422 136.8973,-743 136.8973,-739.142 132.5864,-736.7015 126.3405,-735.6786"/>
<polygon fill="#000000" stroke="#000000" points="126.2356,-732.1698 116.0817,-735.1942 125.9054,-739.162 126.2356,-732.1698"/>
<text text-anchor="middle" x="140.3973" y="-739.3" font-family="Times,serif" font-size="14.00" fill="#000000">ε</text>
</g>
<!-- 1&#45;1&#45;2 -->
<g id="node20" class="node">
<title>1&#45;1&#45;2</title>
<ellipse fill="none" stroke="#000000" cx="158" cy="-656" rx="29.795" ry="18"/>
<text text-anchor="middle" x="158" y="-652.3" font-family="Times,serif" font-size="14.00" fill="#000000">1&#45;1&#45;2</text>
</g>
<!-- 1&#45;1&#45;0&#45;&gt;1&#45;1&#45;2 -->
<g id="edge34" class="edge">
<title>1&#45;1&#45;0&#45;&gt;1&#45;1&#45;2</title>
<path fill="none" stroke="#000000" d="M101.9784,-726.636C112.2906,-713.6336 126.8741,-695.2457 138.5766,-680.4904"/>
<polygon fill="#000000" stroke="#000000" points="141.6081,-682.3005 145.0798,-672.2907 136.1236,-677.9508 141.6081,-682.3005"/>
<text text-anchor="middle" x="130.5" y="-695.8" font-family="Times,serif" font-size="14.00" fill="#000000">ε</text>
</g>
<!-- 1&#45;1&#45;0&#45;&gt;1&#45;1&#45;4 -->
<g id="edge33" class="edge">
<title>1&#45;1&#45;0&#45;&gt;1&#45;1&#45;4</title>
<path fill="none" stroke="#000000" d="M82.4467,-725.3693C72.3744,-696.0519 55.0442,-635.4138 63,-584 68.269,-549.9492 81.2848,-512.4145 90.8366,-487.8739"/>
<polygon fill="#000000" stroke="#000000" points="94.1159,-489.0991 94.5581,-478.5135 87.6111,-486.5129 94.1159,-489.0991"/>
<text text-anchor="middle" x="66.5" y="-598.3" font-family="Times,serif" font-size="14.00" fill="#000000">ε</text>
</g>
<!-- 0&#45;0 -->
<g id="node7" class="node">
<title>0&#45;0</title>
<ellipse fill="none" stroke="#000000" cx="89" cy="-1808" rx="27" ry="18"/>
<text text-anchor="middle" x="89" y="-1804.3" font-family="Times,serif" font-size="14.00" fill="#000000">0&#45;0</text>
</g>
<!-- 0&#45;0&#45;&gt;0&#45;0 -->
<g id="edge6" class="edge">
<title>0&#45;0&#45;&gt;0&#45;0</title>
<path fill="none" stroke="#000000" d="M113.5325,-1815.752C124.5078,-1816.4902 134,-1813.9063 134,-1808 134,-1804.0317 129.7151,-1801.5632 123.5743,-1800.5944"/>
<polygon fill="#000000" stroke="#000000" points="123.6472,-1797.0949 113.5325,-1800.248 123.4059,-1804.0908 123.6472,-1797.0949"/>
<text text-anchor="middle" x="137.5" y="-1804.3" font-family="Times,serif" font-size="14.00" fill="#000000">ε</text>
</g>
<!-- 0&#45;3 -->
<g id="node9" class="node">
<title>0&#45;3</title>
<ellipse fill="none" stroke="#000000" cx="53" cy="-1721" rx="27" ry="18"/>
<text text-anchor="middle" x="53" y="-1717.3" font-family="Times,serif" font-size="14.00" fill="#000000">0&#45;3</text>
</g>
<!-- 0&#45;0&#45;&gt;0&#45;3 -->
<g id="edge7" class="edge">
<title>0&#45;0&#45;&gt;0&#45;3</title>
<path fill="none" stroke="#000000" d="M81.7149,-1790.3943C76.6889,-1778.2482 69.9107,-1761.8674 64.2018,-1748.0711"/>
<polygon fill="#000000" stroke="#000000" points="67.3319,-1746.4815 60.2743,-1738.5796 60.8638,-1749.158 67.3319,-1746.4815"/>
<text text-anchor="middle" x="77.5" y="-1760.8" font-family="Times,serif" font-size="14.00" fill="#000000">ε</text>
</g>
<!-- 0&#45;1 -->
<g id="node11" class="node">
<title>0&#45;1</title>
<ellipse fill="none" stroke="#000000" cx="125" cy="-1721" rx="27" ry="18"/>
<text text-anchor="middle" x="125" y="-1717.3" font-family="Times,serif" font-size="14.00" fill="#000000">0&#45;1</text>
</g>
<!-- 0&#45;0&#45;&gt;0&#45;1 -->
<g id="edge5" class="edge">
<title>0&#45;0&#45;&gt;0&#45;1</title>
<path fill="none" stroke="#000000" d="M96.2851,-1790.3943C101.3111,-1778.2482 108.0893,-1761.8674 113.7982,-1748.0711"/>
<polygon fill="#000000" stroke="#000000" points="117.1362,-1749.158 117.7257,-1738.5796 110.6681,-1746.4815 117.1362,-1749.158"/>
<text text-anchor="middle" x="119.5" y="-1760.8" font-family="Times,serif" font-size="14.00" fill="#000000">:Int</text>
</g>
<!-- 0&#45;1&#45;0 -->
<g id="node8" class="node">
<title>0&#45;1&#45;0</title>
<ellipse fill="none" stroke="#000000" cx="130" cy="-1634" rx="29.795" ry="18"/>
<text text-anchor="middle" x="130" y="-1630.3" font-family="Times,serif" font-size="14.00" fill="#000000">0&#45;1&#45;0</text>
</g>
<!-- 0&#45;1&#45;0&#45;&gt;0&#45;1&#45;0 -->
<g id="edge11" class="edge">
<title>0&#45;1&#45;0&#45;&gt;0&#45;1&#45;0</title>
<path fill="none" stroke="#000000" d="M157.0817,-1641.8058C168.3475,-1642.3441 177.8973,-1639.7422 177.8973,-1634 177.8973,-1630.142 173.5864,-1627.7015 167.3405,-1626.6786"/>
<polygon fill="#000000" stroke="#000000" points="167.2356,-1623.1698 157.0817,-1626.1942 166.9054,-1630.162 167.2356,-1623.1698"/>
<text text-anchor="middle" x="181.3973" y="-1630.3" font-family="Times,serif" font-size="14.00" fill="#000000">ε</text>
</g>
<!-- 0&#45;1&#45;3 -->
<g id="node13" class="node">
<title>0&#45;1&#45;3</title>
<ellipse fill="none" stroke="#000000" cx="215" cy="-1265" rx="29.795" ry="18"/>
<text text-anchor="middle" x="215" y="-1261.3" font-family="Times,serif" font-size="14.00" fill="#000000">0&#45;1&#45;3</text>
</g>
<!-- 0&#45;1&#45;0&#45;&gt;0&#45;1&#45;3 -->
<g id="edge12" class="edge">
<title>0&#45;1&#45;0&#45;&gt;0&#45;1&#45;3</title>
<path fill="none" stroke="#000000" d="M159.2833,-1629.585C201.1198,-1621.43 273,-1599.744 273,-1547 273,-1547 273,-1547 273,-1352 273,-1326.7277 255.8469,-1303.213 240.1971,-1287.0184"/>
<polygon fill="#000000" stroke="#000000" points="242.3068,-1284.185 232.7171,-1279.6807 237.4048,-1289.1821 242.3068,-1284.185"/>
<text text-anchor="middle" x="276.5" y="-1435.3" font-family="Times,serif" font-size="14.00" fill="#000000">ε</text>
</g>
<!-- 0&#45;1&#45;1 -->
<g id="node28" class="node">
<title>0&#45;1&#45;1</title>
<ellipse fill="none" stroke="#000000" cx="130" cy="-1547" rx="29.795" ry="18"/>
<text text-anchor="middle" x="130" y="-1543.3" font-family="Times,serif" font-size="14.00" fill="#000000">0&#45;1&#45;1</text>
</g>
<!-- 0&#45;1&#45;0&#45;&gt;0&#45;1&#45;1 -->
<g id="edge10" class="edge">
<title>0&#45;1&#45;0&#45;&gt;0&#45;1&#45;1</title>
<path fill="none" stroke="#000000" d="M130,-1615.9735C130,-1604.1918 130,-1588.5607 130,-1575.1581"/>
<polygon fill="#000000" stroke="#000000" points="133.5001,-1575.0033 130,-1565.0034 126.5001,-1575.0034 133.5001,-1575.0033"/>
<text text-anchor="middle" x="132" y="-1586.8" font-family="Times,serif" font-size="14.00" fill="#000000">.</text>
</g>
<!-- 0&#45;4 -->
<g id="node25" class="node">
<title>0&#45;4</title>
<ellipse fill="none" stroke="#000000" cx="51" cy="-1634" rx="27" ry="18"/>
<text text-anchor="middle" x="51" y="-1630.3" font-family="Times,serif" font-size="14.00" fill="#000000">0&#45;4</text>
</g>
<!-- 0&#45;3&#45;&gt;0&#45;4 -->
<g id="edge20" class="edge">
<title>0&#45;3&#45;&gt;0&#45;4</title>
<path fill="none" stroke="#000000" d="M52.5856,-1702.9735C52.3148,-1691.1918 51.9554,-1675.5607 51.6473,-1662.1581"/>
<polygon fill="#000000" stroke="#000000" points="55.1429,-1661.9202 51.4139,-1652.0034 48.1447,-1662.0812 55.1429,-1661.9202"/>
<text text-anchor="middle" x="55" y="-1673.8" font-family="Times,serif" font-size="14.00" fill="#000000">.</text>
</g>
<!-- 1&#45;3 -->
<g id="node10" class="node">
<title>1&#45;3</title>
<ellipse fill="none" stroke="#000000" cx="77" cy="-287" rx="27" ry="18"/>
<text text-anchor="middle" x="77" y="-283.3" font-family="Times,serif" font-size="14.00" fill="#000000">1&#45;3</text>
</g>
<!-- 1&#45;4 -->
<g id="node12" class="node">
<title>1&#45;4</title>
<ellipse fill="none" stroke="#000000" cx="38" cy="-200" rx="27" ry="18"/>
<text text-anchor="middle" x="38" y="-196.3" font-family="Times,serif" font-size="14.00" fill="#000000">1&#45;4</text>
</g>
<!-- 1&#45;3&#45;&gt;1&#45;4 -->
<g id="edge39" class="edge">
<title>1&#45;3&#45;&gt;1&#45;4</title>
<path fill="none" stroke="#000000" d="M69.1078,-269.3943C63.6272,-257.1683 56.2232,-240.6517 50.0134,-226.7992"/>
<polygon fill="#000000" stroke="#000000" points="53.0318,-224.976 45.7474,-217.2827 46.6442,-227.8395 53.0318,-224.976"/>
<text text-anchor="middle" x="63.5" y="-239.8" font-family="Times,serif" font-size="14.00" fill="#000000">ε</text>
</g>
<!-- 0&#45;1&#45;&gt;0&#45;1&#45;0 -->
<g id="edge8" class="edge">
<title>0&#45;1&#45;&gt;0&#45;1&#45;0</title>
<path fill="none" stroke="#000000" d="M126.036,-1702.9735C126.7131,-1691.1918 127.6115,-1675.5607 128.3817,-1662.1581"/>
<polygon fill="#000000" stroke="#000000" points="131.8857,-1662.1877 128.9653,-1652.0034 124.8972,-1661.786 131.8857,-1662.1877"/>
<text text-anchor="middle" x="130.5" y="-1673.8" font-family="Times,serif" font-size="14.00" fill="#000000">ε</text>
</g>
<!-- 1&#45;4&#45;&gt;2 -->
<g id="edge25" class="edge">
<title>1&#45;4&#45;&gt;2</title>
<path fill="none" stroke="#000000" d="M38,-181.9735C38,-170.1918 38,-154.5607 38,-141.1581"/>
<polygon fill="#000000" stroke="#000000" points="41.5001,-141.0033 38,-131.0034 34.5001,-141.0034 41.5001,-141.0033"/>
<text text-anchor="middle" x="41.5" y="-152.8" font-family="Times,serif" font-size="14.00" fill="#000000">ε</text>
</g>
<!-- 0&#45;1&#45;3&#45;&gt;0&#45;2 -->
<g id="edge9" class="edge">
<title>0&#45;1&#45;3&#45;&gt;0&#45;2</title>
<path fill="none" stroke="#000000" d="M202.0216,-1248.636C191.6441,-1235.5513 176.9411,-1217.0127 165.2016,-1202.2107"/>
<polygon fill="#000000" stroke="#000000" points="167.6433,-1199.6568 158.6871,-1193.9967 162.1588,-1204.0066 167.6433,-1199.6568"/>
<text text-anchor="middle" x="187.5" y="-1217.8" font-family="Times,serif" font-size="14.00" fill="#000000">ε</text>
</g>
<!-- 1&#45;1&#45;3 -->
<g id="node14" class="node">
<title>1&#45;1&#45;3</title>
<ellipse fill="none" stroke="#000000" cx="161" cy="-548" rx="29.795" ry="18"/>
<text text-anchor="middle" x="161" y="-544.3" font-family="Times,serif" font-size="14.00" fill="#000000">1&#45;1&#45;3</text>
</g>
<!-- 1&#45;1&#45;3&#45;&gt;1&#45;1&#45;4 -->
<g id="edge37" class="edge">
<title>1&#45;1&#45;3&#45;&gt;1&#45;1&#45;4</title>
<path fill="none" stroke="#000000" d="M149.6242,-531.2255C140.9723,-518.4677 128.9246,-500.7024 119.1117,-486.2325"/>
<polygon fill="#000000" stroke="#000000" points="121.8503,-484.0349 113.3409,-477.723 116.0569,-487.9638 121.8503,-484.0349"/>
<text text-anchor="middle" x="138.5" y="-500.8" font-family="Times,serif" font-size="14.00" fill="#000000">ε</text>
</g>
<!-- 0&#45;1&#45;1&#45;0 -->
<g id="node15" class="node">
<title>0&#45;1&#45;1&#45;0</title>
<ellipse fill="none" stroke="#000000" cx="130" cy="-1439" rx="37.0935" ry="18"/>
<text text-anchor="middle" x="130" y="-1435.3" font-family="Times,serif" font-size="14.00" fill="#000000">0&#45;1&#45;1&#45;0</text>
</g>
<!-- 0&#45;1&#45;1&#45;0&#45;&gt;0&#45;1&#45;1&#45;0 -->
<g id="edge15" class="edge">
<title>0&#45;1&#45;1&#45;0&#45;&gt;0&#45;1&#45;1&#45;0</title>
<path fill="none" stroke="#000000" d="M163.3226,-1446.8673C175.2899,-1447.0365 185.0467,-1444.4141 185.0467,-1439 185.0467,-1435.2778 180.4351,-1432.8751 173.664,-1431.7919"/>
<polygon fill="#000000" stroke="#000000" points="173.525,-1428.2761 163.3226,-1431.1327 173.0796,-1435.2619 173.525,-1428.2761"/>
<text text-anchor="middle" x="188.5467" y="-1435.3" font-family="Times,serif" font-size="14.00" fill="#000000">ε</text>
</g>
<!-- 0&#45;1&#45;1&#45;1 -->
<g id="node22" class="node">
<title>0&#45;1&#45;1&#45;1</title>
<ellipse fill="none" stroke="#000000" cx="130" cy="-1352" rx="37.0935" ry="18"/>
<text text-anchor="middle" x="130" y="-1348.3" font-family="Times,serif" font-size="14.00" fill="#000000">0&#45;1&#45;1&#45;1</text>
</g>
<!-- 0&#45;1&#45;1&#45;0&#45;&gt;0&#45;1&#45;1&#45;1 -->
<g id="edge16" class="edge">
<title>0&#45;1&#45;1&#45;0&#45;&gt;0&#45;1&#45;1&#45;1</title>
<path fill="none" stroke="#000000" d="M130,-1420.9735C130,-1409.1918 130,-1393.5607 130,-1380.1581"/>
<polygon fill="#000000" stroke="#000000" points="133.5001,-1380.0033 130,-1370.0034 126.5001,-1380.0034 133.5001,-1380.0033"/>
<text text-anchor="middle" x="142.5" y="-1391.8" font-family="Times,serif" font-size="14.00" fill="#000000">digit</text>
</g>
<!-- 0&#45;1&#45;2 -->
<g id="node27" class="node">
<title>0&#45;1&#45;2</title>
<ellipse fill="none" stroke="#000000" cx="215" cy="-1352" rx="29.795" ry="18"/>
<text text-anchor="middle" x="215" y="-1348.3" font-family="Times,serif" font-size="14.00" fill="#000000">0&#45;1&#45;2</text>
</g>
<!-- 0&#45;1&#45;1&#45;0&#45;&gt;0&#45;1&#45;2 -->
<g id="edge14" class="edge">
<title>0&#45;1&#45;1&#45;0&#45;&gt;0&#45;1&#45;2</title>
<path fill="none" stroke="#000000" d="M145.9878,-1422.636C159.0926,-1409.2229 177.7967,-1390.0787 192.4277,-1375.1034"/>
<polygon fill="#000000" stroke="#000000" points="195.1715,-1377.3034 199.6564,-1367.7047 190.1645,-1372.4116 195.1715,-1377.3034"/>
<text text-anchor="middle" x="180.5" y="-1391.8" font-family="Times,serif" font-size="14.00" fill="#000000">ε</text>
</g>
<!-- 1&#45;1 -->
<g id="node16" class="node">
<title>1&#45;1</title>
<ellipse fill="none" stroke="#000000" cx="83" cy="-830" rx="27" ry="18"/>
<text text-anchor="middle" x="83" y="-826.3" font-family="Times,serif" font-size="14.00" fill="#000000">1&#45;1</text>
</g>
<!-- 1&#45;1&#45;&gt;1&#45;1&#45;0 -->
<g id="edge29" class="edge">
<title>1&#45;1&#45;&gt;1&#45;1&#45;0</title>
<path fill="none" stroke="#000000" d="M84.2432,-811.9735C85.0557,-800.1918 86.1337,-784.5607 87.0581,-771.1581"/>
<polygon fill="#000000" stroke="#000000" points="90.562,-771.2205 87.7584,-761.0034 83.5786,-770.7388 90.562,-771.2205"/>
<text text-anchor="middle" x="90.5" y="-782.8" font-family="Times,serif" font-size="14.00" fill="#000000">ε</text>
</g>
<!-- 0&#45;1&#45;1&#45;2 -->
<g id="node18" class="node">
<title>0&#45;1&#45;1&#45;2</title>
<ellipse fill="none" stroke="#000000" cx="109" cy="-1265" rx="37.0935" ry="18"/>
<text text-anchor="middle" x="109" y="-1261.3" font-family="Times,serif" font-size="14.00" fill="#000000">0&#45;1&#45;1&#45;2</text>
</g>
<!-- 0&#45;1&#45;1&#45;2&#45;&gt;0&#45;1&#45;1&#45;0 -->
<g id="edge18" class="edge">
<title>0&#45;1&#45;1&#45;2&#45;&gt;0&#45;1&#45;1&#45;0</title>
<path fill="none" stroke="#000000" d="M97.0641,-1282.2022C84.1096,-1303.0875 66.5788,-1339.3251 77,-1370 82.7795,-1387.012 94.63,-1403.1112 105.6624,-1415.4733"/>
<polygon fill="#000000" stroke="#000000" points="103.3375,-1418.1117 112.722,-1423.0293 108.4524,-1413.3328 103.3375,-1418.1117"/>
<text text-anchor="middle" x="80.5" y="-1348.3" font-family="Times,serif" font-size="14.00" fill="#000000">ε</text>
</g>
<!-- 1&#45;2 -->
<g id="node19" class="node">
<title>1&#45;2</title>
<ellipse fill="none" stroke="#000000" cx="91" cy="-374" rx="27" ry="18"/>
<text text-anchor="middle" x="91" y="-370.3" font-family="Times,serif" font-size="14.00" fill="#000000">1&#45;2</text>
</g>
<!-- 1&#45;2&#45;&gt;1&#45;3 -->
<g id="edge38" class="edge">
<title>1&#45;2&#45;&gt;1&#45;3</title>
<path fill="none" stroke="#000000" d="M88.0992,-355.9735C86.2033,-344.1918 83.6879,-328.5607 81.5312,-315.1581"/>
<polygon fill="#000000" stroke="#000000" points="84.9415,-314.3203 79.8971,-305.0034 78.0304,-315.4324 84.9415,-314.3203"/>
<text text-anchor="middle" x="94.5" y="-326.8" font-family="Times,serif" font-size="14.00" fill="#000000">:Int</text>
</g>
<!-- 1&#45;1&#45;2&#45;&gt;1&#45;1&#45;3 -->
<g id="edge35" class="edge">
<title>1&#45;1&#45;2&#45;&gt;1&#45;1&#45;3</title>
<path fill="none" stroke="#000000" d="M158.5089,-637.6793C158.9772,-620.821 159.6787,-595.5651 160.2181,-576.147"/>
<polygon fill="#000000" stroke="#000000" points="163.7195,-576.1435 160.4986,-566.0502 156.7222,-575.9491 163.7195,-576.1435"/>
<text text-anchor="middle" x="161.5" y="-598.3" font-family="Times,serif" font-size="14.00" fill="#000000">&#45;</text>
</g>
<!-- 0&#45;&gt;0&#45;0 -->
<g id="edge2" class="edge">
<title>0&#45;&gt;0&#45;0</title>
<path fill="none" stroke="#000000" d="M89,-1876.9735C89,-1865.1918 89,-1849.5607 89,-1836.1581"/>
<polygon fill="#000000" stroke="#000000" points="92.5001,-1836.0033 89,-1826.0034 85.5001,-1836.0034 92.5001,-1836.0033"/>
<text text-anchor="middle" x="92.5" y="-1847.8" font-family="Times,serif" font-size="14.00" fill="#000000">ε</text>
</g>
<!-- 0&#45;&gt;0 -->
<g id="edge3" class="edge">
<title>0&#45;&gt;0</title>
<path fill="none" stroke="#000000" d="M114.4435,-1901.6907C125.0278,-1902.1521 134,-1899.9219 134,-1895 134,-1891.77 130.136,-1889.6992 124.4881,-1888.7876"/>
<polygon fill="#000000" stroke="#000000" points="124.5987,-1885.289 114.4435,-1888.3093 124.2656,-1892.2811 124.5987,-1885.289"/>
<text text-anchor="middle" x="137.5" y="-1891.3" font-family="Times,serif" font-size="14.00" fill="#000000">ε</text>
</g>
<!-- 0&#45;1&#45;1&#45;1&#45;&gt;0&#45;1&#45;1&#45;2 -->
<g id="edge17" class="edge">
<title>0&#45;1&#45;1&#45;1&#45;&gt;0&#45;1&#45;1&#45;2</title>
<path fill="none" stroke="#000000" d="M125.6488,-1333.9735C122.7768,-1322.0751 118.9571,-1306.2508 115.7008,-1292.7606"/>
<polygon fill="#000000" stroke="#000000" points="119.0944,-1291.9029 113.3456,-1283.0034 112.2898,-1293.5455 119.0944,-1291.9029"/>
<text text-anchor="middle" x="123.5" y="-1304.8" font-family="Times,serif" font-size="14.00" fill="#000000">ε</text>
</g>
<!-- 1&#45;1&#45;4&#45;&gt;1&#45;2 -->
<g id="edge30" class="edge">
<title>1&#45;1&#45;4&#45;&gt;1&#45;2</title>
<path fill="none" stroke="#000000" d="M99.7208,-442.9735C98.2311,-431.1918 96.2548,-415.5607 94.5602,-402.1581"/>
<polygon fill="#000000" stroke="#000000" points="98.0031,-401.4853 93.2763,-392.0034 91.0584,-402.3634 98.0031,-401.4853"/>
<text text-anchor="middle" x="101.5" y="-413.8" font-family="Times,serif" font-size="14.00" fill="#000000">ε</text>
</g>
<!-- 1&#45;0&#45;&gt;1&#45;4 -->
<g id="edge27" class="edge">
<title>1&#45;0&#45;&gt;1&#45;4</title>
<path fill="none" stroke="#000000" d="M32.761,-899.1806C28.0947,-881.7178 22,-854.2648 22,-830 22,-830 22,-830 22,-287 22,-266.9057 26.1797,-244.625 30.2666,-227.6421"/>
<polygon fill="#000000" stroke="#000000" points="33.6919,-228.3732 32.761,-217.8194 26.9073,-226.6502 33.6919,-228.3732"/>
<text text-anchor="middle" x="25.5" y="-544.3" font-family="Times,serif" font-size="14.00" fill="#000000">ε</text>
</g>
<!-- 1&#45;0&#45;&gt;1&#45;1 -->
<g id="edge26" class="edge">
<title>1&#45;0&#45;&gt;1&#45;1</title>
<path fill="none" stroke="#000000" d="M46.8906,-899.8116C53.3005,-887.4191 62.0708,-870.4631 69.3629,-856.3651"/>
<polygon fill="#000000" stroke="#000000" points="72.6424,-857.6429 74.1279,-847.1527 66.4249,-854.4269 72.6424,-857.6429"/>
<text text-anchor="middle" x="68.5" y="-869.8" font-family="Times,serif" font-size="14.00" fill="#000000">E</text>
</g>
<!-- 1&#45;0&#45;&gt;1&#45;0 -->
<g id="edge28" class="edge">
<title>1&#45;0&#45;&gt;1&#45;0</title>
<path fill="none" stroke="#000000" d="M62.5325,-924.752C73.5078,-925.4902 83,-922.9063 83,-917 83,-913.0317 78.7151,-910.5632 72.5743,-909.5944"/>
<polygon fill="#000000" stroke="#000000" points="72.6472,-906.0949 62.5325,-909.248 72.4059,-913.0908 72.6472,-906.0949"/>
<text text-anchor="middle" x="86.5" y="-913.3" font-family="Times,serif" font-size="14.00" fill="#000000">ε</text>
</g>
<!-- 0&#45;5 -->
<g id="node26" class="node">
<title>0&#45;5</title>
<ellipse fill="none" stroke="#000000" cx="27" cy="-1493" rx="27" ry="18"/>
<text text-anchor="middle" x="27" y="-1489.3" font-family="Times,serif" font-size="14.00" fill="#000000">0&#45;5</text>
</g>
<!-- 0&#45;4&#45;&gt;0&#45;5 -->
<g id="edge21" class="edge">
<title>0&#45;4&#45;&gt;0&#45;5</title>
<path fill="none" stroke="#000000" d="M47.9116,-1615.8554C43.8253,-1591.8485 36.5806,-1549.2861 31.7836,-1521.1035"/>
<polygon fill="#000000" stroke="#000000" points="35.205,-1520.3459 30.0766,-1511.075 28.3043,-1521.5205 35.205,-1520.3459"/>
<text text-anchor="middle" x="54.5" y="-1586.8" font-family="Times,serif" font-size="14.00" fill="#000000">:Int</text>
</g>
<!-- 0&#45;5&#45;&gt;0&#45;6 -->
<g id="edge23" class="edge">
<title>0&#45;5&#45;&gt;0&#45;6</title>
<path fill="none" stroke="#000000" d="M25.4998,-1474.685C24.0271,-1455.1006 22,-1423.1274 22,-1395.5 22,-1395.5 22,-1395.5 22,-1178 22,-1157.9057 26.1797,-1135.625 30.2666,-1118.6421"/>
<polygon fill="#000000" stroke="#000000" points="33.6919,-1119.3732 32.761,-1108.8194 26.9073,-1117.6502 33.6919,-1119.3732"/>
<text text-anchor="middle" x="25.5" y="-1304.8" font-family="Times,serif" font-size="14.00" fill="#000000">ε</text>
</g>
<!-- 0&#45;1&#45;2&#45;&gt;0&#45;1&#45;3 -->
<g id="edge19" class="edge">
<title>0&#45;1&#45;2&#45;&gt;0&#45;1&#45;3</title>
<path fill="none" stroke="#000000" d="M215,-1333.9735C215,-1322.1918 215,-1306.5607 215,-1293.1581"/>
<polygon fill="#000000" stroke="#000000" points="218.5001,-1293.0033 215,-1283.0034 211.5001,-1293.0034 218.5001,-1293.0033"/>
<text text-anchor="middle" x="218.5" y="-1304.8" font-family="Times,serif" font-size="14.00" fill="#000000">ε</text>
</g>
<!-- 0&#45;1&#45;1&#45;&gt;0&#45;1&#45;1&#45;0 -->
<g id="edge13" class="edge">
<title>0&#45;1&#45;1&#45;&gt;0&#45;1&#45;1&#45;0</title>
<path fill="none" stroke="#000000" d="M130,-1528.6793C130,-1511.821 130,-1486.5651 130,-1467.147"/>
<polygon fill="#000000" stroke="#000000" points="133.5001,-1467.0501 130,-1457.0502 126.5001,-1467.0502 133.5001,-1467.0501"/>
<text text-anchor="middle" x="133.5" y="-1489.3" font-family="Times,serif" font-size="14.00" fill="#000000">ε</text>
</g>
<!-- 0&#45;6&#45;&gt;1 -->
<g id="edge4" class="edge">
<title>0&#45;6&#45;&gt;1</title>
<path fill="none" stroke="#000000" d="M38,-1072.9735C38,-1061.1918 38,-1045.5607 38,-1032.1581"/>
<polygon fill="#000000" stroke="#000000" points="41.5001,-1032.0033 38,-1022.0034 34.5001,-1032.0034 41.5001,-1032.0033"/>
<text text-anchor="middle" x="41.5" y="-1043.8" font-family="Times,serif" font-size="14.00" fill="#000000">ε</text>
</g>
</g>
</svg>
