<?xml version="1.0" encoding="UTF-8" standalone="no"?>
<!DOCTYPE svg PUBLIC "-//W3C//DTD SVG 1.1//EN"
 "http://www.w3.org/Graphics/SVG/1.1/DTD/svg11.dtd">
<!-- Generated by graphviz version 2.40.1 (20161225.0304)
 -->
<!-- Title: %3 Pages: 1 -->
<svg width="213pt" height="1103pt"
 viewBox="0.00 0.00 213.00 1103.00" xmlns="http://www.w3.org/2000/svg" xmlns:xlink="http://www.w3.org/1999/xlink">
<g id="graph0" class="graph" transform="scale(1 1) rotate(0) translate(4 1099)">
<title>%3</title>
<polygon fill="#ffffff" stroke="transparent" points="-4,4 -4,-1099 209,-1099 209,4 -4,4"/>
<!-- fake0 -->
<g id="node1" class="node">
<title>fake0</title>
</g>
<!-- 0 -->
<g id="node12" class="node">
<title>0</title>
<ellipse fill="none" stroke="#000000" cx="153" cy="-1004" rx="27" ry="18"/>
<text text-anchor="middle" x="153" y="-1000.3" font-family="Times,serif" font-size="14.00" fill="#000000">0</text>
</g>
<!-- fake0&#45;&gt;0 -->
<g id="edge1" class="edge">
<title>fake0&#45;&gt;0</title>
<path fill="none" stroke="#000000" stroke-width="2" d="M153,-1058.9551C153,-1050.8828 153,-1041.1764 153,-1032.1817"/>
<polygon fill="#000000" stroke="#000000" stroke-width="2" points="156.5001,-1032.0903 153,-1022.0904 149.5001,-1032.0904 156.5001,-1032.0903"/>
</g>
<!-- 3 -->
<g id="node2" class="node">
<title>3</title>
<ellipse fill="none" stroke="#000000" cx="102" cy="-809" rx="27" ry="18"/>
<text text-anchor="middle" x="102" y="-805.3" font-family="Times,serif" font-size="14.00" fill="#000000">3</text>
</g>
<!-- 4 -->
<g id="node11" class="node">
<title>4</title>
<ellipse fill="none" stroke="#000000" cx="84" cy="-722" rx="27" ry="18"/>
<text text-anchor="middle" x="84" y="-718.3" font-family="Times,serif" font-size="14.00" fill="#000000">4</text>
</g>
<!-- 3&#45;&gt;4 -->
<g id="edge6" class="edge">
<title>3&#45;&gt;4</title>
<path fill="none" stroke="#000000" d="M98.2704,-790.9735C95.8328,-779.1918 92.5988,-763.5607 89.8258,-750.1581"/>
<polygon fill="#000000" stroke="#000000" points="93.1784,-749.0868 87.7248,-740.0034 86.3236,-750.5051 93.1784,-749.0868"/>
<text text-anchor="middle" x="122.5" y="-761.8" font-family="Times,serif" font-size="14.00" fill="#000000">:Character</text>
</g>
<!-- 6&#45;1 -->
<g id="node3" class="node">
<title>6&#45;1</title>
<ellipse fill="none" stroke="#000000" cx="78" cy="-287" rx="27" ry="18"/>
<text text-anchor="middle" x="78" y="-283.3" font-family="Times,serif" font-size="14.00" fill="#000000">6&#45;1</text>
</g>
<!-- 6&#45;2 -->
<g id="node5" class="node">
<title>6&#45;2</title>
<ellipse fill="none" stroke="#000000" cx="131" cy="-200" rx="27" ry="18"/>
<text text-anchor="middle" x="131" y="-196.3" font-family="Times,serif" font-size="14.00" fill="#000000">6&#45;2</text>
</g>
<!-- 6&#45;1&#45;&gt;6&#45;2 -->
<g id="edge19" class="edge">
<title>6&#45;1&#45;&gt;6&#45;2</title>
<path fill="none" stroke="#000000" d="M88.2189,-270.2255C95.9176,-257.588 106.6096,-240.0371 115.3785,-225.6429"/>
<polygon fill="#000000" stroke="#000000" points="118.5988,-227.084 120.8124,-216.723 112.6208,-223.4422 118.5988,-227.084"/>
<text text-anchor="middle" x="110.5" y="-239.8" font-family="Times,serif" font-size="14.00" fill="#000000">ε</text>
</g>
<!-- 6&#45;0 -->
<g id="node4" class="node">
<title>6&#45;0</title>
<ellipse fill="none" stroke="#000000" cx="106" cy="-374" rx="27" ry="18"/>
<text text-anchor="middle" x="106" y="-370.3" font-family="Times,serif" font-size="14.00" fill="#000000">6&#45;0</text>
</g>
<!-- 6&#45;0&#45;&gt;6&#45;1 -->
<g id="edge16" class="edge">
<title>6&#45;0&#45;&gt;6&#45;1</title>
<path fill="none" stroke="#000000" d="M100.3338,-356.3943C96.4881,-344.4453 91.3234,-328.3978 86.9293,-314.7446"/>
<polygon fill="#000000" stroke="#000000" points="90.1493,-313.325 83.7539,-304.8782 83.4859,-315.4696 90.1493,-313.325"/>
<text text-anchor="middle" x="106" y="-326.8" font-family="Times,serif" font-size="14.00" fill="#000000">:Exp</text>
</g>
<!-- 6&#45;0&#45;&gt;6&#45;0 -->
<g id="edge17" class="edge">
<title>6&#45;0&#45;&gt;6&#45;0</title>
<path fill="none" stroke="#000000" d="M130.5325,-381.752C141.5078,-382.4902 151,-379.9063 151,-374 151,-370.0317 146.7151,-367.5632 140.5743,-366.5944"/>
<polygon fill="#000000" stroke="#000000" points="140.6472,-363.0949 130.5325,-366.248 140.4059,-370.0908 140.6472,-363.0949"/>
<text text-anchor="middle" x="154.5" y="-370.3" font-family="Times,serif" font-size="14.00" fill="#000000">ε</text>
</g>
<!-- 6&#45;0&#45;&gt;6&#45;2 -->
<g id="edge18" class="edge">
<title>6&#45;0&#45;&gt;6&#45;2</title>
<path fill="none" stroke="#000000" d="M115.7008,-356.9256C118.561,-351.0998 121.3613,-344.4298 123,-338 132.4179,-301.046 133.2263,-256.797 132.4848,-228.5478"/>
<polygon fill="#000000" stroke="#000000" points="135.9704,-228.0704 132.1241,-218.1985 128.9746,-228.3143 135.9704,-228.0704"/>
<text text-anchor="middle" x="135.5" y="-283.3" font-family="Times,serif" font-size="14.00" fill="#000000">ε</text>
</g>
<!-- 7 -->
<g id="node15" class="node">
<title>7</title>
<ellipse fill="none" stroke="#000000" cx="131" cy="-113" rx="27" ry="18"/>
<text text-anchor="middle" x="131" y="-109.3" font-family="Times,serif" font-size="14.00" fill="#000000">7</text>
</g>
<!-- 6&#45;2&#45;&gt;7 -->
<g id="edge15" class="edge">
<title>6&#45;2&#45;&gt;7</title>
<path fill="none" stroke="#000000" d="M131,-181.9735C131,-170.1918 131,-154.5607 131,-141.1581"/>
<polygon fill="#000000" stroke="#000000" points="134.5001,-141.0033 131,-131.0034 127.5001,-141.0034 134.5001,-141.0033"/>
<text text-anchor="middle" x="134.5" y="-152.8" font-family="Times,serif" font-size="14.00" fill="#000000">ε</text>
</g>
<!-- 4&#45;1 -->
<g id="node6" class="node">
<title>4&#45;1</title>
<ellipse fill="none" stroke="#000000" cx="51" cy="-548" rx="27" ry="18"/>
<text text-anchor="middle" x="51" y="-544.3" font-family="Times,serif" font-size="14.00" fill="#000000">4&#45;1</text>
</g>
<!-- 4&#45;2 -->
<g id="node9" class="node">
<title>4&#45;2</title>
<ellipse fill="none" stroke="#000000" cx="27" cy="-461" rx="27" ry="18"/>
<text text-anchor="middle" x="27" y="-457.3" font-family="Times,serif" font-size="14.00" fill="#000000">4&#45;2</text>
</g>
<!-- 4&#45;1&#45;&gt;4&#45;2 -->
<g id="edge11" class="edge">
<title>4&#45;1&#45;&gt;4&#45;2</title>
<path fill="none" stroke="#000000" d="M46.0272,-529.9735C42.723,-517.9958 38.3213,-502.0396 34.5838,-488.4912"/>
<polygon fill="#000000" stroke="#000000" points="37.9177,-487.4148 31.8843,-478.7057 31.1697,-489.2764 37.9177,-487.4148"/>
<text text-anchor="middle" x="43.5" y="-500.8" font-family="Times,serif" font-size="14.00" fill="#000000">ε</text>
</g>
<!-- 2 -->
<g id="node7" class="node">
<title>2</title>
<ellipse fill="none" stroke="#000000" cx="114" cy="-917" rx="27" ry="18"/>
<text text-anchor="middle" x="114" y="-913.3" font-family="Times,serif" font-size="14.00" fill="#000000">2</text>
</g>
<!-- 2&#45;&gt;3 -->
<g id="edge5" class="edge">
<title>2&#45;&gt;3</title>
<path fill="none" stroke="#000000" d="M111.9644,-898.6793C110.0912,-881.821 107.285,-856.5651 105.1274,-837.147"/>
<polygon fill="#000000" stroke="#000000" points="108.5886,-836.6025 104.0056,-827.0502 101.6314,-837.3755 108.5886,-836.6025"/>
<text text-anchor="middle" x="112.5" y="-859.3" font-family="Times,serif" font-size="14.00" fill="#000000">&quot;</text>
</g>
<!-- 5 -->
<g id="node8" class="node">
<title>5</title>
<ellipse fill="none" stroke="#000000" cx="127" cy="-548" rx="27" ry="18"/>
<text text-anchor="middle" x="127" y="-544.3" font-family="Times,serif" font-size="14.00" fill="#000000">5</text>
</g>
<!-- 6 -->
<g id="node14" class="node">
<title>6</title>
<ellipse fill="none" stroke="#000000" cx="116" cy="-461" rx="27" ry="18"/>
<text text-anchor="middle" x="116" y="-457.3" font-family="Times,serif" font-size="14.00" fill="#000000">6</text>
</g>
<!-- 5&#45;&gt;6 -->
<g id="edge13" class="edge">
<title>5&#45;&gt;6</title>
<path fill="none" stroke="#000000" d="M124.7208,-529.9735C123.2311,-518.1918 121.2548,-502.5607 119.5602,-489.1581"/>
<polygon fill="#000000" stroke="#000000" points="123.0031,-488.4853 118.2763,-479.0034 116.0584,-489.3634 123.0031,-488.4853"/>
<text text-anchor="middle" x="125.5" y="-500.8" font-family="Times,serif" font-size="14.00" fill="#000000">&quot;</text>
</g>
<!-- 4&#45;0 -->
<g id="node16" class="node">
<title>4&#45;0</title>
<ellipse fill="none" stroke="#000000" cx="78" cy="-635" rx="27" ry="18"/>
<text text-anchor="middle" x="78" y="-631.3" font-family="Times,serif" font-size="14.00" fill="#000000">4&#45;0</text>
</g>
<!-- 4&#45;2&#45;&gt;4&#45;0 -->
<g id="edge12" class="edge">
<title>4&#45;2&#45;&gt;4&#45;0</title>
<path fill="none" stroke="#000000" d="M18.0628,-478.3751C8.3574,-499.745 -4.2279,-536.777 8,-566 16.5588,-586.4545 34.4631,-603.921 50.0209,-616.1632"/>
<polygon fill="#000000" stroke="#000000" points="48.2494,-619.2097 58.3485,-622.4127 52.4511,-613.6109 48.2494,-619.2097"/>
<text text-anchor="middle" x="11.5" y="-544.3" font-family="Times,serif" font-size="14.00" fill="#000000">ε</text>
</g>
<!-- 1 -->
<g id="node10" class="node">
<title>1</title>
<ellipse fill="none" stroke="#000000" cx="176" cy="-863" rx="27" ry="18"/>
<text text-anchor="middle" x="176" y="-859.3" font-family="Times,serif" font-size="14.00" fill="#000000">1</text>
</g>
<!-- 8 -->
<g id="node13" class="node">
<title>8</title>
<ellipse fill="none" stroke="#000000" cx="159" cy="-22" rx="18" ry="18"/>
<ellipse fill="none" stroke="#000000" cx="159" cy="-22" rx="22" ry="22"/>
<text text-anchor="middle" x="159" y="-18.3" font-family="Times,serif" font-size="14.00" fill="#000000">8</text>
</g>
<!-- 1&#45;&gt;8 -->
<g id="edge20" class="edge">
<title>1&#45;&gt;8</title>
<path fill="none" stroke="#000000" d="M178.9462,-845.0864C181.896,-825.5715 186,-793.406 186,-765.5 186,-765.5 186,-765.5 186,-113 186,-91.9232 179.2607,-69.1925 172.5161,-51.7214"/>
<polygon fill="#000000" stroke="#000000" points="175.6088,-50.0358 168.5952,-42.0948 169.1259,-52.6763 175.6088,-50.0358"/>
<text text-anchor="middle" x="189.5" y="-457.3" font-family="Times,serif" font-size="14.00" fill="#000000">ε</text>
</g>
<!-- 4&#45;&gt;4&#45;0 -->
<g id="edge7" class="edge">
<title>4&#45;&gt;4&#45;0</title>
<path fill="none" stroke="#000000" d="M82.7568,-703.9735C81.9443,-692.1918 80.8663,-676.5607 79.9419,-663.1581"/>
<polygon fill="#000000" stroke="#000000" points="83.4214,-662.7388 79.2416,-653.0034 76.438,-663.2205 83.4214,-662.7388"/>
<text text-anchor="middle" x="84.5" y="-674.8" font-family="Times,serif" font-size="14.00" fill="#000000">ε</text>
</g>
<!-- 0&#45;&gt;2 -->
<g id="edge3" class="edge">
<title>0&#45;&gt;2</title>
<path fill="none" stroke="#000000" d="M145.1078,-986.3943C139.6272,-974.1683 132.2232,-957.6517 126.0134,-943.7992"/>
<polygon fill="#000000" stroke="#000000" points="129.0318,-941.976 121.7474,-934.2827 122.6442,-944.8395 129.0318,-941.976"/>
<text text-anchor="middle" x="138.5" y="-956.8" font-family="Times,serif" font-size="14.00" fill="#000000">ε</text>
</g>
<!-- 0&#45;&gt;1 -->
<g id="edge2" class="edge">
<title>0&#45;&gt;1</title>
<path fill="none" stroke="#000000" d="M155.9598,-985.8554C159.8758,-961.8485 166.8186,-919.2861 171.4157,-891.1035"/>
<polygon fill="#000000" stroke="#000000" points="174.8959,-891.508 173.0516,-881.075 167.9872,-890.381 174.8959,-891.508"/>
<text text-anchor="middle" x="174" y="-956.8" font-family="Times,serif" font-size="14.00" fill="#000000">:Exp</text>
</g>
<!-- 0&#45;&gt;0 -->
<g id="edge4" class="edge">
<title>0&#45;&gt;0</title>
<path fill="none" stroke="#000000" d="M178.4435,-1010.6907C189.0278,-1011.1521 198,-1008.9219 198,-1004 198,-1000.77 194.136,-998.6992 188.4881,-997.7876"/>
<polygon fill="#000000" stroke="#000000" points="188.5987,-994.289 178.4435,-997.3093 188.2656,-1001.2811 188.5987,-994.289"/>
<text text-anchor="middle" x="201.5" y="-1000.3" font-family="Times,serif" font-size="14.00" fill="#000000">ε</text>
</g>
<!-- 6&#45;&gt;6&#45;0 -->
<g id="edge14" class="edge">
<title>6&#45;&gt;6&#45;0</title>
<path fill="none" stroke="#000000" d="M113.928,-442.9735C112.5738,-431.1918 110.7771,-415.5607 109.2366,-402.1581"/>
<polygon fill="#000000" stroke="#000000" points="112.6885,-401.5383 108.0694,-392.0034 105.7342,-402.3376 112.6885,-401.5383"/>
<text text-anchor="middle" x="114.5" y="-413.8" font-family="Times,serif" font-size="14.00" fill="#000000">ε</text>
</g>
<!-- 7&#45;&gt;8 -->
<g id="edge21" class="edge">
<title>7&#45;&gt;8</title>
<path fill="none" stroke="#000000" d="M136.5319,-95.0213C140.2254,-83.0173 145.1786,-66.9196 149.4943,-52.8935"/>
<polygon fill="#000000" stroke="#000000" points="152.9013,-53.7217 152.497,-43.1346 146.2109,-51.6631 152.9013,-53.7217"/>
<text text-anchor="middle" x="149.5" y="-65.8" font-family="Times,serif" font-size="14.00" fill="#000000">ε</text>
</g>
<!-- 4&#45;0&#45;&gt;4&#45;1 -->
<g id="edge10" class="edge">
<title>4&#45;0&#45;&gt;4&#45;1</title>
<path fill="none" stroke="#000000" d="M62.6385,-619.8843C57.5985,-613.9059 52.621,-606.6391 50,-599 47.5386,-591.8263 46.836,-583.7447 46.9909,-576.1655"/>
<polygon fill="#000000" stroke="#000000" points="50.5001,-576.1469 47.6868,-565.9325 43.5163,-575.6719 50.5001,-576.1469"/>
<text text-anchor="middle" x="78.5" y="-587.8" font-family="Times,serif" font-size="14.00" fill="#000000">:Character</text>
</g>
<!-- 4&#45;0&#45;&gt;5 -->
<g id="edge8" class="edge">
<title>4&#45;0&#45;&gt;5</title>
<path fill="none" stroke="#000000" d="M92.0988,-619.6315C97.2381,-613.5136 102.8099,-606.2187 107,-599 111.2299,-591.7128 114.9274,-583.3614 117.9544,-575.5551"/>
<polygon fill="#000000" stroke="#000000" points="121.272,-576.6736 121.4196,-566.0798 114.6978,-574.2693 121.272,-576.6736"/>
<text text-anchor="middle" x="117.5" y="-587.8" font-family="Times,serif" font-size="14.00" fill="#000000">ε</text>
</g>
<!-- 4&#45;0&#45;&gt;4&#45;0 -->
<g id="edge9" class="edge">
<title>4&#45;0&#45;&gt;4&#45;0</title>
<path fill="none" stroke="#000000" d="M102.5325,-642.752C113.5078,-643.4902 123,-640.9063 123,-635 123,-631.0317 118.7151,-628.5632 112.5743,-627.5944"/>
<polygon fill="#000000" stroke="#000000" points="112.6472,-624.0949 102.5325,-627.248 112.4059,-631.0908 112.6472,-624.0949"/>
<text text-anchor="middle" x="126.5" y="-631.3" font-family="Times,serif" font-size="14.00" fill="#000000">ε</text>
</g>
</g>
</svg>
