<?xml version="1.0" encoding="UTF-8" standalone="no"?>
<!DOCTYPE svg PUBLIC "-//W3C//DTD SVG 1.1//EN"
 "http://www.w3.org/Graphics/SVG/1.1/DTD/svg11.dtd">
<!-- Generated by graphviz version 2.40.1 (20161225.0304)
 -->
<!-- Title: %3 Pages: 1 -->
<svg width="681pt" height="410pt"
 viewBox="0.00 0.00 681.00 410.00" xmlns="http://www.w3.org/2000/svg" xmlns:xlink="http://www.w3.org/1999/xlink">
<g id="graph0" class="graph" transform="scale(1 1) rotate(0) translate(4 405.9965)">
<title>%3</title>
<polygon fill="#ffffff" stroke="transparent" points="-4,4 -4,-405.9965 677,-405.9965 677,4 -4,4"/>
<!-- fake0 -->
<g id="node1" class="node">
<title>fake0</title>
</g>
<!-- 0 -->
<g id="node13" class="node">
<title>0</title>
<ellipse fill="none" stroke="#000000" cx="322" cy="-310.9965" rx="27" ry="18"/>
<text text-anchor="middle" x="322" y="-307.2965" font-family="Times,serif" font-size="14.00" fill="#000000">0</text>
</g>
<!-- fake0&#45;&gt;0 -->
<g id="edge1" class="edge">
<title>fake0&#45;&gt;0</title>
<path fill="none" stroke="#000000" stroke-width="2" d="M322,-365.9516C322,-357.8794 322,-348.1729 322,-339.1783"/>
<polygon fill="#000000" stroke="#000000" stroke-width="2" points="325.5001,-339.0869 322,-329.0869 318.5001,-339.0869 325.5001,-339.0869"/>
</g>
<!-- 17 -->
<g id="node2" class="node">
<title>17</title>
<ellipse fill="none" stroke="#000000" cx="286" cy="-115.9965" rx="27" ry="18"/>
<text text-anchor="middle" x="286" y="-112.2965" font-family="Times,serif" font-size="14.00" fill="#000000">17</text>
</g>
<!-- 20 -->
<g id="node19" class="node">
<title>20</title>
<ellipse fill="none" stroke="#000000" cx="322" cy="-23.4983" rx="19.4968" ry="19.4968"/>
<ellipse fill="none" stroke="#000000" cx="322" cy="-23.4983" rx="23.4965" ry="23.4965"/>
<text text-anchor="middle" x="322" y="-19.7983" font-family="Times,serif" font-size="14.00" fill="#000000">20</text>
</g>
<!-- 17&#45;&gt;20 -->
<g id="edge30" class="edge">
<title>17&#45;&gt;20</title>
<path fill="none" stroke="#000000" d="M292.9412,-98.1619C297.689,-85.9627 304.1129,-69.4572 309.7135,-55.0672"/>
<polygon fill="#000000" stroke="#000000" points="313.0632,-56.1103 313.4286,-45.5217 306.5399,-53.5713 313.0632,-56.1103"/>
<text text-anchor="middle" x="308.5" y="-68.7965" font-family="Times,serif" font-size="14.00" fill="#000000">ε</text>
</g>
<!-- 2 -->
<g id="node3" class="node">
<title>2</title>
<ellipse fill="none" stroke="#000000" cx="31" cy="-223.9965" rx="27" ry="18"/>
<text text-anchor="middle" x="31" y="-220.2965" font-family="Times,serif" font-size="14.00" fill="#000000">2</text>
</g>
<!-- 3 -->
<g id="node12" class="node">
<title>3</title>
<ellipse fill="none" stroke="#000000" cx="27" cy="-115.9965" rx="27" ry="18"/>
<text text-anchor="middle" x="27" y="-112.2965" font-family="Times,serif" font-size="14.00" fill="#000000">3</text>
</g>
<!-- 2&#45;&gt;3 -->
<g id="edge13" class="edge">
<title>2&#45;&gt;3</title>
<path fill="none" stroke="#000000" d="M28.0186,-206.1021C27.1917,-200.3394 26.409,-193.9138 26,-187.9965 25.0002,-173.5306 25.1117,-157.3924 25.5327,-144.067"/>
<polygon fill="#000000" stroke="#000000" points="29.0302,-144.1975 25.9214,-134.069 22.0355,-143.9255 29.0302,-144.1975"/>
<text text-anchor="middle" x="39.5" y="-166.2965" font-family="Times,serif" font-size="14.00" fill="#000000">COS</text>
</g>
<!-- 5 -->
<g id="node4" class="node">
<title>5</title>
<ellipse fill="none" stroke="#000000" cx="430" cy="-115.9965" rx="27" ry="18"/>
<text text-anchor="middle" x="430" y="-112.2965" font-family="Times,serif" font-size="14.00" fill="#000000">5</text>
</g>
<!-- 5&#45;&gt;20 -->
<g id="edge24" class="edge">
<title>5&#45;&gt;20</title>
<path fill="none" stroke="#000000" d="M413.125,-101.5437C395.6321,-86.5616 368.0651,-62.9515 347.829,-45.6199"/>
<polygon fill="#000000" stroke="#000000" points="350.0705,-42.9314 340.1986,-39.0847 345.517,-48.248 350.0705,-42.9314"/>
<text text-anchor="middle" x="388.5" y="-68.7965" font-family="Times,serif" font-size="14.00" fill="#000000">ε</text>
</g>
<!-- 1 -->
<g id="node5" class="node">
<title>1</title>
<ellipse fill="none" stroke="#000000" cx="89" cy="-169.9965" rx="27" ry="18"/>
<text text-anchor="middle" x="89" y="-166.2965" font-family="Times,serif" font-size="14.00" fill="#000000">1</text>
</g>
<!-- 1&#45;&gt;20 -->
<g id="edge22" class="edge">
<title>1&#45;&gt;20</title>
<path fill="none" stroke="#000000" d="M86.583,-151.9342C85.485,-135.9645 86.5812,-112.946 99,-97.9965 123.5649,-68.4258 232.7078,-42.0388 288.6678,-30.1593"/>
<polygon fill="#000000" stroke="#000000" points="289.7144,-33.5163 298.7879,-28.0462 288.2837,-26.6641 289.7144,-33.5163"/>
<text text-anchor="middle" x="102.5" y="-112.2965" font-family="Times,serif" font-size="14.00" fill="#000000">ε</text>
</g>
<!-- 8 -->
<g id="node6" class="node">
<title>8</title>
<ellipse fill="none" stroke="#000000" cx="142" cy="-223.9965" rx="27" ry="18"/>
<text text-anchor="middle" x="142" y="-220.2965" font-family="Times,serif" font-size="14.00" fill="#000000">8</text>
</g>
<!-- 9 -->
<g id="node18" class="node">
<title>9</title>
<ellipse fill="none" stroke="#000000" cx="142" cy="-115.9965" rx="27" ry="18"/>
<text text-anchor="middle" x="142" y="-112.2965" font-family="Times,serif" font-size="14.00" fill="#000000">9</text>
</g>
<!-- 8&#45;&gt;9 -->
<g id="edge16" class="edge">
<title>8&#45;&gt;9</title>
<path fill="none" stroke="#000000" d="M142,-205.6758C142,-188.8175 142,-163.5617 142,-144.1435"/>
<polygon fill="#000000" stroke="#000000" points="145.5001,-144.0467 142,-134.0467 138.5001,-144.0467 145.5001,-144.0467"/>
<text text-anchor="middle" x="155" y="-166.2965" font-family="Times,serif" font-size="14.00" fill="#000000">EXP</text>
</g>
<!-- 18 -->
<g id="node7" class="node">
<title>18</title>
<ellipse fill="none" stroke="#000000" cx="214" cy="-223.9965" rx="27" ry="18"/>
<text text-anchor="middle" x="214" y="-220.2965" font-family="Times,serif" font-size="14.00" fill="#000000">18</text>
</g>
<!-- 19 -->
<g id="node22" class="node">
<title>19</title>
<ellipse fill="none" stroke="#000000" cx="214" cy="-115.9965" rx="27" ry="18"/>
<text text-anchor="middle" x="214" y="-112.2965" font-family="Times,serif" font-size="14.00" fill="#000000">19</text>
</g>
<!-- 18&#45;&gt;19 -->
<g id="edge21" class="edge">
<title>18&#45;&gt;19</title>
<path fill="none" stroke="#000000" d="M214,-205.6758C214,-188.8175 214,-163.5617 214,-144.1435"/>
<polygon fill="#000000" stroke="#000000" points="217.5001,-144.0467 214,-134.0467 210.5001,-144.0467 217.5001,-144.0467"/>
<text text-anchor="middle" x="228.5" y="-166.2965" font-family="Times,serif" font-size="14.00" fill="#000000">RND</text>
</g>
<!-- 16 -->
<g id="node8" class="node">
<title>16</title>
<ellipse fill="none" stroke="#000000" cx="286" cy="-223.9965" rx="27" ry="18"/>
<text text-anchor="middle" x="286" y="-220.2965" font-family="Times,serif" font-size="14.00" fill="#000000">16</text>
</g>
<!-- 16&#45;&gt;17 -->
<g id="edge20" class="edge">
<title>16&#45;&gt;17</title>
<path fill="none" stroke="#000000" d="M286,-205.6758C286,-188.8175 286,-163.5617 286,-144.1435"/>
<polygon fill="#000000" stroke="#000000" points="289.5001,-144.0467 286,-134.0467 282.5001,-144.0467 289.5001,-144.0467"/>
<text text-anchor="middle" x="294" y="-166.2965" font-family="Times,serif" font-size="14.00" fill="#000000">Int</text>
</g>
<!-- 10 -->
<g id="node9" class="node">
<title>10</title>
<ellipse fill="none" stroke="#000000" cx="358" cy="-223.9965" rx="27" ry="18"/>
<text text-anchor="middle" x="358" y="-220.2965" font-family="Times,serif" font-size="14.00" fill="#000000">10</text>
</g>
<!-- 11 -->
<g id="node20" class="node">
<title>11</title>
<ellipse fill="none" stroke="#000000" cx="358" cy="-115.9965" rx="27" ry="18"/>
<text text-anchor="middle" x="358" y="-112.2965" font-family="Times,serif" font-size="14.00" fill="#000000">11</text>
</g>
<!-- 10&#45;&gt;11 -->
<g id="edge17" class="edge">
<title>10&#45;&gt;11</title>
<path fill="none" stroke="#000000" d="M358,-205.6758C358,-188.8175 358,-163.5617 358,-144.1435"/>
<polygon fill="#000000" stroke="#000000" points="361.5001,-144.0467 358,-134.0467 354.5001,-144.0467 361.5001,-144.0467"/>
<text text-anchor="middle" x="371.5" y="-166.2965" font-family="Times,serif" font-size="14.00" fill="#000000">ABS</text>
</g>
<!-- 4 -->
<g id="node10" class="node">
<title>4</title>
<ellipse fill="none" stroke="#000000" cx="430" cy="-223.9965" rx="27" ry="18"/>
<text text-anchor="middle" x="430" y="-220.2965" font-family="Times,serif" font-size="14.00" fill="#000000">4</text>
</g>
<!-- 4&#45;&gt;5 -->
<g id="edge14" class="edge">
<title>4&#45;&gt;5</title>
<path fill="none" stroke="#000000" d="M430,-205.6758C430,-188.8175 430,-163.5617 430,-144.1435"/>
<polygon fill="#000000" stroke="#000000" points="433.5001,-144.0467 430,-134.0467 426.5001,-144.0467 433.5001,-144.0467"/>
<text text-anchor="middle" x="444" y="-166.2965" font-family="Times,serif" font-size="14.00" fill="#000000">TAN</text>
</g>
<!-- 12 -->
<g id="node11" class="node">
<title>12</title>
<ellipse fill="none" stroke="#000000" cx="502" cy="-223.9965" rx="27" ry="18"/>
<text text-anchor="middle" x="502" y="-220.2965" font-family="Times,serif" font-size="14.00" fill="#000000">12</text>
</g>
<!-- 13 -->
<g id="node14" class="node">
<title>13</title>
<ellipse fill="none" stroke="#000000" cx="502" cy="-115.9965" rx="27" ry="18"/>
<text text-anchor="middle" x="502" y="-112.2965" font-family="Times,serif" font-size="14.00" fill="#000000">13</text>
</g>
<!-- 12&#45;&gt;13 -->
<g id="edge18" class="edge">
<title>12&#45;&gt;13</title>
<path fill="none" stroke="#000000" d="M502,-205.6758C502,-188.8175 502,-163.5617 502,-144.1435"/>
<polygon fill="#000000" stroke="#000000" points="505.5001,-144.0467 502,-134.0467 498.5001,-144.0467 505.5001,-144.0467"/>
<text text-anchor="middle" x="516" y="-166.2965" font-family="Times,serif" font-size="14.00" fill="#000000">LOG</text>
</g>
<!-- 3&#45;&gt;20 -->
<g id="edge23" class="edge">
<title>3&#45;&gt;20</title>
<path fill="none" stroke="#000000" d="M36.4826,-99.0059C43.8259,-87.5083 55.0821,-73.0065 69,-64.9965 105.7567,-43.8424 227.976,-31.1876 288.06,-26.1001"/>
<polygon fill="#000000" stroke="#000000" points="288.5003,-29.5758 298.1787,-25.2654 287.9248,-22.5995 288.5003,-29.5758"/>
<text text-anchor="middle" x="72.5" y="-68.7965" font-family="Times,serif" font-size="14.00" fill="#000000">ε</text>
</g>
<!-- 0&#45;&gt;2 -->
<g id="edge4" class="edge">
<title>0&#45;&gt;2</title>
<path fill="none" stroke="#000000" d="M294.6258,-310.371C235.0255,-308.5224 95.8277,-301.4188 58,-274.9965 49.797,-269.2668 43.885,-260.2453 39.725,-251.3726"/>
<polygon fill="#000000" stroke="#000000" points="42.9016,-249.8938 35.873,-241.966 36.4237,-252.5465 42.9016,-249.8938"/>
<text text-anchor="middle" x="61.5" y="-263.7965" font-family="Times,serif" font-size="14.00" fill="#000000">ε</text>
</g>
<!-- 0&#45;&gt;1 -->
<g id="edge2" class="edge">
<title>0&#45;&gt;1</title>
<path fill="none" stroke="#000000" d="M295.7435,-306.1205C243.9107,-295.9569 131.2628,-271.0239 106,-241.9965 95.5511,-229.9906 91.2346,-212.7367 89.5621,-198.129"/>
<polygon fill="#000000" stroke="#000000" points="93.0441,-197.7636 88.7615,-188.0729 86.0662,-198.3191 93.0441,-197.7636"/>
<text text-anchor="middle" x="178" y="-263.7965" font-family="Times,serif" font-size="14.00" fill="#000000">SIN</text>
</g>
<!-- 0&#45;&gt;8 -->
<g id="edge9" class="edge">
<title>0&#45;&gt;8</title>
<path fill="none" stroke="#000000" d="M299.4952,-300.3565C271.108,-286.9024 220.8254,-262.9613 178,-241.9965 176.2584,-241.144 174.4714,-240.2647 172.6692,-239.3746"/>
<polygon fill="#000000" stroke="#000000" points="174.1859,-236.22 163.6728,-234.9066 171.0722,-242.4894 174.1859,-236.22"/>
<text text-anchor="middle" x="247.5" y="-263.7965" font-family="Times,serif" font-size="14.00" fill="#000000">ε</text>
</g>
<!-- 0&#45;&gt;18 -->
<g id="edge7" class="edge">
<title>0&#45;&gt;18</title>
<path fill="none" stroke="#000000" d="M304.6479,-297.0185C286.9345,-282.7493 259.2596,-260.4557 239.1461,-244.2532"/>
<polygon fill="#000000" stroke="#000000" points="241.2922,-241.4876 231.309,-237.9399 236.9009,-246.9389 241.2922,-241.4876"/>
<text text-anchor="middle" x="277.5" y="-263.7965" font-family="Times,serif" font-size="14.00" fill="#000000">ε</text>
</g>
<!-- 0&#45;&gt;16 -->
<g id="edge3" class="edge">
<title>0&#45;&gt;16</title>
<path fill="none" stroke="#000000" d="M314.7149,-293.3908C309.6889,-281.2448 302.9107,-264.864 297.2018,-251.0677"/>
<polygon fill="#000000" stroke="#000000" points="300.3319,-249.478 293.2743,-241.5761 293.8638,-252.1545 300.3319,-249.478"/>
<text text-anchor="middle" x="309.5" y="-263.7965" font-family="Times,serif" font-size="14.00" fill="#000000">ε</text>
</g>
<!-- 0&#45;&gt;10 -->
<g id="edge5" class="edge">
<title>0&#45;&gt;10</title>
<path fill="none" stroke="#000000" d="M329.2851,-293.3908C334.3111,-281.2448 341.0893,-264.864 346.7982,-251.0677"/>
<polygon fill="#000000" stroke="#000000" points="350.1362,-252.1545 350.7257,-241.5761 343.6681,-249.478 350.1362,-252.1545"/>
<text text-anchor="middle" x="345.5" y="-263.7965" font-family="Times,serif" font-size="14.00" fill="#000000">ε</text>
</g>
<!-- 0&#45;&gt;4 -->
<g id="edge6" class="edge">
<title>0&#45;&gt;4</title>
<path fill="none" stroke="#000000" d="M339.3521,-297.0185C357.0655,-282.7493 384.7404,-260.4557 404.8539,-244.2532"/>
<polygon fill="#000000" stroke="#000000" points="407.0991,-246.9389 412.691,-237.9399 402.7078,-241.4876 407.0991,-246.9389"/>
<text text-anchor="middle" x="385.5" y="-263.7965" font-family="Times,serif" font-size="14.00" fill="#000000">ε</text>
</g>
<!-- 0&#45;&gt;12 -->
<g id="edge12" class="edge">
<title>0&#45;&gt;12</title>
<path fill="none" stroke="#000000" d="M344.5048,-300.3565C372.892,-286.9024 423.1746,-262.9613 466,-241.9965 467.7416,-241.144 469.5286,-240.2647 471.3308,-239.3746"/>
<polygon fill="#000000" stroke="#000000" points="472.9278,-242.4894 480.3272,-234.9066 469.8141,-236.22 472.9278,-242.4894"/>
<text text-anchor="middle" x="429.5" y="-263.7965" font-family="Times,serif" font-size="14.00" fill="#000000">ε</text>
</g>
<!-- 0&#45;&gt;0 -->
<g id="edge8" class="edge">
<title>0&#45;&gt;0</title>
<path fill="none" stroke="#000000" d="M347.4435,-317.6872C358.0278,-318.1486 367,-315.9184 367,-310.9965 367,-307.7666 363.136,-305.6958 357.4881,-304.7842"/>
<polygon fill="#000000" stroke="#000000" points="357.5987,-301.2856 347.4435,-304.3059 357.2656,-308.2777 357.5987,-301.2856"/>
<text text-anchor="middle" x="370.5" y="-307.2965" font-family="Times,serif" font-size="14.00" fill="#000000">ε</text>
</g>
<!-- 6 -->
<g id="node15" class="node">
<title>6</title>
<ellipse fill="none" stroke="#000000" cx="574" cy="-223.9965" rx="27" ry="18"/>
<text text-anchor="middle" x="574" y="-220.2965" font-family="Times,serif" font-size="14.00" fill="#000000">6</text>
</g>
<!-- 0&#45;&gt;6 -->
<g id="edge11" class="edge">
<title>0&#45;&gt;6</title>
<path fill="none" stroke="#000000" d="M347.4136,-304.3136C388.2774,-293.2505 470.8145,-269.5917 538,-241.9965 539.7937,-241.2598 541.6215,-240.4713 543.455,-239.6509"/>
<polygon fill="#000000" stroke="#000000" points="544.981,-242.801 552.5378,-235.3751 541.9995,-236.4677 544.981,-242.801"/>
<text text-anchor="middle" x="488.5" y="-263.7965" font-family="Times,serif" font-size="14.00" fill="#000000">ε</text>
</g>
<!-- 14 -->
<g id="node21" class="node">
<title>14</title>
<ellipse fill="none" stroke="#000000" cx="646" cy="-223.9965" rx="27" ry="18"/>
<text text-anchor="middle" x="646" y="-220.2965" font-family="Times,serif" font-size="14.00" fill="#000000">14</text>
</g>
<!-- 0&#45;&gt;14 -->
<g id="edge10" class="edge">
<title>0&#45;&gt;14</title>
<path fill="none" stroke="#000000" d="M348.548,-307.1445C400.2159,-299.1071 517.3425,-278.2241 610,-241.9965 611.8548,-241.2714 613.7427,-240.4845 615.6335,-239.6588"/>
<polygon fill="#000000" stroke="#000000" points="617.3826,-242.7053 624.9704,-235.311 614.4276,-236.3596 617.3826,-242.7053"/>
<text text-anchor="middle" x="559.5" y="-263.7965" font-family="Times,serif" font-size="14.00" fill="#000000">ε</text>
</g>
<!-- 13&#45;&gt;20 -->
<g id="edge28" class="edge">
<title>13&#45;&gt;20</title>
<path fill="none" stroke="#000000" d="M480.2878,-104.8391C448.2715,-88.3866 388.2858,-57.5612 352.0588,-38.9449"/>
<polygon fill="#000000" stroke="#000000" points="353.447,-35.7232 342.953,-34.2656 350.2476,-41.9493 353.447,-35.7232"/>
<text text-anchor="middle" x="431.5" y="-68.7965" font-family="Times,serif" font-size="14.00" fill="#000000">ε</text>
</g>
<!-- 7 -->
<g id="node16" class="node">
<title>7</title>
<ellipse fill="none" stroke="#000000" cx="574" cy="-115.9965" rx="27" ry="18"/>
<text text-anchor="middle" x="574" y="-112.2965" font-family="Times,serif" font-size="14.00" fill="#000000">7</text>
</g>
<!-- 6&#45;&gt;7 -->
<g id="edge15" class="edge">
<title>6&#45;&gt;7</title>
<path fill="none" stroke="#000000" d="M574,-205.6758C574,-188.8175 574,-163.5617 574,-144.1435"/>
<polygon fill="#000000" stroke="#000000" points="577.5001,-144.0467 574,-134.0467 570.5001,-144.0467 577.5001,-144.0467"/>
<text text-anchor="middle" x="588" y="-166.2965" font-family="Times,serif" font-size="14.00" fill="#000000">ATN</text>
</g>
<!-- 7&#45;&gt;20 -->
<g id="edge25" class="edge">
<title>7&#45;&gt;20</title>
<path fill="none" stroke="#000000" d="M552.5133,-104.6771C547.7861,-102.3494 542.767,-100.0001 538,-97.9965 474.1835,-71.1743 396.9995,-46.302 354.3274,-33.1852"/>
<polygon fill="#000000" stroke="#000000" points="355.3408,-29.8352 344.7546,-30.2622 353.2965,-36.53 355.3408,-29.8352"/>
<text text-anchor="middle" x="494.5" y="-68.7965" font-family="Times,serif" font-size="14.00" fill="#000000">ε</text>
</g>
<!-- 15 -->
<g id="node17" class="node">
<title>15</title>
<ellipse fill="none" stroke="#000000" cx="646" cy="-115.9965" rx="27" ry="18"/>
<text text-anchor="middle" x="646" y="-112.2965" font-family="Times,serif" font-size="14.00" fill="#000000">15</text>
</g>
<!-- 15&#45;&gt;20 -->
<g id="edge29" class="edge">
<title>15&#45;&gt;20</title>
<path fill="none" stroke="#000000" d="M624.5662,-104.5481C619.8357,-102.2284 614.8019,-99.915 610,-97.9965 521.1996,-62.5186 410.1949,-39.3895 355.558,-29.3053"/>
<polygon fill="#000000" stroke="#000000" points="355.8698,-25.8048 345.4054,-27.4626 354.6196,-32.6923 355.8698,-25.8048"/>
<text text-anchor="middle" x="559.5" y="-68.7965" font-family="Times,serif" font-size="14.00" fill="#000000">ε</text>
</g>
<!-- 9&#45;&gt;20 -->
<g id="edge26" class="edge">
<title>9&#45;&gt;20</title>
<path fill="none" stroke="#000000" d="M163.7122,-104.8391C195.7285,-88.3866 255.7142,-57.5612 291.9412,-38.9449"/>
<polygon fill="#000000" stroke="#000000" points="293.7524,-41.9493 301.047,-34.2656 290.553,-35.7232 293.7524,-41.9493"/>
<text text-anchor="middle" x="240.5" y="-68.7965" font-family="Times,serif" font-size="14.00" fill="#000000">ε</text>
</g>
<!-- 11&#45;&gt;20 -->
<g id="edge27" class="edge">
<title>11&#45;&gt;20</title>
<path fill="none" stroke="#000000" d="M351.0588,-98.1619C346.311,-85.9627 339.8871,-69.4572 334.2865,-55.0672"/>
<polygon fill="#000000" stroke="#000000" points="337.4601,-53.5713 330.5714,-45.5217 330.9368,-56.1103 337.4601,-53.5713"/>
<text text-anchor="middle" x="346.5" y="-68.7965" font-family="Times,serif" font-size="14.00" fill="#000000">ε</text>
</g>
<!-- 14&#45;&gt;15 -->
<g id="edge19" class="edge">
<title>14&#45;&gt;15</title>
<path fill="none" stroke="#000000" d="M646,-205.6758C646,-188.8175 646,-163.5617 646,-144.1435"/>
<polygon fill="#000000" stroke="#000000" points="649.5001,-144.0467 646,-134.0467 642.5001,-144.0467 649.5001,-144.0467"/>
<text text-anchor="middle" x="659.5" y="-166.2965" font-family="Times,serif" font-size="14.00" fill="#000000">SQR</text>
</g>
<!-- 19&#45;&gt;20 -->
<g id="edge31" class="edge">
<title>19&#45;&gt;20</title>
<path fill="none" stroke="#000000" d="M230.875,-101.5437C248.3679,-86.5616 275.9349,-62.9515 296.171,-45.6199"/>
<polygon fill="#000000" stroke="#000000" points="298.483,-48.248 303.8014,-39.0847 293.9295,-42.9314 298.483,-48.248"/>
<text text-anchor="middle" x="274.5" y="-68.7965" font-family="Times,serif" font-size="14.00" fill="#000000">ε</text>
</g>
</g>
</svg>
