<?xml version="1.0" encoding="UTF-8" standalone="no"?>
<!DOCTYPE svg PUBLIC "-//W3C//DTD SVG 1.1//EN"
 "http://www.w3.org/Graphics/SVG/1.1/DTD/svg11.dtd">
<!-- Generated by graphviz version 2.40.1 (20161225.0304)
 -->
<!-- Title: %3 Pages: 1 -->
<svg width="270pt" height="1169pt"
 viewBox="0.00 0.00 269.90 1169.00" xmlns="http://www.w3.org/2000/svg" xmlns:xlink="http://www.w3.org/1999/xlink">
<g id="graph0" class="graph" transform="scale(1 1) rotate(0) translate(4 1165)">
<title>%3</title>
<polygon fill="#ffffff" stroke="transparent" points="-4,4 -4,-1165 265.8973,-1165 265.8973,4 -4,4"/>
<!-- fake0 -->
<g id="node1" class="node">
<title>fake0</title>
</g>
<!-- 0 -->
<g id="node12" class="node">
<title>0</title>
<ellipse fill="none" stroke="#000000" cx="209.8973" cy="-1070" rx="27" ry="18"/>
<text text-anchor="middle" x="209.8973" y="-1066.3" font-family="Times,serif" font-size="14.00" fill="#000000">0</text>
</g>
<!-- fake0&#45;&gt;0 -->
<g id="edge1" class="edge">
<title>fake0&#45;&gt;0</title>
<path fill="none" stroke="#000000" stroke-width="2" d="M209.8973,-1124.9551C209.8973,-1116.8828 209.8973,-1107.1764 209.8973,-1098.1817"/>
<polygon fill="#000000" stroke="#000000" stroke-width="2" points="213.3974,-1098.0903 209.8973,-1088.0904 206.3974,-1098.0904 213.3974,-1098.0903"/>
</g>
<!-- 1&#45;2&#45;2 -->
<g id="node2" class="node">
<title>1&#45;2&#45;2</title>
<ellipse fill="none" stroke="#000000" cx="84.8973" cy="-374" rx="29.795" ry="18"/>
<text text-anchor="middle" x="84.8973" y="-370.3" font-family="Times,serif" font-size="14.00" fill="#000000">1&#45;2&#45;2</text>
</g>
<!-- 1&#45;3 -->
<g id="node6" class="node">
<title>1&#45;3</title>
<ellipse fill="none" stroke="#000000" cx="157.8973" cy="-287" rx="27" ry="18"/>
<text text-anchor="middle" x="157.8973" y="-283.3" font-family="Times,serif" font-size="14.00" fill="#000000">1&#45;3</text>
</g>
<!-- 1&#45;2&#45;2&#45;&gt;1&#45;3 -->
<g id="edge17" class="edge">
<title>1&#45;2&#45;2&#45;&gt;1&#45;3</title>
<path fill="none" stroke="#000000" d="M98.6281,-357.636C109.7098,-344.429 125.4537,-325.6657 137.93,-310.7967"/>
<polygon fill="#000000" stroke="#000000" points="140.7282,-312.907 144.4748,-302.9967 135.3658,-308.4075 140.7282,-312.907"/>
<text text-anchor="middle" x="129.3973" y="-326.8" font-family="Times,serif" font-size="14.00" fill="#000000">ε</text>
</g>
<!-- 1&#45;1 -->
<g id="node3" class="node">
<title>1&#45;1</title>
<ellipse fill="none" stroke="#000000" cx="174.8973" cy="-809" rx="27" ry="18"/>
<text text-anchor="middle" x="174.8973" y="-805.3" font-family="Times,serif" font-size="14.00" fill="#000000">1&#45;1</text>
</g>
<!-- 1&#45;1&#45;0 -->
<g id="node15" class="node">
<title>1&#45;1&#45;0</title>
<ellipse fill="none" stroke="#000000" cx="148.8973" cy="-722" rx="29.795" ry="18"/>
<text text-anchor="middle" x="148.8973" y="-718.3" font-family="Times,serif" font-size="14.00" fill="#000000">1&#45;1&#45;0</text>
</g>
<!-- 1&#45;1&#45;&gt;1&#45;1&#45;0 -->
<g id="edge9" class="edge">
<title>1&#45;1&#45;&gt;1&#45;1&#45;0</title>
<path fill="none" stroke="#000000" d="M169.5101,-790.9735C165.9543,-779.0751 161.2252,-763.2508 157.1936,-749.7606"/>
<polygon fill="#000000" stroke="#000000" points="160.4946,-748.5825 154.2777,-740.0034 153.7877,-750.5869 160.4946,-748.5825"/>
<text text-anchor="middle" x="167.3973" y="-761.8" font-family="Times,serif" font-size="14.00" fill="#000000">ε</text>
</g>
<!-- 3 -->
<g id="node4" class="node">
<title>3</title>
<ellipse fill="none" stroke="#000000" cx="209.8973" cy="-22" rx="18" ry="18"/>
<ellipse fill="none" stroke="#000000" cx="209.8973" cy="-22" rx="22" ry="22"/>
<text text-anchor="middle" x="209.8973" y="-18.3" font-family="Times,serif" font-size="14.00" fill="#000000">3</text>
</g>
<!-- 1&#45;2&#45;1 -->
<g id="node5" class="node">
<title>1&#45;2&#45;1</title>
<ellipse fill="none" stroke="#000000" cx="84.8973" cy="-461" rx="29.795" ry="18"/>
<text text-anchor="middle" x="84.8973" y="-457.3" font-family="Times,serif" font-size="14.00" fill="#000000">1&#45;2&#45;1</text>
</g>
<!-- 1&#45;2&#45;1&#45;&gt;1&#45;2&#45;2 -->
<g id="edge21" class="edge">
<title>1&#45;2&#45;1&#45;&gt;1&#45;2&#45;2</title>
<path fill="none" stroke="#000000" d="M84.8973,-442.9735C84.8973,-431.1918 84.8973,-415.5607 84.8973,-402.1581"/>
<polygon fill="#000000" stroke="#000000" points="88.3974,-402.0033 84.8973,-392.0034 81.3974,-402.0034 88.3974,-402.0033"/>
<text text-anchor="middle" x="88.3973" y="-413.8" font-family="Times,serif" font-size="14.00" fill="#000000">ε</text>
</g>
<!-- 1&#45;4 -->
<g id="node14" class="node">
<title>1&#45;4</title>
<ellipse fill="none" stroke="#000000" cx="209.8973" cy="-200" rx="27" ry="18"/>
<text text-anchor="middle" x="209.8973" y="-196.3" font-family="Times,serif" font-size="14.00" fill="#000000">1&#45;4</text>
</g>
<!-- 1&#45;3&#45;&gt;1&#45;4 -->
<g id="edge22" class="edge">
<title>1&#45;3&#45;&gt;1&#45;4</title>
<path fill="none" stroke="#000000" d="M167.9235,-270.2255C175.4769,-257.588 185.9671,-240.0371 194.5706,-225.6429"/>
<polygon fill="#000000" stroke="#000000" points="197.7758,-227.1023 199.902,-216.723 191.7672,-223.5109 197.7758,-227.1023"/>
<text text-anchor="middle" x="191.3973" y="-239.8" font-family="Times,serif" font-size="14.00" fill="#000000">ε</text>
</g>
<!-- 1&#45;2&#45;0 -->
<g id="node7" class="node">
<title>1&#45;2&#45;0</title>
<ellipse fill="none" stroke="#000000" cx="29.8973" cy="-548" rx="29.795" ry="18"/>
<text text-anchor="middle" x="29.8973" y="-544.3" font-family="Times,serif" font-size="14.00" fill="#000000">1&#45;2&#45;0</text>
</g>
<!-- 1&#45;2&#45;0&#45;&gt;1&#45;2&#45;2 -->
<g id="edge19" class="edge">
<title>1&#45;2&#45;0&#45;&gt;1&#45;2&#45;2</title>
<path fill="none" stroke="#000000" d="M28.7692,-529.9735C28.0308,-508.5953 28.6805,-472.1835 38.8973,-443 44.5792,-426.7702 54.9722,-410.6652 64.4435,-398.1013"/>
<polygon fill="#000000" stroke="#000000" points="67.3704,-400.0407 70.7841,-390.0109 61.8608,-395.7227 67.3704,-400.0407"/>
<text text-anchor="middle" x="42.3973" y="-457.3" font-family="Times,serif" font-size="14.00" fill="#000000">ε</text>
</g>
<!-- 1&#45;2&#45;0&#45;&gt;1&#45;2&#45;1 -->
<g id="edge18" class="edge">
<title>1&#45;2&#45;0&#45;&gt;1&#45;2&#45;1</title>
<path fill="none" stroke="#000000" d="M40.7636,-530.8116C48.7246,-518.2187 59.6647,-500.9135 68.6607,-486.6834"/>
<polygon fill="#000000" stroke="#000000" points="71.8556,-488.1795 74.2408,-477.8567 65.9388,-484.439 71.8556,-488.1795"/>
<text text-anchor="middle" x="62.8973" y="-500.8" font-family="Times,serif" font-size="14.00" fill="#000000">,</text>
</g>
<!-- 1&#45;2&#45;0&#45;&gt;1&#45;2&#45;0 -->
<g id="edge20" class="edge">
<title>1&#45;2&#45;0&#45;&gt;1&#45;2&#45;0</title>
<path fill="none" stroke="#000000" d="M56.979,-555.8058C68.2448,-556.3441 77.7947,-553.7422 77.7947,-548 77.7947,-544.142 73.4837,-541.7015 67.2378,-540.6786"/>
<polygon fill="#000000" stroke="#000000" points="67.133,-537.1698 56.979,-540.1942 66.8028,-544.162 67.133,-537.1698"/>
<text text-anchor="middle" x="81.2947" y="-544.3" font-family="Times,serif" font-size="14.00" fill="#000000">ε</text>
</g>
<!-- 2 -->
<g id="node8" class="node">
<title>2</title>
<ellipse fill="none" stroke="#000000" cx="209.8973" cy="-113" rx="27" ry="18"/>
<text text-anchor="middle" x="209.8973" y="-109.3" font-family="Times,serif" font-size="14.00" fill="#000000">2</text>
</g>
<!-- 2&#45;&gt;3 -->
<g id="edge23" class="edge">
<title>2&#45;&gt;3</title>
<path fill="none" stroke="#000000" d="M209.8973,-94.5848C209.8973,-83.1105 209.8973,-68.0231 209.8973,-54.5774"/>
<polygon fill="#000000" stroke="#000000" points="213.3974,-54.2465 209.8973,-44.2465 206.3974,-54.2466 213.3974,-54.2465"/>
<text text-anchor="middle" x="213.3973" y="-65.8" font-family="Times,serif" font-size="14.00" fill="#000000">ε</text>
</g>
<!-- 1&#45;2 -->
<g id="node9" class="node">
<title>1&#45;2</title>
<ellipse fill="none" stroke="#000000" cx="49.8973" cy="-635" rx="27" ry="18"/>
<text text-anchor="middle" x="49.8973" y="-631.3" font-family="Times,serif" font-size="14.00" fill="#000000">1&#45;2</text>
</g>
<!-- 1&#45;2&#45;&gt;1&#45;2&#45;0 -->
<g id="edge16" class="edge">
<title>1&#45;2&#45;&gt;1&#45;2&#45;0</title>
<path fill="none" stroke="#000000" d="M45.7533,-616.9735C43.0181,-605.0751 39.3803,-589.2508 36.2791,-575.7606"/>
<polygon fill="#000000" stroke="#000000" points="39.6876,-574.965 34.0361,-566.0034 32.8655,-576.5333 39.6876,-574.965"/>
<text text-anchor="middle" x="45.3973" y="-587.8" font-family="Times,serif" font-size="14.00" fill="#000000">ε</text>
</g>
<!-- 1 -->
<g id="node10" class="node">
<title>1</title>
<ellipse fill="none" stroke="#000000" cx="209.8973" cy="-983" rx="27" ry="18"/>
<text text-anchor="middle" x="209.8973" y="-979.3" font-family="Times,serif" font-size="14.00" fill="#000000">1</text>
</g>
<!-- 1&#45;0 -->
<g id="node16" class="node">
<title>1&#45;0</title>
<ellipse fill="none" stroke="#000000" cx="209.8973" cy="-896" rx="27" ry="18"/>
<text text-anchor="middle" x="209.8973" y="-892.3" font-family="Times,serif" font-size="14.00" fill="#000000">1&#45;0</text>
</g>
<!-- 1&#45;&gt;1&#45;0 -->
<g id="edge4" class="edge">
<title>1&#45;&gt;1&#45;0</title>
<path fill="none" stroke="#000000" d="M209.8973,-964.9735C209.8973,-953.1918 209.8973,-937.5607 209.8973,-924.1581"/>
<polygon fill="#000000" stroke="#000000" points="213.3974,-924.0033 209.8973,-914.0034 206.3974,-924.0034 213.3974,-924.0033"/>
<text text-anchor="middle" x="213.3973" y="-935.8" font-family="Times,serif" font-size="14.00" fill="#000000">ε</text>
</g>
<!-- 1&#45;1&#45;2 -->
<g id="node11" class="node">
<title>1&#45;1&#45;2</title>
<ellipse fill="none" stroke="#000000" cx="132.8973" cy="-548" rx="29.795" ry="18"/>
<text text-anchor="middle" x="132.8973" y="-544.3" font-family="Times,serif" font-size="14.00" fill="#000000">1&#45;1&#45;2</text>
</g>
<!-- 1&#45;1&#45;3 -->
<g id="node17" class="node">
<title>1&#45;1&#45;3</title>
<ellipse fill="none" stroke="#000000" cx="171.8973" cy="-461" rx="29.795" ry="18"/>
<text text-anchor="middle" x="171.8973" y="-457.3" font-family="Times,serif" font-size="14.00" fill="#000000">1&#45;1&#45;3</text>
</g>
<!-- 1&#45;1&#45;2&#45;&gt;1&#45;1&#45;3 -->
<g id="edge14" class="edge">
<title>1&#45;1&#45;2&#45;&gt;1&#45;1&#45;3</title>
<path fill="none" stroke="#000000" d="M140.7896,-530.3943C146.2344,-518.2482 153.5775,-501.8674 159.762,-488.0711"/>
<polygon fill="#000000" stroke="#000000" points="163.12,-489.1364 164.0169,-478.5796 156.7325,-486.273 163.12,-489.1364"/>
<text text-anchor="middle" x="158.3973" y="-500.8" font-family="Times,serif" font-size="14.00" fill="#000000">ε</text>
</g>
<!-- 0&#45;&gt;1 -->
<g id="edge2" class="edge">
<title>0&#45;&gt;1</title>
<path fill="none" stroke="#000000" d="M209.8973,-1051.9735C209.8973,-1040.1918 209.8973,-1024.5607 209.8973,-1011.1581"/>
<polygon fill="#000000" stroke="#000000" points="213.3974,-1011.0033 209.8973,-1001.0034 206.3974,-1011.0034 213.3974,-1011.0033"/>
<text text-anchor="middle" x="229.8973" y="-1022.8" font-family="Times,serif" font-size="14.00" fill="#000000">PRINT</text>
</g>
<!-- 0&#45;&gt;0 -->
<g id="edge3" class="edge">
<title>0&#45;&gt;0</title>
<path fill="none" stroke="#000000" d="M235.3408,-1076.6907C245.9252,-1077.1521 254.8973,-1074.9219 254.8973,-1070 254.8973,-1066.77 251.0334,-1064.6992 245.3855,-1063.7876"/>
<polygon fill="#000000" stroke="#000000" points="245.496,-1060.289 235.3408,-1063.3093 245.163,-1067.2811 245.496,-1060.289"/>
<text text-anchor="middle" x="258.3973" y="-1066.3" font-family="Times,serif" font-size="14.00" fill="#000000">ε</text>
</g>
<!-- 1&#45;1&#45;1 -->
<g id="node13" class="node">
<title>1&#45;1&#45;1</title>
<ellipse fill="none" stroke="#000000" cx="131.8973" cy="-635" rx="29.795" ry="18"/>
<text text-anchor="middle" x="131.8973" y="-631.3" font-family="Times,serif" font-size="14.00" fill="#000000">1&#45;1&#45;1</text>
</g>
<!-- 1&#45;1&#45;1&#45;&gt;1&#45;1&#45;2 -->
<g id="edge13" class="edge">
<title>1&#45;1&#45;1&#45;&gt;1&#45;1&#45;2</title>
<path fill="none" stroke="#000000" d="M131.7741,-616.5864C131.7403,-606.89 131.7474,-594.801 131.8973,-584 131.931,-581.5735 131.9775,-579.0553 132.0321,-576.5289"/>
<polygon fill="#000000" stroke="#000000" points="135.5364,-576.3973 132.2903,-566.3121 128.5387,-576.2204 135.5364,-576.3973"/>
<text text-anchor="middle" x="150.3973" y="-587.8" font-family="Times,serif" font-size="14.00" fill="#000000">:Pitem</text>
</g>
<!-- 1&#45;4&#45;&gt;2 -->
<g id="edge5" class="edge">
<title>1&#45;4&#45;&gt;2</title>
<path fill="none" stroke="#000000" d="M209.8973,-181.9735C209.8973,-170.1918 209.8973,-154.5607 209.8973,-141.1581"/>
<polygon fill="#000000" stroke="#000000" points="213.3974,-141.0033 209.8973,-131.0034 206.3974,-141.0034 213.3974,-141.0033"/>
<text text-anchor="middle" x="213.3973" y="-152.8" font-family="Times,serif" font-size="14.00" fill="#000000">ε</text>
</g>
<!-- 1&#45;1&#45;0&#45;&gt;1&#45;2 -->
<g id="edge11" class="edge">
<title>1&#45;1&#45;0&#45;&gt;1&#45;2</title>
<path fill="none" stroke="#000000" d="M131.6529,-706.8458C115.7032,-692.8294 91.84,-671.8587 74.0063,-656.1867"/>
<polygon fill="#000000" stroke="#000000" points="76.1089,-653.375 66.2868,-649.4029 71.4881,-658.6331 76.1089,-653.375"/>
<text text-anchor="middle" x="109.3973" y="-674.8" font-family="Times,serif" font-size="14.00" fill="#000000">ε</text>
</g>
<!-- 1&#45;1&#45;0&#45;&gt;1&#45;1&#45;1 -->
<g id="edge12" class="edge">
<title>1&#45;1&#45;0&#45;&gt;1&#45;1&#45;1</title>
<path fill="none" stroke="#000000" d="M145.3749,-703.9735C143.0728,-692.1918 140.0184,-676.5607 137.3995,-663.1581"/>
<polygon fill="#000000" stroke="#000000" points="140.7681,-662.1465 135.4152,-653.0034 133.898,-663.489 140.7681,-662.1465"/>
<text text-anchor="middle" x="143.8973" y="-674.8" font-family="Times,serif" font-size="14.00" fill="#000000">,</text>
</g>
<!-- 1&#45;1&#45;0&#45;&gt;1&#45;1&#45;0 -->
<g id="edge10" class="edge">
<title>1&#45;1&#45;0&#45;&gt;1&#45;1&#45;0</title>
<path fill="none" stroke="#000000" d="M175.979,-729.8058C187.2448,-730.3441 196.7947,-727.7422 196.7947,-722 196.7947,-718.142 192.4837,-715.7015 186.2378,-714.6786"/>
<polygon fill="#000000" stroke="#000000" points="186.133,-711.1698 175.979,-714.1942 185.8028,-718.162 186.133,-711.1698"/>
<text text-anchor="middle" x="200.2947" y="-718.3" font-family="Times,serif" font-size="14.00" fill="#000000">ε</text>
</g>
<!-- 1&#45;0&#45;&gt;1&#45;1 -->
<g id="edge6" class="edge">
<title>1&#45;0&#45;&gt;1&#45;1</title>
<path fill="none" stroke="#000000" d="M197.283,-879.8947C193.1263,-873.9244 188.824,-866.918 185.8973,-860 182.8403,-852.7737 180.5926,-844.5984 178.9566,-836.9437"/>
<polygon fill="#000000" stroke="#000000" points="182.3689,-836.15 177.0862,-826.9661 175.4887,-837.4398 182.3689,-836.15"/>
<text text-anchor="middle" x="204.3973" y="-848.8" font-family="Times,serif" font-size="14.00" fill="#000000">:Pitem</text>
</g>
<!-- 1&#45;0&#45;&gt;1&#45;4 -->
<g id="edge7" class="edge">
<title>1&#45;0&#45;&gt;1&#45;4</title>
<path fill="none" stroke="#000000" d="M218.5889,-878.8242C226.4819,-861.6165 236.8973,-834.1456 236.8973,-809 236.8973,-809 236.8973,-809 236.8973,-287 236.8973,-265.9799 229.6191,-243.3348 222.6203,-226.4184"/>
<polygon fill="#000000" stroke="#000000" points="225.7951,-224.9425 218.5889,-217.1758 219.3789,-227.7411 225.7951,-224.9425"/>
<text text-anchor="middle" x="240.3973" y="-544.3" font-family="Times,serif" font-size="14.00" fill="#000000">ε</text>
</g>
<!-- 1&#45;0&#45;&gt;1&#45;0 -->
<g id="edge8" class="edge">
<title>1&#45;0&#45;&gt;1&#45;0</title>
<path fill="none" stroke="#000000" d="M234.4298,-903.752C245.4052,-904.4902 254.8973,-901.9063 254.8973,-896 254.8973,-892.0317 250.6124,-889.5632 244.4717,-888.5944"/>
<polygon fill="#000000" stroke="#000000" points="244.5446,-885.0949 234.4298,-888.248 244.3032,-892.0908 244.5446,-885.0949"/>
<text text-anchor="middle" x="258.3973" y="-892.3" font-family="Times,serif" font-size="14.00" fill="#000000">ε</text>
</g>
<!-- 1&#45;1&#45;3&#45;&gt;1&#45;1&#45;0 -->
<g id="edge15" class="edge">
<title>1&#45;1&#45;3&#45;&gt;1&#45;1&#45;0</title>
<path fill="none" stroke="#000000" d="M173.6538,-479.1533C176.5604,-513.4087 181.0984,-589.8173 170.8973,-653 168.6044,-667.2017 163.9666,-682.4916 159.538,-695.0602"/>
<polygon fill="#000000" stroke="#000000" points="156.2392,-693.8902 156.0799,-704.4838 162.8107,-696.3017 156.2392,-693.8902"/>
<text text-anchor="middle" x="180.3973" y="-587.8" font-family="Times,serif" font-size="14.00" fill="#000000">ε</text>
</g>
</g>
</svg>
