<?xml version="1.0" encoding="UTF-8" standalone="no"?>
<!DOCTYPE svg PUBLIC "-//W3C//DTD SVG 1.1//EN"
 "http://www.w3.org/Graphics/SVG/1.1/DTD/svg11.dtd">
<!-- Generated by graphviz version 2.40.1 (20161225.0304)
 -->
<!-- Title: %3 Pages: 1 -->
<svg width="263pt" height="821pt"
 viewBox="0.00 0.00 263.15 821.00" xmlns="http://www.w3.org/2000/svg" xmlns:xlink="http://www.w3.org/1999/xlink">
<g id="graph0" class="graph" transform="scale(1 1) rotate(0) translate(4 817)">
<title>%3</title>
<polygon fill="#ffffff" stroke="transparent" points="-4,4 -4,-817 259.148,-817 259.148,4 -4,4"/>
<!-- fake0 -->
<g id="node1" class="node">
<title>fake0</title>
</g>
<!-- 0 -->
<g id="node14" class="node">
<title>0</title>
<ellipse fill="none" stroke="#000000" cx="187.148" cy="-722" rx="27" ry="18"/>
<text text-anchor="middle" x="187.148" y="-718.3" font-family="Times,serif" font-size="14.00" fill="#000000">0</text>
</g>
<!-- fake0&#45;&gt;0 -->
<g id="edge1" class="edge">
<title>fake0&#45;&gt;0</title>
<path fill="none" stroke="#000000" stroke-width="2" d="M187.148,-776.9551C187.148,-768.8828 187.148,-759.1764 187.148,-750.1817"/>
<polygon fill="#000000" stroke="#000000" stroke-width="2" points="190.6481,-750.0903 187.148,-740.0904 183.6481,-750.0904 190.6481,-750.0903"/>
</g>
<!-- 2&#45;2&#45;0 -->
<g id="node2" class="node">
<title>2&#45;2&#45;0</title>
<ellipse fill="none" stroke="#000000" cx="69.148" cy="-200" rx="29.795" ry="18"/>
<text text-anchor="middle" x="69.148" y="-196.3" font-family="Times,serif" font-size="14.00" fill="#000000">2&#45;2&#45;0</text>
</g>
<!-- 2&#45;2&#45;0&#45;&gt;2&#45;2&#45;0 -->
<g id="edge11" class="edge">
<title>2&#45;2&#45;0&#45;&gt;2&#45;2&#45;0</title>
<path fill="none" stroke="#000000" d="M96.2297,-207.8058C107.4955,-208.3441 117.0454,-205.7422 117.0454,-200 117.0454,-196.142 112.7344,-193.7015 106.4885,-192.6786"/>
<polygon fill="#000000" stroke="#000000" points="106.3837,-189.1698 96.2297,-192.1942 106.0534,-196.162 106.3837,-189.1698"/>
<text text-anchor="middle" x="120.5454" y="-196.3" font-family="Times,serif" font-size="14.00" fill="#000000">ε</text>
</g>
<!-- 2&#45;2&#45;1 -->
<g id="node4" class="node">
<title>2&#45;2&#45;1</title>
<ellipse fill="none" stroke="#000000" cx="50.148" cy="-109" rx="29.795" ry="18"/>
<text text-anchor="middle" x="50.148" y="-105.3" font-family="Times,serif" font-size="14.00" fill="#000000">2&#45;2&#45;1</text>
</g>
<!-- 2&#45;2&#45;0&#45;&gt;2&#45;2&#45;1 -->
<g id="edge13" class="edge">
<title>2&#45;2&#45;0&#45;&gt;2&#45;2&#45;1</title>
<path fill="none" stroke="#000000" d="M65.3942,-182.0213C62.7138,-169.1837 59.0559,-151.6641 55.9949,-137.0034"/>
<polygon fill="#000000" stroke="#000000" points="59.364,-136.0149 53.894,-126.9413 52.5118,-137.4456 59.364,-136.0149"/>
<text text-anchor="middle" x="68.648" y="-152.8" font-family="Times,serif" font-size="14.00" fill="#000000">↵</text>
</g>
<!-- 2&#45;3 -->
<g id="node16" class="node">
<title>2&#45;3</title>
<ellipse fill="none" stroke="#000000" cx="125.148" cy="-109" rx="27" ry="18"/>
<text text-anchor="middle" x="125.148" y="-105.3" font-family="Times,serif" font-size="14.00" fill="#000000">2&#45;3</text>
</g>
<!-- 2&#45;2&#45;0&#45;&gt;2&#45;3 -->
<g id="edge12" class="edge">
<title>2&#45;2&#45;0&#45;&gt;2&#45;3</title>
<path fill="none" stroke="#000000" d="M79.6812,-182.8836C88.1035,-169.1974 100.0364,-149.8064 109.5641,-134.3238"/>
<polygon fill="#000000" stroke="#000000" points="112.5911,-136.0832 114.8513,-125.7322 106.6294,-132.4144 112.5911,-136.0832"/>
<text text-anchor="middle" x="104.648" y="-152.8" font-family="Times,serif" font-size="14.00" fill="#000000">ε</text>
</g>
<!-- 2&#45;0 -->
<g id="node3" class="node">
<title>2&#45;0</title>
<ellipse fill="none" stroke="#000000" cx="187.148" cy="-461" rx="27" ry="18"/>
<text text-anchor="middle" x="187.148" y="-457.3" font-family="Times,serif" font-size="14.00" fill="#000000">2&#45;0</text>
</g>
<!-- 2&#45;0&#45;&gt;2&#45;0 -->
<g id="edge6" class="edge">
<title>2&#45;0&#45;&gt;2&#45;0</title>
<path fill="none" stroke="#000000" d="M211.6805,-468.752C222.6558,-469.4902 232.148,-466.9063 232.148,-461 232.148,-457.0317 227.8631,-454.5632 221.7223,-453.5944"/>
<polygon fill="#000000" stroke="#000000" points="221.7952,-450.0949 211.6805,-453.248 221.5539,-457.0908 221.7952,-450.0949"/>
<text text-anchor="middle" x="235.648" y="-457.3" font-family="Times,serif" font-size="14.00" fill="#000000">ε</text>
</g>
<!-- 2&#45;1 -->
<g id="node5" class="node">
<title>2&#45;1</title>
<ellipse fill="none" stroke="#000000" cx="94.148" cy="-374" rx="27" ry="18"/>
<text text-anchor="middle" x="94.148" y="-370.3" font-family="Times,serif" font-size="14.00" fill="#000000">2&#45;1</text>
</g>
<!-- 2&#45;0&#45;&gt;2&#45;1 -->
<g id="edge8" class="edge">
<title>2&#45;0&#45;&gt;2&#45;1</title>
<path fill="none" stroke="#000000" d="M162.3642,-453.6104C147.0271,-447.9373 127.8977,-438.7167 115.148,-425 109.1229,-418.518 104.7112,-410.069 101.5331,-401.9183"/>
<polygon fill="#000000" stroke="#000000" points="104.7849,-400.61 98.2429,-392.2762 98.16,-402.8707 104.7849,-400.61"/>
<text text-anchor="middle" x="149.148" y="-413.8" font-family="Times,serif" font-size="14.00" fill="#000000">:BStatement</text>
</g>
<!-- 3 -->
<g id="node6" class="node">
<title>3</title>
<ellipse fill="none" stroke="#000000" cx="187.148" cy="-374" rx="27" ry="18"/>
<text text-anchor="middle" x="187.148" y="-370.3" font-family="Times,serif" font-size="14.00" fill="#000000">3</text>
</g>
<!-- 2&#45;0&#45;&gt;3 -->
<g id="edge7" class="edge">
<title>2&#45;0&#45;&gt;3</title>
<path fill="none" stroke="#000000" d="M187.148,-442.9735C187.148,-431.1918 187.148,-415.5607 187.148,-402.1581"/>
<polygon fill="#000000" stroke="#000000" points="190.6481,-402.0033 187.148,-392.0034 183.6481,-402.0034 190.6481,-402.0033"/>
<text text-anchor="middle" x="190.648" y="-413.8" font-family="Times,serif" font-size="14.00" fill="#000000">ε</text>
</g>
<!-- 2&#45;2&#45;2 -->
<g id="node7" class="node">
<title>2&#45;2&#45;2</title>
<ellipse fill="none" stroke="#000000" cx="43.148" cy="-18" rx="29.795" ry="18"/>
<text text-anchor="middle" x="43.148" y="-14.3" font-family="Times,serif" font-size="14.00" fill="#000000">2&#45;2&#45;2</text>
</g>
<!-- 2&#45;2&#45;1&#45;&gt;2&#45;2&#45;2 -->
<g id="edge14" class="edge">
<title>2&#45;2&#45;1&#45;&gt;2&#45;2&#45;2</title>
<path fill="none" stroke="#000000" d="M48.7315,-90.5848C47.7573,-77.9209 46.4446,-60.8558 45.3368,-46.4541"/>
<polygon fill="#000000" stroke="#000000" points="48.7953,-45.7793 44.5386,-36.0773 41.8159,-46.3163 48.7953,-45.7793"/>
<text text-anchor="middle" x="50.648" y="-57.8" font-family="Times,serif" font-size="14.00" fill="#000000">ε</text>
</g>
<!-- 2&#45;2 -->
<g id="node12" class="node">
<title>2&#45;2</title>
<ellipse fill="none" stroke="#000000" cx="92.148" cy="-287" rx="27" ry="18"/>
<text text-anchor="middle" x="92.148" y="-283.3" font-family="Times,serif" font-size="14.00" fill="#000000">2&#45;2</text>
</g>
<!-- 2&#45;1&#45;&gt;2&#45;2 -->
<g id="edge9" class="edge">
<title>2&#45;1&#45;&gt;2&#45;2</title>
<path fill="none" stroke="#000000" d="M93.7336,-355.9735C93.4628,-344.1918 93.1034,-328.5607 92.7953,-315.1581"/>
<polygon fill="#000000" stroke="#000000" points="96.2909,-314.9202 92.5619,-305.0034 89.2927,-315.0812 96.2909,-314.9202"/>
<text text-anchor="middle" x="100.648" y="-326.8" font-family="Times,serif" font-size="14.00" fill="#000000">↵</text>
</g>
<!-- 4 -->
<g id="node13" class="node">
<title>4</title>
<ellipse fill="none" stroke="#000000" cx="187.148" cy="-287" rx="27" ry="18"/>
<text text-anchor="middle" x="187.148" y="-283.3" font-family="Times,serif" font-size="14.00" fill="#000000">4</text>
</g>
<!-- 3&#45;&gt;4 -->
<g id="edge18" class="edge">
<title>3&#45;&gt;4</title>
<path fill="none" stroke="#000000" d="M187.148,-355.9735C187.148,-344.1918 187.148,-328.5607 187.148,-315.1581"/>
<polygon fill="#000000" stroke="#000000" points="190.6481,-315.0033 187.148,-305.0034 183.6481,-315.0034 190.6481,-315.0033"/>
<text text-anchor="middle" x="196.648" y="-326.8" font-family="Times,serif" font-size="14.00" fill="#000000">:Int</text>
</g>
<!-- 2&#45;2&#45;2&#45;&gt;2&#45;2&#45;0 -->
<g id="edge15" class="edge">
<title>2&#45;2&#45;2&#45;&gt;2&#45;2&#45;0</title>
<path fill="none" stroke="#000000" d="M30.1554,-34.262C14.161,-56.3706 -9.325,-97.0492 4.148,-131 11.7597,-150.1809 27.5091,-167.1258 41.5983,-179.4234"/>
<polygon fill="#000000" stroke="#000000" points="39.7033,-182.4 49.6278,-186.1087 44.1823,-177.0204 39.7033,-182.4"/>
<text text-anchor="middle" x="7.648" y="-105.3" font-family="Times,serif" font-size="14.00" fill="#000000">ε</text>
</g>
<!-- 2&#45;4 -->
<g id="node8" class="node">
<title>2&#45;4</title>
<ellipse fill="none" stroke="#000000" cx="145.148" cy="-18" rx="27" ry="18"/>
<text text-anchor="middle" x="145.148" y="-14.3" font-family="Times,serif" font-size="14.00" fill="#000000">2&#45;4</text>
</g>
<!-- 2&#45;4&#45;&gt;2&#45;0 -->
<g id="edge17" class="edge">
<title>2&#45;4&#45;&gt;2&#45;0</title>
<path fill="none" stroke="#000000" d="M168.629,-27.6617C197.3364,-41.2211 242.148,-68.8218 242.148,-109 242.148,-374 242.148,-374 242.148,-374 242.148,-399.031 225.6807,-422.7174 210.7672,-439.0362"/>
<polygon fill="#000000" stroke="#000000" points="208.064,-436.7976 203.6498,-446.4291 213.1068,-441.6525 208.064,-436.7976"/>
<text text-anchor="middle" x="245.648" y="-239.8" font-family="Times,serif" font-size="14.00" fill="#000000">ε</text>
</g>
<!-- 2 -->
<g id="node9" class="node">
<title>2</title>
<ellipse fill="none" stroke="#000000" cx="187.148" cy="-548" rx="27" ry="18"/>
<text text-anchor="middle" x="187.148" y="-544.3" font-family="Times,serif" font-size="14.00" fill="#000000">2</text>
</g>
<!-- 2&#45;&gt;2&#45;0 -->
<g id="edge5" class="edge">
<title>2&#45;&gt;2&#45;0</title>
<path fill="none" stroke="#000000" d="M187.148,-529.9735C187.148,-518.1918 187.148,-502.5607 187.148,-489.1581"/>
<polygon fill="#000000" stroke="#000000" points="190.6481,-489.0033 187.148,-479.0034 183.6481,-489.0034 190.6481,-489.0033"/>
<text text-anchor="middle" x="190.648" y="-500.8" font-family="Times,serif" font-size="14.00" fill="#000000">ε</text>
</g>
<!-- 5 -->
<g id="node10" class="node">
<title>5</title>
<ellipse fill="none" stroke="#000000" cx="187.148" cy="-200" rx="27" ry="18"/>
<text text-anchor="middle" x="187.148" y="-196.3" font-family="Times,serif" font-size="14.00" fill="#000000">5</text>
</g>
<!-- 6 -->
<g id="node15" class="node">
<title>6</title>
<ellipse fill="none" stroke="#000000" cx="192.148" cy="-109" rx="18" ry="18"/>
<ellipse fill="none" stroke="#000000" cx="192.148" cy="-109" rx="22" ry="22"/>
<text text-anchor="middle" x="192.148" y="-105.3" font-family="Times,serif" font-size="14.00" fill="#000000">6</text>
</g>
<!-- 5&#45;&gt;6 -->
<g id="edge20" class="edge">
<title>5&#45;&gt;6</title>
<path fill="none" stroke="#000000" d="M188.1598,-181.5848C188.7903,-170.1105 189.6193,-155.0231 190.358,-141.5774"/>
<polygon fill="#000000" stroke="#000000" points="193.8717,-141.4235 190.9257,-131.2465 186.8822,-141.0394 193.8717,-141.4235"/>
<text text-anchor="middle" x="193.648" y="-152.8" font-family="Times,serif" font-size="14.00" fill="#000000">ε</text>
</g>
<!-- 1 -->
<g id="node11" class="node">
<title>1</title>
<ellipse fill="none" stroke="#000000" cx="187.148" cy="-635" rx="27" ry="18"/>
<text text-anchor="middle" x="187.148" y="-631.3" font-family="Times,serif" font-size="14.00" fill="#000000">1</text>
</g>
<!-- 1&#45;&gt;2 -->
<g id="edge4" class="edge">
<title>1&#45;&gt;2</title>
<path fill="none" stroke="#000000" d="M187.148,-616.9735C187.148,-605.1918 187.148,-589.5607 187.148,-576.1581"/>
<polygon fill="#000000" stroke="#000000" points="190.6481,-576.0033 187.148,-566.0034 183.6481,-576.0034 190.6481,-576.0033"/>
<text text-anchor="middle" x="193.648" y="-587.8" font-family="Times,serif" font-size="14.00" fill="#000000">↵</text>
</g>
<!-- 2&#45;2&#45;&gt;2&#45;2&#45;0 -->
<g id="edge10" class="edge">
<title>2&#45;2&#45;&gt;2&#45;2&#45;0</title>
<path fill="none" stroke="#000000" d="M87.3824,-268.9735C84.2368,-257.0751 80.0534,-241.2508 76.487,-227.7606"/>
<polygon fill="#000000" stroke="#000000" points="79.8472,-226.7766 73.9075,-218.0034 73.0797,-228.5658 79.8472,-226.7766"/>
<text text-anchor="middle" x="85.648" y="-239.8" font-family="Times,serif" font-size="14.00" fill="#000000">ε</text>
</g>
<!-- 4&#45;&gt;5 -->
<g id="edge19" class="edge">
<title>4&#45;&gt;5</title>
<path fill="none" stroke="#000000" d="M187.148,-268.9735C187.148,-257.1918 187.148,-241.5607 187.148,-228.1581"/>
<polygon fill="#000000" stroke="#000000" points="190.6481,-228.0033 187.148,-218.0034 183.6481,-228.0034 190.6481,-228.0033"/>
<text text-anchor="middle" x="201.148" y="-239.8" font-family="Times,serif" font-size="14.00" fill="#000000">END</text>
</g>
<!-- 0&#45;&gt;1 -->
<g id="edge2" class="edge">
<title>0&#45;&gt;1</title>
<path fill="none" stroke="#000000" d="M187.148,-703.9735C187.148,-692.1918 187.148,-676.5607 187.148,-663.1581"/>
<polygon fill="#000000" stroke="#000000" points="190.6481,-663.0033 187.148,-653.0034 183.6481,-663.0034 190.6481,-663.0033"/>
<text text-anchor="middle" x="221.148" y="-674.8" font-family="Times,serif" font-size="14.00" fill="#000000">:BStatement</text>
</g>
<!-- 0&#45;&gt;0 -->
<g id="edge3" class="edge">
<title>0&#45;&gt;0</title>
<path fill="none" stroke="#000000" d="M212.5915,-728.6907C223.1758,-729.1521 232.148,-726.9219 232.148,-722 232.148,-718.77 228.284,-716.6992 222.6361,-715.7876"/>
<polygon fill="#000000" stroke="#000000" points="222.7467,-712.289 212.5915,-715.3093 222.4137,-719.2811 222.7467,-712.289"/>
<text text-anchor="middle" x="235.648" y="-718.3" font-family="Times,serif" font-size="14.00" fill="#000000">ε</text>
</g>
<!-- 2&#45;3&#45;&gt;2&#45;4 -->
<g id="edge16" class="edge">
<title>2&#45;3&#45;&gt;2&#45;4</title>
<path fill="none" stroke="#000000" d="M129.0994,-91.0213C131.9208,-78.1837 135.7713,-60.6641 138.9934,-46.0034"/>
<polygon fill="#000000" stroke="#000000" points="142.4766,-46.4595 141.2049,-35.9413 135.6398,-44.9569 142.4766,-46.4595"/>
<text text-anchor="middle" x="140.648" y="-57.8" font-family="Times,serif" font-size="14.00" fill="#000000">ε</text>
</g>
</g>
</svg>
