<?xml version="1.0" encoding="UTF-8" standalone="no"?>
<!DOCTYPE svg PUBLIC "-//W3C//DTD SVG 1.1//EN"
 "http://www.w3.org/Graphics/SVG/1.1/DTD/svg11.dtd">
<!-- Generated by graphviz version 2.40.1 (20161225.0304)
 -->
<!-- Title: %3 Pages: 1 -->
<svg width="169pt" height="647pt"
 viewBox="0.00 0.00 169.00 647.00" xmlns="http://www.w3.org/2000/svg" xmlns:xlink="http://www.w3.org/1999/xlink">
<g id="graph0" class="graph" transform="scale(1 1) rotate(0) translate(4 643)">
<title>%3</title>
<polygon fill="#ffffff" stroke="transparent" points="-4,4 -4,-643 165,-643 165,4 -4,4"/>
<!-- fake0 -->
<g id="node1" class="node">
<title>fake0</title>
</g>
<!-- 0 -->
<g id="node9" class="node">
<title>0</title>
<ellipse fill="none" stroke="#000000" cx="99" cy="-548" rx="27" ry="18"/>
<text text-anchor="middle" x="99" y="-544.3" font-family="Times,serif" font-size="14.00" fill="#000000">0</text>
</g>
<!-- fake0&#45;&gt;0 -->
<g id="edge1" class="edge">
<title>fake0&#45;&gt;0</title>
<path fill="none" stroke="#000000" stroke-width="2" d="M99,-602.9551C99,-594.8828 99,-585.1764 99,-576.1817"/>
<polygon fill="#000000" stroke="#000000" stroke-width="2" points="102.5001,-576.0903 99,-566.0904 95.5001,-576.0904 102.5001,-576.0903"/>
</g>
<!-- 2&#45;0 -->
<g id="node2" class="node">
<title>2&#45;0</title>
<ellipse fill="none" stroke="#000000" cx="99" cy="-287" rx="27" ry="18"/>
<text text-anchor="middle" x="99" y="-283.3" font-family="Times,serif" font-size="14.00" fill="#000000">2&#45;0</text>
</g>
<!-- 2&#45;0&#45;&gt;2&#45;0 -->
<g id="edge6" class="edge">
<title>2&#45;0&#45;&gt;2&#45;0</title>
<path fill="none" stroke="#000000" d="M123.5325,-294.752C134.5078,-295.4902 144,-292.9063 144,-287 144,-283.0317 139.7151,-280.5632 133.5743,-279.5944"/>
<polygon fill="#000000" stroke="#000000" points="133.6472,-276.0949 123.5325,-279.248 133.4059,-283.0908 133.6472,-276.0949"/>
<text text-anchor="middle" x="147.5" y="-283.3" font-family="Times,serif" font-size="14.00" fill="#000000">ε</text>
</g>
<!-- 3 -->
<g id="node3" class="node">
<title>3</title>
<ellipse fill="none" stroke="#000000" cx="27" cy="-200" rx="27" ry="18"/>
<text text-anchor="middle" x="27" y="-196.3" font-family="Times,serif" font-size="14.00" fill="#000000">3</text>
</g>
<!-- 2&#45;0&#45;&gt;3 -->
<g id="edge7" class="edge">
<title>2&#45;0&#45;&gt;3</title>
<path fill="none" stroke="#000000" d="M85.7941,-271.0429C74.8328,-257.798 59.0821,-238.7659 46.6416,-223.7336"/>
<polygon fill="#000000" stroke="#000000" points="49.1943,-221.3284 40.1222,-215.856 43.8015,-225.7914 49.1943,-221.3284"/>
<text text-anchor="middle" x="71.5" y="-239.8" font-family="Times,serif" font-size="14.00" fill="#000000">ε</text>
</g>
<!-- 2&#45;1 -->
<g id="node4" class="node">
<title>2&#45;1</title>
<ellipse fill="none" stroke="#000000" cx="99" cy="-200" rx="27" ry="18"/>
<text text-anchor="middle" x="99" y="-196.3" font-family="Times,serif" font-size="14.00" fill="#000000">2&#45;1</text>
</g>
<!-- 2&#45;0&#45;&gt;2&#45;1 -->
<g id="edge8" class="edge">
<title>2&#45;0&#45;&gt;2&#45;1</title>
<path fill="none" stroke="#000000" d="M99,-268.9735C99,-257.1918 99,-241.5607 99,-228.1581"/>
<polygon fill="#000000" stroke="#000000" points="102.5001,-228.0033 99,-218.0034 95.5001,-228.0034 102.5001,-228.0033"/>
<text text-anchor="middle" x="101" y="-239.8" font-family="Times,serif" font-size="14.00" fill="#000000">,</text>
</g>
<!-- 4 -->
<g id="node8" class="node">
<title>4</title>
<ellipse fill="none" stroke="#000000" cx="27" cy="-109" rx="18" ry="18"/>
<ellipse fill="none" stroke="#000000" cx="27" cy="-109" rx="22" ry="22"/>
<text text-anchor="middle" x="27" y="-105.3" font-family="Times,serif" font-size="14.00" fill="#000000">4</text>
</g>
<!-- 3&#45;&gt;4 -->
<g id="edge12" class="edge">
<title>3&#45;&gt;4</title>
<path fill="none" stroke="#000000" d="M27,-181.5848C27,-170.1105 27,-155.0231 27,-141.5774"/>
<polygon fill="#000000" stroke="#000000" points="30.5001,-141.2465 27,-131.2465 23.5001,-141.2466 30.5001,-141.2465"/>
<text text-anchor="middle" x="30.5" y="-152.8" font-family="Times,serif" font-size="14.00" fill="#000000">ε</text>
</g>
<!-- 2&#45;2 -->
<g id="node7" class="node">
<title>2&#45;2</title>
<ellipse fill="none" stroke="#000000" cx="99" cy="-109" rx="27" ry="18"/>
<text text-anchor="middle" x="99" y="-105.3" font-family="Times,serif" font-size="14.00" fill="#000000">2&#45;2</text>
</g>
<!-- 2&#45;1&#45;&gt;2&#45;2 -->
<g id="edge9" class="edge">
<title>2&#45;1&#45;&gt;2&#45;2</title>
<path fill="none" stroke="#000000" d="M99,-181.5848C99,-168.9209 99,-151.8558 99,-137.4541"/>
<polygon fill="#000000" stroke="#000000" points="102.5001,-137.0772 99,-127.0773 95.5001,-137.0773 102.5001,-137.0772"/>
<text text-anchor="middle" x="111.5" y="-152.8" font-family="Times,serif" font-size="14.00" fill="#000000">:Var</text>
</g>
<!-- 2 -->
<g id="node5" class="node">
<title>2</title>
<ellipse fill="none" stroke="#000000" cx="99" cy="-374" rx="27" ry="18"/>
<text text-anchor="middle" x="99" y="-370.3" font-family="Times,serif" font-size="14.00" fill="#000000">2</text>
</g>
<!-- 2&#45;&gt;2&#45;0 -->
<g id="edge5" class="edge">
<title>2&#45;&gt;2&#45;0</title>
<path fill="none" stroke="#000000" d="M99,-355.9735C99,-344.1918 99,-328.5607 99,-315.1581"/>
<polygon fill="#000000" stroke="#000000" points="102.5001,-315.0033 99,-305.0034 95.5001,-315.0034 102.5001,-315.0033"/>
<text text-anchor="middle" x="102.5" y="-326.8" font-family="Times,serif" font-size="14.00" fill="#000000">ε</text>
</g>
<!-- 1 -->
<g id="node6" class="node">
<title>1</title>
<ellipse fill="none" stroke="#000000" cx="99" cy="-461" rx="27" ry="18"/>
<text text-anchor="middle" x="99" y="-457.3" font-family="Times,serif" font-size="14.00" fill="#000000">1</text>
</g>
<!-- 1&#45;&gt;2 -->
<g id="edge4" class="edge">
<title>1&#45;&gt;2</title>
<path fill="none" stroke="#000000" d="M99,-442.9735C99,-431.1918 99,-415.5607 99,-402.1581"/>
<polygon fill="#000000" stroke="#000000" points="102.5001,-402.0033 99,-392.0034 95.5001,-402.0034 102.5001,-402.0033"/>
<text text-anchor="middle" x="111.5" y="-413.8" font-family="Times,serif" font-size="14.00" fill="#000000">:Var</text>
</g>
<!-- 2&#45;3 -->
<g id="node10" class="node">
<title>2&#45;3</title>
<ellipse fill="none" stroke="#000000" cx="134" cy="-18" rx="27" ry="18"/>
<text text-anchor="middle" x="134" y="-14.3" font-family="Times,serif" font-size="14.00" fill="#000000">2&#45;3</text>
</g>
<!-- 2&#45;2&#45;&gt;2&#45;3 -->
<g id="edge10" class="edge">
<title>2&#45;2&#45;&gt;2&#45;3</title>
<path fill="none" stroke="#000000" d="M105.7484,-91.4543C110.784,-78.3616 117.7588,-60.2271 123.5181,-45.2529"/>
<polygon fill="#000000" stroke="#000000" points="126.9492,-46.0818 127.2724,-35.4919 120.4158,-43.5689 126.9492,-46.0818"/>
<text text-anchor="middle" x="123.5" y="-57.8" font-family="Times,serif" font-size="14.00" fill="#000000">ε</text>
</g>
<!-- 0&#45;&gt;1 -->
<g id="edge2" class="edge">
<title>0&#45;&gt;1</title>
<path fill="none" stroke="#000000" d="M99,-529.9735C99,-518.1918 99,-502.5607 99,-489.1581"/>
<polygon fill="#000000" stroke="#000000" points="102.5001,-489.0033 99,-479.0034 95.5001,-489.0034 102.5001,-489.0033"/>
<text text-anchor="middle" x="117.5" y="-500.8" font-family="Times,serif" font-size="14.00" fill="#000000">READ</text>
</g>
<!-- 0&#45;&gt;0 -->
<g id="edge3" class="edge">
<title>0&#45;&gt;0</title>
<path fill="none" stroke="#000000" d="M124.4435,-554.6907C135.0278,-555.1521 144,-552.9219 144,-548 144,-544.77 140.136,-542.6992 134.4881,-541.7876"/>
<polygon fill="#000000" stroke="#000000" points="134.5987,-538.289 124.4435,-541.3093 134.2656,-545.2811 134.5987,-538.289"/>
<text text-anchor="middle" x="147.5" y="-544.3" font-family="Times,serif" font-size="14.00" fill="#000000">ε</text>
</g>
<!-- 2&#45;3&#45;&gt;2&#45;0 -->
<g id="edge11" class="edge">
<title>2&#45;3&#45;&gt;2&#45;0</title>
<path fill="none" stroke="#000000" d="M136.9702,-35.9984C142.1956,-71.4542 151.0411,-152.5759 135,-218 131.194,-233.5229 123.219,-249.4325 115.7404,-262.0572"/>
<polygon fill="#000000" stroke="#000000" points="112.7302,-260.2704 110.4492,-270.6168 118.6844,-263.9511 112.7302,-260.2704"/>
<text text-anchor="middle" x="147.5" y="-152.8" font-family="Times,serif" font-size="14.00" fill="#000000">ε</text>
</g>
</g>
</svg>
