<?xml version="1.0" encoding="UTF-8" standalone="no"?>
<!DOCTYPE svg PUBLIC "-//W3C//DTD SVG 1.1//EN"
 "http://www.w3.org/Graphics/SVG/1.1/DTD/svg11.dtd">
<!-- Generated by graphviz version 2.40.1 (20161225.0304)
 -->
<!-- Title: %3 Pages: 1 -->
<svg width="168pt" height="473pt"
 viewBox="0.00 0.00 168.00 473.00" xmlns="http://www.w3.org/2000/svg" xmlns:xlink="http://www.w3.org/1999/xlink">
<g id="graph0" class="graph" transform="scale(1 1) rotate(0) translate(4 469)">
<title>%3</title>
<polygon fill="#ffffff" stroke="transparent" points="-4,4 -4,-469 164,-469 164,4 -4,4"/>
<!-- fake0 -->
<g id="node1" class="node">
<title>fake0</title>
</g>
<!-- 0 -->
<g id="node7" class="node">
<title>0</title>
<ellipse fill="none" stroke="#000000" cx="53" cy="-374" rx="27" ry="18"/>
<text text-anchor="middle" x="53" y="-370.3" font-family="Times,serif" font-size="14.00" fill="#000000">0</text>
</g>
<!-- fake0&#45;&gt;0 -->
<g id="edge1" class="edge">
<title>fake0&#45;&gt;0</title>
<path fill="none" stroke="#000000" stroke-width="2" d="M53,-428.9551C53,-420.8828 53,-411.1764 53,-402.1817"/>
<polygon fill="#000000" stroke="#000000" stroke-width="2" points="56.5001,-402.0903 53,-392.0904 49.5001,-402.0904 56.5001,-402.0903"/>
</g>
<!-- 1&#45;1 -->
<g id="node2" class="node">
<title>1&#45;1</title>
<ellipse fill="none" stroke="#000000" cx="57" cy="-113" rx="27" ry="18"/>
<text text-anchor="middle" x="57" y="-109.3" font-family="Times,serif" font-size="14.00" fill="#000000">1&#45;1</text>
</g>
<!-- 1&#45;2 -->
<g id="node5" class="node">
<title>1&#45;2</title>
<ellipse fill="none" stroke="#000000" cx="27" cy="-22" rx="27" ry="18"/>
<text text-anchor="middle" x="27" y="-18.3" font-family="Times,serif" font-size="14.00" fill="#000000">1&#45;2</text>
</g>
<!-- 1&#45;1&#45;&gt;1&#45;2 -->
<g id="edge8" class="edge">
<title>1&#45;1&#45;&gt;1&#45;2</title>
<path fill="none" stroke="#000000" d="M51.073,-95.0213C46.7719,-81.9749 40.8768,-64.0929 35.9968,-49.2904"/>
<polygon fill="#000000" stroke="#000000" points="39.2677,-48.033 32.8126,-39.6317 32.6196,-50.2248 39.2677,-48.033"/>
<text text-anchor="middle" x="48.5" y="-65.8" font-family="Times,serif" font-size="14.00" fill="#000000">ε</text>
</g>
<!-- 3 -->
<g id="node3" class="node">
<title>3</title>
<ellipse fill="none" stroke="#000000" cx="133" cy="-22" rx="18" ry="18"/>
<ellipse fill="none" stroke="#000000" cx="133" cy="-22" rx="22" ry="22"/>
<text text-anchor="middle" x="133" y="-18.3" font-family="Times,serif" font-size="14.00" fill="#000000">3</text>
</g>
<!-- 2 -->
<g id="node4" class="node">
<title>2</title>
<ellipse fill="none" stroke="#000000" cx="133" cy="-113" rx="27" ry="18"/>
<text text-anchor="middle" x="133" y="-109.3" font-family="Times,serif" font-size="14.00" fill="#000000">2</text>
</g>
<!-- 2&#45;&gt;3 -->
<g id="edge10" class="edge">
<title>2&#45;&gt;3</title>
<path fill="none" stroke="#000000" d="M133,-94.5848C133,-83.1105 133,-68.0231 133,-54.5774"/>
<polygon fill="#000000" stroke="#000000" points="136.5001,-54.2465 133,-44.2465 129.5001,-54.2466 136.5001,-54.2465"/>
<text text-anchor="middle" x="136.5" y="-65.8" font-family="Times,serif" font-size="14.00" fill="#000000">ε</text>
</g>
<!-- 1&#45;0 -->
<g id="node8" class="node">
<title>1&#45;0</title>
<ellipse fill="none" stroke="#000000" cx="53" cy="-200" rx="27" ry="18"/>
<text text-anchor="middle" x="53" y="-196.3" font-family="Times,serif" font-size="14.00" fill="#000000">1&#45;0</text>
</g>
<!-- 1&#45;2&#45;&gt;1&#45;0 -->
<g id="edge9" class="edge">
<title>1&#45;2&#45;&gt;1&#45;0</title>
<path fill="none" stroke="#000000" d="M20.9102,-39.6466C14.2949,-61.4372 5.7095,-99.4835 14,-131 18.1408,-146.7414 26.7817,-162.6675 34.8799,-175.2468"/>
<polygon fill="#000000" stroke="#000000" points="32.1234,-177.4199 40.6086,-183.7644 37.9319,-173.5133 32.1234,-177.4199"/>
<text text-anchor="middle" x="17.5" y="-109.3" font-family="Times,serif" font-size="14.00" fill="#000000">ε</text>
</g>
<!-- 1 -->
<g id="node6" class="node">
<title>1</title>
<ellipse fill="none" stroke="#000000" cx="53" cy="-287" rx="27" ry="18"/>
<text text-anchor="middle" x="53" y="-283.3" font-family="Times,serif" font-size="14.00" fill="#000000">1</text>
</g>
<!-- 1&#45;&gt;1&#45;0 -->
<g id="edge4" class="edge">
<title>1&#45;&gt;1&#45;0</title>
<path fill="none" stroke="#000000" d="M53,-268.9735C53,-257.1918 53,-241.5607 53,-228.1581"/>
<polygon fill="#000000" stroke="#000000" points="56.5001,-228.0033 53,-218.0034 49.5001,-228.0034 56.5001,-228.0033"/>
<text text-anchor="middle" x="56.5" y="-239.8" font-family="Times,serif" font-size="14.00" fill="#000000">ε</text>
</g>
<!-- 0&#45;&gt;1 -->
<g id="edge2" class="edge">
<title>0&#45;&gt;1</title>
<path fill="none" stroke="#000000" d="M53,-355.9735C53,-344.1918 53,-328.5607 53,-315.1581"/>
<polygon fill="#000000" stroke="#000000" points="56.5001,-315.0033 53,-305.0034 49.5001,-315.0034 56.5001,-315.0033"/>
<text text-anchor="middle" x="68.5" y="-326.8" font-family="Times,serif" font-size="14.00" fill="#000000">REM</text>
</g>
<!-- 0&#45;&gt;0 -->
<g id="edge3" class="edge">
<title>0&#45;&gt;0</title>
<path fill="none" stroke="#000000" d="M78.4435,-380.6907C89.0278,-381.1521 98,-378.9219 98,-374 98,-370.77 94.136,-368.6992 88.4881,-367.7876"/>
<polygon fill="#000000" stroke="#000000" points="88.5987,-364.289 78.4435,-367.3093 88.2656,-371.2811 88.5987,-364.289"/>
<text text-anchor="middle" x="101.5" y="-370.3" font-family="Times,serif" font-size="14.00" fill="#000000">ε</text>
</g>
<!-- 1&#45;0&#45;&gt;1&#45;1 -->
<g id="edge7" class="edge">
<title>1&#45;0&#45;&gt;1&#45;1</title>
<path fill="none" stroke="#000000" d="M53.0791,-181.5772C53.1921,-171.8784 53.4452,-159.7899 54,-149 54.125,-146.569 54.2811,-144.0477 54.4559,-141.5192"/>
<polygon fill="#000000" stroke="#000000" points="57.9647,-141.5397 55.2487,-131.299 50.9857,-140.9983 57.9647,-141.5397"/>
<text text-anchor="middle" x="82.5" y="-152.8" font-family="Times,serif" font-size="14.00" fill="#000000">:Character</text>
</g>
<!-- 1&#45;0&#45;&gt;2 -->
<g id="edge5" class="edge">
<title>1&#45;0&#45;&gt;2</title>
<path fill="none" stroke="#000000" d="M75.7071,-190.0358C87.4989,-183.9266 101.4066,-175.1324 111,-164 116.8178,-157.2488 121.3024,-148.7251 124.658,-140.5886"/>
<polygon fill="#000000" stroke="#000000" points="128.0177,-141.5943 128.205,-131.0011 121.4526,-139.1654 128.0177,-141.5943"/>
<text text-anchor="middle" x="123.5" y="-152.8" font-family="Times,serif" font-size="14.00" fill="#000000">ε</text>
</g>
<!-- 1&#45;0&#45;&gt;1&#45;0 -->
<g id="edge6" class="edge">
<title>1&#45;0&#45;&gt;1&#45;0</title>
<path fill="none" stroke="#000000" d="M77.5325,-207.752C88.5078,-208.4902 98,-205.9063 98,-200 98,-196.0317 93.7151,-193.5632 87.5743,-192.5944"/>
<polygon fill="#000000" stroke="#000000" points="87.6472,-189.0949 77.5325,-192.248 87.4059,-196.0908 87.6472,-189.0949"/>
<text text-anchor="middle" x="101.5" y="-196.3" font-family="Times,serif" font-size="14.00" fill="#000000">ε</text>
</g>
</g>
</svg>
