<?xml version="1.0" encoding="UTF-8" standalone="no"?>
<!DOCTYPE svg PUBLIC "-//W3C//DTD SVG 1.1//EN"
 "http://www.w3.org/Graphics/SVG/1.1/DTD/svg11.dtd">
<!-- Generated by graphviz version 2.40.1 (20161225.0304)
 -->
<!-- Title: %3 Pages: 1 -->
<svg width="94pt" height="299pt"
 viewBox="0.00 0.00 93.55 299.00" xmlns="http://www.w3.org/2000/svg" xmlns:xlink="http://www.w3.org/1999/xlink">
<g id="graph0" class="graph" transform="scale(1 1) rotate(0) translate(4 295)">
<title>%3</title>
<polygon fill="#ffffff" stroke="transparent" points="-4,4 -4,-295 89.5473,-295 89.5473,4 -4,4"/>
<!-- fake0 -->
<g id="node1" class="node">
<title>fake0</title>
</g>
<!-- 0 -->
<g id="node3" class="node">
<title>0</title>
<ellipse fill="none" stroke="#000000" cx="30.5473" cy="-200" rx="27" ry="18"/>
<text text-anchor="middle" x="30.5473" y="-196.3" font-family="Times,serif" font-size="14.00" fill="#000000">0</text>
</g>
<!-- fake0&#45;&gt;0 -->
<g id="edge1" class="edge">
<title>fake0&#45;&gt;0</title>
<path fill="none" stroke="#000000" stroke-width="2" d="M30.5473,-254.9551C30.5473,-246.8828 30.5473,-237.1764 30.5473,-228.1817"/>
<polygon fill="#000000" stroke="#000000" stroke-width="2" points="34.0474,-228.0903 30.5473,-218.0904 27.0474,-228.0904 34.0474,-228.0903"/>
</g>
<!-- 2 -->
<g id="node2" class="node">
<title>2</title>
<ellipse fill="none" stroke="#000000" cx="30.5473" cy="-22" rx="18" ry="18"/>
<ellipse fill="none" stroke="#000000" cx="30.5473" cy="-22" rx="22" ry="22"/>
<text text-anchor="middle" x="30.5473" y="-18.3" font-family="Times,serif" font-size="14.00" fill="#000000">2</text>
</g>
<!-- 0&#45;&gt;0 -->
<g id="edge3" class="edge">
<title>0&#45;&gt;0</title>
<path fill="none" stroke="#000000" d="M55.9908,-206.6907C66.5751,-207.1521 75.5473,-204.9219 75.5473,-200 75.5473,-196.77 71.6833,-194.6992 66.0354,-193.7876"/>
<polygon fill="#000000" stroke="#000000" points="66.146,-190.289 55.9908,-193.3093 65.8129,-197.2811 66.146,-190.289"/>
<text text-anchor="middle" x="79.0473" y="-196.3" font-family="Times,serif" font-size="14.00" fill="#000000">ε</text>
</g>
<!-- 1 -->
<g id="node4" class="node">
<title>1</title>
<ellipse fill="none" stroke="#000000" cx="30.5473" cy="-113" rx="27" ry="18"/>
<text text-anchor="middle" x="30.5473" y="-109.3" font-family="Times,serif" font-size="14.00" fill="#000000">1</text>
</g>
<!-- 0&#45;&gt;1 -->
<g id="edge2" class="edge">
<title>0&#45;&gt;1</title>
<path fill="none" stroke="#000000" d="M30.5473,-181.9735C30.5473,-170.1918 30.5473,-154.5607 30.5473,-141.1581"/>
<polygon fill="#000000" stroke="#000000" points="34.0474,-141.0033 30.5473,-131.0034 27.0474,-141.0034 34.0474,-141.0033"/>
<text text-anchor="middle" x="58.0473" y="-152.8" font-family="Times,serif" font-size="14.00" fill="#000000">RETURN</text>
</g>
<!-- 1&#45;&gt;2 -->
<g id="edge4" class="edge">
<title>1&#45;&gt;2</title>
<path fill="none" stroke="#000000" d="M30.5473,-94.5848C30.5473,-83.1105 30.5473,-68.0231 30.5473,-54.5774"/>
<polygon fill="#000000" stroke="#000000" points="34.0474,-54.2465 30.5473,-44.2465 27.0474,-54.2466 34.0474,-54.2465"/>
<text text-anchor="middle" x="34.0473" y="-65.8" font-family="Times,serif" font-size="14.00" fill="#000000">ε</text>
</g>
</g>
</svg>
