<?xml version="1.0" encoding="UTF-8" standalone="no"?>
<!DOCTYPE svg PUBLIC "-//W3C//DTD SVG 1.1//EN"
 "http://www.w3.org/Graphics/SVG/1.1/DTD/svg11.dtd">
<!-- Generated by graphviz version 2.40.1 (20161225.0304)
 -->
<!-- Title: %3 Pages: 1 -->
<svg width="142pt" height="755pt"
 viewBox="0.00 0.00 142.00 755.00" xmlns="http://www.w3.org/2000/svg" xmlns:xlink="http://www.w3.org/1999/xlink">
<g id="graph0" class="graph" transform="scale(1 1) rotate(0) translate(4 751)">
<title>%3</title>
<polygon fill="#ffffff" stroke="transparent" points="-4,4 -4,-751 138,-751 138,4 -4,4"/>
<!-- fake0 -->
<g id="node1" class="node">
<title>fake0</title>
</g>
<!-- 0 -->
<g id="node7" class="node">
<title>0</title>
<ellipse fill="none" stroke="#000000" cx="82" cy="-656" rx="27" ry="18"/>
<text text-anchor="middle" x="82" y="-652.3" font-family="Times,serif" font-size="14.00" fill="#000000">0</text>
</g>
<!-- fake0&#45;&gt;0 -->
<g id="edge1" class="edge">
<title>fake0&#45;&gt;0</title>
<path fill="none" stroke="#000000" stroke-width="2" d="M82,-710.9551C82,-702.8828 82,-693.1764 82,-684.1817"/>
<polygon fill="#000000" stroke="#000000" stroke-width="2" points="85.5001,-684.0903 82,-674.0904 78.5001,-684.0904 85.5001,-684.0903"/>
</g>
<!-- 0&#45;0 -->
<g id="node2" class="node">
<title>0&#45;0</title>
<ellipse fill="none" stroke="#000000" cx="82" cy="-569" rx="27" ry="18"/>
<text text-anchor="middle" x="82" y="-565.3" font-family="Times,serif" font-size="14.00" fill="#000000">0&#45;0</text>
</g>
<!-- 0&#45;0&#45;&gt;0&#45;0 -->
<g id="edge6" class="edge">
<title>0&#45;0&#45;&gt;0&#45;0</title>
<path fill="none" stroke="#000000" d="M106.5325,-576.752C117.5078,-577.4902 127,-574.9063 127,-569 127,-565.0317 122.7151,-562.5632 116.5743,-561.5944"/>
<polygon fill="#000000" stroke="#000000" points="116.6472,-558.0949 106.5325,-561.248 116.4059,-565.0908 116.6472,-558.0949"/>
<text text-anchor="middle" x="130.5" y="-565.3" font-family="Times,serif" font-size="14.00" fill="#000000">ε</text>
</g>
<!-- 0&#45;2 -->
<g id="node8" class="node">
<title>0&#45;2</title>
<ellipse fill="none" stroke="#000000" cx="27" cy="-482" rx="27" ry="18"/>
<text text-anchor="middle" x="27" y="-478.3" font-family="Times,serif" font-size="14.00" fill="#000000">0&#45;2</text>
</g>
<!-- 0&#45;0&#45;&gt;0&#45;2 -->
<g id="edge8" class="edge">
<title>0&#45;0&#45;&gt;0&#45;2</title>
<path fill="none" stroke="#000000" d="M68.2689,-553.4059C63.1747,-547.2603 57.5377,-540.0054 53,-533 48.0292,-525.326 43.2732,-516.581 39.2197,-508.5259"/>
<polygon fill="#000000" stroke="#000000" points="42.343,-506.9455 34.813,-499.4923 36.0516,-510.0145 42.343,-506.9455"/>
<text text-anchor="middle" x="56.5" y="-521.8" font-family="Times,serif" font-size="14.00" fill="#000000">ε</text>
</g>
<!-- 0&#45;1 -->
<g id="node9" class="node">
<title>0&#45;1</title>
<ellipse fill="none" stroke="#000000" cx="78" cy="-428" rx="27" ry="18"/>
<text text-anchor="middle" x="78" y="-424.3" font-family="Times,serif" font-size="14.00" fill="#000000">0&#45;1</text>
</g>
<!-- 0&#45;0&#45;&gt;0&#45;1 -->
<g id="edge5" class="edge">
<title>0&#45;0&#45;&gt;0&#45;1</title>
<path fill="none" stroke="#000000" d="M81.4853,-550.8554C80.8042,-526.8485 79.5968,-484.2861 78.7973,-456.1035"/>
<polygon fill="#000000" stroke="#000000" points="82.295,-455.9717 78.5128,-446.075 75.2978,-456.1702 82.295,-455.9717"/>
<text text-anchor="middle" x="84.5" y="-521.8" font-family="Times,serif" font-size="14.00" fill="#000000">+</text>
</g>
<!-- 0&#45;4 -->
<g id="node10" class="node">
<title>0&#45;4</title>
<ellipse fill="none" stroke="#000000" cx="90" cy="-287" rx="27" ry="18"/>
<text text-anchor="middle" x="90" y="-283.3" font-family="Times,serif" font-size="14.00" fill="#000000">0&#45;4</text>
</g>
<!-- 0&#45;0&#45;&gt;0&#45;4 -->
<g id="edge7" class="edge">
<title>0&#45;0&#45;&gt;0&#45;4</title>
<path fill="none" stroke="#000000" d="M88.0118,-551.1951C89.8017,-545.4371 91.6448,-538.9918 93,-533 113.6014,-441.9156 115.7901,-415.0406 100,-323 99.5328,-320.2769 98.9443,-317.4633 98.2877,-314.6648"/>
<polygon fill="#000000" stroke="#000000" points="101.6204,-313.5743 95.7067,-304.7835 94.8476,-315.3434 101.6204,-313.5743"/>
<text text-anchor="middle" x="113.5" y="-424.3" font-family="Times,serif" font-size="14.00" fill="#000000">ε</text>
</g>
<!-- 0&#45;3 -->
<g id="node3" class="node">
<title>0&#45;3</title>
<ellipse fill="none" stroke="#000000" cx="27" cy="-374" rx="27" ry="18"/>
<text text-anchor="middle" x="27" y="-370.3" font-family="Times,serif" font-size="14.00" fill="#000000">0&#45;3</text>
</g>
<!-- 0&#45;3&#45;&gt;0&#45;4 -->
<g id="edge11" class="edge">
<title>0&#45;3&#45;&gt;0&#45;4</title>
<path fill="none" stroke="#000000" d="M38.8498,-357.636C48.2653,-344.6336 61.5807,-326.2457 72.2656,-311.4904"/>
<polygon fill="#000000" stroke="#000000" points="75.173,-313.4429 78.2033,-303.2907 69.5034,-309.3373 75.173,-313.4429"/>
<text text-anchor="middle" x="65.5" y="-326.8" font-family="Times,serif" font-size="14.00" fill="#000000">ε</text>
</g>
<!-- 3 -->
<g id="node4" class="node">
<title>3</title>
<ellipse fill="none" stroke="#000000" cx="90" cy="-22" rx="18" ry="18"/>
<ellipse fill="none" stroke="#000000" cx="90" cy="-22" rx="22" ry="22"/>
<text text-anchor="middle" x="90" y="-18.3" font-family="Times,serif" font-size="14.00" fill="#000000">3</text>
</g>
<!-- 2 -->
<g id="node5" class="node">
<title>2</title>
<ellipse fill="none" stroke="#000000" cx="90" cy="-113" rx="27" ry="18"/>
<text text-anchor="middle" x="90" y="-109.3" font-family="Times,serif" font-size="14.00" fill="#000000">2</text>
</g>
<!-- 2&#45;&gt;3 -->
<g id="edge13" class="edge">
<title>2&#45;&gt;3</title>
<path fill="none" stroke="#000000" d="M90,-94.5848C90,-83.1105 90,-68.0231 90,-54.5774"/>
<polygon fill="#000000" stroke="#000000" points="93.5001,-54.2465 90,-44.2465 86.5001,-54.2466 93.5001,-54.2465"/>
<text text-anchor="middle" x="93.5" y="-65.8" font-family="Times,serif" font-size="14.00" fill="#000000">ε</text>
</g>
<!-- 1 -->
<g id="node6" class="node">
<title>1</title>
<ellipse fill="none" stroke="#000000" cx="90" cy="-200" rx="27" ry="18"/>
<text text-anchor="middle" x="90" y="-196.3" font-family="Times,serif" font-size="14.00" fill="#000000">1</text>
</g>
<!-- 1&#45;&gt;2 -->
<g id="edge12" class="edge">
<title>1&#45;&gt;2</title>
<path fill="none" stroke="#000000" d="M90,-181.9735C90,-170.1918 90,-154.5607 90,-141.1581"/>
<polygon fill="#000000" stroke="#000000" points="93.5001,-141.0033 90,-131.0034 86.5001,-141.0034 93.5001,-141.0033"/>
<text text-anchor="middle" x="106" y="-152.8" font-family="Times,serif" font-size="14.00" fill="#000000">:Num</text>
</g>
<!-- 0&#45;&gt;0&#45;0 -->
<g id="edge2" class="edge">
<title>0&#45;&gt;0&#45;0</title>
<path fill="none" stroke="#000000" d="M82,-637.9735C82,-626.1918 82,-610.5607 82,-597.1581"/>
<polygon fill="#000000" stroke="#000000" points="85.5001,-597.0033 82,-587.0034 78.5001,-597.0034 85.5001,-597.0033"/>
<text text-anchor="middle" x="85.5" y="-608.8" font-family="Times,serif" font-size="14.00" fill="#000000">ε</text>
</g>
<!-- 0&#45;&gt;0 -->
<g id="edge3" class="edge">
<title>0&#45;&gt;0</title>
<path fill="none" stroke="#000000" d="M107.4435,-662.6907C118.0278,-663.1521 127,-660.9219 127,-656 127,-652.77 123.136,-650.6992 117.4881,-649.7876"/>
<polygon fill="#000000" stroke="#000000" points="117.5987,-646.289 107.4435,-649.3093 117.2656,-653.2811 117.5987,-646.289"/>
<text text-anchor="middle" x="130.5" y="-652.3" font-family="Times,serif" font-size="14.00" fill="#000000">ε</text>
</g>
<!-- 0&#45;2&#45;&gt;0&#45;3 -->
<g id="edge9" class="edge">
<title>0&#45;2&#45;&gt;0&#45;3</title>
<path fill="none" stroke="#000000" d="M27,-463.6793C27,-446.821 27,-421.5651 27,-402.147"/>
<polygon fill="#000000" stroke="#000000" points="30.5001,-402.0501 27,-392.0502 23.5001,-402.0502 30.5001,-402.0501"/>
<text text-anchor="middle" x="29.5" y="-424.3" font-family="Times,serif" font-size="14.00" fill="#000000">&#45;</text>
</g>
<!-- 0&#45;1&#45;&gt;0&#45;4 -->
<g id="edge10" class="edge">
<title>0&#45;1&#45;&gt;0&#45;4</title>
<path fill="none" stroke="#000000" d="M79.5442,-409.8554C81.5874,-385.8485 85.2097,-343.2861 87.6082,-315.1035"/>
<polygon fill="#000000" stroke="#000000" points="91.101,-315.3358 88.4617,-305.075 84.1262,-314.7421 91.101,-315.3358"/>
<text text-anchor="middle" x="87.5" y="-370.3" font-family="Times,serif" font-size="14.00" fill="#000000">ε</text>
</g>
<!-- 0&#45;4&#45;&gt;1 -->
<g id="edge4" class="edge">
<title>0&#45;4&#45;&gt;1</title>
<path fill="none" stroke="#000000" d="M90,-268.9735C90,-257.1918 90,-241.5607 90,-228.1581"/>
<polygon fill="#000000" stroke="#000000" points="93.5001,-228.0033 90,-218.0034 86.5001,-228.0034 93.5001,-228.0033"/>
<text text-anchor="middle" x="93.5" y="-239.8" font-family="Times,serif" font-size="14.00" fill="#000000">ε</text>
</g>
</g>
</svg>
