<?xml version="1.0" encoding="UTF-8" standalone="no"?>
<!DOCTYPE svg PUBLIC "-//W3C//DTD SVG 1.1//EN"
 "http://www.w3.org/Graphics/SVG/1.1/DTD/svg11.dtd">
<!-- Generated by graphviz version 2.40.1 (20161225.0304)
 -->
<!-- Title: %3 Pages: 1 -->
<svg width="258pt" height="1124pt"
 viewBox="0.00 0.00 258.00 1124.00" xmlns="http://www.w3.org/2000/svg" xmlns:xlink="http://www.w3.org/1999/xlink">
<g id="graph0" class="graph" transform="scale(1 1) rotate(0) translate(4 1120)">
<title>%3</title>
<polygon fill="#ffffff" stroke="transparent" points="-4,4 -4,-1120 254,-1120 254,4 -4,4"/>
<!-- fake0 -->
<g id="node1" class="node">
<title>fake0</title>
</g>
<!-- 0 -->
<g id="node12" class="node">
<title>0</title>
<ellipse fill="none" stroke="#000000" cx="186" cy="-1025" rx="27" ry="18"/>
<text text-anchor="middle" x="186" y="-1021.3" font-family="Times,serif" font-size="14.00" fill="#000000">0</text>
</g>
<!-- fake0&#45;&gt;0 -->
<g id="edge1" class="edge">
<title>fake0&#45;&gt;0</title>
<path fill="none" stroke="#000000" stroke-width="2" d="M186,-1079.9551C186,-1071.8828 186,-1062.1764 186,-1053.1817"/>
<polygon fill="#000000" stroke="#000000" stroke-width="2" points="189.5001,-1053.0903 186,-1043.0904 182.5001,-1053.0904 189.5001,-1053.0903"/>
</g>
<!-- 4&#45;2&#45;0 -->
<g id="node2" class="node">
<title>4&#45;2&#45;0</title>
<ellipse fill="none" stroke="#000000" cx="130" cy="-461" rx="29.795" ry="18"/>
<text text-anchor="middle" x="130" y="-457.3" font-family="Times,serif" font-size="14.00" fill="#000000">4&#45;2&#45;0</text>
</g>
<!-- 4&#45;2&#45;0&#45;&gt;4&#45;2&#45;0 -->
<g id="edge14" class="edge">
<title>4&#45;2&#45;0&#45;&gt;4&#45;2&#45;0</title>
<path fill="none" stroke="#000000" d="M157.0817,-468.8058C168.3475,-469.3441 177.8973,-466.7422 177.8973,-461 177.8973,-457.142 173.5864,-454.7015 167.3405,-453.6786"/>
<polygon fill="#000000" stroke="#000000" points="167.2356,-450.1698 157.0817,-453.1942 166.9054,-457.162 167.2356,-450.1698"/>
<text text-anchor="middle" x="181.3973" y="-457.3" font-family="Times,serif" font-size="14.00" fill="#000000">ε</text>
</g>
<!-- 4&#45;2&#45;1 -->
<g id="node6" class="node">
<title>4&#45;2&#45;1</title>
<ellipse fill="none" stroke="#000000" cx="130" cy="-374" rx="29.795" ry="18"/>
<text text-anchor="middle" x="130" y="-370.3" font-family="Times,serif" font-size="14.00" fill="#000000">4&#45;2&#45;1</text>
</g>
<!-- 4&#45;2&#45;0&#45;&gt;4&#45;2&#45;1 -->
<g id="edge16" class="edge">
<title>4&#45;2&#45;0&#45;&gt;4&#45;2&#45;1</title>
<path fill="none" stroke="#000000" d="M130,-442.9735C130,-431.1918 130,-415.5607 130,-402.1581"/>
<polygon fill="#000000" stroke="#000000" points="133.5001,-402.0033 130,-392.0034 126.5001,-402.0034 133.5001,-402.0033"/>
<text text-anchor="middle" x="132" y="-413.8" font-family="Times,serif" font-size="14.00" fill="#000000">,</text>
</g>
<!-- 4&#45;3 -->
<g id="node14" class="node">
<title>4&#45;3</title>
<ellipse fill="none" stroke="#000000" cx="55" cy="-374" rx="27" ry="18"/>
<text text-anchor="middle" x="55" y="-370.3" font-family="Times,serif" font-size="14.00" fill="#000000">4&#45;3</text>
</g>
<!-- 4&#45;2&#45;0&#45;&gt;4&#45;3 -->
<g id="edge15" class="edge">
<title>4&#45;2&#45;0&#45;&gt;4&#45;3</title>
<path fill="none" stroke="#000000" d="M115.8931,-444.636C104.4362,-431.346 88.1289,-412.4295 75.2729,-397.5166"/>
<polygon fill="#000000" stroke="#000000" points="77.7189,-394.9935 68.5385,-389.7047 72.417,-399.5641 77.7189,-394.9935"/>
<text text-anchor="middle" x="99.5" y="-413.8" font-family="Times,serif" font-size="14.00" fill="#000000">ε</text>
</g>
<!-- 3 -->
<g id="node3" class="node">
<title>3</title>
<ellipse fill="none" stroke="#000000" cx="157" cy="-938" rx="27" ry="18"/>
<text text-anchor="middle" x="157" y="-934.3" font-family="Times,serif" font-size="14.00" fill="#000000">3</text>
</g>
<!-- 4 -->
<g id="node11" class="node">
<title>4</title>
<ellipse fill="none" stroke="#000000" cx="154" cy="-830" rx="27" ry="18"/>
<text text-anchor="middle" x="154" y="-826.3" font-family="Times,serif" font-size="14.00" fill="#000000">4</text>
</g>
<!-- 3&#45;&gt;4 -->
<g id="edge6" class="edge">
<title>3&#45;&gt;4</title>
<path fill="none" stroke="#000000" d="M154.0186,-920.1056C153.1917,-914.3428 152.409,-907.9173 152,-902 150.9999,-887.5299 151.3167,-871.3912 151.9623,-858.0667"/>
<polygon fill="#000000" stroke="#000000" points="155.4573,-858.2525 152.5317,-848.0696 148.4686,-857.8544 155.4573,-858.2525"/>
<text text-anchor="middle" x="166" y="-880.3" font-family="Times,serif" font-size="14.00" fill="#000000">letter</text>
</g>
<!-- 4&#45;2&#45;3 -->
<g id="node4" class="node">
<title>4&#45;2&#45;3</title>
<ellipse fill="none" stroke="#000000" cx="149" cy="-200" rx="29.795" ry="18"/>
<text text-anchor="middle" x="149" y="-196.3" font-family="Times,serif" font-size="14.00" fill="#000000">4&#45;2&#45;3</text>
</g>
<!-- 4&#45;2&#45;3&#45;&gt;4&#45;2&#45;0 -->
<g id="edge19" class="edge">
<title>4&#45;2&#45;3&#45;&gt;4&#45;2&#45;0</title>
<path fill="none" stroke="#000000" d="M155.5855,-217.5687C160.3788,-231.3366 166.4574,-251.0949 169,-269 176.6858,-323.1237 182.9071,-339.1319 169,-392 164.8874,-407.6343 156.3357,-423.4508 148.2855,-435.9896"/>
<polygon fill="#000000" stroke="#000000" points="145.2469,-434.2365 142.583,-444.491 151.0603,-438.136 145.2469,-434.2365"/>
<text text-anchor="middle" x="180.5" y="-326.8" font-family="Times,serif" font-size="14.00" fill="#000000">ε</text>
</g>
<!-- 4&#45;1 -->
<g id="node5" class="node">
<title>4&#45;1</title>
<ellipse fill="none" stroke="#000000" cx="130" cy="-635" rx="27" ry="18"/>
<text text-anchor="middle" x="130" y="-631.3" font-family="Times,serif" font-size="14.00" fill="#000000">4&#45;1</text>
</g>
<!-- 4&#45;2 -->
<g id="node9" class="node">
<title>4&#45;2</title>
<ellipse fill="none" stroke="#000000" cx="130" cy="-548" rx="27" ry="18"/>
<text text-anchor="middle" x="130" y="-544.3" font-family="Times,serif" font-size="14.00" fill="#000000">4&#45;2</text>
</g>
<!-- 4&#45;1&#45;&gt;4&#45;2 -->
<g id="edge12" class="edge">
<title>4&#45;1&#45;&gt;4&#45;2</title>
<path fill="none" stroke="#000000" d="M130,-616.9735C130,-605.1918 130,-589.5607 130,-576.1581"/>
<polygon fill="#000000" stroke="#000000" points="133.5001,-576.0033 130,-566.0034 126.5001,-576.0034 133.5001,-576.0033"/>
<text text-anchor="middle" x="143" y="-587.8" font-family="Times,serif" font-size="14.00" fill="#000000">:Exp</text>
</g>
<!-- 4&#45;2&#45;2 -->
<g id="node16" class="node">
<title>4&#45;2&#45;2</title>
<ellipse fill="none" stroke="#000000" cx="130" cy="-287" rx="29.795" ry="18"/>
<text text-anchor="middle" x="130" y="-283.3" font-family="Times,serif" font-size="14.00" fill="#000000">4&#45;2&#45;2</text>
</g>
<!-- 4&#45;2&#45;1&#45;&gt;4&#45;2&#45;2 -->
<g id="edge17" class="edge">
<title>4&#45;2&#45;1&#45;&gt;4&#45;2&#45;2</title>
<path fill="none" stroke="#000000" d="M130,-355.9735C130,-344.1918 130,-328.5607 130,-315.1581"/>
<polygon fill="#000000" stroke="#000000" points="133.5001,-315.0033 130,-305.0034 126.5001,-315.0034 133.5001,-315.0033"/>
<text text-anchor="middle" x="143" y="-326.8" font-family="Times,serif" font-size="14.00" fill="#000000">:Exp</text>
</g>
<!-- 2 -->
<g id="node7" class="node">
<title>2</title>
<ellipse fill="none" stroke="#000000" cx="223" cy="-776" rx="27" ry="18"/>
<text text-anchor="middle" x="223" y="-772.3" font-family="Times,serif" font-size="14.00" fill="#000000">2</text>
</g>
<!-- 6 -->
<g id="node15" class="node">
<title>6</title>
<ellipse fill="none" stroke="#000000" cx="199" cy="-22" rx="18" ry="18"/>
<ellipse fill="none" stroke="#000000" cx="199" cy="-22" rx="22" ry="22"/>
<text text-anchor="middle" x="199" y="-18.3" font-family="Times,serif" font-size="14.00" fill="#000000">6</text>
</g>
<!-- 2&#45;&gt;6 -->
<g id="edge22" class="edge">
<title>2&#45;&gt;6</title>
<path fill="none" stroke="#000000" d="M223.9001,-757.6758C224.7838,-738.0837 226,-706.1042 226,-678.5 226,-678.5 226,-678.5 226,-113 226,-91.9232 219.2607,-69.1925 212.5161,-51.7214"/>
<polygon fill="#000000" stroke="#000000" points="215.6088,-50.0358 208.5952,-42.0948 209.1259,-52.6763 215.6088,-50.0358"/>
<text text-anchor="middle" x="229.5" y="-413.8" font-family="Times,serif" font-size="14.00" fill="#000000">ε</text>
</g>
<!-- 5 -->
<g id="node8" class="node">
<title>5</title>
<ellipse fill="none" stroke="#000000" cx="142" cy="-113" rx="27" ry="18"/>
<text text-anchor="middle" x="142" y="-109.3" font-family="Times,serif" font-size="14.00" fill="#000000">5</text>
</g>
<!-- 5&#45;&gt;6 -->
<g id="edge23" class="edge">
<title>5&#45;&gt;6</title>
<path fill="none" stroke="#000000" d="M152.4547,-96.3092C160.6759,-83.1842 172.3003,-64.6259 181.8753,-49.3394"/>
<polygon fill="#000000" stroke="#000000" points="184.8927,-51.1155 187.2349,-40.7828 178.9604,-47.3996 184.8927,-51.1155"/>
<text text-anchor="middle" x="176.5" y="-65.8" font-family="Times,serif" font-size="14.00" fill="#000000">ε</text>
</g>
<!-- 4&#45;2&#45;&gt;4&#45;2&#45;0 -->
<g id="edge13" class="edge">
<title>4&#45;2&#45;&gt;4&#45;2&#45;0</title>
<path fill="none" stroke="#000000" d="M130,-529.9735C130,-518.1918 130,-502.5607 130,-489.1581"/>
<polygon fill="#000000" stroke="#000000" points="133.5001,-489.0033 130,-479.0034 126.5001,-489.0034 133.5001,-489.0033"/>
<text text-anchor="middle" x="133.5" y="-500.8" font-family="Times,serif" font-size="14.00" fill="#000000">ε</text>
</g>
<!-- 1 -->
<g id="node10" class="node">
<title>1</title>
<ellipse fill="none" stroke="#000000" cx="216" cy="-884" rx="27" ry="18"/>
<text text-anchor="middle" x="216" y="-880.3" font-family="Times,serif" font-size="14.00" fill="#000000">1</text>
</g>
<!-- 1&#45;&gt;2 -->
<g id="edge5" class="edge">
<title>1&#45;&gt;2</title>
<path fill="none" stroke="#000000" d="M217.1875,-865.6793C218.2801,-848.821 219.9171,-823.5651 221.1757,-804.147"/>
<polygon fill="#000000" stroke="#000000" points="224.6759,-804.2556 221.8301,-794.0502 217.6905,-803.8028 224.6759,-804.2556"/>
<text text-anchor="middle" x="232.5" y="-826.3" font-family="Times,serif" font-size="14.00" fill="#000000">digit</text>
</g>
<!-- 4&#45;0 -->
<g id="node17" class="node">
<title>4&#45;0</title>
<ellipse fill="none" stroke="#000000" cx="130" cy="-722" rx="27" ry="18"/>
<text text-anchor="middle" x="130" y="-718.3" font-family="Times,serif" font-size="14.00" fill="#000000">4&#45;0</text>
</g>
<!-- 4&#45;&gt;4&#45;0 -->
<g id="edge7" class="edge">
<title>4&#45;&gt;4&#45;0</title>
<path fill="none" stroke="#000000" d="M150.0369,-812.166C146.2675,-795.2038 140.5401,-769.4307 136.1727,-749.7773"/>
<polygon fill="#000000" stroke="#000000" points="139.555,-748.8631 133.969,-739.8605 132.7217,-750.3817 139.555,-748.8631"/>
<text text-anchor="middle" x="148.5" y="-772.3" font-family="Times,serif" font-size="14.00" fill="#000000">ε</text>
</g>
<!-- 0&#45;&gt;3 -->
<g id="edge3" class="edge">
<title>0&#45;&gt;3</title>
<path fill="none" stroke="#000000" d="M180.1314,-1007.3943C176.0827,-995.2482 170.6225,-978.8674 166.0237,-965.0711"/>
<polygon fill="#000000" stroke="#000000" points="169.3426,-963.9596 162.8599,-955.5796 162.7018,-966.1732 169.3426,-963.9596"/>
<text text-anchor="middle" x="176.5" y="-977.8" font-family="Times,serif" font-size="14.00" fill="#000000">ε</text>
</g>
<!-- 0&#45;&gt;1 -->
<g id="edge2" class="edge">
<title>0&#45;&gt;1</title>
<path fill="none" stroke="#000000" d="M189.7995,-1007.1423C194.8885,-983.2241 203.9735,-940.5245 209.9939,-912.2285"/>
<polygon fill="#000000" stroke="#000000" points="213.4788,-912.6676 212.1366,-902.1581 206.632,-911.2108 213.4788,-912.6676"/>
<text text-anchor="middle" x="210" y="-977.8" font-family="Times,serif" font-size="14.00" fill="#000000">letter</text>
</g>
<!-- 0&#45;&gt;0 -->
<g id="edge4" class="edge">
<title>0&#45;&gt;0</title>
<path fill="none" stroke="#000000" d="M211.4435,-1031.6907C222.0278,-1032.1521 231,-1029.9219 231,-1025 231,-1021.77 227.136,-1019.6992 221.4881,-1018.7876"/>
<polygon fill="#000000" stroke="#000000" points="221.5987,-1015.289 211.4435,-1018.3093 221.2656,-1022.2811 221.5987,-1015.289"/>
<text text-anchor="middle" x="234.5" y="-1021.3" font-family="Times,serif" font-size="14.00" fill="#000000">ε</text>
</g>
<!-- 4&#45;4 -->
<g id="node13" class="node">
<title>4&#45;4</title>
<ellipse fill="none" stroke="#000000" cx="55" cy="-287" rx="27" ry="18"/>
<text text-anchor="middle" x="55" y="-283.3" font-family="Times,serif" font-size="14.00" fill="#000000">4&#45;4</text>
</g>
<!-- 4&#45;5 -->
<g id="node18" class="node">
<title>4&#45;5</title>
<ellipse fill="none" stroke="#000000" cx="55" cy="-200" rx="27" ry="18"/>
<text text-anchor="middle" x="55" y="-196.3" font-family="Times,serif" font-size="14.00" fill="#000000">4&#45;5</text>
</g>
<!-- 4&#45;4&#45;&gt;4&#45;5 -->
<g id="edge21" class="edge">
<title>4&#45;4&#45;&gt;4&#45;5</title>
<path fill="none" stroke="#000000" d="M55,-268.9735C55,-257.1918 55,-241.5607 55,-228.1581"/>
<polygon fill="#000000" stroke="#000000" points="58.5001,-228.0033 55,-218.0034 51.5001,-228.0034 58.5001,-228.0033"/>
<text text-anchor="middle" x="58.5" y="-239.8" font-family="Times,serif" font-size="14.00" fill="#000000">ε</text>
</g>
<!-- 4&#45;3&#45;&gt;4&#45;4 -->
<g id="edge20" class="edge">
<title>4&#45;3&#45;&gt;4&#45;4</title>
<path fill="none" stroke="#000000" d="M55,-355.9735C55,-344.1918 55,-328.5607 55,-315.1581"/>
<polygon fill="#000000" stroke="#000000" points="58.5001,-315.0033 55,-305.0034 51.5001,-315.0034 58.5001,-315.0033"/>
<text text-anchor="middle" x="57.5" y="-326.8" font-family="Times,serif" font-size="14.00" fill="#000000">)</text>
</g>
<!-- 4&#45;2&#45;2&#45;&gt;4&#45;2&#45;3 -->
<g id="edge18" class="edge">
<title>4&#45;2&#45;2&#45;&gt;4&#45;2&#45;3</title>
<path fill="none" stroke="#000000" d="M133.9368,-268.9735C136.5098,-257.1918 139.9235,-241.5607 142.8505,-228.1581"/>
<polygon fill="#000000" stroke="#000000" points="146.3539,-228.5199 145.0682,-218.0034 139.5151,-227.0263 146.3539,-228.5199"/>
<text text-anchor="middle" x="143.5" y="-239.8" font-family="Times,serif" font-size="14.00" fill="#000000">ε</text>
</g>
<!-- 4&#45;0&#45;&gt;4&#45;1 -->
<g id="edge9" class="edge">
<title>4&#45;0&#45;&gt;4&#45;1</title>
<path fill="none" stroke="#000000" d="M130,-703.9735C130,-692.1918 130,-676.5607 130,-663.1581"/>
<polygon fill="#000000" stroke="#000000" points="133.5001,-663.0033 130,-653.0034 126.5001,-663.0034 133.5001,-663.0033"/>
<text text-anchor="middle" x="132.5" y="-674.8" font-family="Times,serif" font-size="14.00" fill="#000000">(</text>
</g>
<!-- 4&#45;0&#45;&gt;4&#45;0 -->
<g id="edge10" class="edge">
<title>4&#45;0&#45;&gt;4&#45;0</title>
<path fill="none" stroke="#000000" d="M154.5325,-729.752C165.5078,-730.4902 175,-727.9063 175,-722 175,-718.0317 170.7151,-715.5632 164.5743,-714.5944"/>
<polygon fill="#000000" stroke="#000000" points="164.6472,-711.0949 154.5325,-714.248 164.4059,-718.0908 164.6472,-711.0949"/>
<text text-anchor="middle" x="178.5" y="-718.3" font-family="Times,serif" font-size="14.00" fill="#000000">ε</text>
</g>
<!-- 4&#45;0&#45;&gt;4&#45;5 -->
<g id="edge11" class="edge">
<title>4&#45;0&#45;&gt;4&#45;5</title>
<path fill="none" stroke="#000000" d="M104.005,-716.8598C66.0677,-707.6739 0,-684.562 0,-635 0,-635 0,-635 0,-287 0,-261.969 16.4673,-238.2826 31.3808,-221.9638"/>
<polygon fill="#000000" stroke="#000000" points="34.084,-224.2024 38.4982,-214.5709 29.0412,-219.3475 34.084,-224.2024"/>
<text text-anchor="middle" x="3.5" y="-457.3" font-family="Times,serif" font-size="14.00" fill="#000000">ε</text>
</g>
<!-- 4&#45;5&#45;&gt;5 -->
<g id="edge8" class="edge">
<title>4&#45;5&#45;&gt;5</title>
<path fill="none" stroke="#000000" d="M70.1542,-184.8458C83.877,-171.123 104.2658,-150.7342 119.8216,-135.1784"/>
<polygon fill="#000000" stroke="#000000" points="122.4232,-137.5266 127.0194,-127.9806 117.4734,-132.5768 122.4232,-137.5266"/>
<text text-anchor="middle" x="106.5" y="-152.8" font-family="Times,serif" font-size="14.00" fill="#000000">ε</text>
</g>
</g>
</svg>
